<?xml version="1.0" encoding="UTF-8" standalone="no"?>
<!-- Created with Inkscape (http://www.inkscape.org/) -->

<svg
   width="9.3716249cm"
   height="9.5212479cm"
   viewBox="0 0 93.716248 95.212479"
   version="1.1"
   id="svg1"
   inkscape:version="1.3.2 (1:1.3.2+202311252150+091e20ef0f)"
   sodipodi:docname="benchmark3.svg"
   xmlns:inkscape="http://www.inkscape.org/namespaces/inkscape"
   xmlns:sodipodi="http://sodipodi.sourceforge.net/DTD/sodipodi-0.dtd"
   xmlns="http://www.w3.org/2000/svg"
   xmlns:svg="http://www.w3.org/2000/svg">
  <sodipodi:namedview
     id="namedview1"
     pagecolor="#ffffff"
     bordercolor="#666666"
     borderopacity="1.0"
     inkscape:showpageshadow="2"
     inkscape:pageopacity="0.0"
     inkscape:pagecheckerboard="0"
     inkscape:deskcolor="#d1d1d1"
     inkscape:document-units="mm"
     inkscape:zoom="1.28"
     inkscape:cx="167.96875"
     inkscape:cy="104.6875"
     inkscape:window-width="1850"
     inkscape:window-height="1136"
     inkscape:window-x="70"
     inkscape:window-y="1107"
     inkscape:window-maximized="1"
     inkscape:current-layer="layer1"
     inkscape:pageshadow="2"
     showgrid="false" />
  <defs
     id="defs1">
    <marker
       style="overflow:visible"
       id="marker31"
       refX="0"
       refY="0"
       orient="auto-start-reverse"
       inkscape:stockid="Triangle arrow"
       markerWidth="1"
       markerHeight="1"
       viewBox="0 0 1 1"
       inkscape:isstock="true"
       inkscape:collect="always"
       preserveAspectRatio="xMidYMid">
      <path
         transform="scale(0.5)"
         style="fill:context-stroke;fill-rule:evenodd;stroke:context-stroke;stroke-width:1pt"
         d="M 5.77,0 -2.88,5 V -5 Z"
         id="path31" />
    </marker>
    <marker
       style="overflow:visible"
       id="Triangle"
       refX="0"
       refY="0"
       orient="auto-start-reverse"
       inkscape:stockid="Triangle arrow"
       markerWidth="1"
       markerHeight="1"
       viewBox="0 0 1 1"
       inkscape:isstock="true"
       inkscape:collect="always"
       preserveAspectRatio="xMidYMid">
      <path
         transform="scale(0.5)"
         style="fill:context-stroke;fill-rule:evenodd;stroke:context-stroke;stroke-width:1pt"
         d="M 5.77,0 -2.88,5 V -5 Z"
         id="path135" />
    </marker>
    <marker
       style="overflow:visible"
       id="ConcaveTriangle"
       refX="0"
       refY="0"
       orient="auto-start-reverse"
       inkscape:stockid="Concave triangle arrow"
       markerWidth="1"
       markerHeight="1"
       viewBox="0 0 1 1"
       inkscape:isstock="true"
       inkscape:collect="always"
       preserveAspectRatio="xMidYMid">
      <path
         transform="scale(0.7)"
         d="M -2,-4 9,0 -2,4 c 2,-2.33 2,-5.66 0,-8 z"
         style="fill:context-stroke;fill-rule:evenodd;stroke:none"
         id="path18" />
    </marker>
  </defs>
  <g
     inkscape:label="Capa 1"
     inkscape:groupmode="layer"
     id="layer1"
     transform="translate(-97.026905,-23.906707)">
    <path
       d="m 111.11281,75.25719 h 55.17462 v 24.77648 h -55.17462 z"
       style="fill:#bf8c53;fill-opacity:0.2543;fill-rule:evenodd;stroke:none;stroke-width:0.431684"
       id="path1124" />
    <path
       style="fill:none;stroke:#000000;stroke-width:0.249264;stroke-linecap:butt;stroke-linejoin:miter;stroke-dasharray:none;stroke-opacity:1"
       d="m 111.1898,75.25719 h 55.09763"
       id="path1" />
    <path
       style="fill:none;fill-opacity:1;stroke:#a31a07;stroke-width:0.249962;stroke-linecap:butt;stroke-linejoin:miter;stroke-dasharray:none;stroke-opacity:1"
       d="m 111.01283,27.325263 h 55.48819"
       id="path6" />
    <path
       style="fill:none;stroke:#000000;stroke-width:0.249948;stroke-linecap:butt;stroke-linejoin:miter;stroke-dasharray:none;stroke-opacity:1"
       d="M 111.13771,75.26894 V 27.194357"
       id="path7" />
    <path
       style="fill:none;stroke:#000000;stroke-width:0.25;stroke-linecap:butt;stroke-linejoin:miter;stroke-dasharray:none;stroke-opacity:1"
       d="m 111.14402,75.378816 v 24.516169 h 55.25582 v -24.76274"
       id="path8" />
    <path
       style="fill:none;stroke:#000000;stroke-width:0.250111;stroke-linecap:butt;stroke-linejoin:miter;stroke-dasharray:none;stroke-opacity:1"
       d="M 166.39939,75.326551 V 27.1894"
       id="path9" />
    <text
       xml:space="preserve"
       style="font-size:6.35px;line-height:1.25;font-family:sans-serif;-inkscape-font-specification:'sans-serif, ';font-variant-ligatures:none;stroke-width:0.264583"
       x="102.61162"
       y="58.844952"
       id="text9"><tspan
         sodipodi:role="line"
         id="tspan9"
         style="stroke-width:0.264583"
         x="102.61162"
         y="58.844952" /></text>
    <text
       xml:space="preserve"
       style="font-size:3.88056px;line-height:1.25;font-family:sans-serif;-inkscape-font-specification:'sans-serif, ';font-variant-ligatures:none;stroke-width:0.264583"
       x="101.54058"
       y="32.953548"
       id="text10"><tspan
         sodipodi:role="line"
         id="tspan10"
         style="stroke-width:0.264583"
         x="101.54058"
         y="32.953548" /></text>
    <path
       style="fill:none;fill-opacity:1;stroke:#6d121b;stroke-width:0.265;stroke-linecap:butt;stroke-linejoin:miter;stroke-dasharray:none;stroke-opacity:1;marker-end:url(#ConcaveTriangle)"
       d="M 111.13022,100.02734 V 97.730546"
       id="path4" />
    <path
       style="fill:none;fill-opacity:1;stroke:#6d121b;stroke-width:0.265;stroke-linecap:butt;stroke-linejoin:miter;stroke-dasharray:none;stroke-opacity:1;marker-end:url(#ConcaveTriangle)"
       d="m 111.00017,99.909787 2.29669,-0.02187"
       id="path20" />
    <path
       style="fill:none;fill-opacity:1;stroke:#6d121b;stroke-width:0.265;stroke-linecap:butt;stroke-linejoin:miter;stroke-dasharray:none;stroke-opacity:1;marker-end:url(#ConcaveTriangle)"
       d="M 111.22388,99.714257 109.7009,101.4335"
       id="path22" />
    <path
       style="fill:none;stroke:#000000;stroke-width:0.25;stroke-linecap:butt;stroke-linejoin:miter;stroke-dasharray:0.500001, 0.25;stroke-dashoffset:0;stroke-opacity:1;marker-start:url(#Triangle);marker-end:url(#Triangle)"
       d="M 181.94374,98.777354 V 75.927611"
       id="path23" />
    <path
       style="fill:none;stroke:#000000;stroke-width:0.25;stroke-linecap:butt;stroke-linejoin:miter;stroke-dasharray:0.500001, 0.25;stroke-dashoffset:0;stroke-opacity:1;marker-start:url(#Triangle);marker-end:url(#Triangle)"
       d="M 181.91004,74.173458 V 27.755659"
       id="path24" />
    <path
       style="fill:none;stroke:#000000;stroke-width:0.264583px;stroke-linecap:butt;stroke-linejoin:miter;stroke-dasharray:0.529166, 0.264583;stroke-dashoffset:0;stroke-opacity:1;marker-start:url(#marker31);marker-end:url(#Triangle)"
       d="m 111.18056,117.77573 h 54.37783"
       id="path35" />
    <g
       id="g55"
       transform="matrix(0.352778,0,0,0.352778,136.21939,114.12718)">
      <g
         style="fill:#000000;fill-opacity:1"
         id="g3">
        <g
           id="use2"
           transform="translate(1.993,9.4469995)">
          <path
             style="stroke:none"
             d="m 4.078125,-6.59375 c 0.09375,-0.390625 0.125,-0.515625 1.15625,-0.515625 0.328125,0 0.421875,0 0.421875,-0.203125 0,-0.140625 -0.125,-0.140625 -0.1875,-0.140625 -0.359375,0 -1.25,0.03125 -1.609375,0.03125 -0.328125,0 -1.125,-0.03125 -1.453125,-0.03125 -0.078125,0 -0.203125,0 -0.203125,0.21875 0,0.125 0.09375,0.125 0.3125,0.125 0.015625,0 0.21875,0 0.40625,0.015625 0.203125,0.03125 0.296875,0.03125 0.296875,0.171875 0,0.046875 -0.015625,0.078125 -0.046875,0.21875 L 1.71875,-0.84375 c -0.109375,0.421875 -0.140625,0.5 -1,0.5 -0.1875,0 -0.296875,0 -0.296875,0.21875 C 0.421875,0 0.53125,0 0.71875,0 h 5.046875 c 0.265625,0 0.28125,0 0.34375,-0.1875 L 6.96875,-2.546875 C 7.015625,-2.65625 7.015625,-2.6875 7.015625,-2.6875 c 0,-0.046875 -0.03125,-0.125 -0.140625,-0.125 -0.09375,0 -0.109375,0.046875 -0.171875,0.234375 -0.375,1 -0.859375,2.234375 -2.75,2.234375 H 2.9375 c -0.15625,0 -0.171875,0 -0.25,0 C 2.578125,-0.359375 2.546875,-0.375 2.546875,-0.453125 c 0,-0.03125 0,-0.0625 0.0625,-0.25 z m 0,0"
             id="path37" />
        </g>
      </g>
    </g>
    <g
       inkscape:label=""
       transform="translate(136.55828,52.925569)"
       id="g62">
      <g
         id="g61"
         transform="matrix(0.352778,0,0,0.352778,-0.873963,-0.620712)">
        <g
           style="fill:#000000;fill-opacity:1"
           id="g57">
          <g
             id="g56"
             transform="translate(1.993,9.4469995)">
            <path
               style="stroke:none"
               d="m 7.390625,-1.765625 h -0.28125 c -0.046875,0.28125 -0.09375,0.53125 -0.1875,0.796875 -0.0625,0.171875 -0.09375,0.265625 -0.734375,0.265625 H 5.328125 C 5.46875,-1.3125 5.796875,-1.84375 6.296875,-2.5625 6.8125,-3.34375 7.25,-4.09375 7.25,-4.953125 7.25,-6.46875 5.78125,-7.6875 3.9375,-7.6875 c -1.875,0 -3.328125,1.234375 -3.328125,2.734375 0,0.859375 0.453125,1.609375 0.96875,2.390625 0.46875,0.71875 0.828125,1.25 0.96875,1.859375 h -0.875 c -0.640625,0 -0.671875,-0.09375 -0.71875,-0.25 C 0.859375,-1.203125 0.8125,-1.5 0.75,-1.765625 H 0.484375 L 0.84375,0 h 1.734375 c 0.25,0 0.28125,0 0.28125,-0.234375 0,-0.765625 -0.34375,-1.71875 -0.59375,-2.421875 -0.21875,-0.625 -0.53125,-1.484375 -0.53125,-2.3125 0,-1.734375 1.203125,-2.484375 2.1875,-2.484375 1.046875,0 2.203125,0.796875 2.203125,2.484375 0,0.828125 -0.296875,1.65625 -0.609375,2.546875 C 5.359375,-1.96875 5,-0.984375 5,-0.234375 5,0 5.03125,0 5.296875,0 H 7.03125 Z m 0,0"
               id="path39" />
          </g>
        </g>
        <g
           style="fill:#000000;fill-opacity:1"
           id="g60">
          <g
             id="g59"
             transform="translate(9.8710003,11.135)">
            <path
               style="stroke:none"
               d="M 4.9375,-5.421875 H 0.34375 v 0.265625 h 0.1875 c 0.609375,0 0.625,0.09375 0.625,0.390625 v 4.125 c 0,0.296875 -0.015625,0.375 -0.625,0.375 H 0.34375 V 0 c 0.6875,-0.03125 0.703125,-0.03125 1.234375,-0.03125 0.375,0 0.953125,0 1.3125,0.03125 v -0.265625 h -0.25 c -0.75,0 -0.75,-0.109375 -0.75,-0.390625 V -2.578125 H 2.625 c 0.78125,0 0.875,0.25 0.875,0.921875 h 0.25 v -2.125 H 3.5 c 0,0.6875 -0.09375,0.9375 -0.875,0.9375 H 1.890625 v -1.984375 c 0,-0.265625 0.015625,-0.328125 0.375,-0.328125 h 1.0625 c 1.296875,0 1.453125,0.5 1.59375,1.546875 H 5.15625 Z m 0,0"
               id="path57" />
          </g>
        </g>
      </g>
    </g>
    <g
       inkscape:label=""
       transform="translate(136.53623,85.922379)"
       id="g63">
      <g
         id="surface2"
         transform="matrix(0.352778,0,0,0.352778,-0.873963,-0.620712)">
        <g
           style="fill:#000000;fill-opacity:1"
           id="g5">
          <g
             id="use4"
             transform="translate(1.993,9.4469995)">
            <path
               style="stroke:none"
               d="m 7.390625,-1.765625 h -0.28125 c -0.046875,0.28125 -0.09375,0.53125 -0.1875,0.796875 -0.0625,0.171875 -0.09375,0.265625 -0.734375,0.265625 H 5.328125 C 5.46875,-1.3125 5.796875,-1.84375 6.296875,-2.5625 6.8125,-3.34375 7.25,-4.09375 7.25,-4.953125 7.25,-6.46875 5.78125,-7.6875 3.9375,-7.6875 c -1.875,0 -3.328125,1.234375 -3.328125,2.734375 0,0.859375 0.453125,1.609375 0.96875,2.390625 0.46875,0.71875 0.828125,1.25 0.96875,1.859375 h -0.875 c -0.640625,0 -0.671875,-0.09375 -0.71875,-0.25 C 0.859375,-1.203125 0.8125,-1.5 0.75,-1.765625 H 0.484375 L 0.84375,0 h 1.734375 c 0.25,0 0.28125,0 0.28125,-0.234375 0,-0.765625 -0.34375,-1.71875 -0.59375,-2.421875 -0.21875,-0.625 -0.53125,-1.484375 -0.53125,-2.3125 0,-1.734375 1.203125,-2.484375 2.1875,-2.484375 1.046875,0 2.203125,0.796875 2.203125,2.484375 0,0.828125 -0.296875,1.65625 -0.609375,2.546875 C 5.359375,-1.96875 5,-0.984375 5,-0.234375 5,0 5.03125,0 5.296875,0 H 7.03125 Z m 0,0"
               id="path62" />
          </g>
        </g>
        <g
           style="fill:#000000;fill-opacity:1"
           id="g6">
          <g
             id="use5"
             transform="translate(9.8710003,11.135)">
            <path
               style="stroke:none"
               d="m 1.90625,-2.484375 h 1.453125 c 0.96875,0 1.921875,-0.625 1.921875,-1.46875 0,-0.78125 -0.84375,-1.484375 -1.984375,-1.484375 h -2.9375 v 0.265625 h 0.1875 c 0.609375,0 0.625,0.078125 0.625,0.375 v 4.15625 c 0,0.296875 -0.015625,0.375 -0.625,0.375 h -0.1875 V 0 c 0.6875,-0.03125 0.703125,-0.03125 1.171875,-0.03125 0.484375,0 0.5,0 1.171875,0.03125 V -0.265625 H 2.53125 c -0.609375,0 -0.625,-0.078125 -0.625,-0.375 z M 1.875,-2.71875 v -2.140625 c 0,-0.265625 0.015625,-0.3125 0.390625,-0.3125 H 3.09375 c 1.359375,0 1.359375,0.859375 1.359375,1.21875 0,0.34375 0,1.234375 -1.359375,1.234375 z m 0,0"
               id="path63" />
          </g>
        </g>
      </g>
    </g>
    <g
       inkscape:label=""
       transform="translate(114.19149,70.362655)"
       id="g71">
      <g
         id="g70"
         transform="matrix(0.352778,0,0,0.352778,0.88172383,-0.72814673)">
        <g
           style="fill:#000000;fill-opacity:1"
           id="g65">
          <g
             id="g64"
             transform="translate(1.993,11.395)">
            <path
               style="stroke:none"
               d="m 6.046875,-7.421875 h -5.6875 v 0.34375 H 0.625 c 0.84375,0 0.859375,0.125 0.859375,0.515625 v 5.71875 c 0,0.390625 -0.015625,0.5 -0.859375,0.5 H 0.359375 V 0 c 0.375,-0.03125 1.234375,-0.03125 1.65625,-0.03125 0.453125,0 1.4375,0 1.828125,0.03125 V -0.34375 H 3.484375 c -1.03125,0 -1.03125,-0.140625 -1.03125,-0.515625 v -5.78125 c 0,-0.359375 0.015625,-0.4375 0.53125,-0.4375 h 1.125 c 1.5625,0 1.796875,0.640625 1.96875,2.109375 H 6.34375 Z m 0,0"
               id="path64" />
          </g>
        </g>
        <g
           style="fill:#000000;fill-opacity:1"
           id="g67">
          <g
             id="g66"
             transform="translate(8.8109999,6.8080001)">
            <path
               style="stroke:none"
               d="M 3.46875,-1.8125 H 5.8125 c 0.109375,0 0.296875,0 0.296875,-0.171875 0,-0.1875 -0.1875,-0.1875 -0.296875,-0.1875 H 3.46875 V -4.53125 c 0,-0.109375 0,-0.28125 -0.171875,-0.28125 -0.1875,0 -0.1875,0.171875 -0.1875,0.28125 v 2.359375 H 0.75 c -0.109375,0 -0.28125,0 -0.28125,0.1875 0,0.171875 0.171875,0.171875 0.28125,0.171875 h 2.359375 v 2.359375 c 0,0.109375 0,0.28125 0.1875,0.28125 0.171875,0 0.171875,-0.171875 0.171875,-0.28125 z m 0,0"
               id="path65" />
          </g>
        </g>
        <g
           style="fill:#000000;fill-opacity:1"
           id="g69">
          <g
             id="g68"
             transform="translate(8.8109999,14.829)">
            <path
               style="stroke:none"
               d="m 1.890625,-4.796875 c 0,-0.296875 0.015625,-0.375 0.65625,-0.375 h 0.1875 V -5.4375 c -0.640625,0.015625 -0.65625,0.015625 -1.21875,0.015625 -0.546875,0 -0.5625,0 -1.203125,-0.015625 v 0.265625 H 0.5 c 0.625,0 0.65625,0.078125 0.65625,0.375 v 4.15625 c 0,0.296875 -0.03125,0.375 -0.65625,0.375 H 0.3125 V 0 c 0.640625,-0.03125 0.65625,-0.03125 1.203125,-0.03125 0.5625,0 0.578125,0 1.21875,0.03125 v -0.265625 h -0.1875 c -0.640625,0 -0.65625,-0.078125 -0.65625,-0.375 z m 0,0"
               id="path67" />
          </g>
        </g>
      </g>
    </g>
    <g
       inkscape:label=""
       transform="translate(115.94442,76.102548)"
       id="g79">
      <g
         id="g78"
         transform="matrix(0.352778,0,0,0.352778,-0.829866,-1.40163)">
        <g
           style="fill:#000000;fill-opacity:1"
           id="g73">
          <g
             id="g72"
             transform="translate(1.993,11.395)">
            <path
               style="stroke:none"
               d="m 6.046875,-7.421875 h -5.6875 v 0.34375 H 0.625 c 0.84375,0 0.859375,0.125 0.859375,0.515625 v 5.71875 c 0,0.390625 -0.015625,0.5 -0.859375,0.5 H 0.359375 V 0 c 0.375,-0.03125 1.234375,-0.03125 1.65625,-0.03125 0.453125,0 1.4375,0 1.828125,0.03125 V -0.34375 H 3.484375 c -1.03125,0 -1.03125,-0.140625 -1.03125,-0.515625 v -5.78125 c 0,-0.359375 0.015625,-0.4375 0.53125,-0.4375 h 1.125 c 1.5625,0 1.796875,0.640625 1.96875,2.109375 H 6.34375 Z m 0,0"
               id="path71" />
          </g>
        </g>
        <g
           style="fill:#000000;fill-opacity:1"
           id="g75">
          <g
             id="g74"
             transform="translate(8.8109999,6.8080001)">
            <path
               style="stroke:none"
               d="m 5.5625,-1.8125 c 0.140625,0 0.3125,0 0.3125,-0.171875 0,-0.1875 -0.171875,-0.1875 -0.3125,-0.1875 H 1 c -0.125,0 -0.296875,0 -0.296875,0.1875 C 0.703125,-1.8125 0.875,-1.8125 1,-1.8125 Z m 0,0"
               id="path73" />
          </g>
        </g>
        <g
           style="fill:#000000;fill-opacity:1"
           id="g77">
          <g
             id="g76"
             transform="translate(8.8109999,14.829)">
            <path
               style="stroke:none"
               d="m 1.890625,-4.796875 c 0,-0.296875 0.015625,-0.375 0.65625,-0.375 h 0.1875 V -5.4375 c -0.640625,0.015625 -0.65625,0.015625 -1.21875,0.015625 -0.546875,0 -0.5625,0 -1.203125,-0.015625 v 0.265625 H 0.5 c 0.625,0 0.65625,0.078125 0.65625,0.375 v 4.15625 c 0,0.296875 -0.03125,0.375 -0.65625,0.375 H 0.3125 V 0 c 0.640625,-0.03125 0.65625,-0.03125 1.203125,-0.03125 0.5625,0 0.578125,0 1.21875,0.03125 v -0.265625 h -0.1875 c -0.640625,0 -0.65625,-0.078125 -0.65625,-0.375 z m 0,0"
               id="path75" />
          </g>
        </g>
      </g>
    </g>
    <g
       inkscape:label=""
       transform="translate(136.05079,23.906707)"
       id="g113">
      <g
         id="g112"
         transform="matrix(0.352778,0,0,0.352778,-0.829866,-0.714419)">
        <g
           style="fill:#000000;fill-opacity:1"
           id="g109">
          <g
             id="g108"
             transform="translate(1.993,9.4469995)">
            <path
               style="stroke:none"
               d="m 6.046875,-7.421875 h -5.6875 v 0.34375 H 0.625 c 0.84375,0 0.859375,0.125 0.859375,0.515625 v 5.71875 c 0,0.390625 -0.015625,0.5 -0.859375,0.5 H 0.359375 V 0 c 0.375,-0.03125 1.234375,-0.03125 1.65625,-0.03125 0.453125,0 1.4375,0 1.828125,0.03125 V -0.34375 H 3.484375 c -1.03125,0 -1.03125,-0.140625 -1.03125,-0.515625 v -5.78125 c 0,-0.359375 0.015625,-0.4375 0.53125,-0.4375 h 1.125 c 1.5625,0 1.796875,0.640625 1.96875,2.109375 H 6.34375 Z m 0,0"
               id="path79" />
          </g>
        </g>
        <g
           style="fill:#000000;fill-opacity:1"
           id="g111">
          <g
             id="g110"
             transform="translate(8.8109999,11.135)">
            <path
               style="stroke:none"
               d="M 5.640625,-5.390625 H 0.46875 l -0.171875,1.8125 h 0.25 C 0.65625,-4.921875 0.84375,-5.125 2.0625,-5.125 c 0.15625,0 0.40625,0 0.46875,0.015625 C 2.671875,-5.078125 2.6875,-5 2.6875,-4.796875 v 4.140625 c 0,0.28125 0,0.390625 -0.828125,0.390625 h -0.3125 V 0 c 0.296875,-0.03125 1.15625,-0.03125 1.5,-0.03125 0.34375,0 1.203125,0 1.5,0.03125 V -0.265625 H 4.25 c -0.828125,0 -0.828125,-0.109375 -0.828125,-0.390625 v -4.140625 c 0,-0.1875 0,-0.28125 0.15625,-0.3125 C 3.65625,-5.125 3.890625,-5.125 4.046875,-5.125 c 1.21875,0 1.390625,0.203125 1.5,1.546875 h 0.25 z m 0,0"
               id="path109" />
          </g>
        </g>
      </g>
    </g>
    <g
       inkscape:label=""
       transform="translate(183.88721,86.252611)"
       id="g141">
      <g
         id="g140"
         transform="matrix(0.352778,0,0,0.352778,-0.791281,-0.661414)">
        <g
           style="fill:#000000;fill-opacity:1"
           id="g137">
          <g
             id="g136"
             transform="translate(1.993,8.7030001)">
            <path
               style="stroke:none"
               d="m 2.25,-4.359375 h 1.015625 c 0.21875,0 0.328125,0 0.328125,-0.21875 0,-0.125 -0.109375,-0.125 -0.296875,-0.125 H 2.328125 C 2.71875,-6.25 2.78125,-6.46875 2.78125,-6.53125 c 0,-0.1875 -0.125,-0.296875 -0.3125,-0.296875 -0.03125,0 -0.34375,0.015625 -0.4375,0.390625 l -0.421875,1.734375 h -1.03125 c -0.21875,0 -0.328125,0 -0.328125,0.203125 0,0.140625 0.09375,0.140625 0.3125,0.140625 h 0.953125 c -0.78125,3.09375 -0.828125,3.28125 -0.828125,3.46875 0,0.59375 0.40625,1.015625 1,1.015625 1.109375,0 1.734375,-1.59375 1.734375,-1.6875 0,-0.109375 -0.078125,-0.109375 -0.125,-0.109375 -0.09375,0 -0.109375,0.03125 -0.171875,0.15625 C 2.65625,-0.375 2.078125,-0.125 1.71875,-0.125 c -0.234375,0 -0.34375,-0.140625 -0.34375,-0.5 0,-0.265625 0.015625,-0.328125 0.0625,-0.515625 z m 0,0"
               id="path136" />
          </g>
        </g>
        <g
           style="fill:#000000;fill-opacity:1"
           id="g139">
          <g
             id="g138"
             transform="translate(5.9320002,10.391)">
            <path
               style="stroke:none"
               d="m 1.90625,-2.484375 h 1.453125 c 0.96875,0 1.921875,-0.625 1.921875,-1.46875 0,-0.78125 -0.84375,-1.484375 -1.984375,-1.484375 h -2.9375 v 0.265625 h 0.1875 c 0.609375,0 0.625,0.078125 0.625,0.375 v 4.15625 c 0,0.296875 -0.015625,0.375 -0.625,0.375 h -0.1875 V 0 c 0.6875,-0.03125 0.703125,-0.03125 1.171875,-0.03125 0.484375,0 0.5,0 1.171875,0.03125 V -0.265625 H 2.53125 c -0.609375,0 -0.625,-0.078125 -0.625,-0.375 z M 1.875,-2.71875 v -2.140625 c 0,-0.265625 0.015625,-0.3125 0.390625,-0.3125 H 3.09375 c 1.359375,0 1.359375,0.859375 1.359375,1.21875 0,0.34375 0,1.234375 -1.359375,1.234375 z m 0,0"
               id="path137" />
          </g>
        </g>
      </g>
    </g>
    <g
       inkscape:label=""
       transform="translate(175.74869,53.990218)"
       id="g147">
      <g
         id="g146"
         transform="matrix(0.352778,0,0,0.352778,7.3472403,-1.3381169)">
        <g
           style="fill:#000000;fill-opacity:1"
           id="g143">
          <g
             id="g142"
             transform="translate(1.993,8.7030001)">
            <path
               style="stroke:none"
               d="m 2.25,-4.359375 h 1.015625 c 0.21875,0 0.328125,0 0.328125,-0.21875 0,-0.125 -0.109375,-0.125 -0.296875,-0.125 H 2.328125 C 2.71875,-6.25 2.78125,-6.46875 2.78125,-6.53125 c 0,-0.1875 -0.125,-0.296875 -0.3125,-0.296875 -0.03125,0 -0.34375,0.015625 -0.4375,0.390625 l -0.421875,1.734375 h -1.03125 c -0.21875,0 -0.328125,0 -0.328125,0.203125 0,0.140625 0.09375,0.140625 0.3125,0.140625 h 0.953125 c -0.78125,3.09375 -0.828125,3.28125 -0.828125,3.46875 0,0.59375 0.40625,1.015625 1,1.015625 1.109375,0 1.734375,-1.59375 1.734375,-1.6875 0,-0.109375 -0.078125,-0.109375 -0.125,-0.109375 -0.09375,0 -0.109375,0.03125 -0.171875,0.15625 C 2.65625,-0.375 2.078125,-0.125 1.71875,-0.125 c -0.234375,0 -0.34375,-0.140625 -0.34375,-0.5 0,-0.265625 0.015625,-0.328125 0.0625,-0.515625 z m 0,0"
               id="path141" />
          </g>
        </g>
        <g
           style="fill:#000000;fill-opacity:1"
           id="g145">
          <g
             id="g144"
             transform="translate(5.9320002,10.391)">
            <path
               style="stroke:none"
               d="M 4.9375,-5.421875 H 0.34375 v 0.265625 h 0.1875 c 0.609375,0 0.625,0.09375 0.625,0.390625 v 4.125 c 0,0.296875 -0.015625,0.375 -0.625,0.375 H 0.34375 V 0 c 0.6875,-0.03125 0.703125,-0.03125 1.234375,-0.03125 0.375,0 0.953125,0 1.3125,0.03125 v -0.265625 h -0.25 c -0.75,0 -0.75,-0.109375 -0.75,-0.390625 V -2.578125 H 2.625 c 0.78125,0 0.875,0.25 0.875,0.921875 h 0.25 v -2.125 H 3.5 c 0,0.6875 -0.09375,0.9375 -0.875,0.9375 H 1.890625 v -1.984375 c 0,-0.265625 0.015625,-0.328125 0.375,-0.328125 h 1.0625 c 1.296875,0 1.453125,0.5 1.59375,1.546875 H 5.15625 Z m 0,0"
               id="path143" />
          </g>
        </g>
      </g>
    </g>
    <path
       style="fill:none;stroke:#000000;stroke-width:0.25;stroke-linecap:butt;stroke-linejoin:miter;stroke-dasharray:none;stroke-opacity:1"
       d="M 111.19288,75.257419 H 97.111893"
       id="path11" />
    <path
       style="fill:none;stroke:#000000;stroke-width:0.25;stroke-linecap:butt;stroke-linejoin:miter;stroke-dasharray:none;stroke-opacity:1"
       d="M 166.40002,114.1319 V 99.846456"
       id="path19" />
    <path
       style="fill:none;stroke:#000000;stroke-width:0.25;stroke-linecap:butt;stroke-linejoin:miter;stroke-dasharray:none;stroke-opacity:1"
       d="M 97.157045,75.273368 V 99.797407"
       id="path25" />
    <path
       style="fill:none;stroke:#000000;stroke-width:0.25;stroke-linecap:butt;stroke-linejoin:miter;stroke-dasharray:none;stroke-opacity:1"
       d="M 111.01807,99.853041 H 97.152806"
       id="path26" />
    <path
       style="fill:none;stroke:#a21907;stroke-width:0.25;stroke-linecap:butt;stroke-linejoin:miter;stroke-dasharray:none;stroke-opacity:1"
       d="M 180.53705,27.314083 H 166.42826"
       id="path28" />
    <path
       style="fill:none;stroke:#000000;stroke-width:0.25;stroke-linecap:butt;stroke-linejoin:miter;stroke-dasharray:none;stroke-opacity:1"
       d="M 97.157045,99.756763 V 114.27978"
       id="path32" />
    <path
       style="fill:none;stroke:#000000;stroke-width:0.25;stroke-linecap:butt;stroke-linejoin:miter;stroke-dasharray:none;stroke-opacity:1"
       d="M 111.08487,114.16128 H 97.029011"
       id="path33" />
    <path
       style="fill:none;stroke:#000000;stroke-width:0.25;stroke-linecap:butt;stroke-linejoin:miter;stroke-dasharray:none;stroke-opacity:1"
       d="M 180.55783,75.194588 V 99.846537"
       id="path34" />
    <path
       style="fill:none;stroke:#000000;stroke-width:0.249862;stroke-linecap:butt;stroke-linejoin:miter;stroke-dasharray:none;stroke-opacity:1"
       d="m 166.37501,99.895915 h 14.30866"
       id="path36" />
    <path
       style="fill:none;stroke:#000000;stroke-width:0.25;stroke-linecap:butt;stroke-linejoin:miter;stroke-dasharray:none;stroke-opacity:1"
       d="m 166.08353,114.09646 h 14.50233"
       id="path38" />
    <path
       style="fill:none;stroke:#000000;stroke-width:0.25;stroke-linecap:butt;stroke-linejoin:miter;stroke-dasharray:none;stroke-opacity:1"
       d="M 180.56173,99.923398 V 114.21831"
       id="path40" />
    <g
       inkscape:label=""
       transform="translate(98.386293,52.894563)"
       id="g50">
      <g
         id="g49"
         transform="matrix(0.352778,0,0,0.352778,-0.873963,-0.620712)">
        <g
           style="fill:#000000;fill-opacity:1"
           id="g9">
          <g
             id="use8"
             transform="translate(1.993,9.4469995)">
            <path
               style="stroke:none"
               d="m 7.390625,-1.765625 h -0.28125 c -0.046875,0.28125 -0.09375,0.53125 -0.1875,0.796875 -0.0625,0.171875 -0.09375,0.265625 -0.734375,0.265625 H 5.328125 C 5.46875,-1.3125 5.796875,-1.84375 6.296875,-2.5625 6.8125,-3.34375 7.25,-4.09375 7.25,-4.953125 7.25,-6.46875 5.78125,-7.6875 3.9375,-7.6875 c -1.875,0 -3.328125,1.234375 -3.328125,2.734375 0,0.859375 0.453125,1.609375 0.96875,2.390625 0.46875,0.71875 0.828125,1.25 0.96875,1.859375 h -0.875 c -0.640625,0 -0.671875,-0.09375 -0.71875,-0.25 C 0.859375,-1.203125 0.8125,-1.5 0.75,-1.765625 H 0.484375 L 0.84375,0 h 1.734375 c 0.25,0 0.28125,0 0.28125,-0.234375 0,-0.765625 -0.34375,-1.71875 -0.59375,-2.421875 -0.21875,-0.625 -0.53125,-1.484375 -0.53125,-2.3125 0,-1.734375 1.203125,-2.484375 2.1875,-2.484375 1.046875,0 2.203125,0.796875 2.203125,2.484375 0,0.828125 -0.296875,1.65625 -0.609375,2.546875 C 5.359375,-1.96875 5,-0.984375 5,-0.234375 5,0 5.03125,0 5.296875,0 H 7.03125 Z m 0,0"
               id="path47" />
          </g>
        </g>
        <g
           style="fill:#000000;fill-opacity:1"
           id="g11">
          <g
             id="use9"
             transform="translate(9.8710003,11.136)">
            <path
               style="stroke:none"
               d="m 1.90625,-2.484375 h 1.453125 c 0.96875,0 1.921875,-0.625 1.921875,-1.46875 0,-0.78125 -0.84375,-1.484375 -1.984375,-1.484375 h -2.9375 v 0.265625 h 0.1875 c 0.609375,0 0.625,0.078125 0.625,0.375 v 4.15625 c 0,0.296875 -0.015625,0.375 -0.625,0.375 h -0.1875 V 0 c 0.6875,-0.03125 0.703125,-0.03125 1.171875,-0.03125 0.484375,0 0.5,0 1.171875,0.03125 V -0.265625 H 2.53125 c -0.609375,0 -0.625,-0.078125 -0.625,-0.375 z M 1.875,-2.71875 v -2.140625 c 0,-0.265625 0.015625,-0.3125 0.390625,-0.3125 H 3.09375 c 1.359375,0 1.359375,0.859375 1.359375,1.21875 0,0.34375 0,1.234375 -1.359375,1.234375 z m 0,0"
               id="path48" />
          </g>
          <g
             id="use10"
             transform="translate(15.630194,11.136)">
            <path
               style="stroke:none"
               d="M 2.03125,-5.265625 C 1.953125,-5.421875 1.953125,-5.4375 1.734375,-5.4375 h -1.34375 v 0.265625 H 0.5625 c 0.609375,0 0.625,0.078125 0.625,0.375 v 3.9375 c 0,0.21875 0,0.59375 -0.796875,0.59375 V 0 C 0.75,-0.03125 1.125,-0.03125 1.328125,-0.03125 c 0.203125,0 0.578125,0 0.9375,0.03125 v -0.265625 c -0.796875,0 -0.796875,-0.375 -0.796875,-0.59375 V -5.09375 L 3.484375,-0.1875 C 3.53125,-0.09375 3.5625,0 3.671875,0 3.78125,0 3.8125,-0.09375 3.859375,-0.1875 l 2.03125,-4.96875 v 4.515625 c 0,0.296875 -0.015625,0.375 -0.625,0.375 H 5.09375 V 0 c 0.625,-0.03125 0.640625,-0.03125 1.125,-0.03125 0.484375,0 0.5,0 1.140625,0.03125 V -0.265625 H 7.1875 c -0.625,0 -0.640625,-0.078125 -0.640625,-0.375 v -4.15625 c 0,-0.296875 0.015625,-0.375 0.640625,-0.375 H 7.359375 V -5.4375 h -1.34375 c -0.21875,0 -0.234375,0.015625 -0.296875,0.15625 L 3.875,-0.75 Z m 0,0"
               id="path14" />
          </g>
          <g
             id="use11"
             transform="translate(23.384304,11.136)">
            <path
               style="stroke:none"
               d="m 4.9375,-2.078125 h -0.25 c -0.09375,0.828125 -0.21875,1.8125 -1.671875,1.8125 h -0.75 c -0.359375,0 -0.375,-0.046875 -0.375,-0.328125 v -4.203125 c 0,-0.265625 0,-0.375 0.75,-0.375 h 0.25 V -5.4375 c -0.359375,0.015625 -0.9375,0.015625 -1.3125,0.015625 -0.53125,0 -0.546875,0 -1.234375,-0.015625 v 0.265625 h 0.1875 c 0.609375,0 0.625,0.078125 0.625,0.375 v 4.15625 c 0,0.296875 -0.015625,0.375 -0.625,0.375 H 0.34375 V 0 h 4.359375 z m 0,0"
               id="path15" />
          </g>
        </g>
        <g
           style="fill:#000000;fill-opacity:1"
           id="g48">
          <g
             id="use12"
             transform="translate(28.673,12.475)">
            <path
               style="stroke:none"
               d="m 4.140625,-4.0625 h -3.75 v 0.234375 h 0.15625 c 0.46875,0 0.46875,0.0625 0.46875,0.265625 V -0.5 c 0,0.1875 0,0.265625 -0.46875,0.265625 H 0.390625 V 0 C 0.5,0 1.078125,-0.03125 1.34375,-0.03125 c 0.3125,0 0.75,0 1.078125,0.03125 V -0.234375 H 2.203125 C 1.625,-0.234375 1.625,-0.3125 1.625,-0.5 v -1.421875 h 0.609375 c 0.609375,0 0.71875,0.171875 0.71875,0.703125 h 0.21875 v -1.625 h -0.21875 c 0,0.53125 -0.109375,0.703125 -0.71875,0.703125 H 1.625 V -3.59375 c 0,-0.1875 0,-0.234375 0.296875,-0.234375 H 2.8125 c 1.03125,0 1.171875,0.34375 1.28125,1.15625 h 0.234375 z m 0,0"
               id="path16" />
          </g>
        </g>
      </g>
    </g>
    <g
       inkscape:label=""
       transform="translate(99.986712,90.413461)"
       id="g114">
      <g
         id="g107"
         transform="matrix(0.352778,0,0,0.352778,66.589042,-38.108604)">
        <g
           style="fill:#000000;fill-opacity:1"
           id="g52">
          <g
             id="g51"
             transform="translate(1.993,9.4469995)">
            <path
               style="stroke:none"
               d="m 7.390625,-1.765625 h -0.28125 c -0.046875,0.28125 -0.09375,0.53125 -0.1875,0.796875 -0.0625,0.171875 -0.09375,0.265625 -0.734375,0.265625 H 5.328125 C 5.46875,-1.3125 5.796875,-1.84375 6.296875,-2.5625 6.8125,-3.34375 7.25,-4.09375 7.25,-4.953125 7.25,-6.46875 5.78125,-7.6875 3.9375,-7.6875 c -1.875,0 -3.328125,1.234375 -3.328125,2.734375 0,0.859375 0.453125,1.609375 0.96875,2.390625 0.46875,0.71875 0.828125,1.25 0.96875,1.859375 h -0.875 c -0.640625,0 -0.671875,-0.09375 -0.71875,-0.25 C 0.859375,-1.203125 0.8125,-1.5 0.75,-1.765625 H 0.484375 L 0.84375,0 h 1.734375 c 0.25,0 0.28125,0 0.28125,-0.234375 0,-0.765625 -0.34375,-1.71875 -0.59375,-2.421875 -0.21875,-0.625 -0.53125,-1.484375 -0.53125,-2.3125 0,-1.734375 1.203125,-2.484375 2.1875,-2.484375 1.046875,0 2.203125,0.796875 2.203125,2.484375 0,0.828125 -0.296875,1.65625 -0.609375,2.546875 C 5.359375,-1.96875 5,-0.984375 5,-0.234375 5,0 5.03125,0 5.296875,0 H 7.03125 Z m 0,0"
               id="path50" />
          </g>
        </g>
        <g
           style="fill:#000000;fill-opacity:1"
           id="g104">
          <g
             id="g53"
             transform="translate(9.8710003,11.136)">
            <path
               style="stroke:none"
               d="m 1.90625,-2.484375 h 1.453125 c 0.96875,0 1.921875,-0.625 1.921875,-1.46875 0,-0.78125 -0.84375,-1.484375 -1.984375,-1.484375 h -2.9375 v 0.265625 h 0.1875 c 0.609375,0 0.625,0.078125 0.625,0.375 v 4.15625 c 0,0.296875 -0.015625,0.375 -0.625,0.375 h -0.1875 V 0 c 0.6875,-0.03125 0.703125,-0.03125 1.171875,-0.03125 0.484375,0 0.5,0 1.171875,0.03125 V -0.265625 H 2.53125 c -0.609375,0 -0.625,-0.078125 -0.625,-0.375 z M 1.875,-2.71875 v -2.140625 c 0,-0.265625 0.015625,-0.3125 0.390625,-0.3125 H 3.09375 c 1.359375,0 1.359375,0.859375 1.359375,1.21875 0,0.34375 0,1.234375 -1.359375,1.234375 z m 0,0"
               id="path52" />
          </g>
          <g
             id="g54"
             transform="translate(15.630194,11.136)">
            <path
               style="stroke:none"
               d="M 2.03125,-5.265625 C 1.953125,-5.421875 1.953125,-5.4375 1.734375,-5.4375 h -1.34375 v 0.265625 H 0.5625 c 0.609375,0 0.625,0.078125 0.625,0.375 v 3.9375 c 0,0.21875 0,0.59375 -0.796875,0.59375 V 0 C 0.75,-0.03125 1.125,-0.03125 1.328125,-0.03125 c 0.203125,0 0.578125,0 0.9375,0.03125 v -0.265625 c -0.796875,0 -0.796875,-0.375 -0.796875,-0.59375 V -5.09375 L 3.484375,-0.1875 C 3.53125,-0.09375 3.5625,0 3.671875,0 3.78125,0 3.8125,-0.09375 3.859375,-0.1875 l 2.03125,-4.96875 v 4.515625 c 0,0.296875 -0.015625,0.375 -0.625,0.375 H 5.09375 V 0 c 0.625,-0.03125 0.640625,-0.03125 1.125,-0.03125 0.484375,0 0.5,0 1.140625,0.03125 V -0.265625 H 7.1875 c -0.625,0 -0.640625,-0.078125 -0.640625,-0.375 v -4.15625 c 0,-0.296875 0.015625,-0.375 0.640625,-0.375 H 7.359375 V -5.4375 h -1.34375 c -0.21875,0 -0.234375,0.015625 -0.296875,0.15625 L 3.875,-0.75 Z m 0,0"
               id="path53" />
          </g>
          <g
             id="g58"
             transform="translate(23.384304,11.136)">
            <path
               style="stroke:none"
               d="m 4.9375,-2.078125 h -0.25 c -0.09375,0.828125 -0.21875,1.8125 -1.671875,1.8125 h -0.75 c -0.359375,0 -0.375,-0.046875 -0.375,-0.328125 v -4.203125 c 0,-0.265625 0,-0.375 0.75,-0.375 h 0.25 V -5.4375 c -0.359375,0.015625 -0.9375,0.015625 -1.3125,0.015625 -0.53125,0 -0.546875,0 -1.234375,-0.015625 v 0.265625 h 0.1875 c 0.609375,0 0.625,0.078125 0.625,0.375 v 4.15625 c 0,0.296875 -0.015625,0.375 -0.625,0.375 H 0.34375 V 0 h 4.359375 z m 0,0"
               id="path54" />
          </g>
        </g>
        <g
           style="fill:#000000;fill-opacity:1"
           id="g106">
          <g
             id="g105"
             transform="translate(28.673,12.475)">
            <path
               style="stroke:none"
               d="m 4.140625,-4.0625 h -3.75 v 0.234375 h 0.15625 c 0.46875,0 0.46875,0.0625 0.46875,0.265625 V -0.5 c 0,0.1875 0,0.265625 -0.46875,0.265625 H 0.390625 V 0 C 0.5,0 1.078125,-0.03125 1.34375,-0.03125 c 0.3125,0 0.75,0 1.078125,0.03125 V -0.234375 H 2.203125 C 1.625,-0.234375 1.625,-0.3125 1.625,-0.5 v -1.421875 h 0.609375 c 0.609375,0 0.71875,0.171875 0.71875,0.703125 h 0.21875 v -1.625 h -0.21875 c 0,0.53125 -0.109375,0.703125 -0.71875,0.703125 H 1.625 V -3.59375 c 0,-0.1875 0,-0.234375 0.296875,-0.234375 H 2.8125 c 1.03125,0 1.171875,0.34375 1.28125,1.15625 h 0.234375 z m 0,0"
               id="path104" />
          </g>
        </g>
      </g>
    </g>
    <g
       inkscape:label=""
       transform="translate(97.754791,85.60043)"
       id="g132">
      <g
         id="g131"
         transform="matrix(0.352778,0,0,0.352778,-0.873963,-0.620712)">
        <g
           style="fill:#000000;fill-opacity:1"
           id="g10">
          <g
             id="g125"
             transform="translate(1.993,9.4469995)">
            <path
               style="stroke:none"
               d="m 7.390625,-1.765625 h -0.28125 c -0.046875,0.28125 -0.09375,0.53125 -0.1875,0.796875 -0.0625,0.171875 -0.09375,0.265625 -0.734375,0.265625 H 5.328125 C 5.46875,-1.3125 5.796875,-1.84375 6.296875,-2.5625 6.8125,-3.34375 7.25,-4.09375 7.25,-4.953125 7.25,-6.46875 5.78125,-7.6875 3.9375,-7.6875 c -1.875,0 -3.328125,1.234375 -3.328125,2.734375 0,0.859375 0.453125,1.609375 0.96875,2.390625 0.46875,0.71875 0.828125,1.25 0.96875,1.859375 h -0.875 c -0.640625,0 -0.671875,-0.09375 -0.71875,-0.25 C 0.859375,-1.203125 0.8125,-1.5 0.75,-1.765625 H 0.484375 L 0.84375,0 h 1.734375 c 0.25,0 0.28125,0 0.28125,-0.234375 0,-0.765625 -0.34375,-1.71875 -0.59375,-2.421875 -0.21875,-0.625 -0.53125,-1.484375 -0.53125,-2.3125 0,-1.734375 1.203125,-2.484375 2.1875,-2.484375 1.046875,0 2.203125,0.796875 2.203125,2.484375 0,0.828125 -0.296875,1.65625 -0.609375,2.546875 C 5.359375,-1.96875 5,-0.984375 5,-0.234375 5,0 5.03125,0 5.296875,0 H 7.03125 Z m 0,0"
               id="path124" />
          </g>
        </g>
        <g
           style="fill:#000000;fill-opacity:1"
           id="g129">
          <g
             id="g126"
             transform="translate(9.8710003,11.136)">
            <path
               style="stroke:none"
               d="m 1.90625,-2.484375 h 1.453125 c 0.96875,0 1.921875,-0.625 1.921875,-1.46875 0,-0.78125 -0.84375,-1.484375 -1.984375,-1.484375 h -2.9375 v 0.265625 h 0.1875 c 0.609375,0 0.625,0.078125 0.625,0.375 v 4.15625 c 0,0.296875 -0.015625,0.375 -0.625,0.375 h -0.1875 V 0 c 0.6875,-0.03125 0.703125,-0.03125 1.171875,-0.03125 0.484375,0 0.5,0 1.171875,0.03125 V -0.265625 H 2.53125 c -0.609375,0 -0.625,-0.078125 -0.625,-0.375 z M 1.875,-2.71875 v -2.140625 c 0,-0.265625 0.015625,-0.3125 0.390625,-0.3125 H 3.09375 c 1.359375,0 1.359375,0.859375 1.359375,1.21875 0,0.34375 0,1.234375 -1.359375,1.234375 z m 0,0"
               id="path125" />
          </g>
          <g
             id="g127"
             transform="translate(15.630194,11.136)">
            <path
               style="stroke:none"
               d="M 2.03125,-5.265625 C 1.953125,-5.421875 1.953125,-5.4375 1.734375,-5.4375 h -1.34375 v 0.265625 H 0.5625 c 0.609375,0 0.625,0.078125 0.625,0.375 v 3.9375 c 0,0.21875 0,0.59375 -0.796875,0.59375 V 0 C 0.75,-0.03125 1.125,-0.03125 1.328125,-0.03125 c 0.203125,0 0.578125,0 0.9375,0.03125 v -0.265625 c -0.796875,0 -0.796875,-0.375 -0.796875,-0.59375 V -5.09375 L 3.484375,-0.1875 C 3.53125,-0.09375 3.5625,0 3.671875,0 3.78125,0 3.8125,-0.09375 3.859375,-0.1875 l 2.03125,-4.96875 v 4.515625 c 0,0.296875 -0.015625,0.375 -0.625,0.375 H 5.09375 V 0 c 0.625,-0.03125 0.640625,-0.03125 1.125,-0.03125 0.484375,0 0.5,0 1.140625,0.03125 V -0.265625 H 7.1875 c -0.625,0 -0.640625,-0.078125 -0.640625,-0.375 v -4.15625 c 0,-0.296875 0.015625,-0.375 0.640625,-0.375 H 7.359375 V -5.4375 h -1.34375 c -0.21875,0 -0.234375,0.015625 -0.296875,0.15625 L 3.875,-0.75 Z m 0,0"
               id="path126" />
          </g>
          <g
             id="g128"
             transform="translate(23.384304,11.136)">
            <path
               style="stroke:none"
               d="m 4.9375,-2.078125 h -0.25 c -0.09375,0.828125 -0.21875,1.8125 -1.671875,1.8125 h -0.75 c -0.359375,0 -0.375,-0.046875 -0.375,-0.328125 v -4.203125 c 0,-0.265625 0,-0.375 0.75,-0.375 h 0.25 V -5.4375 c -0.359375,0.015625 -0.9375,0.015625 -1.3125,0.015625 -0.53125,0 -0.546875,0 -1.234375,-0.015625 v 0.265625 h 0.1875 c 0.609375,0 0.625,0.078125 0.625,0.375 v 4.15625 c 0,0.296875 -0.015625,0.375 -0.625,0.375 H 0.34375 V 0 h 4.359375 z m 0,0"
               id="path127" />
          </g>
        </g>
        <g
           style="fill:#000000;fill-opacity:1"
           id="g130">
          <g
             id="use13"
             transform="translate(28.673,12.475)">
            <path
               style="stroke:none"
               d="M 1.640625,-1.84375 H 2.84375 c 0.78125,0 1.578125,-0.453125 1.578125,-1.109375 0,-0.625 -0.734375,-1.140625 -1.625,-1.140625 H 0.40625 v 0.234375 H 0.5625 c 0.46875,0 0.46875,0.078125 0.46875,0.28125 V -0.5 c 0,0.1875 0,0.265625 -0.46875,0.265625 H 0.40625 V 0 c 0.078125,0 0.671875,-0.03125 0.921875,-0.03125 0.25,0 0.84375,0.03125 0.9375,0.03125 v -0.234375 h -0.15625 c -0.46875,0 -0.46875,-0.078125 -0.46875,-0.265625 z m 1,-2.015625 c 0.9375,0 1.125,0.453125 1.125,0.90625 0,0.375 -0.09375,0.90625 -1.125,0.90625 H 1.609375 V -3.625 c 0,-0.1875 0,-0.234375 0.296875,-0.234375 z m 0,0"
               id="path129" />
          </g>
          <g
             id="use14"
             transform="translate(33.565666,12.475)">
            <path
               style="stroke:none"
               d="m 2.140625,-3.796875 c 0,-0.1875 -0.015625,-0.1875 -0.203125,-0.1875 -0.390625,0.390625 -1,0.390625 -1.21875,0.390625 v 0.234375 c 0.15625,0 0.5625,0 0.921875,-0.171875 v 3.015625 c 0,0.203125 0,0.28125 -0.625,0.28125 h -0.25 V 0 c 0.328125,-0.03125 0.796875,-0.03125 1.125,-0.03125 0.328125,0 0.796875,0 1.125,0.03125 v -0.234375 h -0.25 c -0.625,0 -0.625,-0.078125 -0.625,-0.28125 z m 0,0"
               id="path130" />
          </g>
        </g>
      </g>
    </g>
    <g
       inkscape:label=""
       transform="translate(132.52841,105.26987)"
       id="g155">
      <g
         id="g154"
         transform="matrix(0.352778,0,0,0.352778,-0.873963,-0.620712)">
        <g
           style="fill:#000000;fill-opacity:1"
           id="g134">
          <g
             id="g133"
             transform="translate(1.993,9.4469995)">
            <path
               style="stroke:none"
               d="m 7.390625,-1.765625 h -0.28125 c -0.046875,0.28125 -0.09375,0.53125 -0.1875,0.796875 -0.0625,0.171875 -0.09375,0.265625 -0.734375,0.265625 H 5.328125 C 5.46875,-1.3125 5.796875,-1.84375 6.296875,-2.5625 6.8125,-3.34375 7.25,-4.09375 7.25,-4.953125 7.25,-6.46875 5.78125,-7.6875 3.9375,-7.6875 c -1.875,0 -3.328125,1.234375 -3.328125,2.734375 0,0.859375 0.453125,1.609375 0.96875,2.390625 0.46875,0.71875 0.828125,1.25 0.96875,1.859375 h -0.875 c -0.640625,0 -0.671875,-0.09375 -0.71875,-0.25 C 0.859375,-1.203125 0.8125,-1.5 0.75,-1.765625 H 0.484375 L 0.84375,0 h 1.734375 c 0.25,0 0.28125,0 0.28125,-0.234375 0,-0.765625 -0.34375,-1.71875 -0.59375,-2.421875 -0.21875,-0.625 -0.53125,-1.484375 -0.53125,-2.3125 0,-1.734375 1.203125,-2.484375 2.1875,-2.484375 1.046875,0 2.203125,0.796875 2.203125,2.484375 0,0.828125 -0.296875,1.65625 -0.609375,2.546875 C 5.359375,-1.96875 5,-0.984375 5,-0.234375 5,0 5.03125,0 5.296875,0 H 7.03125 Z m 0,0"
               id="path132" />
          </g>
        </g>
        <g
           style="fill:#000000;fill-opacity:1"
           id="g150">
          <g
             id="g135"
             transform="translate(9.8710003,11.136)">
            <path
               style="stroke:none"
               d="m 1.90625,-2.484375 h 1.453125 c 0.96875,0 1.921875,-0.625 1.921875,-1.46875 0,-0.78125 -0.84375,-1.484375 -1.984375,-1.484375 h -2.9375 v 0.265625 h 0.1875 c 0.609375,0 0.625,0.078125 0.625,0.375 v 4.15625 c 0,0.296875 -0.015625,0.375 -0.625,0.375 h -0.1875 V 0 c 0.6875,-0.03125 0.703125,-0.03125 1.171875,-0.03125 0.484375,0 0.5,0 1.171875,0.03125 V -0.265625 H 2.53125 c -0.609375,0 -0.625,-0.078125 -0.625,-0.375 z M 1.875,-2.71875 v -2.140625 c 0,-0.265625 0.015625,-0.3125 0.390625,-0.3125 H 3.09375 c 1.359375,0 1.359375,0.859375 1.359375,1.21875 0,0.34375 0,1.234375 -1.359375,1.234375 z m 0,0"
               id="path134" />
          </g>
          <g
             id="g148"
             transform="translate(15.630194,11.136)">
            <path
               style="stroke:none"
               d="M 2.03125,-5.265625 C 1.953125,-5.421875 1.953125,-5.4375 1.734375,-5.4375 h -1.34375 v 0.265625 H 0.5625 c 0.609375,0 0.625,0.078125 0.625,0.375 v 3.9375 c 0,0.21875 0,0.59375 -0.796875,0.59375 V 0 C 0.75,-0.03125 1.125,-0.03125 1.328125,-0.03125 c 0.203125,0 0.578125,0 0.9375,0.03125 v -0.265625 c -0.796875,0 -0.796875,-0.375 -0.796875,-0.59375 V -5.09375 L 3.484375,-0.1875 C 3.53125,-0.09375 3.5625,0 3.671875,0 3.78125,0 3.8125,-0.09375 3.859375,-0.1875 l 2.03125,-4.96875 v 4.515625 c 0,0.296875 -0.015625,0.375 -0.625,0.375 H 5.09375 V 0 c 0.625,-0.03125 0.640625,-0.03125 1.125,-0.03125 0.484375,0 0.5,0 1.140625,0.03125 V -0.265625 H 7.1875 c -0.625,0 -0.640625,-0.078125 -0.640625,-0.375 v -4.15625 c 0,-0.296875 0.015625,-0.375 0.640625,-0.375 H 7.359375 V -5.4375 h -1.34375 c -0.21875,0 -0.234375,0.015625 -0.296875,0.15625 L 3.875,-0.75 Z m 0,0"
               id="path138" />
          </g>
          <g
             id="g149"
             transform="translate(23.384304,11.136)">
            <path
               style="stroke:none"
               d="m 4.9375,-2.078125 h -0.25 c -0.09375,0.828125 -0.21875,1.8125 -1.671875,1.8125 h -0.75 c -0.359375,0 -0.375,-0.046875 -0.375,-0.328125 v -4.203125 c 0,-0.265625 0,-0.375 0.75,-0.375 h 0.25 V -5.4375 c -0.359375,0.015625 -0.9375,0.015625 -1.3125,0.015625 -0.53125,0 -0.546875,0 -1.234375,-0.015625 v 0.265625 h 0.1875 c 0.609375,0 0.625,0.078125 0.625,0.375 v 4.15625 c 0,0.296875 -0.015625,0.375 -0.625,0.375 H 0.34375 V 0 h 4.359375 z m 0,0"
               id="path148" />
          </g>
        </g>
        <g
           style="fill:#000000;fill-opacity:1"
           id="g153">
          <g
             id="g151"
             transform="translate(28.673,12.475)">
            <path
               style="stroke:none"
               d="M 1.640625,-1.84375 H 2.84375 c 0.78125,0 1.578125,-0.453125 1.578125,-1.109375 0,-0.625 -0.734375,-1.140625 -1.625,-1.140625 H 0.40625 v 0.234375 H 0.5625 c 0.46875,0 0.46875,0.078125 0.46875,0.28125 V -0.5 c 0,0.1875 0,0.265625 -0.46875,0.265625 H 0.40625 V 0 c 0.078125,0 0.671875,-0.03125 0.921875,-0.03125 0.25,0 0.84375,0.03125 0.9375,0.03125 v -0.234375 h -0.15625 c -0.46875,0 -0.46875,-0.078125 -0.46875,-0.265625 z m 1,-2.015625 c 0.9375,0 1.125,0.453125 1.125,0.90625 0,0.375 -0.09375,0.90625 -1.125,0.90625 H 1.609375 V -3.625 c 0,-0.1875 0,-0.234375 0.296875,-0.234375 z m 0,0"
               id="path150" />
          </g>
          <g
             id="g152"
             transform="translate(33.565666,12.475)">
            <path
               style="stroke:none"
               d="M 3.21875,-1.125 H 3 C 2.984375,-1.03125 2.921875,-0.640625 2.84375,-0.578125 2.796875,-0.53125 2.3125,-0.53125 2.21875,-0.53125 H 1.109375 L 1.875,-1.15625 C 2.078125,-1.328125 2.609375,-1.703125 2.796875,-1.890625 2.96875,-2.0625 3.21875,-2.375 3.21875,-2.796875 c 0,-0.75 -0.671875,-1.1875 -1.484375,-1.1875 -0.765625,0 -1.296875,0.515625 -1.296875,1.078125 0,0.296875 0.25,0.34375 0.3125,0.34375 0.15625,0 0.328125,-0.109375 0.328125,-0.328125 C 1.078125,-3.015625 1,-3.21875 0.734375,-3.21875 0.875,-3.515625 1.234375,-3.75 1.65625,-3.75 c 0.625,0 0.953125,0.46875 0.953125,0.953125 0,0.421875 -0.28125,0.859375 -0.6875,1.25 L 0.5,-0.25 C 0.4375,-0.1875 0.4375,-0.1875 0.4375,0 h 2.59375 z m 0,0"
               id="path151" />
          </g>
        </g>
      </g>
    </g>
    <g
       inkscape:label=""
       transform="translate(166.81822,85.377188)"
       id="g166">
      <g
         id="g165"
         transform="matrix(0.352778,0,0,0.352778,-0.873963,-0.620712)">
        <g
           style="fill:#000000;fill-opacity:1"
           id="g157">
          <g
             id="g156"
             transform="translate(1.993,9.4469995)">
            <path
               style="stroke:none"
               d="m 7.390625,-1.765625 h -0.28125 c -0.046875,0.28125 -0.09375,0.53125 -0.1875,0.796875 -0.0625,0.171875 -0.09375,0.265625 -0.734375,0.265625 H 5.328125 C 5.46875,-1.3125 5.796875,-1.84375 6.296875,-2.5625 6.8125,-3.34375 7.25,-4.09375 7.25,-4.953125 7.25,-6.46875 5.78125,-7.6875 3.9375,-7.6875 c -1.875,0 -3.328125,1.234375 -3.328125,2.734375 0,0.859375 0.453125,1.609375 0.96875,2.390625 0.46875,0.71875 0.828125,1.25 0.96875,1.859375 h -0.875 c -0.640625,0 -0.671875,-0.09375 -0.71875,-0.25 C 0.859375,-1.203125 0.8125,-1.5 0.75,-1.765625 H 0.484375 L 0.84375,0 h 1.734375 c 0.25,0 0.28125,0 0.28125,-0.234375 0,-0.765625 -0.34375,-1.71875 -0.59375,-2.421875 -0.21875,-0.625 -0.53125,-1.484375 -0.53125,-2.3125 0,-1.734375 1.203125,-2.484375 2.1875,-2.484375 1.046875,0 2.203125,0.796875 2.203125,2.484375 0,0.828125 -0.296875,1.65625 -0.609375,2.546875 C 5.359375,-1.96875 5,-0.984375 5,-0.234375 5,0 5.03125,0 5.296875,0 H 7.03125 Z m 0,0"
               id="path155" />
          </g>
        </g>
        <g
           style="fill:#000000;fill-opacity:1"
           id="g161">
          <g
             id="g158"
             transform="translate(9.8710003,11.136)">
            <path
               style="stroke:none"
               d="m 1.90625,-2.484375 h 1.453125 c 0.96875,0 1.921875,-0.625 1.921875,-1.46875 0,-0.78125 -0.84375,-1.484375 -1.984375,-1.484375 h -2.9375 v 0.265625 h 0.1875 c 0.609375,0 0.625,0.078125 0.625,0.375 v 4.15625 c 0,0.296875 -0.015625,0.375 -0.625,0.375 h -0.1875 V 0 c 0.6875,-0.03125 0.703125,-0.03125 1.171875,-0.03125 0.484375,0 0.5,0 1.171875,0.03125 V -0.265625 H 2.53125 c -0.609375,0 -0.625,-0.078125 -0.625,-0.375 z M 1.875,-2.71875 v -2.140625 c 0,-0.265625 0.015625,-0.3125 0.390625,-0.3125 H 3.09375 c 1.359375,0 1.359375,0.859375 1.359375,1.21875 0,0.34375 0,1.234375 -1.359375,1.234375 z m 0,0"
               id="path157" />
          </g>
          <g
             id="g159"
             transform="translate(15.630194,11.136)">
            <path
               style="stroke:none"
               d="M 2.03125,-5.265625 C 1.953125,-5.421875 1.953125,-5.4375 1.734375,-5.4375 h -1.34375 v 0.265625 H 0.5625 c 0.609375,0 0.625,0.078125 0.625,0.375 v 3.9375 c 0,0.21875 0,0.59375 -0.796875,0.59375 V 0 C 0.75,-0.03125 1.125,-0.03125 1.328125,-0.03125 c 0.203125,0 0.578125,0 0.9375,0.03125 v -0.265625 c -0.796875,0 -0.796875,-0.375 -0.796875,-0.59375 V -5.09375 L 3.484375,-0.1875 C 3.53125,-0.09375 3.5625,0 3.671875,0 3.78125,0 3.8125,-0.09375 3.859375,-0.1875 l 2.03125,-4.96875 v 4.515625 c 0,0.296875 -0.015625,0.375 -0.625,0.375 H 5.09375 V 0 c 0.625,-0.03125 0.640625,-0.03125 1.125,-0.03125 0.484375,0 0.5,0 1.140625,0.03125 V -0.265625 H 7.1875 c -0.625,0 -0.640625,-0.078125 -0.640625,-0.375 v -4.15625 c 0,-0.296875 0.015625,-0.375 0.640625,-0.375 H 7.359375 V -5.4375 h -1.34375 c -0.21875,0 -0.234375,0.015625 -0.296875,0.15625 L 3.875,-0.75 Z m 0,0"
               id="path158" />
          </g>
          <g
             id="g160"
             transform="translate(23.384304,11.136)">
            <path
               style="stroke:none"
               d="m 4.9375,-2.078125 h -0.25 c -0.09375,0.828125 -0.21875,1.8125 -1.671875,1.8125 h -0.75 c -0.359375,0 -0.375,-0.046875 -0.375,-0.328125 v -4.203125 c 0,-0.265625 0,-0.375 0.75,-0.375 h 0.25 V -5.4375 c -0.359375,0.015625 -0.9375,0.015625 -1.3125,0.015625 -0.53125,0 -0.546875,0 -1.234375,-0.015625 v 0.265625 h 0.1875 c 0.609375,0 0.625,0.078125 0.625,0.375 v 4.15625 c 0,0.296875 -0.015625,0.375 -0.625,0.375 H 0.34375 V 0 h 4.359375 z m 0,0"
               id="path159" />
          </g>
        </g>
        <g
           style="fill:#000000;fill-opacity:1"
           id="g164">
          <g
             id="g162"
             transform="translate(28.673,12.475)">
            <path
               style="stroke:none"
               d="M 1.640625,-1.84375 H 2.84375 c 0.78125,0 1.578125,-0.453125 1.578125,-1.109375 0,-0.625 -0.734375,-1.140625 -1.625,-1.140625 H 0.40625 v 0.234375 H 0.5625 c 0.46875,0 0.46875,0.078125 0.46875,0.28125 V -0.5 c 0,0.1875 0,0.265625 -0.46875,0.265625 H 0.40625 V 0 c 0.078125,0 0.671875,-0.03125 0.921875,-0.03125 0.25,0 0.84375,0.03125 0.9375,0.03125 v -0.234375 h -0.15625 c -0.46875,0 -0.46875,-0.078125 -0.46875,-0.265625 z m 1,-2.015625 c 0.9375,0 1.125,0.453125 1.125,0.90625 0,0.375 -0.09375,0.90625 -1.125,0.90625 H 1.609375 V -3.625 c 0,-0.1875 0,-0.234375 0.296875,-0.234375 z m 0,0"
               id="path161" />
          </g>
          <g
             id="g163"
             transform="translate(33.565666,12.475)">
            <path
               style="stroke:none"
               d="m 2.140625,-3.796875 c 0,-0.1875 -0.015625,-0.1875 -0.203125,-0.1875 -0.390625,0.390625 -1,0.390625 -1.21875,0.390625 v 0.234375 c 0.15625,0 0.5625,0 0.921875,-0.171875 v 3.015625 c 0,0.203125 0,0.28125 -0.625,0.28125 h -0.25 V 0 c 0.328125,-0.03125 0.796875,-0.03125 1.125,-0.03125 0.328125,0 0.796875,0 1.125,0.03125 v -0.234375 h -0.25 c -0.625,0 -0.625,-0.078125 -0.625,-0.28125 z m 0,0"
               id="path162" />
          </g>
        </g>
      </g>
    </g>
    <g
       inkscape:label=""
       transform="translate(97.710694,105.24782)"
       id="g177">
      <g
         id="g176"
         transform="matrix(0.352778,0,0,0.352778,-0.873963,-0.620712)">
        <g
           style="fill:#000000;fill-opacity:1"
           id="g168">
          <g
             id="g167"
             transform="translate(1.993,9.4469995)">
            <path
               style="stroke:none"
               d="m 7.390625,-1.765625 h -0.28125 c -0.046875,0.28125 -0.09375,0.53125 -0.1875,0.796875 -0.0625,0.171875 -0.09375,0.265625 -0.734375,0.265625 H 5.328125 C 5.46875,-1.3125 5.796875,-1.84375 6.296875,-2.5625 6.8125,-3.34375 7.25,-4.09375 7.25,-4.953125 7.25,-6.46875 5.78125,-7.6875 3.9375,-7.6875 c -1.875,0 -3.328125,1.234375 -3.328125,2.734375 0,0.859375 0.453125,1.609375 0.96875,2.390625 0.46875,0.71875 0.828125,1.25 0.96875,1.859375 h -0.875 c -0.640625,0 -0.671875,-0.09375 -0.71875,-0.25 C 0.859375,-1.203125 0.8125,-1.5 0.75,-1.765625 H 0.484375 L 0.84375,0 h 1.734375 c 0.25,0 0.28125,0 0.28125,-0.234375 0,-0.765625 -0.34375,-1.71875 -0.59375,-2.421875 -0.21875,-0.625 -0.53125,-1.484375 -0.53125,-2.3125 0,-1.734375 1.203125,-2.484375 2.1875,-2.484375 1.046875,0 2.203125,0.796875 2.203125,2.484375 0,0.828125 -0.296875,1.65625 -0.609375,2.546875 C 5.359375,-1.96875 5,-0.984375 5,-0.234375 5,0 5.03125,0 5.296875,0 H 7.03125 Z m 0,0"
               id="path166" />
          </g>
        </g>
        <g
           style="fill:#000000;fill-opacity:1"
           id="g172">
          <g
             id="g169"
             transform="translate(9.8710003,11.136)">
            <path
               style="stroke:none"
               d="m 1.90625,-2.484375 h 1.453125 c 0.96875,0 1.921875,-0.625 1.921875,-1.46875 0,-0.78125 -0.84375,-1.484375 -1.984375,-1.484375 h -2.9375 v 0.265625 h 0.1875 c 0.609375,0 0.625,0.078125 0.625,0.375 v 4.15625 c 0,0.296875 -0.015625,0.375 -0.625,0.375 h -0.1875 V 0 c 0.6875,-0.03125 0.703125,-0.03125 1.171875,-0.03125 0.484375,0 0.5,0 1.171875,0.03125 V -0.265625 H 2.53125 c -0.609375,0 -0.625,-0.078125 -0.625,-0.375 z M 1.875,-2.71875 v -2.140625 c 0,-0.265625 0.015625,-0.3125 0.390625,-0.3125 H 3.09375 c 1.359375,0 1.359375,0.859375 1.359375,1.21875 0,0.34375 0,1.234375 -1.359375,1.234375 z m 0,0"
               id="path168" />
          </g>
          <g
             id="g170"
             transform="translate(15.630194,11.136)">
            <path
               style="stroke:none"
               d="M 2.03125,-5.265625 C 1.953125,-5.421875 1.953125,-5.4375 1.734375,-5.4375 h -1.34375 v 0.265625 H 0.5625 c 0.609375,0 0.625,0.078125 0.625,0.375 v 3.9375 c 0,0.21875 0,0.59375 -0.796875,0.59375 V 0 C 0.75,-0.03125 1.125,-0.03125 1.328125,-0.03125 c 0.203125,0 0.578125,0 0.9375,0.03125 v -0.265625 c -0.796875,0 -0.796875,-0.375 -0.796875,-0.59375 V -5.09375 L 3.484375,-0.1875 C 3.53125,-0.09375 3.5625,0 3.671875,0 3.78125,0 3.8125,-0.09375 3.859375,-0.1875 l 2.03125,-4.96875 v 4.515625 c 0,0.296875 -0.015625,0.375 -0.625,0.375 H 5.09375 V 0 c 0.625,-0.03125 0.640625,-0.03125 1.125,-0.03125 0.484375,0 0.5,0 1.140625,0.03125 V -0.265625 H 7.1875 c -0.625,0 -0.640625,-0.078125 -0.640625,-0.375 v -4.15625 c 0,-0.296875 0.015625,-0.375 0.640625,-0.375 H 7.359375 V -5.4375 h -1.34375 c -0.21875,0 -0.234375,0.015625 -0.296875,0.15625 L 3.875,-0.75 Z m 0,0"
               id="path169" />
          </g>
          <g
             id="g171"
             transform="translate(23.384304,11.136)">
            <path
               style="stroke:none"
               d="m 4.9375,-2.078125 h -0.25 c -0.09375,0.828125 -0.21875,1.8125 -1.671875,1.8125 h -0.75 c -0.359375,0 -0.375,-0.046875 -0.375,-0.328125 v -4.203125 c 0,-0.265625 0,-0.375 0.75,-0.375 h 0.25 V -5.4375 c -0.359375,0.015625 -0.9375,0.015625 -1.3125,0.015625 -0.53125,0 -0.546875,0 -1.234375,-0.015625 v 0.265625 h 0.1875 c 0.609375,0 0.625,0.078125 0.625,0.375 v 4.15625 c 0,0.296875 -0.015625,0.375 -0.625,0.375 H 0.34375 V 0 h 4.359375 z m 0,0"
               id="path170" />
          </g>
        </g>
        <g
           style="fill:#000000;fill-opacity:1"
           id="g175">
          <g
             id="g173"
             transform="translate(28.673,12.475)">
            <path
               style="stroke:none"
               d="M 1.640625,-1.84375 H 2.84375 c 0.78125,0 1.578125,-0.453125 1.578125,-1.109375 0,-0.625 -0.734375,-1.140625 -1.625,-1.140625 H 0.40625 v 0.234375 H 0.5625 c 0.46875,0 0.46875,0.078125 0.46875,0.28125 V -0.5 c 0,0.1875 0,0.265625 -0.46875,0.265625 H 0.40625 V 0 c 0.078125,0 0.671875,-0.03125 0.921875,-0.03125 0.25,0 0.84375,0.03125 0.9375,0.03125 v -0.234375 h -0.15625 c -0.46875,0 -0.46875,-0.078125 -0.46875,-0.265625 z m 1,-2.015625 c 0.9375,0 1.125,0.453125 1.125,0.90625 0,0.375 -0.09375,0.90625 -1.125,0.90625 H 1.609375 V -3.625 c 0,-0.1875 0,-0.234375 0.296875,-0.234375 z m 0,0"
               id="path172" />
          </g>
          <g
             id="g174"
             transform="translate(33.565666,12.475)">
            <path
               style="stroke:none"
               d="m 1.765625,-1.984375 c 0.5,0 0.84375,0.34375 0.84375,0.953125 0,0.65625 -0.390625,0.9375 -0.828125,0.9375 C 1.609375,-0.09375 1,-0.125 0.734375,-0.46875 0.96875,-0.5 1.0625,-0.65625 1.0625,-0.8125 c 0,-0.203125 -0.140625,-0.34375 -0.34375,-0.34375 -0.15625,0 -0.34375,0.109375 -0.34375,0.359375 0,0.59375 0.65625,0.921875 1.421875,0.921875 0.890625,0 1.46875,-0.5625 1.46875,-1.15625 0,-0.4375 -0.328125,-0.90625 -1.046875,-1.078125 0.484375,-0.15625 0.859375,-0.546875 0.859375,-1.03125 0,-0.484375 -0.5625,-0.84375 -1.28125,-0.84375 -0.703125,0 -1.234375,0.328125 -1.234375,0.8125 0,0.265625 0.203125,0.328125 0.328125,0.328125 0.15625,0 0.3125,-0.09375 0.3125,-0.3125 0,-0.1875 -0.125,-0.296875 -0.296875,-0.3125 0.28125,-0.3125 0.828125,-0.3125 0.890625,-0.3125 0.296875,0 0.6875,0.140625 0.6875,0.640625 0,0.328125 -0.1875,0.90625 -0.796875,0.9375 -0.109375,0 -0.265625,0.015625 -0.3125,0.015625 -0.0625,0.015625 -0.125,0.015625 -0.125,0.109375 0,0.09375 0.0625,0.09375 0.15625,0.09375 z m 0,0"
               id="path173" />
          </g>
        </g>
      </g>
    </g>
    <g
       inkscape:label=""
       transform="translate(166.77413,105.24782)"
       id="g188">
      <g
         id="g187"
         transform="matrix(0.352778,0,0,0.352778,-0.873963,-0.620712)">
        <g
           style="fill:#000000;fill-opacity:1"
           id="g179">
          <g
             id="g178"
             transform="translate(1.993,9.4469995)">
            <path
               style="stroke:none"
               d="m 7.390625,-1.765625 h -0.28125 c -0.046875,0.28125 -0.09375,0.53125 -0.1875,0.796875 -0.0625,0.171875 -0.09375,0.265625 -0.734375,0.265625 H 5.328125 C 5.46875,-1.3125 5.796875,-1.84375 6.296875,-2.5625 6.8125,-3.34375 7.25,-4.09375 7.25,-4.953125 7.25,-6.46875 5.78125,-7.6875 3.9375,-7.6875 c -1.875,0 -3.328125,1.234375 -3.328125,2.734375 0,0.859375 0.453125,1.609375 0.96875,2.390625 0.46875,0.71875 0.828125,1.25 0.96875,1.859375 h -0.875 c -0.640625,0 -0.671875,-0.09375 -0.71875,-0.25 C 0.859375,-1.203125 0.8125,-1.5 0.75,-1.765625 H 0.484375 L 0.84375,0 h 1.734375 c 0.25,0 0.28125,0 0.28125,-0.234375 0,-0.765625 -0.34375,-1.71875 -0.59375,-2.421875 -0.21875,-0.625 -0.53125,-1.484375 -0.53125,-2.3125 0,-1.734375 1.203125,-2.484375 2.1875,-2.484375 1.046875,0 2.203125,0.796875 2.203125,2.484375 0,0.828125 -0.296875,1.65625 -0.609375,2.546875 C 5.359375,-1.96875 5,-0.984375 5,-0.234375 5,0 5.03125,0 5.296875,0 H 7.03125 Z m 0,0"
               id="path177" />
          </g>
        </g>
        <g
           style="fill:#000000;fill-opacity:1"
           id="g183">
          <g
             id="g180"
             transform="translate(9.8710003,11.136)">
            <path
               style="stroke:none"
               d="m 1.90625,-2.484375 h 1.453125 c 0.96875,0 1.921875,-0.625 1.921875,-1.46875 0,-0.78125 -0.84375,-1.484375 -1.984375,-1.484375 h -2.9375 v 0.265625 h 0.1875 c 0.609375,0 0.625,0.078125 0.625,0.375 v 4.15625 c 0,0.296875 -0.015625,0.375 -0.625,0.375 h -0.1875 V 0 c 0.6875,-0.03125 0.703125,-0.03125 1.171875,-0.03125 0.484375,0 0.5,0 1.171875,0.03125 V -0.265625 H 2.53125 c -0.609375,0 -0.625,-0.078125 -0.625,-0.375 z M 1.875,-2.71875 v -2.140625 c 0,-0.265625 0.015625,-0.3125 0.390625,-0.3125 H 3.09375 c 1.359375,0 1.359375,0.859375 1.359375,1.21875 0,0.34375 0,1.234375 -1.359375,1.234375 z m 0,0"
               id="path179" />
          </g>
          <g
             id="g181"
             transform="translate(15.630194,11.136)">
            <path
               style="stroke:none"
               d="M 2.03125,-5.265625 C 1.953125,-5.421875 1.953125,-5.4375 1.734375,-5.4375 h -1.34375 v 0.265625 H 0.5625 c 0.609375,0 0.625,0.078125 0.625,0.375 v 3.9375 c 0,0.21875 0,0.59375 -0.796875,0.59375 V 0 C 0.75,-0.03125 1.125,-0.03125 1.328125,-0.03125 c 0.203125,0 0.578125,0 0.9375,0.03125 v -0.265625 c -0.796875,0 -0.796875,-0.375 -0.796875,-0.59375 V -5.09375 L 3.484375,-0.1875 C 3.53125,-0.09375 3.5625,0 3.671875,0 3.78125,0 3.8125,-0.09375 3.859375,-0.1875 l 2.03125,-4.96875 v 4.515625 c 0,0.296875 -0.015625,0.375 -0.625,0.375 H 5.09375 V 0 c 0.625,-0.03125 0.640625,-0.03125 1.125,-0.03125 0.484375,0 0.5,0 1.140625,0.03125 V -0.265625 H 7.1875 c -0.625,0 -0.640625,-0.078125 -0.640625,-0.375 v -4.15625 c 0,-0.296875 0.015625,-0.375 0.640625,-0.375 H 7.359375 V -5.4375 h -1.34375 c -0.21875,0 -0.234375,0.015625 -0.296875,0.15625 L 3.875,-0.75 Z m 0,0"
               id="path180" />
          </g>
          <g
             id="g182"
             transform="translate(23.384304,11.136)">
            <path
               style="stroke:none"
               d="m 4.9375,-2.078125 h -0.25 c -0.09375,0.828125 -0.21875,1.8125 -1.671875,1.8125 h -0.75 c -0.359375,0 -0.375,-0.046875 -0.375,-0.328125 v -4.203125 c 0,-0.265625 0,-0.375 0.75,-0.375 h 0.25 V -5.4375 c -0.359375,0.015625 -0.9375,0.015625 -1.3125,0.015625 -0.53125,0 -0.546875,0 -1.234375,-0.015625 v 0.265625 h 0.1875 c 0.609375,0 0.625,0.078125 0.625,0.375 v 4.15625 c 0,0.296875 -0.015625,0.375 -0.625,0.375 H 0.34375 V 0 h 4.359375 z m 0,0"
               id="path181" />
          </g>
        </g>
        <g
           style="fill:#000000;fill-opacity:1"
           id="g186">
          <g
             id="g184"
             transform="translate(28.673,12.475)">
            <path
               style="stroke:none"
               d="M 1.640625,-1.84375 H 2.84375 c 0.78125,0 1.578125,-0.453125 1.578125,-1.109375 0,-0.625 -0.734375,-1.140625 -1.625,-1.140625 H 0.40625 v 0.234375 H 0.5625 c 0.46875,0 0.46875,0.078125 0.46875,0.28125 V -0.5 c 0,0.1875 0,0.265625 -0.46875,0.265625 H 0.40625 V 0 c 0.078125,0 0.671875,-0.03125 0.921875,-0.03125 0.25,0 0.84375,0.03125 0.9375,0.03125 v -0.234375 h -0.15625 c -0.46875,0 -0.46875,-0.078125 -0.46875,-0.265625 z m 1,-2.015625 c 0.9375,0 1.125,0.453125 1.125,0.90625 0,0.375 -0.09375,0.90625 -1.125,0.90625 H 1.609375 V -3.625 c 0,-0.1875 0,-0.234375 0.296875,-0.234375 z m 0,0"
               id="path183" />
          </g>
          <g
             id="g185"
             transform="translate(33.565666,12.475)">
            <path
               style="stroke:none"
               d="m 1.765625,-1.984375 c 0.5,0 0.84375,0.34375 0.84375,0.953125 0,0.65625 -0.390625,0.9375 -0.828125,0.9375 C 1.609375,-0.09375 1,-0.125 0.734375,-0.46875 0.96875,-0.5 1.0625,-0.65625 1.0625,-0.8125 c 0,-0.203125 -0.140625,-0.34375 -0.34375,-0.34375 -0.15625,0 -0.34375,0.109375 -0.34375,0.359375 0,0.59375 0.65625,0.921875 1.421875,0.921875 0.890625,0 1.46875,-0.5625 1.46875,-1.15625 0,-0.4375 -0.328125,-0.90625 -1.046875,-1.078125 0.484375,-0.15625 0.859375,-0.546875 0.859375,-1.03125 0,-0.484375 -0.5625,-0.84375 -1.28125,-0.84375 -0.703125,0 -1.234375,0.328125 -1.234375,0.8125 0,0.265625 0.203125,0.328125 0.328125,0.328125 0.15625,0 0.3125,-0.09375 0.3125,-0.3125 0,-0.1875 -0.125,-0.296875 -0.296875,-0.3125 0.28125,-0.3125 0.828125,-0.3125 0.890625,-0.3125 0.296875,0 0.6875,0.140625 0.6875,0.640625 0,0.328125 -0.1875,0.90625 -0.796875,0.9375 -0.109375,0 -0.265625,0.015625 -0.3125,0.015625 -0.0625,0.015625 -0.125,0.015625 -0.125,0.109375 0,0.09375 0.0625,0.09375 0.15625,0.09375 z m 0,0"
               id="path184" />
          </g>
        </g>
      </g>
    </g>
    <path
       style="fill:none;stroke:#000000;stroke-width:0.25;stroke-linecap:butt;stroke-linejoin:miter;stroke-dasharray:none;stroke-opacity:1"
       d="m 111.11281,100.03367 0.001,14.12746 55.05741,-0.0664"
       id="path188" />
    <path
       style="fill:none;stroke:#000000;stroke-width:0.25;stroke-linecap:butt;stroke-linejoin:miter;stroke-dasharray:0.500001, 0.25;stroke-dashoffset:0;stroke-opacity:1;marker-start:url(#Triangle);marker-end:url(#Triangle)"
       d="M 182.08352,113.70043 V 100.69694"
       id="path189" />
    <g
       inkscape:label=""
       transform="translate(182.38538,105.11997)"
       id="g196">
      <g
         id="g195"
         transform="matrix(0.352778,0,0,0.352778,-0.857426,-0.707496)">
        <g
           style="fill:#000000;fill-opacity:1"
           id="g7">
          <g
             id="use6"
             transform="translate(1.993,9.5679998)">
            <path
               style="stroke:none"
               d="m 5.625,-7.453125 c 0,0 0,-0.109375 -0.140625,-0.109375 -0.15625,0 -1.203125,0.09375 -1.390625,0.109375 -0.078125,0.015625 -0.140625,0.0625 -0.140625,0.21875 0,0.125 0.09375,0.125 0.25,0.125 0.53125,0 0.546875,0.078125 0.546875,0.1875 L 4.71875,-6.703125 4.0625,-4.125 c -0.1875,-0.40625 -0.5,-0.703125 -1,-0.703125 -1.28125,0 -2.625,1.609375 -2.625,3.203125 0,1.03125 0.59375,1.75 1.453125,1.75 0.21875,0 0.765625,-0.046875 1.40625,-0.828125 0.09375,0.46875 0.484375,0.828125 1,0.828125 0.375,0 0.625,-0.25 0.8125,-0.609375 C 5.296875,-0.875 5.4375,-1.53125 5.4375,-1.5625 5.4375,-1.671875 5.328125,-1.671875 5.296875,-1.671875 5.1875,-1.671875 5.1875,-1.625 5.140625,-1.46875 4.96875,-0.765625 4.765625,-0.125 4.3125,-0.125 c -0.28125,0 -0.328125,-0.28125 -0.328125,-0.5 0,-0.265625 0.03125,-0.328125 0.078125,-0.515625 z m -2.265625,6.15625 c -0.0625,0.203125 -0.0625,0.21875 -0.21875,0.40625 C 2.65625,-0.296875 2.21875,-0.125 1.90625,-0.125 c -0.546875,0 -0.703125,-0.59375 -0.703125,-1.015625 0,-0.546875 0.359375,-1.890625 0.609375,-2.390625 0.34375,-0.640625 0.828125,-1.046875 1.265625,-1.046875 0.703125,0 0.859375,0.890625 0.859375,0.953125 0,0.0625 -0.015625,0.140625 -0.03125,0.1875 z m 0,0"
               id="path190" />
          </g>
        </g>
        <g
           style="fill:#000000;fill-opacity:1"
           id="g194">
          <g
             id="use7"
             transform="translate(7.671,11.256)">
            <path
               style="stroke:none"
               d="m 1.90625,-2.484375 h 1.453125 c 0.96875,0 1.921875,-0.625 1.921875,-1.46875 0,-0.78125 -0.84375,-1.484375 -1.984375,-1.484375 h -2.9375 v 0.265625 h 0.1875 c 0.609375,0 0.625,0.078125 0.625,0.375 v 4.15625 c 0,0.296875 -0.015625,0.375 -0.625,0.375 h -0.1875 V 0 c 0.6875,-0.03125 0.703125,-0.03125 1.171875,-0.03125 0.484375,0 0.5,0 1.171875,0.03125 V -0.265625 H 2.53125 c -0.609375,0 -0.625,-0.078125 -0.625,-0.375 z M 1.875,-2.71875 v -2.140625 c 0,-0.265625 0.015625,-0.3125 0.390625,-0.3125 H 3.09375 c 1.359375,0 1.359375,0.859375 1.359375,1.21875 0,0.34375 0,1.234375 -1.359375,1.234375 z m 0,0"
               id="path191" />
          </g>
          <g
             id="g192"
             transform="translate(13.430194,11.256)">
            <path
               style="stroke:none"
               d="M 2.03125,-5.265625 C 1.953125,-5.421875 1.953125,-5.4375 1.734375,-5.4375 h -1.34375 v 0.265625 H 0.5625 c 0.609375,0 0.625,0.078125 0.625,0.375 v 3.9375 c 0,0.21875 0,0.59375 -0.796875,0.59375 V 0 C 0.75,-0.03125 1.125,-0.03125 1.328125,-0.03125 c 0.203125,0 0.578125,0 0.9375,0.03125 v -0.265625 c -0.796875,0 -0.796875,-0.375 -0.796875,-0.59375 V -5.09375 L 3.484375,-0.1875 C 3.53125,-0.09375 3.5625,0 3.671875,0 3.78125,0 3.8125,-0.09375 3.859375,-0.1875 l 2.03125,-4.96875 v 4.515625 c 0,0.296875 -0.015625,0.375 -0.625,0.375 H 5.09375 V 0 c 0.625,-0.03125 0.640625,-0.03125 1.125,-0.03125 0.484375,0 0.5,0 1.140625,0.03125 V -0.265625 H 7.1875 c -0.625,0 -0.640625,-0.078125 -0.640625,-0.375 v -4.15625 c 0,-0.296875 0.015625,-0.375 0.640625,-0.375 H 7.359375 V -5.4375 h -1.34375 c -0.21875,0 -0.234375,0.015625 -0.296875,0.15625 L 3.875,-0.75 Z m 0,0"
               id="path192" />
          </g>
          <g
             id="g193"
             transform="translate(21.184305,11.256)">
            <path
               style="stroke:none"
               d="m 4.9375,-2.078125 h -0.25 c -0.09375,0.828125 -0.21875,1.8125 -1.671875,1.8125 h -0.75 c -0.359375,0 -0.375,-0.046875 -0.375,-0.328125 v -4.203125 c 0,-0.265625 0,-0.375 0.75,-0.375 h 0.25 V -5.4375 c -0.359375,0.015625 -0.9375,0.015625 -1.3125,0.015625 -0.53125,0 -0.546875,0 -1.234375,-0.015625 v 0.265625 h 0.1875 c 0.609375,0 0.625,0.078125 0.625,0.375 v 4.15625 c 0,0.296875 -0.015625,0.375 -0.625,0.375 H 0.34375 V 0 h 4.359375 z m 0,0"
               id="path193" />
          </g>
        </g>
      </g>
    </g>
    <g
       inkscape:label=""
       transform="translate(105.1024,101.54349)"
       id="g202">
      <g
         id="g201"
         transform="matrix(0.352778,0,0,0.352778,-0.890499,-0.677025)">
        <g
           style="fill:#000000;fill-opacity:1"
           id="g198">
          <g
             id="g197"
             transform="translate(1.993,6.8410001)">
            <path
               style="stroke:none"
               d="m 2.421875,-2.375 c 0.734375,0 1.4375,-0.0625 1.890625,-0.21875 0.9375,-0.3125 1.09375,-0.9375 1.09375,-1.28125 0,-0.640625 -0.609375,-1.046875 -1.5,-1.046875 -1.96875,0 -3.375,1.359375 -3.375,3.046875 0,1.25 0.84375,1.96875 2.28125,1.96875 0.28125,0 1.03125,-0.015625 1.6875,-0.265625 C 5.140625,-0.421875 5.578125,-0.875 5.578125,-1 c 0,-0.09375 -0.171875,-0.28125 -0.28125,-0.28125 -0.0625,0 -0.078125,0.03125 -0.15625,0.109375 -0.59375,0.625 -1.4375,0.859375 -2.296875,0.859375 -0.78125,0 -1.0625,-0.421875 -1.0625,-1.046875 0,-0.21875 0.046875,-0.578125 0.15625,-1.015625 z m -0.375,-0.390625 C 2.234375,-3.5625 2.5,-3.859375 2.6875,-4.03125 c 0.375,-0.390625 0.875,-0.5 1.21875,-0.5 0.390625,0 0.84375,0.171875 0.84375,0.65625 0,1.109375 -1.65625,1.109375 -2.703125,1.109375 z m 0,0"
               id="path196" />
          </g>
        </g>
        <g
           style="fill:#000000;fill-opacity:1"
           id="g200">
          <g
             id="g199"
             transform="translate(8.0319996,8.4770002)">
            <path
               style="stroke:none"
               d="M 3.015625,-4.96875 C 3.015625,-5.25 2.96875,-5.25 2.65625,-5.25 c -0.484375,0.390625 -1.125,0.515625 -1.75,0.515625 H 0.734375 V -4.3125 H 0.90625 c 0.203125,0 0.640625,-0.03125 1.109375,-0.171875 v 4.0625 H 0.8125 V 0 c 0.28125,-0.03125 1.34375,-0.03125 1.703125,-0.03125 0.359375,0 1.390625,0 1.6875,0.03125 v -0.421875 h -1.1875 z m 0,0"
               id="path198" />
          </g>
        </g>
      </g>
    </g>
    <g
       inkscape:label=""
       transform="translate(112.74729,101.53186)"
       id="g208">
      <g
         id="g207"
         transform="matrix(0.352778,0,0,0.352778,-0.890499,-0.677025)">
        <g
           style="fill:#000000;fill-opacity:1"
           id="g204">
          <g
             id="g203"
             transform="translate(1.993,6.8410001)">
            <path
               style="stroke:none"
               d="m 2.421875,-2.375 c 0.734375,0 1.4375,-0.0625 1.890625,-0.21875 0.9375,-0.3125 1.09375,-0.9375 1.09375,-1.28125 0,-0.640625 -0.609375,-1.046875 -1.5,-1.046875 -1.96875,0 -3.375,1.359375 -3.375,3.046875 0,1.25 0.84375,1.96875 2.28125,1.96875 0.28125,0 1.03125,-0.015625 1.6875,-0.265625 C 5.140625,-0.421875 5.578125,-0.875 5.578125,-1 c 0,-0.09375 -0.171875,-0.28125 -0.28125,-0.28125 -0.0625,0 -0.078125,0.03125 -0.15625,0.109375 -0.59375,0.625 -1.4375,0.859375 -2.296875,0.859375 -0.78125,0 -1.0625,-0.421875 -1.0625,-1.046875 0,-0.21875 0.046875,-0.578125 0.15625,-1.015625 z m -0.375,-0.390625 C 2.234375,-3.5625 2.5,-3.859375 2.6875,-4.03125 c 0.375,-0.390625 0.875,-0.5 1.21875,-0.5 0.390625,0 0.84375,0.171875 0.84375,0.65625 0,1.109375 -1.65625,1.109375 -2.703125,1.109375 z m 0,0"
               id="path202" />
          </g>
        </g>
        <g
           style="fill:#000000;fill-opacity:1"
           id="g206">
          <g
             id="g205"
             transform="translate(8.0319996,8.4770002)">
            <path
               style="stroke:none"
               d="M 4.390625,-1.8125 H 3.9375 C 3.875,-1.296875 3.78125,-1.125 3.734375,-1.109375 3.640625,-1.0625 3.03125,-1.0625 2.890625,-1.0625 h -1.09375 c 1.0625,-0.828125 1.5,-1.078125 1.84375,-1.34375 0.546875,-0.4375 0.75,-0.828125 0.75,-1.28125 0,-0.9375 -0.875,-1.5625 -2.078125,-1.5625 -1.015625,0 -1.828125,0.453125 -1.828125,1.203125 0,0.484375 0.390625,0.625 0.609375,0.625 0.28125,0 0.609375,-0.203125 0.609375,-0.609375 0,-0.375 -0.265625,-0.53125 -0.375,-0.5625 C 1.546875,-4.765625 1.875,-4.828125 2.125,-4.828125 c 0.71875,0 1.109375,0.53125 1.109375,1.140625 0,0.65625 -0.421875,1.1875 -0.890625,1.625 l -1.765625,1.640625 c -0.078125,0.09375 -0.09375,0.09375 -0.09375,0.25 V 0 H 4.125 Z m 0,0"
               id="path204" />
          </g>
        </g>
      </g>
    </g>
    <g
       inkscape:label=""
       transform="translate(112.42508,95.868121)"
       id="g220">
      <g
         id="g219"
         transform="matrix(0.352778,0,0,0.352778,-0.890499,-0.677025)">
        <g
           style="fill:#000000;fill-opacity:1"
           id="g216">
          <g
             id="g215"
             transform="translate(1.993,6.8410001)">
            <path
               style="stroke:none"
               d="m 2.421875,-2.375 c 0.734375,0 1.4375,-0.0625 1.890625,-0.21875 0.9375,-0.3125 1.09375,-0.9375 1.09375,-1.28125 0,-0.640625 -0.609375,-1.046875 -1.5,-1.046875 -1.96875,0 -3.375,1.359375 -3.375,3.046875 0,1.25 0.84375,1.96875 2.28125,1.96875 0.28125,0 1.03125,-0.015625 1.6875,-0.265625 C 5.140625,-0.421875 5.578125,-0.875 5.578125,-1 c 0,-0.09375 -0.171875,-0.28125 -0.28125,-0.28125 -0.0625,0 -0.078125,0.03125 -0.15625,0.109375 -0.59375,0.625 -1.4375,0.859375 -2.296875,0.859375 -0.78125,0 -1.0625,-0.421875 -1.0625,-1.046875 0,-0.21875 0.046875,-0.578125 0.15625,-1.015625 z m -0.375,-0.390625 C 2.234375,-3.5625 2.5,-3.859375 2.6875,-4.03125 c 0.375,-0.390625 0.875,-0.5 1.21875,-0.5 0.390625,0 0.84375,0.171875 0.84375,0.65625 0,1.109375 -1.65625,1.109375 -2.703125,1.109375 z m 0,0"
               id="path214" />
          </g>
        </g>
        <g
           style="fill:#000000;fill-opacity:1"
           id="g218">
          <g
             id="g217"
             transform="translate(8.0319996,8.4770002)">
            <path
               style="stroke:none"
               d="m 2.265625,-2.609375 c 0.921875,0 0.9375,0.78125 0.9375,1.171875 0,0.359375 0,1.171875 -0.90625,1.171875 -0.171875,0 -0.625,-0.015625 -1.015625,-0.28125 0.125,-0.046875 0.421875,-0.21875 0.421875,-0.609375 0,-0.375 -0.28125,-0.640625 -0.65625,-0.640625 -0.34375,0 -0.640625,0.234375 -0.640625,0.65625 0,0.765625 0.828125,1.25 1.921875,1.25 1.5625,0 2.140625,-0.84375 2.140625,-1.53125 0,-0.65625 -0.5,-1.203125 -1.359375,-1.390625 0.21875,-0.09375 1.09375,-0.4375 1.09375,-1.296875 C 4.203125,-4.75 3.546875,-5.25 2.359375,-5.25 c -1.03125,0 -1.6875,0.5625 -1.6875,1.203125 0,0.453125 0.359375,0.609375 0.59375,0.609375 0.3125,0 0.59375,-0.21875 0.59375,-0.59375 0,-0.171875 -0.0625,-0.46875 -0.453125,-0.5625 0.359375,-0.3125 0.828125,-0.3125 0.90625,-0.3125 0.734375,0 0.734375,0.53125 0.734375,0.765625 0,0.578125 -0.265625,0.875 -0.296875,0.90625 -0.21875,0.25 -0.375,0.25 -0.796875,0.28125 -0.25,0.015625 -0.328125,0.015625 -0.328125,0.1875 0,0.15625 0.109375,0.15625 0.25,0.15625 z m 0,0"
               id="path216" />
          </g>
        </g>
      </g>
    </g>
    <path
       style="fill:none;stroke:#000000;stroke-width:0.249948;stroke-linecap:butt;stroke-linejoin:miter;stroke-dasharray:none;stroke-opacity:1"
       d="M 97.152285,75.420322 V 27.345739"
       id="path2" />
    <path
       style="fill:none;stroke:#a21907;stroke-width:0.25087;stroke-linecap:butt;stroke-linejoin:miter;stroke-dasharray:none;stroke-opacity:1"
       d="M 111.20611,27.321089 H 97.026905"
       id="path3" />
    <path
       style="fill:none;stroke:#000000;stroke-width:0.25;stroke-linecap:butt;stroke-linejoin:miter;stroke-dasharray:none;stroke-opacity:1"
       d="M 180.54758,27.19941 V 75.166533"
       id="path5" />
    <path
       style="fill:none;stroke:#000000;stroke-width:0.264862px;stroke-linecap:butt;stroke-linejoin:miter;stroke-opacity:1"
       d="M 180.673,75.261907 H 166.47728"
       id="path10" />
    <g
       id="g1782"
       transform="matrix(0.31910256,0,0,0.31293133,111.31215,29.030869)">
      <path
         d="M -0.5268839,-5.4861429 H 172.72224 V 148.109 H -0.5268839 Z"
         style="fill:#0c4ec4;fill-opacity:0.2543;fill-rule:evenodd;stroke:none;stroke-width:1.90452"
         id="path1784" />
      <g
         id="g1786">
        <path
           d="M 15.375,218.625 H 131.25"
           style="fill:none;stroke:#000000;stroke-width:0.749999;stroke-linecap:butt;stroke-linejoin:miter;stroke-miterlimit:4;stroke-dasharray:1.5, 0.749999;stroke-dashoffset:0;stroke-opacity:1"
           id="path1788" />
      </g>
      <g
         id="g1790">
        <path
           d="m 19.297,220.441 -4.914,-1.808 4.914,-1.809 c -0.785,1.067 -0.781,2.528 0,3.617 z"
           style="fill:#000000;fill-opacity:1;fill-rule:evenodd;stroke:#000000;stroke-width:0.28125;stroke-linecap:butt;stroke-linejoin:round;stroke-miterlimit:4;stroke-dasharray:none;stroke-opacity:1"
           id="path1792" />
      </g>
      <g
         id="g1794"
         transform="scale(-1)">
        <path
           d="m -127.328,-216.809 -4.914,-1.808 4.914,-1.809 c -0.785,1.067 -0.781,2.528 0,3.617 z"
           style="fill:#000000;fill-opacity:1;fill-rule:evenodd;stroke:#000000;stroke-width:0.28125;stroke-linecap:butt;stroke-linejoin:round;stroke-miterlimit:4;stroke-dasharray:none;stroke-opacity:1"
           id="path1796" />
      </g>
    </g>
    <g
       inkscape:label=""
       transform="translate(170.13914,115.90542)"
       id="g23">
      <g
         id="surface1"
         transform="matrix(0.352778,0,0,0.352778,-0.829866,-0.714419)">
        <g
           style="fill:#000000;fill-opacity:1"
           id="g13">
          <g
             id="g12"
             transform="translate(1.993,9.4469995)">
            <path
               style="stroke:none"
               d="m 6.046875,-7.421875 h -5.6875 v 0.34375 H 0.625 c 0.84375,0 0.859375,0.125 0.859375,0.515625 v 5.71875 c 0,0.390625 -0.015625,0.5 -0.859375,0.5 H 0.359375 V 0 c 0.375,-0.03125 1.234375,-0.03125 1.65625,-0.03125 0.453125,0 1.4375,0 1.828125,0.03125 V -0.34375 H 3.484375 c -1.03125,0 -1.03125,-0.140625 -1.03125,-0.515625 v -5.78125 c 0,-0.359375 0.015625,-0.4375 0.53125,-0.4375 h 1.125 c 1.5625,0 1.796875,0.640625 1.96875,2.109375 H 6.34375 Z m 0,0"
               id="path12" />
          </g>
        </g>
        <g
           style="fill:#000000;fill-opacity:1"
           id="g22">
          <g
             id="g14"
             transform="translate(8.8109999,11.135)">
            <path
               style="stroke:none"
               d="m 1.90625,-2.484375 h 1.453125 c 0.96875,0 1.921875,-0.625 1.921875,-1.46875 0,-0.78125 -0.84375,-1.484375 -1.984375,-1.484375 h -2.9375 v 0.265625 h 0.1875 c 0.609375,0 0.625,0.078125 0.625,0.375 v 4.15625 c 0,0.296875 -0.015625,0.375 -0.625,0.375 h -0.1875 V 0 c 0.6875,-0.03125 0.703125,-0.03125 1.171875,-0.03125 0.484375,0 0.5,0 1.171875,0.03125 V -0.265625 H 2.53125 c -0.609375,0 -0.625,-0.078125 -0.625,-0.375 z M 1.875,-2.71875 v -2.140625 c 0,-0.265625 0.015625,-0.3125 0.390625,-0.3125 H 3.09375 c 1.359375,0 1.359375,0.859375 1.359375,1.21875 0,0.34375 0,1.234375 -1.359375,1.234375 z m 0,0"
               id="path13" />
          </g>
          <g
             id="g17"
             transform="translate(14.570194,11.135)">
            <path
               style="stroke:none"
               d="M 2.03125,-5.265625 C 1.953125,-5.421875 1.953125,-5.4375 1.734375,-5.4375 h -1.34375 v 0.265625 H 0.5625 c 0.609375,0 0.625,0.078125 0.625,0.375 v 3.9375 c 0,0.21875 0,0.59375 -0.796875,0.59375 V 0 C 0.75,-0.03125 1.125,-0.03125 1.328125,-0.03125 c 0.203125,0 0.578125,0 0.9375,0.03125 v -0.265625 c -0.796875,0 -0.796875,-0.375 -0.796875,-0.59375 V -5.09375 L 3.484375,-0.1875 C 3.53125,-0.09375 3.5625,0 3.671875,0 3.78125,0 3.8125,-0.09375 3.859375,-0.1875 l 2.03125,-4.96875 v 4.515625 c 0,0.296875 -0.015625,0.375 -0.625,0.375 H 5.09375 V 0 c 0.625,-0.03125 0.640625,-0.03125 1.125,-0.03125 0.484375,0 0.5,0 1.140625,0.03125 V -0.265625 H 7.1875 c -0.625,0 -0.640625,-0.078125 -0.640625,-0.375 v -4.15625 c 0,-0.296875 0.015625,-0.375 0.640625,-0.375 H 7.359375 V -5.4375 h -1.34375 c -0.21875,0 -0.234375,0.015625 -0.296875,0.15625 L 3.875,-0.75 Z m 0,0"
               id="path17" />
          </g>
          <g
             id="g21"
             transform="translate(22.324305,11.135)">
            <path
               style="stroke:none"
               d="m 4.9375,-2.078125 h -0.25 c -0.09375,0.828125 -0.21875,1.8125 -1.671875,1.8125 h -0.75 c -0.359375,0 -0.375,-0.046875 -0.375,-0.328125 v -4.203125 c 0,-0.265625 0,-0.375 0.75,-0.375 h 0.25 V -5.4375 c -0.359375,0.015625 -0.9375,0.015625 -1.3125,0.015625 -0.53125,0 -0.546875,0 -1.234375,-0.015625 v 0.265625 h 0.1875 c 0.609375,0 0.625,0.078125 0.625,0.375 v 4.15625 c 0,0.296875 -0.015625,0.375 -0.625,0.375 H 0.34375 V 0 h 4.359375 z m 0,0"
               id="path21" />
          </g>
        </g>
      </g>
    </g>
  </g>
</svg>
