<?xml version="1.0" encoding="UTF-8" standalone="no"?>
<!-- Created with Inkscape (http://www.inkscape.org/) -->

<svg
   sodipodi:docname="benchmark2.svg"
   id="svg1948"
   version="1.1"
   viewBox="0 0 110.31839 65.237236"
   height="65.237236mm"
   width="110.31839mm"
   inkscape:version="1.3.2 (1:1.3.2+202311252150+091e20ef0f)"
   xmlns:inkscape="http://www.inkscape.org/namespaces/inkscape"
   xmlns:sodipodi="http://sodipodi.sourceforge.net/DTD/sodipodi-0.dtd"
   xmlns="http://www.w3.org/2000/svg"
   xmlns:svg="http://www.w3.org/2000/svg">
  <sodipodi:namedview
     id="namedview1950"
     pagecolor="#ffffff"
     bordercolor="#666666"
     borderopacity="1.0"
     inkscape:pageshadow="2"
     inkscape:pageopacity="0.0"
     inkscape:pagecheckerboard="0"
     inkscape:document-units="mm"
     showgrid="false"
     inkscape:zoom="1.28"
     inkscape:cx="121.09375"
     inkscape:cy="207.8125"
     inkscape:window-width="1850"
     inkscape:window-height="1136"
     inkscape:window-x="70"
     inkscape:window-y="1107"
     inkscape:window-maximized="1"
     inkscape:current-layer="layer1"
     inkscape:showpageshadow="2"
     inkscape:deskcolor="#d1d1d1" />
  <defs
     id="defs1945">
    <clipPath
       clipPathUnits="userSpaceOnUse"
       id="clipPath2066">
      <path
         d="M 0,0 H 320 V 175 H 0 Z"
         id="path2064" />
    </clipPath>
    <clipPath
       clipPathUnits="userSpaceOnUse"
       id="clipPath2082">
      <path
         d="M 0,0 H 320 V 175 H 0 Z"
         id="path2080" />
    </clipPath>
    <clipPath
       clipPathUnits="userSpaceOnUse"
       id="clipPath2100">
      <path
         d="M 0,0 H 320 V 175 H 0 Z"
         id="path2098" />
    </clipPath>
    <clipPath
       clipPathUnits="userSpaceOnUse"
       id="clipPath2150">
      <path
         d="M 0,0 H 320 V 175 H 0 Z"
         id="path2148" />
    </clipPath>
    <g
       id="g2100">
      <symbol
         overflow="visible"
         id="symbol7451">
        <path
           style="stroke:none"
           d=""
           id="path6055" />
      </symbol>
      <symbol
         overflow="visible"
         id="symbol7171">
        <path
           style="stroke:none"
           d="M 6.75,-1.609375 H 6.5 c -0.046875,0.25 -0.09375,0.484375 -0.1875,0.71875 -0.046875,0.15625 -0.078125,0.25 -0.65625,0.25 H 4.859375 C 5,-1.203125 5.296875,-1.6875 5.75,-2.34375 c 0.46875,-0.703125 0.875,-1.390625 0.875,-2.1875 0,-1.375 -1.34375,-2.5 -3.03125,-2.5 -1.703125,0 -3.03125,1.140625 -3.03125,2.5 0,0.796875 0.40625,1.484375 0.875,2.1875 0.4375,0.65625 0.75,1.140625 0.890625,1.703125 H 1.53125 C 0.953125,-0.640625 0.921875,-0.734375 0.875,-0.875 0.78125,-1.109375 0.734375,-1.359375 0.6875,-1.609375 h -0.25 L 0.765625,0 h 1.59375 c 0.21875,0 0.25,0 0.25,-0.203125 0,-0.703125 -0.3125,-1.578125 -0.53125,-2.21875 -0.21875,-0.578125 -0.5,-1.359375 -0.5,-2.109375 0,-1.59375 1.109375,-2.28125 2.015625,-2.28125 0.953125,0 2.015625,0.71875 2.015625,2.28125 0,0.75 -0.28125,1.5 -0.5625,2.3125 -0.15625,0.421875 -0.46875,1.328125 -0.46875,2.015625 C 4.578125,0 4.609375,0 4.828125,0 h 1.59375 z m 0,0"
           id="path8459" />
      </symbol>
      <symbol
         overflow="visible"
         id="symbol1911">
        <path
           style="stroke:none"
           d=""
           id="path4656" />
      </symbol>
      <symbol
         overflow="visible"
         id="symbol4117">
        <path
           style="stroke:none"
           d="m 4.546875,-4.734375 h -4.15625 v 0.25 H 0.5625 c 0.53125,0 0.546875,0.078125 0.546875,0.3125 V -0.5625 c 0,0.234375 -0.015625,0.3125 -0.546875,0.3125 H 0.390625 V 0 c 0,0 0.796875,-0.03125 1.0625,-0.03125 C 1.734375,-0.03125 2.5625,0 2.671875,0 v -0.25 h -0.25 c -0.65625,0 -0.65625,-0.09375 -0.65625,-0.328125 V -2.25 h 0.6875 c 0.6875,0 0.78125,0.21875 0.78125,0.828125 h 0.25 V -3.3125 h -0.25 c 0,0.609375 -0.09375,0.8125 -0.78125,0.8125 h -0.6875 v -1.703125 c 0,-0.21875 0.015625,-0.28125 0.34375,-0.28125 h 0.96875 c 1.125,0 1.3125,0.375 1.4375,1.359375 H 4.75 Z m 0,0"
           id="path5776" />
      </symbol>
    </g>
    <g
       id="g2955">
      <symbol
         overflow="visible"
         id="symbol9408">
        <path
           style="stroke:none"
           d=""
           id="path8476" />
      </symbol>
      <symbol
         overflow="visible"
         id="symbol510">
        <path
           style="stroke:none"
           d="M 6.75,-1.609375 H 6.5 c -0.046875,0.25 -0.09375,0.484375 -0.1875,0.71875 -0.046875,0.15625 -0.078125,0.25 -0.65625,0.25 H 4.859375 C 5,-1.203125 5.296875,-1.6875 5.75,-2.34375 c 0.46875,-0.703125 0.875,-1.390625 0.875,-2.1875 0,-1.375 -1.34375,-2.5 -3.03125,-2.5 -1.703125,0 -3.03125,1.140625 -3.03125,2.5 0,0.796875 0.40625,1.484375 0.875,2.1875 0.4375,0.65625 0.75,1.140625 0.890625,1.703125 H 1.53125 C 0.953125,-0.640625 0.921875,-0.734375 0.875,-0.875 0.78125,-1.109375 0.734375,-1.359375 0.6875,-1.609375 h -0.25 L 0.765625,0 h 1.59375 c 0.21875,0 0.25,0 0.25,-0.203125 0,-0.703125 -0.3125,-1.578125 -0.53125,-2.21875 -0.21875,-0.578125 -0.5,-1.359375 -0.5,-2.109375 0,-1.59375 1.109375,-2.28125 2.015625,-2.28125 0.953125,0 2.015625,0.71875 2.015625,2.28125 0,0.75 -0.28125,1.5 -0.5625,2.3125 -0.15625,0.421875 -0.46875,1.328125 -0.46875,2.015625 C 4.578125,0 4.609375,0 4.828125,0 h 1.59375 z m 0,0"
           id="path3020" />
      </symbol>
      <symbol
         overflow="visible"
         id="symbol5938">
        <path
           style="stroke:none"
           d=""
           id="path3723" />
      </symbol>
      <symbol
         overflow="visible"
         id="symbol2838">
        <path
           style="stroke:none"
           d="m 4.546875,-4.734375 h -4.15625 v 0.25 H 0.5625 c 0.53125,0 0.546875,0.078125 0.546875,0.3125 V -0.5625 c 0,0.234375 -0.015625,0.3125 -0.546875,0.3125 H 0.390625 V 0 c 0,0 0.796875,-0.03125 1.0625,-0.03125 C 1.734375,-0.03125 2.5625,0 2.671875,0 v -0.25 h -0.25 c -0.65625,0 -0.65625,-0.09375 -0.65625,-0.328125 V -2.25 h 0.6875 c 0.6875,0 0.78125,0.21875 0.78125,0.828125 h 0.25 V -3.3125 h -0.25 c 0,0.609375 -0.09375,0.8125 -0.78125,0.8125 h -0.6875 v -1.703125 c 0,-0.21875 0.015625,-0.28125 0.34375,-0.28125 h 0.96875 c 1.125,0 1.3125,0.375 1.4375,1.359375 H 4.75 Z m 0,0"
           id="path3523" />
      </symbol>
    </g>
    <g
       id="g6105">
      <symbol
         overflow="visible"
         id="symbol5604">
        <path
           style="stroke:none"
           d=""
           id="path5924" />
      </symbol>
      <symbol
         overflow="visible"
         id="symbol3504">
        <path
           style="stroke:none"
           d="M 6.75,-1.609375 H 6.5 c -0.046875,0.25 -0.09375,0.484375 -0.1875,0.71875 -0.046875,0.15625 -0.078125,0.25 -0.65625,0.25 H 4.859375 C 5,-1.203125 5.296875,-1.6875 5.75,-2.34375 c 0.46875,-0.703125 0.875,-1.390625 0.875,-2.1875 0,-1.375 -1.34375,-2.5 -3.03125,-2.5 -1.703125,0 -3.03125,1.140625 -3.03125,2.5 0,0.796875 0.40625,1.484375 0.875,2.1875 0.4375,0.65625 0.75,1.140625 0.890625,1.703125 H 1.53125 C 0.953125,-0.640625 0.921875,-0.734375 0.875,-0.875 0.78125,-1.109375 0.734375,-1.359375 0.6875,-1.609375 h -0.25 L 0.765625,0 h 1.59375 c 0.21875,0 0.25,0 0.25,-0.203125 0,-0.703125 -0.3125,-1.578125 -0.53125,-2.21875 -0.21875,-0.578125 -0.5,-1.359375 -0.5,-2.109375 0,-1.59375 1.109375,-2.28125 2.015625,-2.28125 0.953125,0 2.015625,0.71875 2.015625,2.28125 0,0.75 -0.28125,1.5 -0.5625,2.3125 -0.15625,0.421875 -0.46875,1.328125 -0.46875,2.015625 C 4.578125,0 4.609375,0 4.828125,0 h 1.59375 z m 0,0"
           id="path342" />
      </symbol>
      <symbol
         overflow="visible"
         id="symbol4910">
        <path
           style="stroke:none"
           d=""
           id="path1793" />
      </symbol>
      <symbol
         overflow="visible"
         id="symbol5962">
        <path
           style="stroke:none"
           d="m 1.78125,-2.15625 h 1.265625 c 1.015625,0 1.8125,-0.59375 1.8125,-1.296875 0,-0.6875 -0.78125,-1.3125 -1.8125,-1.3125 H 0.40625 v 0.25 h 0.171875 c 0.53125,0 0.546875,0.078125 0.546875,0.328125 v 3.625 c 0,0.234375 -0.015625,0.3125 -0.546875,0.3125 H 0.40625 V 0 C 0.75,-0.015625 1.203125,-0.03125 1.453125,-0.03125 1.703125,-0.03125 2.15625,-0.015625 2.5,0 V -0.25 H 2.328125 C 1.796875,-0.25 1.78125,-0.328125 1.78125,-0.5625 Z M 2.875,-4.515625 c 1.171875,0 1.234375,0.65625 1.234375,1.0625 0,0.3125 0,1.0625 -1.234375,1.0625 H 1.75 v -1.84375 c 0,-0.21875 0.015625,-0.28125 0.34375,-0.28125 z m 0,0"
           id="path2261" />
      </symbol>
      <symbol
         overflow="visible"
         id="symbol1782">
        <path
           style="stroke:none"
           d="m 1.921875,-4.609375 c -0.0625,-0.15625 -0.125,-0.15625 -0.265625,-0.15625 H 0.4375 v 0.25 h 0.15625 c 0.546875,0 0.5625,0.078125 0.5625,0.328125 V -0.75 c 0,0.1875 0,0.5 -0.71875,0.5 V 0 C 0.71875,-0.015625 1,-0.03125 1.28125,-0.03125 1.5625,-0.03125 1.84375,-0.015625 2.125,0 v -0.25 c -0.703125,0 -0.703125,-0.3125 -0.703125,-0.5 v -3.6875 l 1.8125,4.28125 C 3.265625,-0.078125 3.296875,0 3.40625,0 3.453125,0 3.515625,-0.015625 3.578125,-0.140625 L 5.421875,-4.5 v 3.9375 C 5.421875,-0.328125 5.40625,-0.25 4.875,-0.25 H 4.703125 V 0 c 0.328125,-0.015625 0.71875,-0.03125 1.015625,-0.03125 0.28125,0 0.671875,0.015625 1,0.03125 V -0.25 H 6.5625 C 6.015625,-0.25 6,-0.328125 6,-0.5625 v -3.625 c 0,-0.25 0.015625,-0.328125 0.5625,-0.328125 h 0.15625 v -0.25 H 5.515625 c -0.140625,0 -0.203125,0 -0.265625,0.140625 l -1.671875,3.953125 z m 0,0"
           id="path6912" />
      </symbol>
      <symbol
         overflow="visible"
         id="symbol8855">
        <path
           style="stroke:none"
           d="M 4.53125,-1.828125 H 4.296875 C 4.21875,-1.15625 4.125,-0.25 2.796875,-0.25 h -0.6875 c -0.328125,0 -0.34375,-0.0625 -0.34375,-0.265625 V -4.1875 c 0,-0.234375 0,-0.328125 0.65625,-0.328125 h 0.25 v -0.25 C 2.515625,-4.75 1.625,-4.734375 1.453125,-4.734375 c -0.265625,0 -1.0625,-0.03125 -1.0625,-0.03125 v 0.25 H 0.5625 c 0.53125,0 0.546875,0.078125 0.546875,0.328125 v 3.625 c 0,0.234375 -0.015625,0.3125 -0.546875,0.3125 H 0.390625 V 0 h 3.9375 z m 0,0"
           id="path6437" />
      </symbol>
    </g>
    <g
       id="g397">
      <symbol
         overflow="visible"
         id="symbol6018">
        <path
           style="stroke:none"
           d=""
           id="path8213" />
      </symbol>
      <symbol
         overflow="visible"
         id="symbol2240">
        <path
           style="stroke:none"
           d="M 6.75,-1.609375 H 6.5 c -0.046875,0.25 -0.09375,0.484375 -0.1875,0.71875 -0.046875,0.15625 -0.078125,0.25 -0.65625,0.25 H 4.859375 C 5,-1.203125 5.296875,-1.6875 5.75,-2.34375 c 0.46875,-0.703125 0.875,-1.390625 0.875,-2.1875 0,-1.375 -1.34375,-2.5 -3.03125,-2.5 -1.703125,0 -3.03125,1.140625 -3.03125,2.5 0,0.796875 0.40625,1.484375 0.875,2.1875 0.4375,0.65625 0.75,1.140625 0.890625,1.703125 H 1.53125 C 0.953125,-0.640625 0.921875,-0.734375 0.875,-0.875 0.78125,-1.109375 0.734375,-1.359375 0.6875,-1.609375 h -0.25 L 0.765625,0 h 1.59375 c 0.21875,0 0.25,0 0.25,-0.203125 0,-0.703125 -0.3125,-1.578125 -0.53125,-2.21875 -0.21875,-0.578125 -0.5,-1.359375 -0.5,-2.109375 0,-1.59375 1.109375,-2.28125 2.015625,-2.28125 0.953125,0 2.015625,0.71875 2.015625,2.28125 0,0.75 -0.28125,1.5 -0.5625,2.3125 -0.15625,0.421875 -0.46875,1.328125 -0.46875,2.015625 C 4.578125,0 4.609375,0 4.828125,0 h 1.59375 z m 0,0"
           id="path8081" />
      </symbol>
      <symbol
         overflow="visible"
         id="symbol5016">
        <path
           style="stroke:none"
           d=""
           id="path2738" />
      </symbol>
      <symbol
         overflow="visible"
         id="symbol2217">
        <path
           style="stroke:none"
           d="m 1.78125,-2.15625 h 1.265625 c 1.015625,0 1.8125,-0.59375 1.8125,-1.296875 0,-0.6875 -0.78125,-1.3125 -1.8125,-1.3125 H 0.40625 v 0.25 h 0.171875 c 0.53125,0 0.546875,0.078125 0.546875,0.328125 v 3.625 c 0,0.234375 -0.015625,0.3125 -0.546875,0.3125 H 0.40625 V 0 C 0.75,-0.015625 1.203125,-0.03125 1.453125,-0.03125 1.703125,-0.03125 2.15625,-0.015625 2.5,0 V -0.25 H 2.328125 C 1.796875,-0.25 1.78125,-0.328125 1.78125,-0.5625 Z M 2.875,-4.515625 c 1.171875,0 1.234375,0.65625 1.234375,1.0625 0,0.3125 0,1.0625 -1.234375,1.0625 H 1.75 v -1.84375 c 0,-0.21875 0.015625,-0.28125 0.34375,-0.28125 z m 0,0"
           id="path5875" />
      </symbol>
      <symbol
         overflow="visible"
         id="symbol4751">
        <path
           style="stroke:none"
           d="m 1.921875,-4.609375 c -0.0625,-0.15625 -0.125,-0.15625 -0.265625,-0.15625 H 0.4375 v 0.25 h 0.15625 c 0.546875,0 0.5625,0.078125 0.5625,0.328125 V -0.75 c 0,0.1875 0,0.5 -0.71875,0.5 V 0 C 0.71875,-0.015625 1,-0.03125 1.28125,-0.03125 1.5625,-0.03125 1.84375,-0.015625 2.125,0 v -0.25 c -0.703125,0 -0.703125,-0.3125 -0.703125,-0.5 v -3.6875 l 1.8125,4.28125 C 3.265625,-0.078125 3.296875,0 3.40625,0 3.453125,0 3.515625,-0.015625 3.578125,-0.140625 L 5.421875,-4.5 v 3.9375 C 5.421875,-0.328125 5.40625,-0.25 4.875,-0.25 H 4.703125 V 0 c 0.328125,-0.015625 0.71875,-0.03125 1.015625,-0.03125 0.28125,0 0.671875,0.015625 1,0.03125 V -0.25 H 6.5625 C 6.015625,-0.25 6,-0.328125 6,-0.5625 v -3.625 c 0,-0.25 0.015625,-0.328125 0.5625,-0.328125 h 0.15625 v -0.25 H 5.515625 c -0.140625,0 -0.203125,0 -0.265625,0.140625 l -1.671875,3.953125 z m 0,0"
           id="path3739" />
      </symbol>
      <symbol
         overflow="visible"
         id="symbol2192">
        <path
           style="stroke:none"
           d="M 4.53125,-1.828125 H 4.296875 C 4.21875,-1.15625 4.125,-0.25 2.796875,-0.25 h -0.6875 c -0.328125,0 -0.34375,-0.0625 -0.34375,-0.265625 V -4.1875 c 0,-0.234375 0,-0.328125 0.65625,-0.328125 h 0.25 v -0.25 C 2.515625,-4.75 1.625,-4.734375 1.453125,-4.734375 c -0.265625,0 -1.0625,-0.03125 -1.0625,-0.03125 v 0.25 H 0.5625 c 0.53125,0 0.546875,0.078125 0.546875,0.328125 v 3.625 c 0,0.234375 -0.015625,0.3125 -0.546875,0.3125 H 0.390625 V 0 h 3.9375 z m 0,0"
           id="path213" />
      </symbol>
    </g>
    <g
       id="g7736">
      <symbol
         overflow="visible"
         id="symbol2305">
        <path
           style="stroke:none"
           d=""
           id="path2228" />
      </symbol>
      <symbol
         overflow="visible"
         id="symbol2158">
        <path
           style="stroke:none"
           d="M 6.75,-1.609375 H 6.5 c -0.046875,0.25 -0.09375,0.484375 -0.1875,0.71875 -0.046875,0.15625 -0.078125,0.25 -0.65625,0.25 H 4.859375 C 5,-1.203125 5.296875,-1.6875 5.75,-2.34375 c 0.46875,-0.703125 0.875,-1.390625 0.875,-2.1875 0,-1.375 -1.34375,-2.5 -3.03125,-2.5 -1.703125,0 -3.03125,1.140625 -3.03125,2.5 0,0.796875 0.40625,1.484375 0.875,2.1875 0.4375,0.65625 0.75,1.140625 0.890625,1.703125 H 1.53125 C 0.953125,-0.640625 0.921875,-0.734375 0.875,-0.875 0.78125,-1.109375 0.734375,-1.359375 0.6875,-1.609375 h -0.25 L 0.765625,0 h 1.59375 c 0.21875,0 0.25,0 0.25,-0.203125 0,-0.703125 -0.3125,-1.578125 -0.53125,-2.21875 -0.21875,-0.578125 -0.5,-1.359375 -0.5,-2.109375 0,-1.59375 1.109375,-2.28125 2.015625,-2.28125 0.953125,0 2.015625,0.71875 2.015625,2.28125 0,0.75 -0.28125,1.5 -0.5625,2.3125 -0.15625,0.421875 -0.46875,1.328125 -0.46875,2.015625 C 4.578125,0 4.609375,0 4.828125,0 h 1.59375 z m 0,0"
           id="path2422" />
      </symbol>
      <symbol
         overflow="visible"
         id="symbol2187">
        <path
           style="stroke:none"
           d=""
           id="path5672" />
      </symbol>
      <symbol
         overflow="visible"
         id="symbol7895">
        <path
           style="stroke:none"
           d="m 1.78125,-2.15625 h 1.265625 c 1.015625,0 1.8125,-0.59375 1.8125,-1.296875 0,-0.6875 -0.78125,-1.3125 -1.8125,-1.3125 H 0.40625 v 0.25 h 0.171875 c 0.53125,0 0.546875,0.078125 0.546875,0.328125 v 3.625 c 0,0.234375 -0.015625,0.3125 -0.546875,0.3125 H 0.40625 V 0 C 0.75,-0.015625 1.203125,-0.03125 1.453125,-0.03125 1.703125,-0.03125 2.15625,-0.015625 2.5,0 V -0.25 H 2.328125 C 1.796875,-0.25 1.78125,-0.328125 1.78125,-0.5625 Z M 2.875,-4.515625 c 1.171875,0 1.234375,0.65625 1.234375,1.0625 0,0.3125 0,1.0625 -1.234375,1.0625 H 1.75 v -1.84375 c 0,-0.21875 0.015625,-0.28125 0.34375,-0.28125 z m 0,0"
           id="path8412" />
      </symbol>
      <symbol
         overflow="visible"
         id="symbol4790">
        <path
           style="stroke:none"
           d="m 1.921875,-4.609375 c -0.0625,-0.15625 -0.125,-0.15625 -0.265625,-0.15625 H 0.4375 v 0.25 h 0.15625 c 0.546875,0 0.5625,0.078125 0.5625,0.328125 V -0.75 c 0,0.1875 0,0.5 -0.71875,0.5 V 0 C 0.71875,-0.015625 1,-0.03125 1.28125,-0.03125 1.5625,-0.03125 1.84375,-0.015625 2.125,0 v -0.25 c -0.703125,0 -0.703125,-0.3125 -0.703125,-0.5 v -3.6875 l 1.8125,4.28125 C 3.265625,-0.078125 3.296875,0 3.40625,0 3.453125,0 3.515625,-0.015625 3.578125,-0.140625 L 5.421875,-4.5 v 3.9375 C 5.421875,-0.328125 5.40625,-0.25 4.875,-0.25 H 4.703125 V 0 c 0.328125,-0.015625 0.71875,-0.03125 1.015625,-0.03125 0.28125,0 0.671875,0.015625 1,0.03125 V -0.25 H 6.5625 C 6.015625,-0.25 6,-0.328125 6,-0.5625 v -3.625 c 0,-0.25 0.015625,-0.328125 0.5625,-0.328125 h 0.15625 v -0.25 H 5.515625 c -0.140625,0 -0.203125,0 -0.265625,0.140625 l -1.671875,3.953125 z m 0,0"
           id="path1279" />
      </symbol>
      <symbol
         overflow="visible"
         id="symbol535">
        <path
           style="stroke:none"
           d="M 4.53125,-1.828125 H 4.296875 C 4.21875,-1.15625 4.125,-0.25 2.796875,-0.25 h -0.6875 c -0.328125,0 -0.34375,-0.0625 -0.34375,-0.265625 V -4.1875 c 0,-0.234375 0,-0.328125 0.65625,-0.328125 h 0.25 v -0.25 C 2.515625,-4.75 1.625,-4.734375 1.453125,-4.734375 c -0.265625,0 -1.0625,-0.03125 -1.0625,-0.03125 v 0.25 H 0.5625 c 0.53125,0 0.546875,0.078125 0.546875,0.328125 v 3.625 c 0,0.234375 -0.015625,0.3125 -0.546875,0.3125 H 0.390625 V 0 h 3.9375 z m 0,0"
           id="path8628" />
      </symbol>
    </g>
    <g
       id="g1843">
      <symbol
         overflow="visible"
         id="symbol7164">
        <path
           style="stroke:none"
           d=""
           id="path9167" />
      </symbol>
      <symbol
         overflow="visible"
         id="symbol4655">
        <path
           style="stroke:none"
           d="M 6.75,-1.609375 H 6.5 c -0.046875,0.25 -0.09375,0.484375 -0.1875,0.71875 -0.046875,0.15625 -0.078125,0.25 -0.65625,0.25 H 4.859375 C 5,-1.203125 5.296875,-1.6875 5.75,-2.34375 c 0.46875,-0.703125 0.875,-1.390625 0.875,-2.1875 0,-1.375 -1.34375,-2.5 -3.03125,-2.5 -1.703125,0 -3.03125,1.140625 -3.03125,2.5 0,0.796875 0.40625,1.484375 0.875,2.1875 0.4375,0.65625 0.75,1.140625 0.890625,1.703125 H 1.53125 C 0.953125,-0.640625 0.921875,-0.734375 0.875,-0.875 0.78125,-1.109375 0.734375,-1.359375 0.6875,-1.609375 h -0.25 L 0.765625,0 h 1.59375 c 0.21875,0 0.25,0 0.25,-0.203125 0,-0.703125 -0.3125,-1.578125 -0.53125,-2.21875 -0.21875,-0.578125 -0.5,-1.359375 -0.5,-2.109375 0,-1.59375 1.109375,-2.28125 2.015625,-2.28125 0.953125,0 2.015625,0.71875 2.015625,2.28125 0,0.75 -0.28125,1.5 -0.5625,2.3125 -0.15625,0.421875 -0.46875,1.328125 -0.46875,2.015625 C 4.578125,0 4.609375,0 4.828125,0 h 1.59375 z m 0,0"
           id="path744" />
      </symbol>
      <symbol
         overflow="visible"
         id="symbol8312">
        <path
           style="stroke:none"
           d=""
           id="path8552" />
      </symbol>
      <symbol
         overflow="visible"
         id="symbol1053">
        <path
           style="stroke:none"
           d="m 1.78125,-2.15625 h 1.265625 c 1.015625,0 1.8125,-0.59375 1.8125,-1.296875 0,-0.6875 -0.78125,-1.3125 -1.8125,-1.3125 H 0.40625 v 0.25 h 0.171875 c 0.53125,0 0.546875,0.078125 0.546875,0.328125 v 3.625 c 0,0.234375 -0.015625,0.3125 -0.546875,0.3125 H 0.40625 V 0 C 0.75,-0.015625 1.203125,-0.03125 1.453125,-0.03125 1.703125,-0.03125 2.15625,-0.015625 2.5,0 V -0.25 H 2.328125 C 1.796875,-0.25 1.78125,-0.328125 1.78125,-0.5625 Z M 2.875,-4.515625 c 1.171875,0 1.234375,0.65625 1.234375,1.0625 0,0.3125 0,1.0625 -1.234375,1.0625 H 1.75 v -1.84375 c 0,-0.21875 0.015625,-0.28125 0.34375,-0.28125 z m 0,0"
           id="path7981" />
      </symbol>
      <symbol
         overflow="visible"
         id="symbol112">
        <path
           style="stroke:none"
           d="m 1.921875,-4.609375 c -0.0625,-0.15625 -0.125,-0.15625 -0.265625,-0.15625 H 0.4375 v 0.25 h 0.15625 c 0.546875,0 0.5625,0.078125 0.5625,0.328125 V -0.75 c 0,0.1875 0,0.5 -0.71875,0.5 V 0 C 0.71875,-0.015625 1,-0.03125 1.28125,-0.03125 1.5625,-0.03125 1.84375,-0.015625 2.125,0 v -0.25 c -0.703125,0 -0.703125,-0.3125 -0.703125,-0.5 v -3.6875 l 1.8125,4.28125 C 3.265625,-0.078125 3.296875,0 3.40625,0 3.453125,0 3.515625,-0.015625 3.578125,-0.140625 L 5.421875,-4.5 v 3.9375 C 5.421875,-0.328125 5.40625,-0.25 4.875,-0.25 H 4.703125 V 0 c 0.328125,-0.015625 0.71875,-0.03125 1.015625,-0.03125 0.28125,0 0.671875,0.015625 1,0.03125 V -0.25 H 6.5625 C 6.015625,-0.25 6,-0.328125 6,-0.5625 v -3.625 c 0,-0.25 0.015625,-0.328125 0.5625,-0.328125 h 0.15625 v -0.25 H 5.515625 c -0.140625,0 -0.203125,0 -0.265625,0.140625 l -1.671875,3.953125 z m 0,0"
           id="path7230" />
      </symbol>
      <symbol
         overflow="visible"
         id="symbol4668">
        <path
           style="stroke:none"
           d="M 4.53125,-1.828125 H 4.296875 C 4.21875,-1.15625 4.125,-0.25 2.796875,-0.25 h -0.6875 c -0.328125,0 -0.34375,-0.0625 -0.34375,-0.265625 V -4.1875 c 0,-0.234375 0,-0.328125 0.65625,-0.328125 h 0.25 v -0.25 C 2.515625,-4.75 1.625,-4.734375 1.453125,-4.734375 c -0.265625,0 -1.0625,-0.03125 -1.0625,-0.03125 v 0.25 H 0.5625 c 0.53125,0 0.546875,0.078125 0.546875,0.328125 v 3.625 c 0,0.234375 -0.015625,0.3125 -0.546875,0.3125 H 0.390625 V 0 h 3.9375 z m 0,0"
           id="path7942" />
      </symbol>
    </g>
  </defs>
  <g
     inkscape:label="Layer 1"
     inkscape:groupmode="layer"
     id="layer1"
     transform="translate(-57.217009,-13.690633)">
    <g
       id="g2058"
       transform="matrix(0.35277777,0,0,0.35277777,50.0534,17.519629)">
      <g
         id="g2060">
        <g
           id="g2062" />
        <g
           id="g2074">
          <g
             clip-path="url(#clipPath2066)"
             opacity="0.334487"
             id="g2072">
            <g
               id="g2070">
              <path
                 d="M 40.984,23.32 H 277.886 V 133.945 H 40.984 Z"
                 style="fill:#4386ec;fill-opacity:1;fill-rule:evenodd;stroke:none"
                 id="path2068" />
            </g>
          </g>
        </g>
      </g>
      <g
         id="g2076">
        <g
           id="g2078" />
        <g
           id="g2092">
          <g
             clip-path="url(#clipPath2082)"
             opacity="0.955399"
             id="g2090">
            <g
               id="g2088">
              <g
                 id="g2086">
                <path
                   d="M 40.984,23.32 H 277.886 V 133.945 H 40.984 Z"
                   style="fill:none;stroke:#000000;stroke-width:0.911415;stroke-linecap:butt;stroke-linejoin:miter;stroke-miterlimit:4;stroke-dasharray:none;stroke-opacity:1"
                   id="path2084" />
              </g>
            </g>
          </g>
        </g>
      </g>
      <g
         id="g2094">
        <g
           id="g2096" />
        <g
           id="g2110">
          <g
             clip-path="url(#clipPath2100)"
             opacity="0.955399"
             id="g2108">
            <g
               id="g2106">
              <g
                 id="g2104">
                <path
                   d="M 20.762,0.457 H 298.114 V 156.809 H 20.762 Z"
                   style="fill:none;stroke:#000000;stroke-width:0.911415;stroke-linecap:butt;stroke-linejoin:miter;stroke-miterlimit:4;stroke-dasharray:none;stroke-opacity:1"
                   id="path2102" />
              </g>
            </g>
          </g>
        </g>
      </g>
      <g
         id="g2112">
        <path
           d="m 40.984,133.945 v 23.02"
           style="fill:none;stroke:#000000;stroke-width:0.896958;stroke-linecap:butt;stroke-linejoin:miter;stroke-miterlimit:4;stroke-dasharray:none;stroke-opacity:1"
           id="path2114" />
      </g>
      <g
         id="g2116">
        <path
           d="M 40.984,23.32 V 0.551"
           style="fill:none;stroke:#000000;stroke-width:0.919996;stroke-linecap:butt;stroke-linejoin:miter;stroke-miterlimit:4;stroke-dasharray:none;stroke-opacity:1"
           id="path2118" />
      </g>
      <g
         id="g2120">
        <path
           d="M 40.984,23.32 H 20.52"
           style="fill:none;stroke:#000000;stroke-width:0.911415;stroke-linecap:butt;stroke-linejoin:miter;stroke-miterlimit:4;stroke-dasharray:none;stroke-opacity:1"
           id="path2122" />
      </g>
      <g
         id="g2124">
        <path
           d="M 40.984,133.945 H 20.52"
           style="fill:none;stroke:#000000;stroke-width:0.911415;stroke-linecap:butt;stroke-linejoin:miter;stroke-miterlimit:4;stroke-dasharray:none;stroke-opacity:1"
           id="path2126" />
      </g>
      <g
         id="g2128">
        <path
           d="m 277.887,23.32 h 20.222"
           style="fill:none;stroke:#000000;stroke-width:0.911415;stroke-linecap:butt;stroke-linejoin:miter;stroke-miterlimit:4;stroke-dasharray:none;stroke-opacity:1"
           id="path2130" />
      </g>
      <g
         id="g2132">
        <path
           d="M 277.887,23.32 V 0.418"
           style="fill:none;stroke:#000000;stroke-width:0.911415;stroke-linecap:butt;stroke-linejoin:miter;stroke-miterlimit:4;stroke-dasharray:none;stroke-opacity:1"
           id="path2134" />
      </g>
      <g
         id="g2136">
        <path
           d="m 277.887,133.945 v 22.703"
           style="fill:none;stroke:#000000;stroke-width:0.924758;stroke-linecap:butt;stroke-linejoin:miter;stroke-miterlimit:4;stroke-dasharray:none;stroke-opacity:1"
           id="path2138" />
      </g>
      <g
         id="g2140">
        <path
           d="m 277.887,133.945 h 19.84"
           style="fill:none;stroke:#000000;stroke-width:0.911415;stroke-linecap:butt;stroke-linejoin:miter;stroke-miterlimit:4;stroke-dasharray:none;stroke-opacity:1"
           id="path2142" />
      </g>
      <g
         id="g2144">
        <g
           id="g2146" />
        <g
           id="g2160">
          <g
             clip-path="url(#clipPath2150)"
             opacity="0.955399"
             id="g2158">
            <g
               id="g2156">
              <g
                 id="g2154">
                <path
                   d="m 184.305,78.633 c 0,14.015 -11.133,25.387 -24.867,25.387 -13.735,0 -24.868,-11.372 -24.868,-25.387 0,-14.028 11.133,-25.387 24.868,-25.387 13.734,0 24.867,11.359 24.867,25.387 z"
                   style="fill:#fcfeff;fill-opacity:1;fill-rule:nonzero;stroke:#000000;stroke-width:0.911415;stroke-linecap:butt;stroke-linejoin:miter;stroke-miterlimit:4;stroke-dasharray:none;stroke-opacity:1"
                   id="path2152" />
              </g>
            </g>
          </g>
        </g>
      </g>
      <g
         id="g2162">
        <path
           d="m 134.293,78.633 h 50.012"
           style="fill:none;stroke:#000000;stroke-width:0.911415;stroke-linecap:butt;stroke-linejoin:miter;stroke-miterlimit:4;stroke-dasharray:3.64567, 1.82283;stroke-dashoffset:0;stroke-opacity:1"
           id="path2164" />
      </g>
      <g
         id="g2166">
        <path
           d="M 159.57,78.738 176.148,61.812"
           style="fill:none;stroke:#000000;stroke-width:0.683561;stroke-linecap:butt;stroke-linejoin:miter;stroke-miterlimit:4;stroke-dasharray:none;stroke-opacity:1"
           id="path2168" />
      </g>
      <g
         id="g2170"
         transform="matrix(-0.979513,1,-1,-0.979513,0,0)">
        <path
           d="m -53.99,-119.62 -3.2,-1.178 3.199,-1.176 c -0.511,0.695 -0.507,1.644 10e-4,2.354 z"
           style="fill:#000000;fill-opacity:1;fill-rule:evenodd;stroke:#000000;stroke-width:0.183123;stroke-linecap:butt;stroke-linejoin:round;stroke-miterlimit:4;stroke-dasharray:none;stroke-opacity:1"
           id="path2172" />
      </g>
      <g
         id="g2174">
        <path
           d="M 41.543,172.117 H 277.004"
           style="fill:none;stroke:#000000;stroke-width:0.75;stroke-linecap:butt;stroke-linejoin:miter;stroke-miterlimit:4;stroke-dasharray:none;stroke-opacity:1"
           id="path2176" />
      </g>
      <g
         id="g2178">
        <path
           d="m 45.465,173.93 -4.918,-1.805 4.918,-1.809 c -0.785,1.067 -0.781,2.528 0,3.614 z"
           style="fill:#000000;fill-opacity:1;fill-rule:evenodd;stroke:#000000;stroke-width:0.28125;stroke-linecap:butt;stroke-linejoin:round;stroke-miterlimit:4;stroke-dasharray:none;stroke-opacity:1"
           id="path2180" />
      </g>
      <g
         id="g2182"
         transform="scale(-1)">
        <path
           d="m -273.082,-170.301 -4.914,-1.808 4.914,-1.809 c -0.785,1.066 -0.781,2.527 0,3.617 z"
           style="fill:#000000;fill-opacity:1;fill-rule:evenodd;stroke:#000000;stroke-width:0.28125;stroke-linecap:butt;stroke-linejoin:round;stroke-miterlimit:4;stroke-dasharray:none;stroke-opacity:1"
           id="path2184" />
      </g>
    </g>
    <g
       id="g2330"
       transform="matrix(0.35277777,0,0,0.34494537,152.71109,18.021952)">
      <g
         id="g2332">
        <path
           d="M 13.07,133.727 V 23.352"
           style="fill:none;stroke:#000000;stroke-width:0.75;stroke-linecap:butt;stroke-linejoin:miter;stroke-miterlimit:4;stroke-dasharray:none;stroke-opacity:1"
           id="path2334" />
      </g>
      <g
         id="g2336"
         transform="rotate(-90)">
        <path
           d="m -129.801,14.883 -4.918,-1.809 4.918,-1.804 c -0.789,1.066 -0.781,2.527 0,3.613 z"
           style="fill:#000000;fill-opacity:1;fill-rule:evenodd;stroke:#000000;stroke-width:0.28125;stroke-linecap:butt;stroke-linejoin:round;stroke-miterlimit:4;stroke-dasharray:none;stroke-opacity:1"
           id="path2338" />
      </g>
      <g
         id="g2340"
         transform="rotate(90)">
        <path
           d="m 27.277,-11.254 -4.918,-1.808 4.918,-1.809 c -0.785,1.07 -0.781,2.531 0,3.617 z"
           style="fill:#000000;fill-opacity:1;fill-rule:evenodd;stroke:#000000;stroke-width:0.28125;stroke-linecap:butt;stroke-linejoin:round;stroke-miterlimit:4;stroke-dasharray:none;stroke-opacity:1"
           id="path2342" />
      </g>
    </g>
    <g
       id="g2382"
       transform="matrix(0.35277777,0,0,0.34184208,54.300213,19.265918)">
      <g
         id="g2384"
         transform="translate(-9.2731749)">
        <path
           d="M 301.258,157.219 V 134.371"
           style="fill:none;stroke:#000000;stroke-width:0.75;stroke-linecap:butt;stroke-linejoin:miter;stroke-miterlimit:4;stroke-dasharray:none;stroke-opacity:1"
           id="path2386" />
      </g>
      <g
         id="g2388"
         transform="rotate(-90,-4.6365874,4.6365874)">
        <path
           d="m -153.297,303.07 -4.918,-1.804 4.918,-1.809 c -0.785,1.066 -0.781,2.527 0,3.613 z"
           style="fill:#000000;fill-opacity:1;fill-rule:evenodd;stroke:#000000;stroke-width:0.28125;stroke-linecap:butt;stroke-linejoin:round;stroke-miterlimit:4;stroke-dasharray:none;stroke-opacity:1"
           id="path2390" />
      </g>
      <g
         id="g2392"
         transform="rotate(90,-4.6365874,-4.6365874)">
        <path
           d="m 138.297,-299.441 -4.918,-1.809 4.918,-1.809 c -0.785,1.071 -0.781,2.528 0,3.618 z"
           style="fill:#000000;fill-opacity:1;fill-rule:evenodd;stroke:#000000;stroke-width:0.28125;stroke-linecap:butt;stroke-linejoin:round;stroke-miterlimit:4;stroke-dasharray:none;stroke-opacity:1"
           id="path2394" />
      </g>
    </g>
    <g
       id="g2434"
       transform="matrix(0.35282367,0,0,0.34684315,50.04865,18.387474)">
      <g
         id="g2436">
        <path
           d="m 159.57,78.426 v 40.14"
           style="fill:none;stroke:#000000;stroke-width:0.635308;stroke-linecap:butt;stroke-linejoin:miter;stroke-miterlimit:4;stroke-dasharray:2.54123, 1.27061;stroke-dashoffset:0;stroke-opacity:1"
           id="path2438" />
      </g>
      <g
         id="g2440"
         transform="rotate(90)">
        <path
           d="m 81.746,-158.031 -4.164,-1.531 4.164,-1.532 c -0.664,0.903 -0.66,2.141 0,3.063 z"
           style="fill:#000000;fill-opacity:1;fill-rule:evenodd;stroke:#000000;stroke-width:0.238241;stroke-linecap:butt;stroke-linejoin:round;stroke-miterlimit:4;stroke-dasharray:none;stroke-opacity:1"
           id="path2442" />
      </g>
      <g
         id="g2444">
        <path
           d="m 159.371,133.832 0.074,-12.055"
           style="fill:none;stroke:#000000;stroke-width:0.577828;stroke-linecap:butt;stroke-linejoin:miter;stroke-miterlimit:4;stroke-dasharray:none;stroke-opacity:1"
           id="path2446" />
      </g>
      <g
         id="g2448"
         transform="matrix(-0.0063792,1,-1,-0.0063792,0,0)">
        <path
           d="m 123.78,-158.817 -3.79,-1.394 3.788,-1.395 c -0.604,0.824 -0.601,1.949 0.002,2.789 z"
           style="fill:#000000;fill-opacity:1;fill-rule:evenodd;stroke:#000000;stroke-width:0.216681;stroke-linecap:butt;stroke-linejoin:round;stroke-miterlimit:4;stroke-dasharray:none;stroke-opacity:1"
           id="path2450" />
      </g>
      <g
         id="g2452">
        <path
           d="M 159.371,133.895 H 171.23"
           style="fill:none;stroke:#000000;stroke-width:0.525;stroke-linecap:butt;stroke-linejoin:miter;stroke-miterlimit:4;stroke-dasharray:none;stroke-opacity:1"
           id="path2454" />
      </g>
      <g
         id="g2456"
         transform="scale(-1)">
        <path
           d="m -168.484,-132.625 -3.442,-1.266 3.442,-1.265 c -0.551,0.75 -0.547,1.769 0,2.531 z"
           style="fill:#000000;fill-opacity:1;fill-rule:evenodd;stroke:#000000;stroke-width:0.196875;stroke-linecap:butt;stroke-linejoin:round;stroke-miterlimit:4;stroke-dasharray:none;stroke-opacity:1"
           id="path2458" />
      </g>
    </g>
    <g
       inkscape:label=""
       transform="translate(101.98284,20.051559)"
       id="g1">
      <g
         id="surface1"
         transform="matrix(0.352778,0,0,0.352778,-0.873963,-0.620712)">
        <g
           style="fill:#000000;fill-opacity:1"
           id="g7">
          <g
             id="use6"
             transform="translate(1.993,9.4469995)">
            <path
               style="stroke:none"
               d="m 7.390625,-1.765625 h -0.28125 c -0.046875,0.28125 -0.09375,0.53125 -0.1875,0.796875 -0.0625,0.171875 -0.09375,0.265625 -0.734375,0.265625 H 5.328125 C 5.46875,-1.3125 5.796875,-1.84375 6.296875,-2.5625 6.8125,-3.34375 7.25,-4.09375 7.25,-4.953125 7.25,-6.46875 5.78125,-7.6875 3.9375,-7.6875 c -1.875,0 -3.328125,1.234375 -3.328125,2.734375 0,0.859375 0.453125,1.609375 0.96875,2.390625 0.46875,0.71875 0.828125,1.25 0.96875,1.859375 h -0.875 c -0.640625,0 -0.671875,-0.09375 -0.71875,-0.25 C 0.859375,-1.203125 0.8125,-1.5 0.75,-1.765625 H 0.484375 L 0.84375,0 h 1.734375 c 0.25,0 0.28125,0 0.28125,-0.234375 0,-0.765625 -0.34375,-1.71875 -0.59375,-2.421875 -0.21875,-0.625 -0.53125,-1.484375 -0.53125,-2.3125 0,-1.734375 1.203125,-2.484375 2.1875,-2.484375 1.046875,0 2.203125,0.796875 2.203125,2.484375 0,0.828125 -0.296875,1.65625 -0.609375,2.546875 C 5.359375,-1.96875 5,-0.984375 5,-0.234375 5,0 5.03125,0 5.296875,0 H 7.03125 Z m 0,0"
               id="path9" />
          </g>
        </g>
        <g
           style="fill:#000000;fill-opacity:1"
           id="g9">
          <g
             id="use7"
             transform="translate(9.8710003,11.135)">
            <path
               style="stroke:none"
               d="m 1.90625,-2.484375 h 1.453125 c 0.96875,0 1.921875,-0.625 1.921875,-1.46875 0,-0.78125 -0.84375,-1.484375 -1.984375,-1.484375 h -2.9375 v 0.265625 h 0.1875 c 0.609375,0 0.625,0.078125 0.625,0.375 v 4.15625 c 0,0.296875 -0.015625,0.375 -0.625,0.375 h -0.1875 V 0 c 0.6875,-0.03125 0.703125,-0.03125 1.171875,-0.03125 0.484375,0 0.5,0 1.171875,0.03125 V -0.265625 H 2.53125 c -0.609375,0 -0.625,-0.078125 -0.625,-0.375 z M 1.875,-2.71875 v -2.140625 c 0,-0.265625 0.015625,-0.3125 0.390625,-0.3125 H 3.09375 c 1.359375,0 1.359375,0.859375 1.359375,1.21875 0,0.34375 0,1.234375 -1.359375,1.234375 z m 0,0"
               id="path10" />
          </g>
          <g
             id="use8"
             transform="translate(15.630194,11.135)">
            <path
               style="stroke:none"
               d="M 2.03125,-5.265625 C 1.953125,-5.421875 1.953125,-5.4375 1.734375,-5.4375 h -1.34375 v 0.265625 H 0.5625 c 0.609375,0 0.625,0.078125 0.625,0.375 v 3.9375 c 0,0.21875 0,0.59375 -0.796875,0.59375 V 0 C 0.75,-0.03125 1.125,-0.03125 1.328125,-0.03125 c 0.203125,0 0.578125,0 0.9375,0.03125 v -0.265625 c -0.796875,0 -0.796875,-0.375 -0.796875,-0.59375 V -5.09375 L 3.484375,-0.1875 C 3.53125,-0.09375 3.5625,0 3.671875,0 3.78125,0 3.8125,-0.09375 3.859375,-0.1875 l 2.03125,-4.96875 v 4.515625 c 0,0.296875 -0.015625,0.375 -0.625,0.375 H 5.09375 V 0 c 0.625,-0.03125 0.640625,-0.03125 1.125,-0.03125 0.484375,0 0.5,0 1.140625,0.03125 V -0.265625 H 7.1875 c -0.625,0 -0.640625,-0.078125 -0.640625,-0.375 v -4.15625 c 0,-0.296875 0.015625,-0.375 0.640625,-0.375 H 7.359375 V -5.4375 h -1.34375 c -0.21875,0 -0.234375,0.015625 -0.296875,0.15625 L 3.875,-0.75 Z m 0,0"
               id="path11" />
          </g>
          <g
             id="use9"
             transform="translate(23.384304,11.135)">
            <path
               style="stroke:none"
               d="m 4.9375,-2.078125 h -0.25 c -0.09375,0.828125 -0.21875,1.8125 -1.671875,1.8125 h -0.75 c -0.359375,0 -0.375,-0.046875 -0.375,-0.328125 v -4.203125 c 0,-0.265625 0,-0.375 0.75,-0.375 h 0.25 V -5.4375 c -0.359375,0.015625 -0.9375,0.015625 -1.3125,0.015625 -0.53125,0 -0.546875,0 -1.234375,-0.015625 v 0.265625 h 0.1875 c 0.609375,0 0.625,0.078125 0.625,0.375 v 4.15625 c 0,0.296875 -0.015625,0.375 -0.625,0.375 H 0.34375 V 0 h 4.359375 z m 0,0"
               id="path12" />
          </g>
        </g>
      </g>
    </g>
    <g
       inkscape:label=""
       transform="translate(102.58301,67.469255)"
       id="g11">
      <g
         id="g10"
         transform="matrix(0.352778,0,0,0.352778,-0.873963,-0.620712)">
        <g
           style="fill:#000000;fill-opacity:1"
           id="g3">
          <g
             id="g2"
             transform="translate(1.993,9.4469995)">
            <path
               style="stroke:none"
               d="m 7.390625,-1.765625 h -0.28125 c -0.046875,0.28125 -0.09375,0.53125 -0.1875,0.796875 -0.0625,0.171875 -0.09375,0.265625 -0.734375,0.265625 H 5.328125 C 5.46875,-1.3125 5.796875,-1.84375 6.296875,-2.5625 6.8125,-3.34375 7.25,-4.09375 7.25,-4.953125 7.25,-6.46875 5.78125,-7.6875 3.9375,-7.6875 c -1.875,0 -3.328125,1.234375 -3.328125,2.734375 0,0.859375 0.453125,1.609375 0.96875,2.390625 0.46875,0.71875 0.828125,1.25 0.96875,1.859375 h -0.875 c -0.640625,0 -0.671875,-0.09375 -0.71875,-0.25 C 0.859375,-1.203125 0.8125,-1.5 0.75,-1.765625 H 0.484375 L 0.84375,0 h 1.734375 c 0.25,0 0.28125,0 0.28125,-0.234375 0,-0.765625 -0.34375,-1.71875 -0.59375,-2.421875 -0.21875,-0.625 -0.53125,-1.484375 -0.53125,-2.3125 0,-1.734375 1.203125,-2.484375 2.1875,-2.484375 1.046875,0 2.203125,0.796875 2.203125,2.484375 0,0.828125 -0.296875,1.65625 -0.609375,2.546875 C 5.359375,-1.96875 5,-0.984375 5,-0.234375 5,0 5.03125,0 5.296875,0 H 7.03125 Z m 0,0"
               id="path1" />
          </g>
        </g>
        <g
           style="fill:#000000;fill-opacity:1"
           id="g8">
          <g
             id="g4"
             transform="translate(9.8710003,11.135)">
            <path
               style="stroke:none"
               d="m 1.90625,-2.484375 h 1.453125 c 0.96875,0 1.921875,-0.625 1.921875,-1.46875 0,-0.78125 -0.84375,-1.484375 -1.984375,-1.484375 h -2.9375 v 0.265625 h 0.1875 c 0.609375,0 0.625,0.078125 0.625,0.375 v 4.15625 c 0,0.296875 -0.015625,0.375 -0.625,0.375 h -0.1875 V 0 c 0.6875,-0.03125 0.703125,-0.03125 1.171875,-0.03125 0.484375,0 0.5,0 1.171875,0.03125 V -0.265625 H 2.53125 c -0.609375,0 -0.625,-0.078125 -0.625,-0.375 z M 1.875,-2.71875 v -2.140625 c 0,-0.265625 0.015625,-0.3125 0.390625,-0.3125 H 3.09375 c 1.359375,0 1.359375,0.859375 1.359375,1.21875 0,0.34375 0,1.234375 -1.359375,1.234375 z m 0,0"
               id="path3" />
          </g>
          <g
             id="g5"
             transform="translate(15.630194,11.135)">
            <path
               style="stroke:none"
               d="M 2.03125,-5.265625 C 1.953125,-5.421875 1.953125,-5.4375 1.734375,-5.4375 h -1.34375 v 0.265625 H 0.5625 c 0.609375,0 0.625,0.078125 0.625,0.375 v 3.9375 c 0,0.21875 0,0.59375 -0.796875,0.59375 V 0 C 0.75,-0.03125 1.125,-0.03125 1.328125,-0.03125 c 0.203125,0 0.578125,0 0.9375,0.03125 v -0.265625 c -0.796875,0 -0.796875,-0.375 -0.796875,-0.59375 V -5.09375 L 3.484375,-0.1875 C 3.53125,-0.09375 3.5625,0 3.671875,0 3.78125,0 3.8125,-0.09375 3.859375,-0.1875 l 2.03125,-4.96875 v 4.515625 c 0,0.296875 -0.015625,0.375 -0.625,0.375 H 5.09375 V 0 c 0.625,-0.03125 0.640625,-0.03125 1.125,-0.03125 0.484375,0 0.5,0 1.140625,0.03125 V -0.265625 H 7.1875 c -0.625,0 -0.640625,-0.078125 -0.640625,-0.375 v -4.15625 c 0,-0.296875 0.015625,-0.375 0.640625,-0.375 H 7.359375 V -5.4375 h -1.34375 c -0.21875,0 -0.234375,0.015625 -0.296875,0.15625 L 3.875,-0.75 Z m 0,0"
               id="path4" />
          </g>
          <g
             id="g6"
             transform="translate(23.384304,11.135)">
            <path
               style="stroke:none"
               d="m 4.9375,-2.078125 h -0.25 c -0.09375,0.828125 -0.21875,1.8125 -1.671875,1.8125 h -0.75 c -0.359375,0 -0.375,-0.046875 -0.375,-0.328125 v -4.203125 c 0,-0.265625 0,-0.375 0.75,-0.375 h 0.25 V -5.4375 c -0.359375,0.015625 -0.9375,0.015625 -1.3125,0.015625 -0.53125,0 -0.546875,0 -1.234375,-0.015625 v 0.265625 h 0.1875 c 0.609375,0 0.625,0.078125 0.625,0.375 v 4.15625 c 0,0.296875 -0.015625,0.375 -0.625,0.375 H 0.34375 V 0 h 4.359375 z m 0,0"
               id="path5" />
          </g>
        </g>
      </g>
    </g>
    <g
       inkscape:label=""
       transform="translate(73.366932,43.895316)"
       id="g15">
      <g
         id="g14"
         transform="matrix(0.352778,0,0,0.352778,-0.873963,-0.620712)">
        <g
           style="fill:#000000;fill-opacity:1"
           id="g12">
          <g
             id="use4"
             transform="translate(1.993,9.4469995)">
            <path
               style="stroke:none"
               d="m 7.390625,-1.765625 h -0.28125 c -0.046875,0.28125 -0.09375,0.53125 -0.1875,0.796875 -0.0625,0.171875 -0.09375,0.265625 -0.734375,0.265625 H 5.328125 C 5.46875,-1.3125 5.796875,-1.84375 6.296875,-2.5625 6.8125,-3.34375 7.25,-4.09375 7.25,-4.953125 7.25,-6.46875 5.78125,-7.6875 3.9375,-7.6875 c -1.875,0 -3.328125,1.234375 -3.328125,2.734375 0,0.859375 0.453125,1.609375 0.96875,2.390625 0.46875,0.71875 0.828125,1.25 0.96875,1.859375 h -0.875 c -0.640625,0 -0.671875,-0.09375 -0.71875,-0.25 C 0.859375,-1.203125 0.8125,-1.5 0.75,-1.765625 H 0.484375 L 0.84375,0 h 1.734375 c 0.25,0 0.28125,0 0.28125,-0.234375 0,-0.765625 -0.34375,-1.71875 -0.59375,-2.421875 -0.21875,-0.625 -0.53125,-1.484375 -0.53125,-2.3125 0,-1.734375 1.203125,-2.484375 2.1875,-2.484375 1.046875,0 2.203125,0.796875 2.203125,2.484375 0,0.828125 -0.296875,1.65625 -0.609375,2.546875 C 5.359375,-1.96875 5,-0.984375 5,-0.234375 5,0 5.03125,0 5.296875,0 H 7.03125 Z m 0,0"
               id="path6" />
          </g>
        </g>
        <g
           style="fill:#000000;fill-opacity:1"
           id="g13">
          <g
             id="use5"
             transform="translate(9.8710003,11.135)">
            <path
               style="stroke:none"
               d="M 4.9375,-5.421875 H 0.34375 v 0.265625 h 0.1875 c 0.609375,0 0.625,0.09375 0.625,0.390625 v 4.125 c 0,0.296875 -0.015625,0.375 -0.625,0.375 H 0.34375 V 0 c 0.6875,-0.03125 0.703125,-0.03125 1.234375,-0.03125 0.375,0 0.953125,0 1.3125,0.03125 v -0.265625 h -0.25 c -0.75,0 -0.75,-0.109375 -0.75,-0.390625 V -2.578125 H 2.625 c 0.78125,0 0.875,0.25 0.875,0.921875 h 0.25 v -2.125 H 3.5 c 0,0.6875 -0.09375,0.9375 -0.875,0.9375 H 1.890625 v -1.984375 c 0,-0.265625 0.015625,-0.328125 0.375,-0.328125 h 1.0625 c 1.296875,0 1.453125,0.5 1.59375,1.546875 H 5.15625 Z m 0,0"
               id="path7" />
          </g>
        </g>
      </g>
    </g>
    <g
       inkscape:label=""
       transform="translate(159.17763,67.525939)"
       id="g23">
      <g
         id="g22"
         transform="matrix(0.352778,0,0,0.352778,-0.857426,-0.707496)">
        <g
           style="fill:#000000;fill-opacity:1"
           id="g17">
          <g
             id="g16"
             transform="translate(1.993,9.5679998)">
            <path
               style="stroke:none"
               d="m 5.625,-7.453125 c 0,0 0,-0.109375 -0.140625,-0.109375 -0.15625,0 -1.203125,0.09375 -1.390625,0.109375 -0.078125,0.015625 -0.140625,0.0625 -0.140625,0.21875 0,0.125 0.09375,0.125 0.25,0.125 0.53125,0 0.546875,0.078125 0.546875,0.1875 L 4.71875,-6.703125 4.0625,-4.125 c -0.1875,-0.40625 -0.5,-0.703125 -1,-0.703125 -1.28125,0 -2.625,1.609375 -2.625,3.203125 0,1.03125 0.59375,1.75 1.453125,1.75 0.21875,0 0.765625,-0.046875 1.40625,-0.828125 0.09375,0.46875 0.484375,0.828125 1,0.828125 0.375,0 0.625,-0.25 0.8125,-0.609375 C 5.296875,-0.875 5.4375,-1.53125 5.4375,-1.5625 5.4375,-1.671875 5.328125,-1.671875 5.296875,-1.671875 5.1875,-1.671875 5.1875,-1.625 5.140625,-1.46875 4.96875,-0.765625 4.765625,-0.125 4.3125,-0.125 c -0.28125,0 -0.328125,-0.28125 -0.328125,-0.5 0,-0.265625 0.03125,-0.328125 0.078125,-0.515625 z m -2.265625,6.15625 c -0.0625,0.203125 -0.0625,0.21875 -0.21875,0.40625 C 2.65625,-0.296875 2.21875,-0.125 1.90625,-0.125 c -0.546875,0 -0.703125,-0.59375 -0.703125,-1.015625 0,-0.546875 0.359375,-1.890625 0.609375,-2.390625 0.34375,-0.640625 0.828125,-1.046875 1.265625,-1.046875 0.703125,0 0.859375,0.890625 0.859375,0.953125 0,0.0625 -0.015625,0.140625 -0.03125,0.1875 z m 0,0"
               id="path15" />
          </g>
        </g>
        <g
           style="fill:#000000;fill-opacity:1"
           id="g21">
          <g
             id="g18"
             transform="translate(7.671,11.256)">
            <path
               style="stroke:none"
               d="m 1.90625,-2.484375 h 1.453125 c 0.96875,0 1.921875,-0.625 1.921875,-1.46875 0,-0.78125 -0.84375,-1.484375 -1.984375,-1.484375 h -2.9375 v 0.265625 h 0.1875 c 0.609375,0 0.625,0.078125 0.625,0.375 v 4.15625 c 0,0.296875 -0.015625,0.375 -0.625,0.375 h -0.1875 V 0 c 0.6875,-0.03125 0.703125,-0.03125 1.171875,-0.03125 0.484375,0 0.5,0 1.171875,0.03125 V -0.265625 H 2.53125 c -0.609375,0 -0.625,-0.078125 -0.625,-0.375 z M 1.875,-2.71875 v -2.140625 c 0,-0.265625 0.015625,-0.3125 0.390625,-0.3125 H 3.09375 c 1.359375,0 1.359375,0.859375 1.359375,1.21875 0,0.34375 0,1.234375 -1.359375,1.234375 z m 0,0"
               id="path17" />
          </g>
          <g
             id="g19"
             transform="translate(13.430194,11.256)">
            <path
               style="stroke:none"
               d="M 2.03125,-5.265625 C 1.953125,-5.421875 1.953125,-5.4375 1.734375,-5.4375 h -1.34375 v 0.265625 H 0.5625 c 0.609375,0 0.625,0.078125 0.625,0.375 v 3.9375 c 0,0.21875 0,0.59375 -0.796875,0.59375 V 0 C 0.75,-0.03125 1.125,-0.03125 1.328125,-0.03125 c 0.203125,0 0.578125,0 0.9375,0.03125 v -0.265625 c -0.796875,0 -0.796875,-0.375 -0.796875,-0.59375 V -5.09375 L 3.484375,-0.1875 C 3.53125,-0.09375 3.5625,0 3.671875,0 3.78125,0 3.8125,-0.09375 3.859375,-0.1875 l 2.03125,-4.96875 v 4.515625 c 0,0.296875 -0.015625,0.375 -0.625,0.375 H 5.09375 V 0 c 0.625,-0.03125 0.640625,-0.03125 1.125,-0.03125 0.484375,0 0.5,0 1.140625,0.03125 V -0.265625 H 7.1875 c -0.625,0 -0.640625,-0.078125 -0.640625,-0.375 v -4.15625 c 0,-0.296875 0.015625,-0.375 0.640625,-0.375 H 7.359375 V -5.4375 h -1.34375 c -0.21875,0 -0.234375,0.015625 -0.296875,0.15625 L 3.875,-0.75 Z m 0,0"
               id="path18" />
          </g>
          <g
             id="g20"
             transform="translate(21.184305,11.256)">
            <path
               style="stroke:none"
               d="m 4.9375,-2.078125 h -0.25 c -0.09375,0.828125 -0.21875,1.8125 -1.671875,1.8125 h -0.75 c -0.359375,0 -0.375,-0.046875 -0.375,-0.328125 v -4.203125 c 0,-0.265625 0,-0.375 0.75,-0.375 h 0.25 V -5.4375 c -0.359375,0.015625 -0.9375,0.015625 -1.3125,0.015625 -0.53125,0 -0.546875,0 -1.234375,-0.015625 v 0.265625 h 0.1875 c 0.609375,0 0.625,0.078125 0.625,0.375 v 4.15625 c 0,0.296875 -0.015625,0.375 -0.625,0.375 H 0.34375 V 0 h 4.359375 z m 0,0"
               id="path19" />
          </g>
        </g>
      </g>
    </g>
    <g
       inkscape:label=""
       transform="translate(159.04411,45.321141)"
       id="g26">
      <g
         id="g25"
         transform="matrix(0.352778,0,0,0.352778,-0.851914,-0.703395)">
        <g
           style="fill:#000000;fill-opacity:1"
           id="g24">
          <g
             id="use2"
             transform="translate(1.993,9.4469995)">
            <path
               style="stroke:none"
               d="m 8.328125,-6.609375 c 0.09375,-0.390625 0.109375,-0.5 0.90625,-0.5 0.28125,0 0.375,0 0.375,-0.21875 0,-0.125 -0.125,-0.125 -0.15625,-0.125 -0.296875,0 -1.09375,0.03125 -1.390625,0.03125 -0.3125,0 -1.09375,-0.03125 -1.40625,-0.03125 -0.09375,0 -0.203125,0 -0.203125,0.21875 0,0.125 0.09375,0.125 0.296875,0.125 0.015625,0 0.234375,0 0.421875,0.015625 0.1875,0.03125 0.28125,0.03125 0.28125,0.171875 0,0.046875 0,0.078125 -0.03125,0.21875 l -0.65625,2.65625 H 3.4375 l 0.640625,-2.5625 c 0.09375,-0.390625 0.125,-0.5 0.921875,-0.5 0.28125,0 0.359375,0 0.359375,-0.21875 0,-0.125 -0.109375,-0.125 -0.140625,-0.125 -0.3125,0 -1.09375,0.03125 -1.40625,0.03125 -0.3125,0 -1.09375,-0.03125 -1.40625,-0.03125 -0.078125,0 -0.203125,0 -0.203125,0.21875 0,0.125 0.09375,0.125 0.3125,0.125 0.015625,0 0.21875,0 0.40625,0.015625 0.203125,0.03125 0.296875,0.03125 0.296875,0.171875 0,0.046875 -0.015625,0.078125 -0.046875,0.21875 L 1.71875,-0.84375 c -0.109375,0.421875 -0.140625,0.5 -1,0.5 -0.1875,0 -0.296875,0 -0.296875,0.21875 C 0.421875,0 0.5625,0 0.578125,0 c 0.3125,0 1.078125,-0.03125 1.390625,-0.03125 0.21875,0 0.46875,0.015625 0.6875,0.015625 C 2.90625,-0.015625 3.140625,0 3.375,0 c 0.078125,0 0.21875,0 0.21875,-0.21875 0,-0.125 -0.109375,-0.125 -0.3125,-0.125 -0.40625,0 -0.703125,0 -0.703125,-0.1875 0,-0.0625 0.015625,-0.125 0.03125,-0.1875 L 3.34375,-3.703125 h 3.328125 c -0.453125,1.8125 -0.703125,2.84375 -0.75,3 -0.109375,0.359375 -0.3125,0.359375 -1,0.359375 -0.15625,0 -0.25,0 -0.25,0.21875 0,0.125 0.125,0.125 0.15625,0.125 0.296875,0 1.078125,-0.03125 1.375,-0.03125 0.234375,0 0.46875,0.015625 0.703125,0.015625 C 7.140625,-0.015625 7.390625,0 7.609375,0 c 0.09375,0 0.21875,0 0.21875,-0.21875 0,-0.125 -0.09375,-0.125 -0.296875,-0.125 -0.40625,0 -0.71875,0 -0.71875,-0.1875 0,-0.0625 0.03125,-0.125 0.03125,-0.1875 z m 0,0"
               id="path23" />
          </g>
        </g>
      </g>
    </g>
    <g
       inkscape:label=""
       transform="translate(104.0888,74.940019)"
       id="g30">
      <g
         id="g29"
         transform="matrix(0.352778,0,0,0.352778,-0.851914,-0.703395)">
        <g
           style="fill:#000000;fill-opacity:1"
           id="g28">
          <g
             id="g27"
             transform="translate(1.993,9.4469995)">
            <path
               style="stroke:none"
               d="m 4.078125,-6.59375 c 0.09375,-0.390625 0.125,-0.515625 1.15625,-0.515625 0.328125,0 0.421875,0 0.421875,-0.203125 0,-0.140625 -0.125,-0.140625 -0.1875,-0.140625 -0.359375,0 -1.25,0.03125 -1.609375,0.03125 -0.328125,0 -1.125,-0.03125 -1.453125,-0.03125 -0.078125,0 -0.203125,0 -0.203125,0.21875 0,0.125 0.09375,0.125 0.3125,0.125 0.015625,0 0.21875,0 0.40625,0.015625 0.203125,0.03125 0.296875,0.03125 0.296875,0.171875 0,0.046875 -0.015625,0.078125 -0.046875,0.21875 L 1.71875,-0.84375 c -0.109375,0.421875 -0.140625,0.5 -1,0.5 -0.1875,0 -0.296875,0 -0.296875,0.21875 C 0.421875,0 0.53125,0 0.71875,0 h 5.046875 c 0.265625,0 0.28125,0 0.34375,-0.1875 L 6.96875,-2.546875 C 7.015625,-2.65625 7.015625,-2.6875 7.015625,-2.6875 c 0,-0.046875 -0.03125,-0.125 -0.140625,-0.125 -0.09375,0 -0.109375,0.046875 -0.171875,0.234375 -0.375,1 -0.859375,2.234375 -2.75,2.234375 H 2.9375 c -0.15625,0 -0.171875,0 -0.25,0 C 2.578125,-0.359375 2.546875,-0.375 2.546875,-0.453125 c 0,-0.03125 0,-0.0625 0.0625,-0.25 z m 0,0"
               id="path26" />
          </g>
        </g>
      </g>
    </g>
    <g
       inkscape:label=""
       transform="translate(107.46799,49.413269)"
       id="g36">
      <g
         id="g35"
         transform="matrix(0.352778,0,0,0.352778,-0.868451,-0.656475)">
        <g
           style="fill:#000000;fill-opacity:1"
           id="g32">
          <g
             id="g31"
             transform="translate(1.993,6.6890001)">
            <path
               style="stroke:none"
               d="m 1.453125,-0.90625 c 0.59375,-0.625 0.90625,-0.90625 1.296875,-1.25 0,0 0.671875,-0.578125 1.0625,-0.96875 1.046875,-1.015625 1.28125,-1.546875 1.28125,-1.59375 0,-0.109375 -0.09375,-0.109375 -0.125,-0.109375 -0.078125,0 -0.109375,0.03125 -0.15625,0.125 C 4.484375,-4.171875 4.25,-4 3.984375,-4 3.734375,-4 3.59375,-4.171875 3.4375,-4.359375 c -0.203125,-0.25 -0.390625,-0.46875 -0.75,-0.46875 -0.828125,0 -1.328125,1.015625 -1.328125,1.25 0,0.0625 0.03125,0.125 0.140625,0.125 0.09375,0 0.109375,-0.0625 0.140625,-0.125 0.203125,-0.5 0.828125,-0.515625 0.921875,-0.515625 0.234375,0 0.4375,0.078125 0.6875,0.171875 0.4375,0.15625 0.5625,0.15625 0.84375,0.15625 -0.390625,0.46875 -1.3125,1.25 -1.515625,1.4375 l -0.984375,0.90625 c -0.75,0.734375 -1.125,1.359375 -1.125,1.4375 0,0.109375 0.109375,0.109375 0.125,0.109375 0.09375,0 0.109375,-0.03125 0.1875,-0.140625 0.25,-0.390625 0.578125,-0.6875 0.921875,-0.6875 0.25,0 0.359375,0.109375 0.625,0.421875 C 2.515625,-0.046875 2.71875,0.125 3.03125,0.125 4.109375,0.125 4.75,-1.265625 4.75,-1.5625 c 0,-0.046875 -0.046875,-0.109375 -0.140625,-0.109375 -0.09375,0 -0.109375,0.0625 -0.15625,0.140625 -0.25,0.71875 -0.9375,0.921875 -1.296875,0.921875 -0.21875,0 -0.421875,-0.0625 -0.640625,-0.140625 C 2.140625,-0.890625 1.96875,-0.9375 1.75,-0.9375 c -0.03125,0 -0.203125,0 -0.296875,0.03125 z m 0,0"
               id="path30" />
          </g>
        </g>
        <g
           style="fill:#000000;fill-opacity:1"
           id="g34">
          <g
             id="g33"
             transform="translate(7.066,8.3249998)">
            <path
               style="stroke:none"
               d="m 3.890625,-2.546875 c 0,-0.84375 -0.078125,-1.359375 -0.34375,-1.875 -0.34375,-0.703125 -1,-0.875 -1.4375,-0.875 -1,0 -1.375,0.75 -1.484375,0.96875 -0.28125,0.578125 -0.296875,1.375 -0.296875,1.78125 0,0.53125 0.015625,1.328125 0.40625,1.96875 0.359375,0.59375 0.953125,0.75 1.375,0.75 0.390625,0 1.0625,-0.125 1.46875,-0.90625 0.296875,-0.578125 0.3125,-1.296875 0.3125,-1.8125 z M 2.109375,-0.0625 C 1.84375,-0.0625 1.296875,-0.1875 1.125,-1.015625 1.03125,-1.46875 1.03125,-2.21875 1.03125,-2.640625 1.03125,-3.1875 1.03125,-3.75 1.125,-4.1875 1.296875,-5 1.90625,-5.078125 2.109375,-5.078125 c 0.265625,0 0.828125,0.140625 0.984375,0.859375 0.09375,0.4375 0.09375,1.046875 0.09375,1.578125 0,0.46875 0,1.1875 -0.09375,1.640625 -0.171875,0.828125 -0.71875,0.9375 -0.984375,0.9375 z m 0,0"
               id="path32" />
          </g>
        </g>
      </g>
    </g>
    <g
       inkscape:label=""
       transform="translate(105.03134,38.841107)"
       id="g42">
      <g
         id="g41"
         transform="matrix(0.352778,0,0,0.352778,-0.862939,-0.703395)">
        <g
           style="fill:#000000;fill-opacity:1"
           id="g38">
          <g
             id="g37"
             transform="translate(1.993,9.4469995)">
            <path
               style="stroke:none"
               d="M 4.09375,-6.703125 C 4.15625,-6.953125 4.1875,-7.0625 4.390625,-7.09375 4.5,-7.109375 4.84375,-7.109375 5.0625,-7.109375 c 0.765625,0 1.984375,0 1.984375,1.078125 0,0.375 -0.171875,1.125 -0.59375,1.546875 -0.296875,0.28125 -0.875,0.640625 -1.84375,0.640625 H 3.375 Z m 1.5625,3 C 6.765625,-3.953125 8.0625,-4.71875 8.0625,-5.8125 8.0625,-6.75 7.078125,-7.453125 5.65625,-7.453125 H 2.546875 c -0.21875,0 -0.328125,0 -0.328125,0.21875 0,0.125 0.109375,0.125 0.3125,0.125 0.015625,0 0.234375,0 0.40625,0.015625 0.203125,0.03125 0.296875,0.03125 0.296875,0.171875 0,0.046875 0,0.078125 -0.03125,0.21875 l -1.46875,5.859375 c -0.109375,0.421875 -0.125,0.5 -1,0.5 -0.1875,0 -0.28125,0 -0.28125,0.21875 0,0.125 0.125,0.125 0.140625,0.125 0.3125,0 1.078125,-0.03125 1.375,-0.03125 0.3125,0 1.078125,0.03125 1.390625,0.03125 0.09375,0 0.21875,0 0.21875,-0.21875 0,-0.125 -0.09375,-0.125 -0.3125,-0.125 -0.390625,0 -0.703125,0 -0.703125,-0.1875 0,-0.0625 0.015625,-0.125 0.03125,-0.1875 L 3.3125,-3.609375 h 1.296875 c 1,0 1.1875,0.609375 1.1875,0.984375 0,0.171875 -0.078125,0.515625 -0.140625,0.765625 -0.078125,0.296875 -0.1875,0.703125 -0.1875,0.921875 0,1.171875 1.3125,1.171875 1.453125,1.171875 0.9375,0 1.3125,-1.09375 1.3125,-1.25 0,-0.125 -0.125,-0.125 -0.125,-0.125 C 8,-1.140625 7.984375,-1.0625 7.96875,-1 c -0.28125,0.8125 -0.75,1 -1,1 C 6.609375,0 6.53125,-0.234375 6.53125,-0.671875 6.53125,-1 6.59375,-1.5625 6.640625,-1.90625 6.65625,-2.0625 6.6875,-2.265625 6.6875,-2.421875 c 0,-0.84375 -0.734375,-1.171875 -1.03125,-1.28125 z m 0,0"
               id="path36" />
          </g>
        </g>
        <g
           style="fill:#000000;fill-opacity:1"
           id="g40">
          <g
             id="g39"
             transform="translate(10.276,11.083)">
            <path
               style="stroke:none"
               d="m 3.890625,-2.546875 c 0,-0.84375 -0.078125,-1.359375 -0.34375,-1.875 -0.34375,-0.703125 -1,-0.875 -1.4375,-0.875 -1,0 -1.375,0.75 -1.484375,0.96875 -0.28125,0.578125 -0.296875,1.375 -0.296875,1.78125 0,0.53125 0.015625,1.328125 0.40625,1.96875 0.359375,0.59375 0.953125,0.75 1.375,0.75 0.390625,0 1.0625,-0.125 1.46875,-0.90625 0.296875,-0.578125 0.3125,-1.296875 0.3125,-1.8125 z M 2.109375,-0.0625 C 1.84375,-0.0625 1.296875,-0.1875 1.125,-1.015625 1.03125,-1.46875 1.03125,-2.21875 1.03125,-2.640625 1.03125,-3.1875 1.03125,-3.75 1.125,-4.1875 1.296875,-5 1.90625,-5.078125 2.109375,-5.078125 c 0.265625,0 0.828125,0.140625 0.984375,0.859375 0.09375,0.4375 0.09375,1.046875 0.09375,1.578125 0,0.46875 0,1.1875 -0.09375,1.640625 -0.171875,0.828125 -0.71875,0.9375 -0.984375,0.9375 z m 0,0"
               id="path38" />
          </g>
        </g>
      </g>
    </g>
    <g
       inkscape:label=""
       transform="translate(111.23205,62.766754)"
       id="g46">
      <g
         id="g45"
         transform="matrix(0.352778,0,0,0.352778,-0.813329,-0.656475)">
        <g
           style="fill:#000000;fill-opacity:1"
           id="g44">
          <g
             id="g43"
             transform="translate(1.993,6.6890001)">
            <path
               style="stroke:none"
               d="m 3.640625,-3.296875 c 0.0625,-0.28125 0.3125,-1.28125 1.078125,-1.28125 0.0625,0 0.3125,0 0.546875,0.140625 C 4.96875,-4.390625 4.75,-4.109375 4.75,-3.84375 c 0,0.171875 0.109375,0.375 0.40625,0.375 0.25,0 0.59375,-0.203125 0.59375,-0.625 0,-0.578125 -0.640625,-0.734375 -1.015625,-0.734375 -0.640625,0 -1.015625,0.578125 -1.140625,0.84375 -0.28125,-0.734375 -0.875,-0.84375 -1.1875,-0.84375 -1.125,0 -1.75,1.421875 -1.75,1.6875 0,0.109375 0.109375,0.109375 0.125,0.109375 0.09375,0 0.125,-0.015625 0.140625,-0.125 0.375,-1.15625 1.09375,-1.421875 1.46875,-1.421875 0.203125,0 0.59375,0.09375 0.59375,0.734375 0,0.328125 -0.1875,1.0625 -0.59375,2.59375 -0.171875,0.671875 -0.5625,1.125 -1.03125,1.125 -0.078125,0 -0.328125,0 -0.546875,-0.140625 0.265625,-0.046875 0.5,-0.28125 0.5,-0.578125 0,-0.296875 -0.234375,-0.390625 -0.390625,-0.390625 -0.328125,0 -0.609375,0.28125 -0.609375,0.640625 0,0.5 0.546875,0.71875 1.03125,0.71875 0.71875,0 1.109375,-0.765625 1.140625,-0.828125 C 2.625,-0.3125 3.015625,0.125 3.671875,0.125 c 1.109375,0 1.734375,-1.40625 1.734375,-1.6875 0,-0.109375 -0.09375,-0.109375 -0.125,-0.109375 -0.09375,0 -0.125,0.046875 -0.140625,0.125 C 4.78125,-0.375 4.03125,-0.125 3.6875,-0.125 c -0.421875,0 -0.59375,-0.34375 -0.59375,-0.71875 0,-0.234375 0.0625,-0.46875 0.171875,-0.953125 z m 0,0"
               id="path42" />
          </g>
        </g>
      </g>
    </g>
    <g
       inkscape:label=""
       transform="translate(104.15116,59.493038)"
       id="g50">
      <g
         id="g49"
         transform="matrix(0.352778,0,0,0.352778,-0.868451,-0.656475)">
        <g
           style="fill:#000000;fill-opacity:1"
           id="g48">
          <g
             id="g47"
             transform="translate(1.993,6.6890001)">
            <path
               style="stroke:none"
               d="m 1.453125,-0.90625 c 0.59375,-0.625 0.90625,-0.90625 1.296875,-1.25 0,0 0.671875,-0.578125 1.0625,-0.96875 1.046875,-1.015625 1.28125,-1.546875 1.28125,-1.59375 0,-0.109375 -0.09375,-0.109375 -0.125,-0.109375 -0.078125,0 -0.109375,0.03125 -0.15625,0.125 C 4.484375,-4.171875 4.25,-4 3.984375,-4 3.734375,-4 3.59375,-4.171875 3.4375,-4.359375 c -0.203125,-0.25 -0.390625,-0.46875 -0.75,-0.46875 -0.828125,0 -1.328125,1.015625 -1.328125,1.25 0,0.0625 0.03125,0.125 0.140625,0.125 0.09375,0 0.109375,-0.0625 0.140625,-0.125 0.203125,-0.5 0.828125,-0.515625 0.921875,-0.515625 0.234375,0 0.4375,0.078125 0.6875,0.171875 0.4375,0.15625 0.5625,0.15625 0.84375,0.15625 -0.390625,0.46875 -1.3125,1.25 -1.515625,1.4375 l -0.984375,0.90625 c -0.75,0.734375 -1.125,1.359375 -1.125,1.4375 0,0.109375 0.109375,0.109375 0.125,0.109375 0.09375,0 0.109375,-0.03125 0.1875,-0.140625 0.25,-0.390625 0.578125,-0.6875 0.921875,-0.6875 0.25,0 0.359375,0.109375 0.625,0.421875 C 2.515625,-0.046875 2.71875,0.125 3.03125,0.125 4.109375,0.125 4.75,-1.265625 4.75,-1.5625 c 0,-0.046875 -0.046875,-0.109375 -0.140625,-0.109375 -0.09375,0 -0.109375,0.0625 -0.15625,0.140625 -0.25,0.71875 -0.9375,0.921875 -1.296875,0.921875 -0.21875,0 -0.421875,-0.0625 -0.640625,-0.140625 C 2.140625,-0.890625 1.96875,-0.9375 1.75,-0.9375 c -0.03125,0 -0.203125,0 -0.296875,0.03125 z m 0,0"
               id="path46" />
          </g>
        </g>
      </g>
    </g>
    <g
       inkscape:label=""
       transform="translate(95.491066,35.398344)"
       id="g56">
      <g
         id="g55"
         transform="matrix(0.352778,0,0,0.352778,-0.829866,-0.714419)">
        <g
           style="fill:#000000;fill-opacity:1"
           id="g52">
          <g
             id="g51"
             transform="translate(1.993,9.4469995)">
            <path
               style="stroke:none"
               d="m 6.046875,-7.421875 h -5.6875 v 0.34375 H 0.625 c 0.84375,0 0.859375,0.125 0.859375,0.515625 v 5.71875 c 0,0.390625 -0.015625,0.5 -0.859375,0.5 H 0.359375 V 0 c 0.375,-0.03125 1.234375,-0.03125 1.65625,-0.03125 0.453125,0 1.4375,0 1.828125,0.03125 V -0.34375 H 3.484375 c -1.03125,0 -1.03125,-0.140625 -1.03125,-0.515625 v -5.78125 c 0,-0.359375 0.015625,-0.4375 0.53125,-0.4375 h 1.125 c 1.5625,0 1.796875,0.640625 1.96875,2.109375 H 6.34375 Z m 0,0"
               id="path50" />
          </g>
        </g>
        <g
           style="fill:#000000;fill-opacity:1"
           id="g54">
          <g
             id="g53"
             transform="translate(8.8109999,11.135)">
            <path
               style="stroke:none"
               d="M 1.859375,-3.328125 C 1.34375,-3.4375 0.96875,-3.84375 0.96875,-4.328125 0.96875,-4.875 1.4375,-5.375 2.125,-5.375 c 1.375,0 1.5625,1.296875 1.609375,1.59375 0.015625,0.09375 0.015625,0.140625 0.125,0.140625 0.125,0 0.125,-0.046875 0.125,-0.203125 v -1.5625 c 0,-0.125 0,-0.203125 -0.109375,-0.203125 -0.0625,0 -0.078125,0.015625 -0.125,0.109375 l -0.28125,0.453125 c -0.40625,-0.4375 -0.90625,-0.5625 -1.34375,-0.5625 -0.953125,0 -1.65625,0.71875 -1.65625,1.53125 0,0.609375 0.34375,0.9375 0.5,1.09375 0.28125,0.28125 0.546875,0.34375 1.40625,0.546875 0.6875,0.15625 0.796875,0.1875 1.0625,0.46875 0.078125,0.078125 0.28125,0.34375 0.28125,0.734375 0,0.5625 -0.421875,1.140625 -1.171875,1.140625 -0.875,0 -1.78125,-0.421875 -1.828125,-1.53125 -0.015625,-0.125 -0.015625,-0.1875 -0.125,-0.1875 -0.125,0 -0.125,0.0625 -0.125,0.21875 v 1.546875 c 0,0.140625 0,0.21875 0.109375,0.21875 0.0625,0 0.0625,-0.015625 0.125,-0.09375 0.03125,-0.046875 0.0625,-0.125 0.28125,-0.453125 0.5,0.4375 1.09375,0.546875 1.578125,0.546875 0.984375,0 1.65625,-0.796875 1.65625,-1.640625 0,-0.703125 -0.453125,-1.40625 -1.265625,-1.59375 z m 0,0"
               id="path52" />
          </g>
        </g>
      </g>
    </g>
    <g
       inkscape:label=""
       transform="translate(69.004929,13.690633)"
       id="g64">
      <g
         id="g63"
         transform="matrix(0.352778,0,0,0.352778,-0.829866,-0.714419)">
        <g
           style="fill:#000000;fill-opacity:1"
           id="g58">
          <g
             id="g57"
             transform="translate(1.993,9.4469995)">
            <path
               style="stroke:none"
               d="m 6.046875,-7.421875 h -5.6875 v 0.34375 H 0.625 c 0.84375,0 0.859375,0.125 0.859375,0.515625 v 5.71875 c 0,0.390625 -0.015625,0.5 -0.859375,0.5 H 0.359375 V 0 c 0.375,-0.03125 1.234375,-0.03125 1.65625,-0.03125 0.453125,0 1.4375,0 1.828125,0.03125 V -0.34375 H 3.484375 c -1.03125,0 -1.03125,-0.140625 -1.03125,-0.515625 v -5.78125 c 0,-0.359375 0.015625,-0.4375 0.53125,-0.4375 h 1.125 c 1.5625,0 1.796875,0.640625 1.96875,2.109375 H 6.34375 Z m 0,0"
               id="path2" />
          </g>
        </g>
        <g
           style="fill:#000000;fill-opacity:1"
           id="g62">
          <g
             id="g59"
             transform="translate(8.8109999,11.135)">
            <path
               style="stroke:none"
               d="m 1.90625,-2.484375 h 1.453125 c 0.96875,0 1.921875,-0.625 1.921875,-1.46875 0,-0.78125 -0.84375,-1.484375 -1.984375,-1.484375 h -2.9375 v 0.265625 h 0.1875 c 0.609375,0 0.625,0.078125 0.625,0.375 v 4.15625 c 0,0.296875 -0.015625,0.375 -0.625,0.375 h -0.1875 V 0 c 0.6875,-0.03125 0.703125,-0.03125 1.171875,-0.03125 0.484375,0 0.5,0 1.171875,0.03125 V -0.265625 H 2.53125 c -0.609375,0 -0.625,-0.078125 -0.625,-0.375 z M 1.875,-2.71875 v -2.140625 c 0,-0.265625 0.015625,-0.3125 0.390625,-0.3125 H 3.09375 c 1.359375,0 1.359375,0.859375 1.359375,1.21875 0,0.34375 0,1.234375 -1.359375,1.234375 z m 0,0"
               id="path58" />
          </g>
          <g
             id="g60"
             transform="translate(14.570194,11.135)">
            <path
               style="stroke:none"
               d="M 2.03125,-5.265625 C 1.953125,-5.421875 1.953125,-5.4375 1.734375,-5.4375 h -1.34375 v 0.265625 H 0.5625 c 0.609375,0 0.625,0.078125 0.625,0.375 v 3.9375 c 0,0.21875 0,0.59375 -0.796875,0.59375 V 0 C 0.75,-0.03125 1.125,-0.03125 1.328125,-0.03125 c 0.203125,0 0.578125,0 0.9375,0.03125 v -0.265625 c -0.796875,0 -0.796875,-0.375 -0.796875,-0.59375 V -5.09375 L 3.484375,-0.1875 C 3.53125,-0.09375 3.5625,0 3.671875,0 3.78125,0 3.8125,-0.09375 3.859375,-0.1875 l 2.03125,-4.96875 v 4.515625 c 0,0.296875 -0.015625,0.375 -0.625,0.375 H 5.09375 V 0 c 0.625,-0.03125 0.640625,-0.03125 1.125,-0.03125 0.484375,0 0.5,0 1.140625,0.03125 V -0.265625 H 7.1875 c -0.625,0 -0.640625,-0.078125 -0.640625,-0.375 v -4.15625 c 0,-0.296875 0.015625,-0.375 0.640625,-0.375 H 7.359375 V -5.4375 h -1.34375 c -0.21875,0 -0.234375,0.015625 -0.296875,0.15625 L 3.875,-0.75 Z m 0,0"
               id="path59" />
          </g>
          <g
             id="g61"
             transform="translate(22.324305,11.135)">
            <path
               style="stroke:none"
               d="m 4.9375,-2.078125 h -0.25 c -0.09375,0.828125 -0.21875,1.8125 -1.671875,1.8125 h -0.75 c -0.359375,0 -0.375,-0.046875 -0.375,-0.328125 v -4.203125 c 0,-0.265625 0,-0.375 0.75,-0.375 h 0.25 V -5.4375 c -0.359375,0.015625 -0.9375,0.015625 -1.3125,0.015625 -0.53125,0 -0.546875,0 -1.234375,-0.015625 v 0.265625 h 0.1875 c 0.609375,0 0.625,0.078125 0.625,0.375 v 4.15625 c 0,0.296875 -0.015625,0.375 -0.625,0.375 H 0.34375 V 0 h 4.359375 z m 0,0"
               id="path60" />
          </g>
        </g>
      </g>
    </g>
  </g>
</svg>
