<?xml version="1.0" encoding="UTF-8" standalone="no"?>
<!-- Created with Inkscape (http://www.inkscape.org/) -->

<svg
   version="1.1"
   id="svg1"
   width="309.31885"
   height="186.69412"
   viewBox="0 0 309.31885 186.69412"
   sodipodi:docname="frequency_response.svg"
   inkscape:version="1.3.2 (1:1.3.2+202311252150+091e20ef0f)"
   xmlns:inkscape="http://www.inkscape.org/namespaces/inkscape"
   xmlns:sodipodi="http://sodipodi.sourceforge.net/DTD/sodipodi-0.dtd"
   xmlns="http://www.w3.org/2000/svg"
   xmlns:svg="http://www.w3.org/2000/svg">
  <defs
     id="defs1">
    <clipPath
       clipPathUnits="userSpaceOnUse"
       id="clipPath2">
      <path
         d="M 38.056855,35.510845 H 224.78914 V 122.81793 H 38.056855 Z"
         id="path2" />
    </clipPath>
    <clipPath
       clipPathUnits="userSpaceOnUse"
       id="clipPath6">
      <path
         d="M 38.056855,35.510845 H 224.78914 V 122.81793 H 38.056855 Z"
         id="path6" />
    </clipPath>
    <clipPath
       clipPathUnits="userSpaceOnUse"
       id="clipPath10">
      <path
         d="M 38.056855,35.510845 H 224.78914 V 122.81793 H 38.056855 Z"
         id="path10" />
    </clipPath>
    <clipPath
       clipPathUnits="userSpaceOnUse"
       id="clipPath14">
      <path
         d="M 38.056855,35.510845 H 224.78914 V 122.81793 H 38.056855 Z"
         id="path14" />
    </clipPath>
    <clipPath
       clipPathUnits="userSpaceOnUse"
       id="clipPath18">
      <path
         d="M 38.056855,35.510845 H 224.78914 V 122.81793 H 38.056855 Z"
         id="path18" />
    </clipPath>
    <clipPath
       clipPathUnits="userSpaceOnUse"
       id="clipPath22">
      <path
         d="M 38.056855,35.510845 H 224.78914 V 122.81793 H 38.056855 Z"
         id="path22" />
    </clipPath>
    <clipPath
       clipPathUnits="userSpaceOnUse"
       id="clipPath26">
      <path
         d="M 38.056855,35.510845 H 224.78914 V 122.81793 H 38.056855 Z"
         id="path26" />
    </clipPath>
    <clipPath
       clipPathUnits="userSpaceOnUse"
       id="clipPath29">
      <path
         d="M 38.056855,35.510845 H 224.78914 V 122.81793 H 38.056855 Z"
         id="path29" />
    </clipPath>
    <clipPath
       clipPathUnits="userSpaceOnUse"
       id="clipPath32">
      <path
         d="M 38.056855,35.510845 H 224.78914 V 122.81793 H 38.056855 Z"
         id="path32" />
    </clipPath>
    <clipPath
       clipPathUnits="userSpaceOnUse"
       id="clipPath35">
      <path
         d="M 38.056855,35.510845 H 224.78914 V 122.81793 H 38.056855 Z"
         id="path35" />
    </clipPath>
    <clipPath
       clipPathUnits="userSpaceOnUse"
       id="clipPath38">
      <path
         d="M 38.056855,35.510845 H 224.78914 V 122.81793 H 38.056855 Z"
         id="path38" />
    </clipPath>
    <clipPath
       clipPathUnits="userSpaceOnUse"
       id="clipPath41">
      <path
         d="M 38.056855,35.510845 H 224.78914 V 122.81793 H 38.056855 Z"
         id="path41" />
    </clipPath>
    <clipPath
       clipPathUnits="userSpaceOnUse"
       id="clipPath44">
      <path
         d="M 38.056855,35.510845 H 224.78914 V 122.81793 H 38.056855 Z"
         id="path44" />
    </clipPath>
    <clipPath
       clipPathUnits="userSpaceOnUse"
       id="clipPath47">
      <path
         d="M 38.056855,35.510845 H 224.78914 V 122.81793 H 38.056855 Z"
         id="path47" />
    </clipPath>
    <clipPath
       clipPathUnits="userSpaceOnUse"
       id="clipPath50">
      <path
         d="M 38.056855,35.510845 H 224.78914 V 122.81793 H 38.056855 Z"
         id="path50" />
    </clipPath>
    <clipPath
       clipPathUnits="userSpaceOnUse"
       id="clipPath53">
      <path
         d="M 38.056855,35.510845 H 224.78914 V 122.81793 H 38.056855 Z"
         id="path53" />
    </clipPath>
    <clipPath
       clipPathUnits="userSpaceOnUse"
       id="clipPath56">
      <path
         d="M 38.056855,35.510845 H 224.78914 V 122.81793 H 38.056855 Z"
         id="path56" />
    </clipPath>
    <clipPath
       clipPathUnits="userSpaceOnUse"
       id="clipPath59">
      <path
         d="M 38.056855,35.510845 H 224.78914 V 122.81793 H 38.056855 Z"
         id="path59" />
    </clipPath>
    <clipPath
       clipPathUnits="userSpaceOnUse"
       id="clipPath62">
      <path
         d="M 38.056855,35.510845 H 224.78914 V 122.81793 H 38.056855 Z"
         id="path62" />
    </clipPath>
    <clipPath
       clipPathUnits="userSpaceOnUse"
       id="clipPath65">
      <path
         d="M 38.056855,35.510845 H 224.78914 V 122.81793 H 38.056855 Z"
         id="path65" />
    </clipPath>
    <clipPath
       clipPathUnits="userSpaceOnUse"
       id="clipPath68">
      <path
         d="M 38.056855,35.510845 H 224.78914 V 122.81793 H 38.056855 Z"
         id="path68" />
    </clipPath>
    <clipPath
       clipPathUnits="userSpaceOnUse"
       id="clipPath71">
      <path
         d="M 38.056855,35.510845 H 224.78914 V 122.81793 H 38.056855 Z"
         id="path71" />
    </clipPath>
    <clipPath
       clipPathUnits="userSpaceOnUse"
       id="clipPath74">
      <path
         d="M 38.056855,35.510845 H 224.78914 V 122.81793 H 38.056855 Z"
         id="path74" />
    </clipPath>
    <clipPath
       clipPathUnits="userSpaceOnUse"
       id="clipPath77">
      <path
         d="M 38.056855,35.510845 H 224.78914 V 122.81793 H 38.056855 Z"
         id="path77" />
    </clipPath>
    <clipPath
       clipPathUnits="userSpaceOnUse"
       id="clipPath80">
      <path
         d="M 38.056855,35.510845 H 224.78914 V 122.81793 H 38.056855 Z"
         id="path80" />
    </clipPath>
    <clipPath
       clipPathUnits="userSpaceOnUse"
       id="clipPath83">
      <path
         d="M 38.056855,35.510845 H 224.78914 V 122.81793 H 38.056855 Z"
         id="path83" />
    </clipPath>
    <clipPath
       clipPathUnits="userSpaceOnUse"
       id="clipPath86">
      <path
         d="M 38.056855,35.510845 H 224.78914 V 122.81793 H 38.056855 Z"
         id="path86" />
    </clipPath>
    <clipPath
       clipPathUnits="userSpaceOnUse"
       id="clipPath89">
      <path
         d="M 38.056855,35.510845 H 224.78914 V 122.81793 H 38.056855 Z"
         id="path89" />
    </clipPath>
    <clipPath
       clipPathUnits="userSpaceOnUse"
       id="clipPath94">
      <path
         d="M 38.056855,35.510845 H 224.78914 V 122.81793 H 38.056855 Z"
         id="path94" />
    </clipPath>
    <clipPath
       clipPathUnits="userSpaceOnUse"
       id="clipPath100">
      <path
         d="M 38.056855,35.510845 H 224.78914 V 122.81793 H 38.056855 Z"
         id="path100" />
    </clipPath>
    <clipPath
       clipPathUnits="userSpaceOnUse"
       id="clipPath106">
      <path
         d="M 38.056855,35.510845 H 224.78914 V 122.81793 H 38.056855 Z"
         id="path106" />
    </clipPath>
    <clipPath
       clipPathUnits="userSpaceOnUse"
       id="clipPath109">
      <path
         d="M 38.056855,35.510845 H 224.78914 V 122.81793 H 38.056855 Z"
         id="path109" />
    </clipPath>
    <clipPath
       clipPathUnits="userSpaceOnUse"
       id="clipPath112">
      <path
         d="M 38.056855,35.510845 H 224.78914 V 122.81793 H 38.056855 Z"
         id="path112" />
    </clipPath>
    <clipPath
       clipPathUnits="userSpaceOnUse"
       id="clipPath115">
      <path
         d="M 38.056855,35.510845 H 224.78914 V 122.81793 H 38.056855 Z"
         id="path115" />
    </clipPath>
    <clipPath
       clipPathUnits="userSpaceOnUse"
       id="clipPath118">
      <path
         d="M 38.056855,35.510845 H 224.78914 V 122.81793 H 38.056855 Z"
         id="path118" />
    </clipPath>
    <clipPath
       clipPathUnits="userSpaceOnUse"
       id="clipPath121">
      <path
         d="M 38.056855,35.510845 H 224.78914 V 122.81793 H 38.056855 Z"
         id="path121" />
    </clipPath>
    <clipPath
       clipPathUnits="userSpaceOnUse"
       id="clipPath124">
      <path
         d="M 38.056855,35.510845 H 224.78914 V 122.81793 H 38.056855 Z"
         id="path124" />
    </clipPath>
    <clipPath
       clipPathUnits="userSpaceOnUse"
       id="clipPath127">
      <path
         d="M 38.056855,35.510845 H 224.78914 V 122.81793 H 38.056855 Z"
         id="path127" />
    </clipPath>
    <clipPath
       clipPathUnits="userSpaceOnUse"
       id="clipPath130">
      <path
         d="M 38.056855,35.510845 H 224.78914 V 122.81793 H 38.056855 Z"
         id="path130" />
    </clipPath>
    <clipPath
       clipPathUnits="userSpaceOnUse"
       id="clipPath138">
      <path
         d="M 38.056855,35.510845 H 224.78914 V 122.81793 H 38.056855 Z"
         id="path138" />
    </clipPath>
    <clipPath
       clipPathUnits="userSpaceOnUse"
       id="clipPath140">
      <path
         d="M 38.056855,35.510845 H 224.78914 V 122.81793 H 38.056855 Z"
         id="path140" />
    </clipPath>
    <clipPath
       clipPathUnits="userSpaceOnUse"
       id="clipPath142">
      <path
         d="M 38.056855,35.510845 H 224.78914 V 122.81793 H 38.056855 Z"
         id="path142" />
    </clipPath>
    <clipPath
       clipPathUnits="userSpaceOnUse"
       id="clipPath144">
      <path
         d="M 38.056855,35.510845 H 224.78914 V 122.81793 H 38.056855 Z"
         id="path144" />
    </clipPath>
  </defs>
  <sodipodi:namedview
     id="namedview1"
     pagecolor="#ffffff"
     bordercolor="#666666"
     borderopacity="1.0"
     inkscape:showpageshadow="2"
     inkscape:pageopacity="0.0"
     inkscape:pagecheckerboard="0"
     inkscape:deskcolor="#d1d1d1"
     showgrid="false"
     inkscape:zoom="1.8136625"
     inkscape:cx="191.32556"
     inkscape:cy="100.9008"
     inkscape:window-width="1850"
     inkscape:window-height="1136"
     inkscape:window-x="70"
     inkscape:window-y="1107"
     inkscape:window-maximized="1"
     inkscape:current-layer="g1">
    <inkscape:page
       x="0"
       y="0"
       inkscape:label="1"
       id="page1"
       width="309.31885"
       height="186.69412"
       margin="0"
       bleed="0" />
  </sodipodi:namedview>
  <g
     id="g1"
     inkscape:groupmode="layer"
     inkscape:label="1">
    <path
       id="path1"
       d="M 46.544686,35.510845 V 122.81793"
       style="fill:none;stroke:#d3d3d3;stroke-width:0.75;stroke-linecap:square;stroke-linejoin:round;stroke-miterlimit:10;stroke-dasharray:none;stroke-opacity:1"
       transform="matrix(1.3333333,0,0,-1.3333333,0,186.69412)"
       clip-path="url(#clipPath2)" />
    <path
       id="path3"
       d="m 46.544686,35.510845 v 6"
       style="fill:#000000;fill-opacity:1;fill-rule:nonzero;stroke:#000000;stroke-width:1;stroke-linecap:butt;stroke-linejoin:round;stroke-miterlimit:10;stroke-dasharray:none;stroke-opacity:1"
       transform="matrix(1.3333333,0,0,-1.3333333,0,186.69412)" />
    <path
       id="path4"
       d="m 2.9298137,-6.3745295 c 0,-0.234375 0,-0.2578125 -0.234375,-0.2578125 -0.609375,0.6328125 -1.4882812,0.6328125 -1.8046875,0.6328125 v 0.3164062 c 0.1992188,0 0.7851563,0 1.3007813,-0.2578125 v 5.15625005 c 0,0.3515625 -0.035156,0.48046875 -0.9257813,0.48046875 H 0.94934495 V 4.704958e-4 C 1.3009075,-0.03468575 2.1563762,-0.03468575 2.5548137,-0.03468575 c 0.3984375,0 1.265625,0 1.6171875,0.0351562458 V -0.304217 H 3.855595 c -0.9023438,0 -0.9257813,-0.1171875 -0.9257813,-0.48046875 z m 6.6328125,3.1875 c 0,-0.796875 -0.046875,-1.59375 -0.3984375,-2.3320313 -0.4570312,-0.9609375 -1.2773437,-1.1132812 -1.6875,-1.1132812 -0.5976562,0 -1.3359375,0.2578125 -1.734375,1.1835937 -0.328125,0.6914063 -0.375,1.4648438 -0.375,2.2617188 0,0.75 0.046875,1.640625 0.4453125,2.40234375 0.4335938,0.80859375 1.1601563,1.0078125 1.6523438,1.0078125 0.5390625,0 1.2890625,-0.2109375 1.734375,-1.16015625 0.3164062,-0.6914063 0.3632812,-1.4648438 0.3632812,-2.25 z M 7.46497,4.704958e-4 C 7.0782512,4.704958e-4 6.480595,-0.24562325 6.3048137,-1.2065608 6.199345,-1.804217 6.199345,-2.7182795 6.199345,-3.304217 c 0,-0.6445313 0,-1.3007813 0.082031,-1.8398438 0.1875,-1.1835937 0.9257813,-1.265625 1.1835938,-1.265625 0.328125,0 0.984375,0.1757813 1.171875,1.1601563 0.09375,0.5625 0.09375,1.3125 0.09375,1.9453125 0,0.75 0,1.4179687 -0.1054688,2.0625 C 8.4727825,-0.304217 7.9102825,4.704958e-4 7.46497,4.704958e-4 Z m 0,0"
       style="fill:#000000;fill-opacity:1;fill-rule:nonzero;stroke:none"
       aria-label="10"
       transform="matrix(1.3333333,0,0,1.3333333,55.4178,153.23765)" />
    <path
       id="path5"
       d="M 80.49601,35.510845 V 122.81793"
       style="fill:none;stroke:#d3d3d3;stroke-width:0.75;stroke-linecap:square;stroke-linejoin:round;stroke-miterlimit:10;stroke-dasharray:none;stroke-opacity:1"
       transform="matrix(1.3333333,0,0,-1.3333333,0,186.69412)"
       clip-path="url(#clipPath6)" />
    <path
       id="path7"
       d="m 80.49601,35.510845 v 6"
       style="fill:#000000;fill-opacity:1;fill-rule:nonzero;stroke:#000000;stroke-width:1;stroke-linecap:butt;stroke-linejoin:round;stroke-miterlimit:10;stroke-dasharray:none;stroke-opacity:1"
       transform="matrix(1.3333333,0,0,-1.3333333,0,186.69412)" />
    <path
       id="path8"
       d="m 2.9306379,-6.3745295 c 0,-0.234375 0,-0.2578125 -0.234375,-0.2578125 -0.609375,0.6328125 -1.4882813,0.6328125 -1.80468753,0.6328125 v 0.3164062 c 0.19921873,0 0.78515623,0 1.30078123,-0.2578125 v 5.15625005 c 0,0.3515625 -0.035156,0.48046875 -0.9257812,0.48046875 H 0.95016912 V 4.704958e-4 C 1.3017316,-0.03468575 2.1572004,-0.03468575 2.5556379,-0.03468575 c 0.3984375,0 1.265625,0 1.6171875,0.0351562458 V -0.304217 H 3.8564191 c -0.9023437,0 -0.9257812,-0.1171875 -0.9257812,-0.48046875 z m 6.5273437,4.3710937 c 0,-1.1835937 -0.8203125,-2.1796875 -1.8984375,-2.1796875 -0.4804687,0 -0.9023437,0.1640625 -1.265625,0.5039063 v -1.9335938 c 0.1992188,0.058594 0.5273438,0.1289063 0.84375,0.1289063 1.2304688,0 1.9335938,-0.9140625 1.9335938,-1.0429688 0,-0.058594 -0.035156,-0.1054687 -0.1054688,-0.1054687 -0.011719,0 -0.035156,0 -0.082031,0.023437 -0.1992188,0.09375 -0.6796875,0.2929687 -1.3476563,0.2929687 -0.3984375,0 -0.8554687,-0.070312 -1.3242187,-0.28125 -0.082031,-0.023437 -0.1054688,-0.023437 -0.1289063,-0.023437 -0.09375,0 -0.09375,0.082031 -0.09375,0.234375 v 2.953125 c 0,0.1757813 0,0.2578125 0.140625,0.2578125 0.070312,0 0.082031,-0.035156 0.1289063,-0.09375 0.1054687,-0.1523437 0.4804687,-0.6914062 1.2773437,-0.6914062 0.5273438,0 0.7734375,0.4570312 0.8554688,0.6328125 0.1523437,0.375 0.1757812,0.7617187 0.1757812,1.2539062 0,0.3515625 0,0.9492188 -0.234375,1.3710938 -0.2460937,0.38671875 -0.609375,0.64453125 -1.0664062,0.64453125 -0.7265625,0 -1.3007813,-0.52734375 -1.4648438,-1.11328125 0.023437,0.011719 0.058594,0.011719 0.1640625,0.011719 0.328125,0 0.5039063,-0.2460937 0.5039063,-0.4804687 0,-0.2460938 -0.1757813,-0.4921875 -0.5039063,-0.4921875 -0.140625,0 -0.4804687,0.070312 -0.4804687,0.5273437 0,0.8554688 0.6796875,1.82812505 1.7929687,1.82812505 1.1601563,0 2.1796875,-0.9609375 2.1796873,-2.22656285 z m 0,0"
       style="fill:#000000;fill-opacity:1;fill-rule:nonzero;stroke:none"
       aria-label="15"
       transform="matrix(1.3333333,0,0,1.3333333,100.68623,153.23765)" />
    <path
       id="path9"
       d="M 114.44733,35.510845 V 122.81793"
       style="fill:none;stroke:#d3d3d3;stroke-width:0.75;stroke-linecap:square;stroke-linejoin:round;stroke-miterlimit:10;stroke-dasharray:none;stroke-opacity:1"
       transform="matrix(1.3333333,0,0,-1.3333333,0,186.69412)"
       clip-path="url(#clipPath10)" />
    <path
       id="path11"
       d="m 114.44733,35.510845 v 6"
       style="fill:#000000;fill-opacity:1;fill-rule:nonzero;stroke:#000000;stroke-width:1;stroke-linecap:butt;stroke-linejoin:round;stroke-miterlimit:10;stroke-dasharray:none;stroke-opacity:1"
       transform="matrix(1.3333333,0,0,-1.3333333,0,186.69412)" />
    <path
       id="path12"
       d="M 1.2644699,-0.76124825 2.3191574,-1.7924983 c 1.5585937,-1.3710937 2.15625,-1.9101562 2.15625,-2.90625 0,-1.1367187 -0.9023438,-1.9335937 -2.1210938,-1.9335937 -1.125,0 -1.85156249,0.9140625 -1.85156249,1.8046875 0,0.5507812 0.4921875,0.5507812 0.52734379,0.5507812 0.1640625,0 0.515625,-0.1171875 0.515625,-0.5273437 0,-0.2578125 -0.1875,-0.515625 -0.5273438,-0.515625 -0.0820312,0 -0.10546874,0 -0.12890624,0.011719 0.22265624,-0.6445312 0.76171874,-1.0195312 1.33593754,-1.0195312 0.9140625,0 1.3359375,0.8085937 1.3359375,1.6289062 0,0.796875 -0.4921875,1.5820313 -1.0429688,2.203125 L 0.60821986,-0.36281075 C 0.50275111,-0.257342 0.50275111,-0.2339045 0.50275111,4.704958e-4 H 4.1941574 L 4.4754074,-1.7339045 H 4.2175949 c -0.046875,0.3046875 -0.1171875,0.73828125 -0.2109375,0.890625 -0.070312,0.0820313 -0.7265625,0.0820313 -0.9492188,0.0820313 z M 9.5642745,-3.1870295 c 0,-0.796875 -0.046875,-1.59375 -0.3984375,-2.3320313 -0.4570312,-0.9609375 -1.2773437,-1.1132812 -1.6875,-1.1132812 -0.5976562,0 -1.3359375,0.2578125 -1.734375,1.1835937 -0.328125,0.6914063 -0.375,1.4648438 -0.375,2.2617188 0,0.75 0.046875,1.640625 0.4453125,2.40234375 0.4335938,0.80859375 1.1601563,1.0078125 1.6523438,1.0078125 0.5390625,0 1.2890625,-0.2109375 1.734375,-1.16015625 0.3164062,-0.6914063 0.3632812,-1.4648438 0.3632812,-2.25 z M 7.4666183,4.704958e-4 C 7.0798995,4.704958e-4 6.4822433,-0.24562325 6.306462,-1.2065608 6.2009933,-1.804217 6.2009933,-2.7182795 6.2009933,-3.304217 c 0,-0.6445313 0,-1.3007813 0.082031,-1.8398438 0.1875,-1.1835937 0.9257813,-1.265625 1.1835938,-1.265625 0.328125,0 0.984375,0.1757813 1.171875,1.1601563 0.09375,0.5625 0.09375,1.3125 0.09375,1.9453125 0,0.75 0,1.4179687 -0.1054688,2.0625 -0.1523437,0.9375 -0.7148437,1.2421874958 -1.160156,1.2421874958 z m 0,0"
       style="fill:#000000;fill-opacity:1;fill-rule:nonzero;stroke:none"
       aria-label="20"
       transform="matrix(1.3333333,0,0,1.3333333,145.95467,153.23765)" />
    <path
       id="path13"
       d="M 148.39866,35.510845 V 122.81793"
       style="fill:none;stroke:#d3d3d3;stroke-width:0.75;stroke-linecap:square;stroke-linejoin:round;stroke-miterlimit:10;stroke-dasharray:none;stroke-opacity:1"
       transform="matrix(1.3333333,0,0,-1.3333333,0,186.69412)"
       clip-path="url(#clipPath14)" />
    <path
       id="path15"
       d="m 148.39866,35.510845 v 6"
       style="fill:#000000;fill-opacity:1;fill-rule:nonzero;stroke:#000000;stroke-width:1;stroke-linecap:butt;stroke-linejoin:round;stroke-miterlimit:10;stroke-dasharray:none;stroke-opacity:1"
       transform="matrix(1.3333333,0,0,-1.3333333,0,186.69412)" />
    <path
       id="path16"
       d="M 1.265294,-0.76124825 2.3199815,-1.7924983 c 1.5585938,-1.3710937 2.15625,-1.9101562 2.15625,-2.90625 0,-1.1367187 -0.9023437,-1.9335937 -2.1210937,-1.9335937 -1.125,0 -1.85156252,0.9140625 -1.85156252,1.8046875 0,0.5507812 0.4921875,0.5507812 0.52734372,0.5507812 0.1640625,0 0.515625,-0.1171875 0.515625,-0.5273437 0,-0.2578125 -0.1875,-0.515625 -0.5273437,-0.515625 -0.0820313,0 -0.10546877,0 -0.12890627,0.011719 0.22265627,-0.6445312 0.76171877,-1.0195312 1.33593747,-1.0195312 0.9140625,0 1.3359375,0.8085937 1.3359375,1.6289062 0,0.796875 -0.4921875,1.5820313 -1.0429687,2.203125 L 0.60904403,-0.36281075 C 0.50357528,-0.257342 0.50357528,-0.2339045 0.50357528,4.704958e-4 H 4.1949815 L 4.4762315,-1.7339045 H 4.218419 C 4.171544,-1.429217 4.1012315,-0.99562325 4.0074815,-0.8432795 3.9371695,-0.7612482 3.280919,-0.7612482 3.0582628,-0.7612482 Z M 9.4567003,-2.0034358 c 0,-1.1835937 -0.8203125,-2.1796875 -1.8984375,-2.1796875 -0.4804688,0 -0.9023438,0.1640625 -1.265625,0.5039063 v -1.9335938 c 0.1992187,0.058594 0.5273437,0.1289063 0.84375,0.1289063 1.2304687,0 1.9335937,-0.9140625 1.9335937,-1.0429688 0,-0.058594 -0.035156,-0.1054687 -0.1054687,-0.1054687 -0.011719,0 -0.035156,0 -0.082031,0.023437 -0.1992187,0.09375 -0.6796875,0.2929687 -1.3476562,0.2929687 -0.3984375,0 -0.8554688,-0.070312 -1.3242188,-0.28125 -0.082031,-0.023437 -0.1054687,-0.023437 -0.1289062,-0.023437 -0.09375,0 -0.09375,0.082031 -0.09375,0.234375 v 2.953125 c 0,0.1757813 0,0.2578125 0.140625,0.2578125 0.070312,0 0.082031,-0.035156 0.1289062,-0.09375 0.1054688,-0.1523437 0.4804688,-0.6914062 1.2773438,-0.6914062 0.5273437,0 0.7734375,0.4570312 0.8554687,0.6328125 0.1523438,0.375 0.1757813,0.7617187 0.1757813,1.2539062 0,0.3515625 0,0.9492188 -0.234375,1.3710938 -0.2460938,0.38671875 -0.609375,0.64453125 -1.0664063,0.64453125 -0.7265625,0 -1.3007812,-0.52734375 -1.4648437,-1.11328125 0.023437,0.011719 0.058594,0.011719 0.1640625,0.011719 0.328125,0 0.5039062,-0.2460937 0.5039062,-0.4804687 0,-0.2460938 -0.1757812,-0.4921875 -0.5039062,-0.4921875 -0.140625,0 -0.4804688,0.070312 -0.4804688,0.5273437 0,0.8554688 0.6796875,1.82812505 1.7929688,1.82812505 1.1601562,0 2.1796875,-0.9609375 2.1796872,-2.22656285 z m 0,0"
       style="fill:#000000;fill-opacity:1;fill-rule:nonzero;stroke:none"
       aria-label="25"
       transform="matrix(1.3333333,0,0,1.3333333,191.2231,153.23765)" />
    <path
       id="path17"
       d="M 182.34998,35.510845 V 122.81793"
       style="fill:none;stroke:#d3d3d3;stroke-width:0.75;stroke-linecap:square;stroke-linejoin:round;stroke-miterlimit:10;stroke-dasharray:none;stroke-opacity:1"
       transform="matrix(1.3333333,0,0,-1.3333333,0,186.69412)"
       clip-path="url(#clipPath18)" />
    <path
       id="path19"
       d="m 182.34998,35.510845 v 6"
       style="fill:#000000;fill-opacity:1;fill-rule:nonzero;stroke:#000000;stroke-width:1;stroke-linecap:butt;stroke-linejoin:round;stroke-miterlimit:10;stroke-dasharray:none;stroke-opacity:1"
       transform="matrix(1.3333333,0,0,-1.3333333,0,186.69412)" />
    <path
       id="path20"
       d="m 2.8950245,-3.5034358 c 0.8085937,-0.2695312 1.3945312,-0.9726562 1.3945312,-1.7578125 0,-0.8203125 -0.8789062,-1.3710937 -1.8398437,-1.3710937 -1.0078125,0 -1.75781255,0.5976562 -1.75781255,1.3476562 0,0.3398438 0.2109375,0.5273438 0.50390625,0.5273438 0.3046875,0 0.5039063,-0.2226563 0.5039063,-0.515625 0,-0.4921875 -0.46875,-0.4921875 -0.609375,-0.4921875 0.3046875,-0.4921875 0.9609375,-0.6210938 1.3242187,-0.6210938 0.4101563,0 0.9492188,0.2226563 0.9492188,1.1132813 0,0.1289062 -0.011719,0.703125 -0.2695313,1.1367187 -0.3046875,0.4804688 -0.6445312,0.515625 -0.890625,0.515625 -0.082031,0.011719 -0.3164062,0.035156 -0.3867187,0.035156 -0.082031,0.011719 -0.1523438,0.023437 -0.1523438,0.1171875 0,0.1171875 0.070312,0.1171875 0.234375,0.1171875 h 0.4453125 c 0.8085938,0 1.1835938,0.6679687 1.1835938,1.6523437 0,1.3476563 -0.6914063,1.64062505 -1.125,1.64062505 -0.4335938,0 -1.171875,-0.17578125 -1.52343755,-0.76171875 0.35156255,0.0585938 0.65625005,-0.1640625 0.65625005,-0.5390625 0,-0.3632813 -0.2695313,-0.5625 -0.56250005,-0.5625 -0.234375,0 -0.55078125,0.140625 -0.55078125,0.5742187 0,0.91406255 0.9257813,1.57031255 2.0039063,1.57031255 1.21875,0 2.1210937,-0.9140625 2.1210937,-1.92187505 0,-0.8203125 -0.6210937,-1.59375 -1.6523437,-1.8046872 z m 6.6679687,0.3164063 c 0,-0.796875 -0.046875,-1.59375 -0.3984375,-2.3320313 -0.4570312,-0.9609375 -1.2773437,-1.1132812 -1.6875,-1.1132812 -0.5976562,0 -1.3359375,0.2578125 -1.734375,1.1835937 -0.328125,0.6914063 -0.375,1.4648438 -0.375,2.2617188 0,0.75 0.046875,1.640625 0.4453125,2.40234375 0.4335938,0.80859375 1.1601563,1.0078125 1.6523438,1.0078125 0.5390625,0 1.2890625,-0.2109375 1.734375,-1.16015625 0.3164062,-0.6914063 0.3632812,-1.4648438 0.3632812,-2.25 z M 7.465337,4.704958e-4 C 7.0786182,4.704958e-4 6.480962,-0.24562325 6.3051807,-1.2065608 6.199712,-1.804217 6.199712,-2.7182795 6.199712,-3.304217 c 0,-0.6445313 0,-1.3007813 0.082031,-1.8398438 0.1875,-1.1835937 0.9257813,-1.265625 1.1835938,-1.265625 0.328125,0 0.984375,0.1757813 1.171875,1.1601563 0.09375,0.5625 0.09375,1.3125 0.09375,1.9453125 0,0.75 0,1.4179687 -0.1054688,2.0625 -0.1523435,0.9375 -0.7148435,1.2421874958 -1.160156,1.2421874958 z m 0,0"
       style="fill:#000000;fill-opacity:1;fill-rule:nonzero;stroke:none"
       aria-label="30"
       transform="matrix(1.3333333,0,0,1.3333333,236.49153,153.23765)" />
    <path
       id="path21"
       d="M 216.30131,35.510845 V 122.81793"
       style="fill:none;stroke:#d3d3d3;stroke-width:0.75;stroke-linecap:square;stroke-linejoin:round;stroke-miterlimit:10;stroke-dasharray:none;stroke-opacity:1"
       transform="matrix(1.3333333,0,0,-1.3333333,0,186.69412)"
       clip-path="url(#clipPath22)" />
    <path
       id="path23"
       d="m 216.30131,35.510845 v 6"
       style="fill:#000000;fill-opacity:1;fill-rule:nonzero;stroke:#000000;stroke-width:1;stroke-linecap:butt;stroke-linejoin:round;stroke-miterlimit:10;stroke-dasharray:none;stroke-opacity:1"
       transform="matrix(1.3333333,0,0,-1.3333333,0,186.69412)" />
    <path
       id="path24"
       d="m 2.8958486,-3.5034358 c 0.8085938,-0.2695312 1.3945313,-0.9726562 1.3945313,-1.7578125 0,-0.8203125 -0.8789063,-1.3710937 -1.8398438,-1.3710937 -1.0078125,0 -1.75781248,0.5976562 -1.75781248,1.3476562 0,0.3398438 0.2109375,0.5273438 0.50390628,0.5273438 0.3046875,0 0.5039062,-0.2226563 0.5039062,-0.515625 0,-0.4921875 -0.46875,-0.4921875 -0.609375,-0.4921875 0.3046875,-0.4921875 0.9609375,-0.6210938 1.3242188,-0.6210938 0.4101562,0 0.9492187,0.2226563 0.9492187,1.1132813 0,0.1289062 -0.011719,0.703125 -0.2695312,1.1367187 -0.3046875,0.4804688 -0.6445313,0.515625 -0.890625,0.515625 -0.082031,0.011719 -0.3164063,0.035156 -0.3867188,0.035156 -0.082031,0.011719 -0.1523437,0.023437 -0.1523437,0.1171875 0,0.1171875 0.070312,0.1171875 0.234375,0.1171875 h 0.4453125 c 0.8085937,0 1.1835937,0.6679687 1.1835937,1.6523437 0,1.3476563 -0.6914062,1.64062505 -1.125,1.64062505 -0.4335937,0 -1.171875,-0.17578125 -1.52343748,-0.76171875 0.35156248,0.0585938 0.65624998,-0.1640625 0.65624998,-0.5390625 0,-0.3632813 -0.2695312,-0.5625 -0.56249998,-0.5625 -0.234375,0 -0.55078125,0.140625 -0.55078125,0.5742187 0,0.91406255 0.92578123,1.57031255 2.00390623,1.57031255 1.21875,0 2.1210938,-0.9140625 2.1210938,-1.92187505 0,-0.8203125 -0.6210938,-1.59375 -1.6523438,-1.8046872 z m 6.5625,1.5 c 0,-1.1835937 -0.8203125,-2.1796875 -1.8984375,-2.1796875 -0.4804687,0 -0.9023437,0.1640625 -1.265625,0.5039063 v -1.9335938 c 0.1992188,0.058594 0.5273438,0.1289063 0.84375,0.1289063 1.2304688,0 1.9335938,-0.9140625 1.9335938,-1.0429688 0,-0.058594 -0.035156,-0.1054687 -0.1054688,-0.1054687 -0.011719,0 -0.035156,0 -0.082031,0.023437 -0.1992188,0.09375 -0.6796875,0.2929687 -1.3476563,0.2929687 -0.3984375,0 -0.8554687,-0.070312 -1.3242187,-0.28125 -0.082031,-0.023437 -0.1054688,-0.023437 -0.1289063,-0.023437 -0.09375,0 -0.09375,0.082031 -0.09375,0.234375 v 2.953125 c 0,0.1757813 0,0.2578125 0.140625,0.2578125 0.070312,0 0.082031,-0.035156 0.1289063,-0.09375 0.1054687,-0.1523437 0.4804687,-0.6914062 1.2773437,-0.6914062 0.5273438,0 0.7734375,0.4570312 0.8554688,0.6328125 0.1523437,0.375 0.1757812,0.7617187 0.1757812,1.2539062 0,0.3515625 0,0.9492188 -0.234375,1.3710938 -0.2460937,0.38671875 -0.609375,0.64453125 -1.0664062,0.64453125 -0.7265625,0 -1.3007813,-0.52734375 -1.4648438,-1.11328125 0.023437,0.011719 0.058594,0.011719 0.1640625,0.011719 0.328125,0 0.5039063,-0.2460937 0.5039063,-0.4804687 0,-0.2460938 -0.1757813,-0.4921875 -0.5039063,-0.4921875 -0.140625,0 -0.4804687,0.070312 -0.4804687,0.5273437 0,0.8554688 0.6796875,1.82812505 1.7929687,1.82812505 1.1601563,0 2.1796875,-0.9609375 2.1796873,-2.22656285 z m 0,0"
       style="fill:#000000;fill-opacity:1;fill-rule:nonzero;stroke:none"
       aria-label="35"
       transform="matrix(1.3333333,0,0,1.3333333,281.75996,153.23765)" />
    <path
       id="path25"
       d="M 39.754421,35.510845 V 122.81793"
       style="fill:none;stroke:#c0c0c0;stroke-width:0.5;stroke-linecap:butt;stroke-linejoin:round;stroke-miterlimit:10;stroke-dasharray:0.5, 0.825;stroke-dashoffset:0;stroke-opacity:1"
       transform="matrix(1.3333333,0,0,-1.3333333,0,186.69412)"
       clip-path="url(#clipPath26)" />
    <path
       id="path27"
       d="m 39.754421,35.510845 v 4"
       style="fill:#000000;fill-opacity:1;fill-rule:nonzero;stroke:#000000;stroke-width:0.75;stroke-linecap:butt;stroke-linejoin:round;stroke-miterlimit:10;stroke-dasharray:none;stroke-opacity:1"
       transform="matrix(1.3333333,0,0,-1.3333333,0,186.69412)" />
    <path
       id="path28"
       d="M 53.33495,35.510845 V 122.81793"
       style="fill:none;stroke:#c0c0c0;stroke-width:0.5;stroke-linecap:butt;stroke-linejoin:round;stroke-miterlimit:10;stroke-dasharray:0.5, 0.825;stroke-dashoffset:0;stroke-opacity:1"
       transform="matrix(1.3333333,0,0,-1.3333333,0,186.69412)"
       clip-path="url(#clipPath29)" />
    <path
       id="path30"
       d="m 53.33495,35.510845 v 4"
       style="fill:#000000;fill-opacity:1;fill-rule:nonzero;stroke:#000000;stroke-width:0.75;stroke-linecap:butt;stroke-linejoin:round;stroke-miterlimit:10;stroke-dasharray:none;stroke-opacity:1"
       transform="matrix(1.3333333,0,0,-1.3333333,0,186.69412)" />
    <path
       id="path31"
       d="M 60.125215,35.510845 V 122.81793"
       style="fill:none;stroke:#c0c0c0;stroke-width:0.5;stroke-linecap:butt;stroke-linejoin:round;stroke-miterlimit:10;stroke-dasharray:0.5, 0.825;stroke-dashoffset:0;stroke-opacity:1"
       transform="matrix(1.3333333,0,0,-1.3333333,0,186.69412)"
       clip-path="url(#clipPath32)" />
    <path
       id="path33"
       d="m 60.125215,35.510845 v 4"
       style="fill:#000000;fill-opacity:1;fill-rule:nonzero;stroke:#000000;stroke-width:0.75;stroke-linecap:butt;stroke-linejoin:round;stroke-miterlimit:10;stroke-dasharray:none;stroke-opacity:1"
       transform="matrix(1.3333333,0,0,-1.3333333,0,186.69412)" />
    <path
       id="path34"
       d="M 66.91548,35.510845 V 122.81793"
       style="fill:none;stroke:#c0c0c0;stroke-width:0.5;stroke-linecap:butt;stroke-linejoin:round;stroke-miterlimit:10;stroke-dasharray:0.5, 0.825;stroke-dashoffset:0;stroke-opacity:1"
       transform="matrix(1.3333333,0,0,-1.3333333,0,186.69412)"
       clip-path="url(#clipPath35)" />
    <path
       id="path36"
       d="m 66.91548,35.510845 v 4"
       style="fill:#000000;fill-opacity:1;fill-rule:nonzero;stroke:#000000;stroke-width:0.75;stroke-linecap:butt;stroke-linejoin:round;stroke-miterlimit:10;stroke-dasharray:none;stroke-opacity:1"
       transform="matrix(1.3333333,0,0,-1.3333333,0,186.69412)" />
    <path
       id="path37"
       d="M 73.705745,35.510845 V 122.81793"
       style="fill:none;stroke:#c0c0c0;stroke-width:0.5;stroke-linecap:butt;stroke-linejoin:round;stroke-miterlimit:10;stroke-dasharray:0.5, 0.825;stroke-dashoffset:0;stroke-opacity:1"
       transform="matrix(1.3333333,0,0,-1.3333333,0,186.69412)"
       clip-path="url(#clipPath38)" />
    <path
       id="path39"
       d="m 73.705745,35.510845 v 4"
       style="fill:#000000;fill-opacity:1;fill-rule:nonzero;stroke:#000000;stroke-width:0.75;stroke-linecap:butt;stroke-linejoin:round;stroke-miterlimit:10;stroke-dasharray:none;stroke-opacity:1"
       transform="matrix(1.3333333,0,0,-1.3333333,0,186.69412)" />
    <path
       id="path40"
       d="M 87.286275,35.510845 V 122.81793"
       style="fill:none;stroke:#c0c0c0;stroke-width:0.5;stroke-linecap:butt;stroke-linejoin:round;stroke-miterlimit:10;stroke-dasharray:0.5, 0.825;stroke-dashoffset:0;stroke-opacity:1"
       transform="matrix(1.3333333,0,0,-1.3333333,0,186.69412)"
       clip-path="url(#clipPath41)" />
    <path
       id="path42"
       d="m 87.286275,35.510845 v 4"
       style="fill:#000000;fill-opacity:1;fill-rule:nonzero;stroke:#000000;stroke-width:0.75;stroke-linecap:butt;stroke-linejoin:round;stroke-miterlimit:10;stroke-dasharray:none;stroke-opacity:1"
       transform="matrix(1.3333333,0,0,-1.3333333,0,186.69412)" />
    <path
       id="path43"
       d="M 94.07654,35.510845 V 122.81793"
       style="fill:none;stroke:#c0c0c0;stroke-width:0.5;stroke-linecap:butt;stroke-linejoin:round;stroke-miterlimit:10;stroke-dasharray:0.5, 0.825;stroke-dashoffset:0;stroke-opacity:1"
       transform="matrix(1.3333333,0,0,-1.3333333,0,186.69412)"
       clip-path="url(#clipPath44)" />
    <path
       id="path45"
       d="m 94.07654,35.510845 v 4"
       style="fill:#000000;fill-opacity:1;fill-rule:nonzero;stroke:#000000;stroke-width:0.75;stroke-linecap:butt;stroke-linejoin:round;stroke-miterlimit:10;stroke-dasharray:none;stroke-opacity:1"
       transform="matrix(1.3333333,0,0,-1.3333333,0,186.69412)" />
    <path
       id="path46"
       d="M 100.8668,35.510845 V 122.81793"
       style="fill:none;stroke:#c0c0c0;stroke-width:0.5;stroke-linecap:butt;stroke-linejoin:round;stroke-miterlimit:10;stroke-dasharray:0.5, 0.825;stroke-dashoffset:0;stroke-opacity:1"
       transform="matrix(1.3333333,0,0,-1.3333333,0,186.69412)"
       clip-path="url(#clipPath47)" />
    <path
       id="path48"
       d="m 100.8668,35.510845 v 4"
       style="fill:#000000;fill-opacity:1;fill-rule:nonzero;stroke:#000000;stroke-width:0.75;stroke-linecap:butt;stroke-linejoin:round;stroke-miterlimit:10;stroke-dasharray:none;stroke-opacity:1"
       transform="matrix(1.3333333,0,0,-1.3333333,0,186.69412)" />
    <path
       id="path49"
       d="M 107.65707,35.510845 V 122.81793"
       style="fill:none;stroke:#c0c0c0;stroke-width:0.5;stroke-linecap:butt;stroke-linejoin:round;stroke-miterlimit:10;stroke-dasharray:0.5, 0.825;stroke-dashoffset:0;stroke-opacity:1"
       transform="matrix(1.3333333,0,0,-1.3333333,0,186.69412)"
       clip-path="url(#clipPath50)" />
    <path
       id="path51"
       d="m 107.65707,35.510845 v 4"
       style="fill:#000000;fill-opacity:1;fill-rule:nonzero;stroke:#000000;stroke-width:0.75;stroke-linecap:butt;stroke-linejoin:round;stroke-miterlimit:10;stroke-dasharray:none;stroke-opacity:1"
       transform="matrix(1.3333333,0,0,-1.3333333,0,186.69412)" />
    <path
       id="path52"
       d="M 121.2376,35.510845 V 122.81793"
       style="fill:none;stroke:#c0c0c0;stroke-width:0.5;stroke-linecap:butt;stroke-linejoin:round;stroke-miterlimit:10;stroke-dasharray:0.5, 0.825;stroke-dashoffset:0;stroke-opacity:1"
       transform="matrix(1.3333333,0,0,-1.3333333,0,186.69412)"
       clip-path="url(#clipPath53)" />
    <path
       id="path54"
       d="m 121.2376,35.510845 v 4"
       style="fill:#000000;fill-opacity:1;fill-rule:nonzero;stroke:#000000;stroke-width:0.75;stroke-linecap:butt;stroke-linejoin:round;stroke-miterlimit:10;stroke-dasharray:none;stroke-opacity:1"
       transform="matrix(1.3333333,0,0,-1.3333333,0,186.69412)" />
    <path
       id="path55"
       d="M 128.02786,35.510845 V 122.81793"
       style="fill:none;stroke:#c0c0c0;stroke-width:0.5;stroke-linecap:butt;stroke-linejoin:round;stroke-miterlimit:10;stroke-dasharray:0.5, 0.825;stroke-dashoffset:0;stroke-opacity:1"
       transform="matrix(1.3333333,0,0,-1.3333333,0,186.69412)"
       clip-path="url(#clipPath56)" />
    <path
       id="path57"
       d="m 128.02786,35.510845 v 4"
       style="fill:#000000;fill-opacity:1;fill-rule:nonzero;stroke:#000000;stroke-width:0.75;stroke-linecap:butt;stroke-linejoin:round;stroke-miterlimit:10;stroke-dasharray:none;stroke-opacity:1"
       transform="matrix(1.3333333,0,0,-1.3333333,0,186.69412)" />
    <path
       id="path58"
       d="M 134.81813,35.510845 V 122.81793"
       style="fill:none;stroke:#c0c0c0;stroke-width:0.5;stroke-linecap:butt;stroke-linejoin:round;stroke-miterlimit:10;stroke-dasharray:0.5, 0.825;stroke-dashoffset:0;stroke-opacity:1"
       transform="matrix(1.3333333,0,0,-1.3333333,0,186.69412)"
       clip-path="url(#clipPath59)" />
    <path
       id="path60"
       d="m 134.81813,35.510845 v 4"
       style="fill:#000000;fill-opacity:1;fill-rule:nonzero;stroke:#000000;stroke-width:0.75;stroke-linecap:butt;stroke-linejoin:round;stroke-miterlimit:10;stroke-dasharray:none;stroke-opacity:1"
       transform="matrix(1.3333333,0,0,-1.3333333,0,186.69412)" />
    <path
       id="path61"
       d="M 141.60839,35.510845 V 122.81793"
       style="fill:none;stroke:#c0c0c0;stroke-width:0.5;stroke-linecap:butt;stroke-linejoin:round;stroke-miterlimit:10;stroke-dasharray:0.5, 0.825;stroke-dashoffset:0;stroke-opacity:1"
       transform="matrix(1.3333333,0,0,-1.3333333,0,186.69412)"
       clip-path="url(#clipPath62)" />
    <path
       id="path63"
       d="m 141.60839,35.510845 v 4"
       style="fill:#000000;fill-opacity:1;fill-rule:nonzero;stroke:#000000;stroke-width:0.75;stroke-linecap:butt;stroke-linejoin:round;stroke-miterlimit:10;stroke-dasharray:none;stroke-opacity:1"
       transform="matrix(1.3333333,0,0,-1.3333333,0,186.69412)" />
    <path
       id="path64"
       d="M 155.18892,35.510845 V 122.81793"
       style="fill:none;stroke:#c0c0c0;stroke-width:0.5;stroke-linecap:butt;stroke-linejoin:round;stroke-miterlimit:10;stroke-dasharray:0.5, 0.825;stroke-dashoffset:0;stroke-opacity:1"
       transform="matrix(1.3333333,0,0,-1.3333333,0,186.69412)"
       clip-path="url(#clipPath65)" />
    <path
       id="path66"
       d="m 155.18892,35.510845 v 4"
       style="fill:#000000;fill-opacity:1;fill-rule:nonzero;stroke:#000000;stroke-width:0.75;stroke-linecap:butt;stroke-linejoin:round;stroke-miterlimit:10;stroke-dasharray:none;stroke-opacity:1"
       transform="matrix(1.3333333,0,0,-1.3333333,0,186.69412)" />
    <path
       id="path67"
       d="M 161.97919,35.510845 V 122.81793"
       style="fill:none;stroke:#c0c0c0;stroke-width:0.5;stroke-linecap:butt;stroke-linejoin:round;stroke-miterlimit:10;stroke-dasharray:0.5, 0.825;stroke-dashoffset:0;stroke-opacity:1"
       transform="matrix(1.3333333,0,0,-1.3333333,0,186.69412)"
       clip-path="url(#clipPath68)" />
    <path
       id="path69"
       d="m 161.97919,35.510845 v 4"
       style="fill:#000000;fill-opacity:1;fill-rule:nonzero;stroke:#000000;stroke-width:0.75;stroke-linecap:butt;stroke-linejoin:round;stroke-miterlimit:10;stroke-dasharray:none;stroke-opacity:1"
       transform="matrix(1.3333333,0,0,-1.3333333,0,186.69412)" />
    <path
       id="path70"
       d="M 168.76945,35.510845 V 122.81793"
       style="fill:none;stroke:#c0c0c0;stroke-width:0.5;stroke-linecap:butt;stroke-linejoin:round;stroke-miterlimit:10;stroke-dasharray:0.5, 0.825;stroke-dashoffset:0;stroke-opacity:1"
       transform="matrix(1.3333333,0,0,-1.3333333,0,186.69412)"
       clip-path="url(#clipPath71)" />
    <path
       id="path72"
       d="m 168.76945,35.510845 v 4"
       style="fill:#000000;fill-opacity:1;fill-rule:nonzero;stroke:#000000;stroke-width:0.75;stroke-linecap:butt;stroke-linejoin:round;stroke-miterlimit:10;stroke-dasharray:none;stroke-opacity:1"
       transform="matrix(1.3333333,0,0,-1.3333333,0,186.69412)" />
    <path
       id="path73"
       d="M 175.55972,35.510845 V 122.81793"
       style="fill:none;stroke:#c0c0c0;stroke-width:0.5;stroke-linecap:butt;stroke-linejoin:round;stroke-miterlimit:10;stroke-dasharray:0.5, 0.825;stroke-dashoffset:0;stroke-opacity:1"
       transform="matrix(1.3333333,0,0,-1.3333333,0,186.69412)"
       clip-path="url(#clipPath74)" />
    <path
       id="path75"
       d="m 175.55972,35.510845 v 4"
       style="fill:#000000;fill-opacity:1;fill-rule:nonzero;stroke:#000000;stroke-width:0.75;stroke-linecap:butt;stroke-linejoin:round;stroke-miterlimit:10;stroke-dasharray:none;stroke-opacity:1"
       transform="matrix(1.3333333,0,0,-1.3333333,0,186.69412)" />
    <path
       id="path76"
       d="M 189.14025,35.510845 V 122.81793"
       style="fill:none;stroke:#c0c0c0;stroke-width:0.5;stroke-linecap:butt;stroke-linejoin:round;stroke-miterlimit:10;stroke-dasharray:0.5, 0.825;stroke-dashoffset:0;stroke-opacity:1"
       transform="matrix(1.3333333,0,0,-1.3333333,0,186.69412)"
       clip-path="url(#clipPath77)" />
    <path
       id="path78"
       d="m 189.14025,35.510845 v 4"
       style="fill:#000000;fill-opacity:1;fill-rule:nonzero;stroke:#000000;stroke-width:0.75;stroke-linecap:butt;stroke-linejoin:round;stroke-miterlimit:10;stroke-dasharray:none;stroke-opacity:1"
       transform="matrix(1.3333333,0,0,-1.3333333,0,186.69412)" />
    <path
       id="path79"
       d="M 195.93051,35.510845 V 122.81793"
       style="fill:none;stroke:#c0c0c0;stroke-width:0.5;stroke-linecap:butt;stroke-linejoin:round;stroke-miterlimit:10;stroke-dasharray:0.5, 0.825;stroke-dashoffset:0;stroke-opacity:1"
       transform="matrix(1.3333333,0,0,-1.3333333,0,186.69412)"
       clip-path="url(#clipPath80)" />
    <path
       id="path81"
       d="m 195.93051,35.510845 v 4"
       style="fill:#000000;fill-opacity:1;fill-rule:nonzero;stroke:#000000;stroke-width:0.75;stroke-linecap:butt;stroke-linejoin:round;stroke-miterlimit:10;stroke-dasharray:none;stroke-opacity:1"
       transform="matrix(1.3333333,0,0,-1.3333333,0,186.69412)" />
    <path
       id="path82"
       d="M 202.72078,35.510845 V 122.81793"
       style="fill:none;stroke:#c0c0c0;stroke-width:0.5;stroke-linecap:butt;stroke-linejoin:round;stroke-miterlimit:10;stroke-dasharray:0.5, 0.825;stroke-dashoffset:0;stroke-opacity:1"
       transform="matrix(1.3333333,0,0,-1.3333333,0,186.69412)"
       clip-path="url(#clipPath83)" />
    <path
       id="path84"
       d="m 202.72078,35.510845 v 4"
       style="fill:#000000;fill-opacity:1;fill-rule:nonzero;stroke:#000000;stroke-width:0.75;stroke-linecap:butt;stroke-linejoin:round;stroke-miterlimit:10;stroke-dasharray:none;stroke-opacity:1"
       transform="matrix(1.3333333,0,0,-1.3333333,0,186.69412)" />
    <path
       id="path85"
       d="M 209.51104,35.510845 V 122.81793"
       style="fill:none;stroke:#c0c0c0;stroke-width:0.5;stroke-linecap:butt;stroke-linejoin:round;stroke-miterlimit:10;stroke-dasharray:0.5, 0.825;stroke-dashoffset:0;stroke-opacity:1"
       transform="matrix(1.3333333,0,0,-1.3333333,0,186.69412)"
       clip-path="url(#clipPath86)" />
    <path
       id="path87"
       d="m 209.51104,35.510845 v 4"
       style="fill:#000000;fill-opacity:1;fill-rule:nonzero;stroke:#000000;stroke-width:0.75;stroke-linecap:butt;stroke-linejoin:round;stroke-miterlimit:10;stroke-dasharray:none;stroke-opacity:1"
       transform="matrix(1.3333333,0,0,-1.3333333,0,186.69412)" />
    <path
       id="path88"
       d="M 223.09157,35.510845 V 122.81793"
       style="fill:none;stroke:#c0c0c0;stroke-width:0.5;stroke-linecap:butt;stroke-linejoin:round;stroke-miterlimit:10;stroke-dasharray:0.5, 0.825;stroke-dashoffset:0;stroke-opacity:1"
       transform="matrix(1.3333333,0,0,-1.3333333,0,186.69412)"
       clip-path="url(#clipPath89)" />
    <path
       id="path90"
       d="m 223.09157,35.510845 v 4"
       style="fill:#000000;fill-opacity:1;fill-rule:nonzero;stroke:#000000;stroke-width:0.75;stroke-linecap:butt;stroke-linejoin:round;stroke-miterlimit:10;stroke-dasharray:none;stroke-opacity:1"
       transform="matrix(1.3333333,0,0,-1.3333333,0,186.69412)" />
    <g
       id="g90"
       aria-label="f[kHz]"
       transform="matrix(1.3333333,0,0,1.3333333,152.76006,173.10906)">
      <path
         id="path91"
         d="m 5.3332784,-4.8044511 c 0.234375,0 0.328125,0 0.328125,-0.2226563 0,-0.1289062 -0.09375,-0.1289062 -0.3046875,-0.1289062 H 4.3840597 c 0.234375,-1.2304688 0.3984375,-2.0742188 0.4921875,-2.4609375 0.070312,-0.28125 0.328125,-0.5625 0.6328125,-0.5625 0.2578125,0 0.5039062,0.1054687 0.6210937,0.2226562 -0.46875,0.046875 -0.609375,0.3867188 -0.609375,0.5976563 0,0.234375 0.1875,0.375 0.4101563,0.375 0.234375,0 0.5976562,-0.1992188 0.5976562,-0.65625 0,-0.5039063 -0.5039062,-0.7734375 -1.03125,-0.7734375 -0.515625,0 -1.0078125,0.3867187 -1.2539062,0.84375 -0.2109375,0.421875 -0.328125,0.8554687 -0.609375,2.4140625 h -0.796875 c -0.234375,0 -0.3515625,0 -0.3515625,0.2226562 0,0.1289063 0.070312,0.1289063 0.3164062,0.1289063 h 0.7617188 c -0.2109375,1.1132812 -0.703125,3.80859374 -0.984375,5.08593749 -0.1992188,1.04296871 -0.375,1.92187501 -0.9726563,1.92187501 -0.035156,0 -0.3867187,0 -0.5976562,-0.234375 0.609375,-0.046875 0.609375,-0.5742188 0.609375,-0.5859375 0,-0.234375 -0.1875,-0.375 -0.4101563,-0.375 -0.23437499,0 -0.59765624,0.1992187 -0.59765624,0.65625 0,0.515625 0.52734374,0.7734375 0.99609374,0.7734375 1.21875,0 1.7226563,-2.19140626 1.8515625,-2.78906251 0.2109375,-0.91406249 0.796875,-4.08984379 0.8554688,-4.45312499 z m 0,0"
         style="fill:#000000;fill-opacity:1;fill-rule:nonzero;stroke:none" />
      <path
         id="path92"
         d="M 10.035427,2.9885176 V 2.5432051 H 8.8752706 v -11.0625 H 10.035427 V -8.9646074 H 8.4299581 v 11.953125 z m 3.603515,-6.1523437 c 0,-0.011719 -0.09375,-0.1054688 -0.09375,-0.1289063 0,-0.035156 0.761719,-0.6796875 0.855469,-0.7734375 0.820313,-0.7148437 1.347656,-0.7265625 1.605469,-0.7382812 v -0.3515625 c -0.246094,0.023437 -0.550781,0.023437 -0.914063,0.023437 -0.304687,0 -0.914062,0 -1.195312,-0.023437 v 0.3515625 c 0.199219,0.011719 0.351562,0.1171875 0.351562,0.3046875 0,0.2460937 -0.246093,0.4570312 -0.257812,0.4570312 l -1.710938,1.5117188 v -5.765625 l -1.652343,0.1289062 v 0.3515625 c 0.808593,0 0.902343,0.082031 0.902343,0.6679688 v 6.26953124 c 0,0.52734375 -0.128906,0.52734375 -0.902343,0.52734375 V 2.363884e-4 C 10.955349,-0.02320111 11.529567,-0.02320111 11.892849,-0.02320111 c 0.351562,0 0.925781,0 1.265625,0.0234374984 V -0.35132611 c -0.761719,0 -0.914063,0 -0.914063,-0.52734375 V -2.1560136 l 0.773438,-0.6679688 1.136718,1.6523438 c 0.1875,0.24609374 0.269532,0.38671874 0.269532,0.55078124 0,0.2109375 -0.164063,0.26953125 -0.421875,0.26953125 V 2.363884e-4 C 14.306911,-0.02320111 14.892849,-0.02320111 15.209255,-0.02320111 c 0.515625,0 0.539062,0 1.054687,0.0234374984 V -0.35132611 c -0.328125,0 -0.691406,0 -1.03125,-0.48046875 z m 9.952149,-4.0898438 c 0,-0.4453125 0.03516,-0.5625 0.890625,-0.5625 h 0.246094 v -0.3515625 c -0.292969,0.023437 -1.265625,0.023437 -1.617188,0.023437 -0.351562,0 -1.335937,0 -1.628906,-0.023437 v 0.3515625 h 0.246094 c 0.855468,0 0.890625,0.1171875 0.890625,0.5625 v 2.8359375 h -3.574219 v -2.8359375 c 0,-0.4453125 0.03516,-0.5625 0.902344,-0.5625 h 0.234375 v -0.3515625 c -0.28125,0.023437 -1.265625,0.023437 -1.605469,0.023437 -0.363281,0 -1.347656,0 -1.628906,-0.023437 v 0.3515625 h 0.234375 c 0.867187,0 0.902343,0.1171875 0.902343,0.5625 v 6.33984379 c 0,0.4453125 -0.03516,0.5625 -0.902343,0.5625 H 16.94656 V 2.363884e-4 C 17.22781,-0.02320111 18.212185,-0.02320111 18.563747,-0.02320111 c 0.351563,0 1.335938,0 1.617188,0.0234374984 V -0.35132611 H 19.94656 c -0.867188,0 -0.902344,-0.1171875 -0.902344,-0.5625 V -4.0778886 h 3.574219 v 3.16406249 c 0,0.4453125 -0.03516,0.5625 -0.890625,0.5625 H 21.481716 V 2.363884e-4 C 21.774685,-0.02320111 22.75906,-0.02320111 23.098903,-0.02320111 c 0.363282,0 1.335938,0 1.628907,0.0234374984 V -0.35132611 h -0.246094 c -0.855469,0 -0.890625,-0.1171875 -0.890625,-0.5625 z m 6.196289,2.4375 c 0.105469,-0.1289062 0.105469,-0.1523437 0.105469,-0.1992187 0,-0.140625 -0.08203,-0.140625 -0.292969,-0.140625 h -3.75 l -0.128906,1.9101562 h 0.257812 c 0.07031,-1.21875 0.304688,-1.6640625 1.605469,-1.6640625 h 1.382812 l -3.410156,4.69921879 c 0,0.2109374984 0.02344,0.2109374984 0.28125,0.2109374984 h 3.902344 l 0.1875,-2.2031249884 h -0.269531 c -0.105469,1.37109374 -0.304688,1.94531249 -1.722657,1.94531249 h -1.453125 z m 2.496094,-4.1484375 h -1.605469 v 0.4453125 h 1.160156 v 11.0625 h -1.160156 v 0.4453125 h 1.605469 z m 0,0"
         style="fill:#000000;fill-opacity:1;fill-rule:nonzero;stroke:none" />
    </g>
    <path
       id="path93"
       d="M 38.056855,61.143519 H 224.78914"
       style="fill:none;stroke:#d3d3d3;stroke-width:0.75;stroke-linecap:square;stroke-linejoin:round;stroke-miterlimit:10;stroke-dasharray:none;stroke-opacity:1"
       transform="matrix(1.3333333,0,0,-1.3333333,0,186.69412)"
       clip-path="url(#clipPath94)" />
    <path
       id="path95"
       d="m 38.056855,61.143519 h 6"
       style="fill:#000000;fill-opacity:1;fill-rule:nonzero;stroke:#000000;stroke-width:1;stroke-linecap:butt;stroke-linejoin:round;stroke-miterlimit:10;stroke-dasharray:none;stroke-opacity:1"
       transform="matrix(1.3333333,0,0,-1.3333333,0,186.69412)" />
    <g
       id="g95"
       aria-label="0.5"
       transform="matrix(1.3333333,0,0,1.3333333,29.102367,109.78176)">
      <path
         id="path96"
         d="m 4.5814276,-3.1878793 c 0,-0.796875 -0.046875,-1.59375 -0.3984375,-2.3320312 -0.4570313,-0.9609375 -1.2773438,-1.1132813 -1.6875,-1.1132813 -0.5976563,0 -1.3359375,0.2578125 -1.73437504,1.1835938 -0.328125,0.6914062 -0.375,1.4648437 -0.375,2.2617187 0,0.75 0.046875,1.640625 0.4453125,2.40234377 0.43359374,0.80859375 1.16015624,1.0078125 1.65234374,1.0078125 0.5390625,0 1.2890625,-0.2109375 1.734375,-1.16015625 C 4.5345526,-1.6292855 4.5814276,-2.402723 4.5814276,-3.1878793 Z M 2.4837713,-3.792843e-4 c -0.3867187,0 -0.984375,-0.2460937457 -1.1601562,-1.2070312157 -0.1054688,-0.5976563 -0.1054688,-1.5117188 -0.1054688,-2.0976563 0,-0.6445312 0,-1.3007812 0.082031,-1.8398437 0.1875,-1.1835938 0.9257812,-1.265625 1.1835937,-1.265625 0.328125,0 0.984375,0.1757812 1.171875,1.1601562 0.09375,0.5625 0.09375,1.3125 0.09375,1.9453125 0,0.75 0,1.4179688 -0.1054687,2.0625 -0.1523438,0.93750002 -0.7148438,1.2421875157 -1.160156,1.2421875157 z m 0,0"
         style="fill:#000000;fill-opacity:1;fill-rule:nonzero;stroke:none" />
      <path
         id="path97"
         d="m 6.892951,-0.52772303 c 0,-0.29296875 -0.234375,-0.52734377 -0.5273438,-0.52734377 -0.28125,0 -0.5273437,0.23437502 -0.5273437,0.52734377 0,0.29296875 0.2460937,0.5273437457 0.5273437,0.5273437457 0.2929688,0 0.5273438,-0.2343749957 0.5273438,-0.5273437457 z m 0,0"
         style="fill:#000000;fill-opacity:1;fill-rule:nonzero;stroke:none" />
      <path
         id="path98"
         d="m 12.224982,-2.0042855 c 0,-1.1835938 -0.820312,-2.1796875 -1.898437,-2.1796875 -0.480469,0 -0.902344,0.1640625 -1.2656253,0.5039062 v -1.9335937 c 0.1992188,0.058594 0.5273438,0.1289062 0.84375,0.1289062 1.2304683,0 1.9335933,-0.9140625 1.9335933,-1.0429687 0,-0.058594 -0.03516,-0.1054688 -0.105468,-0.1054688 -0.01172,0 -0.03516,0 -0.08203,0.023437 -0.199218,0.09375 -0.679687,0.2929688 -1.347656,0.2929688 -0.3984373,0 -0.8554685,-0.070312 -1.3242185,-0.28125 -0.082031,-0.023437 -0.1054688,-0.023437 -0.1289063,-0.023437 -0.09375,0 -0.09375,0.082031 -0.09375,0.234375 v 2.953125 c 0,0.1757812 0,0.2578125 0.140625,0.2578125 0.070312,0 0.082031,-0.035156 0.1289063,-0.09375 0.1054687,-0.1523438 0.4804687,-0.6914063 1.2773435,-0.6914063 0.527344,0 0.773438,0.4570313 0.855469,0.6328125 0.152344,0.375 0.175781,0.7617188 0.175781,1.2539063 0,0.3515625 0,0.9492187 -0.234375,1.37109372 -0.246094,0.38671875 -0.609375,0.64453125 -1.066406,0.64453125 -0.7265625,0 -1.3007813,-0.52734375 -1.4648438,-1.11328127 0.023437,0.011719 0.058594,0.011719 0.1640625,0.011719 0.328125,0 0.5039063,-0.2460938 0.5039063,-0.4804688 0,-0.2460937 -0.1757813,-0.4921875 -0.5039063,-0.4921875 -0.140625,0 -0.4804687,0.070312 -0.4804687,0.5273438 0,0.85546872 0.6796875,1.82812497 1.792969,1.82812497 1.160156,0 2.179687,-0.9609375 2.179687,-2.22656247 z m 0,0"
         style="fill:#000000;fill-opacity:1;fill-rule:nonzero;stroke:none" />
    </g>
    <path
       id="path99"
       d="M 38.056855,103.75314 H 224.78914"
       style="fill:none;stroke:#d3d3d3;stroke-width:0.75;stroke-linecap:square;stroke-linejoin:round;stroke-miterlimit:10;stroke-dasharray:none;stroke-opacity:1"
       transform="matrix(1.3333333,0,0,-1.3333333,0,186.69412)"
       clip-path="url(#clipPath100)" />
    <path
       id="path101"
       d="m 38.056855,103.75314 h 6"
       style="fill:#000000;fill-opacity:1;fill-rule:nonzero;stroke:#000000;stroke-width:1;stroke-linecap:butt;stroke-linejoin:round;stroke-miterlimit:10;stroke-dasharray:none;stroke-opacity:1"
       transform="matrix(1.3333333,0,0,-1.3333333,0,186.69412)" />
    <g
       id="g101"
       aria-label="1.0"
       transform="matrix(1.3333333,0,0,1.3333333,29.102367,52.968928)">
      <path
         id="path102"
         d="m 2.9290838,-6.3751337 c 0,-0.234375 0,-0.2578125 -0.234375,-0.2578125 -0.609375,0.6328125 -1.4882812,0.6328125 -1.80468749,0.6328125 v 0.3164062 c 0.19921879,0 0.78515629,0 1.30078129,-0.2578125 v 5.15625004 c 0,0.3515625 -0.035156,0.48046875 -0.9257813,0.48046875 H 0.94861506 V -1.337058e-4 C 1.3001776,-0.03528996 2.1556463,-0.03528996 2.5540838,-0.03528996 c 0.3984375,0 1.265625,0 1.6171875,0.0351562542 V -0.30482121 H 3.8548651 c -0.9023438,0 -0.9257813,-0.1171875 -0.9257813,-0.48046875 z m 0,0"
         style="fill:#000000;fill-opacity:1;fill-rule:nonzero;stroke:none" />
      <path
         id="path103"
         d="m 6.892951,-0.52747746 c 0,-0.29296875 -0.234375,-0.52734374 -0.5273438,-0.52734374 -0.28125,0 -0.5273437,0.23437499 -0.5273437,0.52734374 0,0.29296875 0.2460937,0.5273437542 0.5273437,0.5273437542 0.2929688,0 0.5273438,-0.2343750042 0.5273438,-0.5273437542 z m 0,0"
         style="fill:#000000;fill-opacity:1;fill-rule:nonzero;stroke:none" />
      <path
         id="path104"
         d="m 12.330451,-3.1876337 c 0,-0.796875 -0.04687,-1.59375 -0.398438,-2.3320313 -0.457031,-0.9609375 -1.277343,-1.1132812 -1.6875,-1.1132812 -0.5976558,0 -1.335937,0.2578125 -1.7343745,1.1835937 -0.328125,0.6914063 -0.375,1.4648438 -0.375,2.2617188 0,0.75 0.046875,1.640625 0.4453125,2.40234374 0.4335937,0.80859375 1.1601562,1.0078125 1.652344,1.0078125 0.539062,0 1.289062,-0.2109375 1.734375,-1.16015625 0.316406,-0.69140629 0.363281,-1.46484379 0.363281,-2.24999999 z m -2.097656,3.1874999942 c -0.386719,0 -0.9843753,-0.2460937542 -1.1601565,-1.2070312942 -0.1054688,-0.5976562 -0.1054688,-1.5117187 -0.1054688,-2.0976562 0,-0.6445313 0,-1.3007813 0.082031,-1.8398438 0.1875,-1.1835937 0.9257812,-1.265625 1.1835943,-1.265625 0.328125,0 0.984375,0.1757813 1.171875,1.1601563 0.09375,0.5625 0.09375,1.3125 0.09375,1.9453125 0,0.75 0,1.4179687 -0.105469,2.0625 -0.152344,0.93749999 -0.714844,1.2421874942 -1.160156,1.2421874942 z m 0,0"
         style="fill:#000000;fill-opacity:1;fill-rule:nonzero;stroke:none" />
    </g>
    <path
       id="path105"
       d="M 38.056855,35.577747 H 224.78914"
       style="fill:none;stroke:#c0c0c0;stroke-width:0.5;stroke-linecap:butt;stroke-linejoin:round;stroke-miterlimit:10;stroke-dasharray:0.5, 0.825;stroke-dashoffset:0;stroke-opacity:1"
       transform="matrix(1.3333333,0,0,-1.3333333,0,186.69412)"
       clip-path="url(#clipPath106)" />
    <path
       id="path107"
       d="m 38.056855,35.577747 h 4"
       style="fill:#000000;fill-opacity:1;fill-rule:nonzero;stroke:#000000;stroke-width:0.75;stroke-linecap:butt;stroke-linejoin:round;stroke-miterlimit:10;stroke-dasharray:none;stroke-opacity:1"
       transform="matrix(1.3333333,0,0,-1.3333333,0,186.69412)" />
    <path
       id="path108"
       d="M 38.056855,44.099671 H 224.78914"
       style="fill:none;stroke:#c0c0c0;stroke-width:0.5;stroke-linecap:butt;stroke-linejoin:round;stroke-miterlimit:10;stroke-dasharray:0.5, 0.825;stroke-dashoffset:0;stroke-opacity:1"
       transform="matrix(1.3333333,0,0,-1.3333333,0,186.69412)"
       clip-path="url(#clipPath109)" />
    <path
       id="path110"
       d="m 38.056855,44.099671 h 4"
       style="fill:#000000;fill-opacity:1;fill-rule:nonzero;stroke:#000000;stroke-width:0.75;stroke-linecap:butt;stroke-linejoin:round;stroke-miterlimit:10;stroke-dasharray:none;stroke-opacity:1"
       transform="matrix(1.3333333,0,0,-1.3333333,0,186.69412)" />
    <path
       id="path111"
       d="M 38.056855,52.621595 H 224.78914"
       style="fill:none;stroke:#c0c0c0;stroke-width:0.5;stroke-linecap:butt;stroke-linejoin:round;stroke-miterlimit:10;stroke-dasharray:0.5, 0.825;stroke-dashoffset:0;stroke-opacity:1"
       transform="matrix(1.3333333,0,0,-1.3333333,0,186.69412)"
       clip-path="url(#clipPath112)" />
    <path
       id="path113"
       d="m 38.056855,52.621595 h 4"
       style="fill:#000000;fill-opacity:1;fill-rule:nonzero;stroke:#000000;stroke-width:0.75;stroke-linecap:butt;stroke-linejoin:round;stroke-miterlimit:10;stroke-dasharray:none;stroke-opacity:1"
       transform="matrix(1.3333333,0,0,-1.3333333,0,186.69412)" />
    <path
       id="path114"
       d="M 38.056855,69.665443 H 224.78914"
       style="fill:none;stroke:#c0c0c0;stroke-width:0.5;stroke-linecap:butt;stroke-linejoin:round;stroke-miterlimit:10;stroke-dasharray:0.5, 0.825;stroke-dashoffset:0;stroke-opacity:1"
       transform="matrix(1.3333333,0,0,-1.3333333,0,186.69412)"
       clip-path="url(#clipPath115)" />
    <path
       id="path116"
       d="m 38.056855,69.665443 h 4"
       style="fill:#000000;fill-opacity:1;fill-rule:nonzero;stroke:#000000;stroke-width:0.75;stroke-linecap:butt;stroke-linejoin:round;stroke-miterlimit:10;stroke-dasharray:none;stroke-opacity:1"
       transform="matrix(1.3333333,0,0,-1.3333333,0,186.69412)" />
    <path
       id="path117"
       d="M 38.056855,78.187368 H 224.78914"
       style="fill:none;stroke:#c0c0c0;stroke-width:0.5;stroke-linecap:butt;stroke-linejoin:round;stroke-miterlimit:10;stroke-dasharray:0.5, 0.825;stroke-dashoffset:0;stroke-opacity:1"
       transform="matrix(1.3333333,0,0,-1.3333333,0,186.69412)"
       clip-path="url(#clipPath118)" />
    <path
       id="path119"
       d="m 38.056855,78.187368 h 4"
       style="fill:#000000;fill-opacity:1;fill-rule:nonzero;stroke:#000000;stroke-width:0.75;stroke-linecap:butt;stroke-linejoin:round;stroke-miterlimit:10;stroke-dasharray:none;stroke-opacity:1"
       transform="matrix(1.3333333,0,0,-1.3333333,0,186.69412)" />
    <path
       id="path120"
       d="M 38.056855,86.709292 H 224.78914"
       style="fill:none;stroke:#c0c0c0;stroke-width:0.5;stroke-linecap:butt;stroke-linejoin:round;stroke-miterlimit:10;stroke-dasharray:0.5, 0.825;stroke-dashoffset:0;stroke-opacity:1"
       transform="matrix(1.3333333,0,0,-1.3333333,0,186.69412)"
       clip-path="url(#clipPath121)" />
    <path
       id="path122"
       d="m 38.056855,86.709292 h 4"
       style="fill:#000000;fill-opacity:1;fill-rule:nonzero;stroke:#000000;stroke-width:0.75;stroke-linecap:butt;stroke-linejoin:round;stroke-miterlimit:10;stroke-dasharray:none;stroke-opacity:1"
       transform="matrix(1.3333333,0,0,-1.3333333,0,186.69412)" />
    <path
       id="path123"
       d="M 38.056855,95.231216 H 224.78914"
       style="fill:none;stroke:#c0c0c0;stroke-width:0.5;stroke-linecap:butt;stroke-linejoin:round;stroke-miterlimit:10;stroke-dasharray:0.5, 0.825;stroke-dashoffset:0;stroke-opacity:1"
       transform="matrix(1.3333333,0,0,-1.3333333,0,186.69412)"
       clip-path="url(#clipPath124)" />
    <path
       id="path125"
       d="m 38.056855,95.231216 h 4"
       style="fill:#000000;fill-opacity:1;fill-rule:nonzero;stroke:#000000;stroke-width:0.75;stroke-linecap:butt;stroke-linejoin:round;stroke-miterlimit:10;stroke-dasharray:none;stroke-opacity:1"
       transform="matrix(1.3333333,0,0,-1.3333333,0,186.69412)" />
    <path
       id="path126"
       d="M 38.056855,112.27506 H 224.78914"
       style="fill:none;stroke:#c0c0c0;stroke-width:0.5;stroke-linecap:butt;stroke-linejoin:round;stroke-miterlimit:10;stroke-dasharray:0.5, 0.825;stroke-dashoffset:0;stroke-opacity:1"
       transform="matrix(1.3333333,0,0,-1.3333333,0,186.69412)"
       clip-path="url(#clipPath127)" />
    <path
       id="path128"
       d="m 38.056855,112.27506 h 4"
       style="fill:#000000;fill-opacity:1;fill-rule:nonzero;stroke:#000000;stroke-width:0.75;stroke-linecap:butt;stroke-linejoin:round;stroke-miterlimit:10;stroke-dasharray:none;stroke-opacity:1"
       transform="matrix(1.3333333,0,0,-1.3333333,0,186.69412)" />
    <path
       id="path129"
       d="M 38.056855,120.79699 H 224.78914"
       style="fill:none;stroke:#c0c0c0;stroke-width:0.5;stroke-linecap:butt;stroke-linejoin:round;stroke-miterlimit:10;stroke-dasharray:0.5, 0.825;stroke-dashoffset:0;stroke-opacity:1"
       transform="matrix(1.3333333,0,0,-1.3333333,0,186.69412)"
       clip-path="url(#clipPath130)" />
    <path
       id="path131"
       d="m 38.056855,120.79699 h 4"
       style="fill:#000000;fill-opacity:1;fill-rule:nonzero;stroke:#000000;stroke-width:0.75;stroke-linecap:butt;stroke-linejoin:round;stroke-miterlimit:10;stroke-dasharray:none;stroke-opacity:1"
       transform="matrix(1.3333333,0,0,-1.3333333,0,186.69412)" />
    <path
       id="path132"
       d="m 8.3089835,-2.778547 c 0.011719,-0.035156 0.046875,-0.1171875 0.046875,-0.1640625 0,-0.058594 -0.046875,-0.1171875 -0.1171875,-0.1171875 -0.046875,0 -0.070312,0.011719 -0.1054687,0.046875 -0.023437,0.011719 -0.023437,0.035156 -0.140625,0.2695312 -0.703125,1.6757813 -1.21875,2.39062505 -3.1289063,2.39062505 H 3.1175773 c -0.1640625,0 -0.1875,0 -0.2578125,-0.0117188 -0.1289063,-0.0117188 -0.140625,-0.0351563 -0.140625,-0.12890625 0,-0.0820313 0.023437,-0.15234375 0.046875,-0.2578125 L 3.5863273,-4.0558908 H 4.769921 c 0.9375,0 1.0078125,0.2109375 1.0078125,0.5625 0,0.1171875 0,0.234375 -0.082031,0.5859375 -0.035156,0.046875 -0.046875,0.09375 -0.046875,0.1289063 0,0.082031 0.070312,0.1289062 0.140625,0.1289062 0.1054687,0 0.1171875,-0.09375 0.1640625,-0.2578125 L 6.6332023,-5.684797 c 0,-0.058594 -0.046875,-0.1171875 -0.1171875,-0.1171875 -0.1054688,0 -0.1171875,0.046875 -0.1640625,0.2226562 -0.2460938,0.9140625 -0.4804688,1.1835938 -1.546875,1.1835938 H 3.6683585 L 4.4066398,-7.3371408 C 4.5238273,-7.7590158 4.5472648,-7.794172 5.0277335,-7.794172 H 6.738671 c 1.4765625,0 1.7695313,0.3984375 1.7695313,1.3007812 0,0.011719 0,0.3515625 -0.046875,0.7382813 -0.011719,0.046875 -0.023437,0.1289062 -0.023437,0.1523437 0,0.09375 0.058594,0.1289063 0.1289062,0.1289063 0.082031,0 0.140625,-0.046875 0.1640625,-0.2695313 l 0.2460938,-2.0859375 c 0,-0.035156 0.023437,-0.1523437 0.023437,-0.1757812 0,-0.140625 -0.1054688,-0.140625 -0.3164063,-0.140625 H 2.848046 c -0.234375,0 -0.3515625,0 -0.3515625,0.2226562 0,0.1289063 0.082031,0.1289063 0.2929688,0.1289063 0.7382812,0 0.7382812,0.082031 0.7382812,0.2109375 0,0.058594 -0.011719,0.1054687 -0.046875,0.2460937 L 1.863671,-0.8801095 c -0.1054687,0.41015625 -0.1289062,0.52734375 -0.96093746,0.52734375 -0.234375,0 -0.3515625,0 -0.3515625,0.22265625 0,0.12890625 0.0703125,0.12890625 0.3046875,0.12890625 H 6.8558585 c 0.2695313,0 0.28125,-0.01171875 0.3632813,-0.19921875 z m 0,0"
       style="fill:#000000;fill-opacity:1;fill-rule:nonzero;stroke:none"
       aria-label="E"
       transform="matrix(0,-1.3333333,1.3333333,0,20.669573,86.918488)" />
    <g
       id="g132"
       aria-label="10&#10;10"
       transform="matrix(1.3333333,0,0,1.3333333,50.742473,18.936874)">
      <path
         id="path133"
         d="M 3.8786923,-2.7651554 1.8865048,-4.7456242 c -0.1289062,-0.1289062 -0.140625,-0.140625 -0.2226562,-0.140625 -0.1054688,0 -0.1992188,0.082031 -0.1992188,0.1992188 0,0.070312 0.023437,0.082031 0.1289063,0.1992187 l 1.9921875,1.9921875 -1.9921875,2.00390625 c -0.1054688,0.1171875 -0.1289063,0.12890625 -0.1289063,0.19921875 0,0.1171875 0.09375,0.19921875 0.1992188,0.19921875 0.082031,0 0.09375,-0.01171875 0.2226562,-0.140625 l 1.9804688,-1.98046875 2.0625,2.0625 c 0.011719,0.0117188 0.082031,0.05859375 0.1523437,0.05859375 0.1171875,0 0.1992188,-0.08203125 0.1992188,-0.19921875 0,-0.0117188 0,-0.0585938 -0.035156,-0.10546875 -0.011719,-0.0234375 -1.59375,-1.58203125 -2.0976562,-2.09765625 l 1.828125,-1.8164062 c 0.046875,-0.058594 0.1992187,-0.1875 0.2460937,-0.2460938 0.011719,-0.023437 0.058594,-0.058594 0.058594,-0.1289062 0,-0.1171875 -0.082031,-0.1992188 -0.1992188,-0.1992188 -0.082031,0 -0.1289062,0.035156 -0.234375,0.140625 z m 0,0"
         style="fill:#000000;fill-opacity:1;fill-rule:nonzero;stroke:none" />
      <path
         id="path134"
         d="m 10.678497,-6.3745304 c 0,-0.234375 0,-0.2578125 -0.234375,-0.2578125 -0.609375,0.6328125 -1.4882812,0.6328125 -1.8046875,0.6328125 v 0.3164062 c 0.1992188,0 0.7851563,0 1.3007813,-0.2578125 v 5.15625 c 0,0.3515625 -0.035156,0.48046875 -0.9257813,0.48046875 H 8.6980283 V 4.695526e-4 C 9.0495908,-0.0346867 9.9050595,-0.0346867 10.303497,-0.0346867 c 0.398438,0 1.265625,0 1.617188,0.0351562526 V -0.30421795 h -0.316407 c -0.902343,0 -0.925781,-0.1171875 -0.925781,-0.48046875 z m 6.632813,3.1875 c 0,-0.796875 -0.04687,-1.59375 -0.398438,-2.3320313 -0.457031,-0.9609375 -1.277344,-1.1132812 -1.6875,-1.1132812 -0.597656,0 -1.335937,0.2578125 -1.734375,1.1835937 -0.328125,0.6914063 -0.375,1.4648438 -0.375,2.2617188 0,0.75 0.04687,1.640625 0.445313,2.4023437 0.433593,0.80859375 1.160156,1.0078125 1.652343,1.0078125 0.539063,0 1.289063,-0.2109375 1.734375,-1.16015625 C 17.264435,-1.6284367 17.31131,-2.4018742 17.31131,-3.1870304 Z M 15.213653,4.695526e-4 c -0.386718,0 -0.984375,-0.2460937526 -1.160156,-1.2070312526 -0.105469,-0.5976562 -0.105469,-1.5117187 -0.105469,-2.0976562 0,-0.6445313 0,-1.3007813 0.08203,-1.8398438 0.1875,-1.1835937 0.925781,-1.265625 1.183593,-1.265625 0.328125,0 0.984375,0.1757813 1.171875,1.1601563 0.09375,0.5625 0.09375,1.3125 0.09375,1.9453125 0,0.75 0,1.4179687 -0.105468,2.0625 -0.152344,0.93749995 -0.714844,1.2421874526 -1.160157,1.2421874526 z m 0,0"
         style="fill:#000000;fill-opacity:1;fill-rule:nonzero;stroke:none" />
      <path
         id="path135"
         d="m 22.904083,-5.1850773 c 0.105469,0 0.269531,0 0.269531,-0.1757813 0,-0.1757812 -0.152344,-0.1757812 -0.269531,-0.1757812 h -4.160156 c -0.105469,0 -0.28125,0 -0.28125,0.1757812 0,0.1757813 0.164062,0.1757813 0.28125,0.1757813 z m 0,0"
         style="fill:#000000;fill-opacity:1;fill-rule:nonzero;stroke:none" />
      <path
         id="path136"
         d="m 26.270294,-8.0444523 c 0,-0.1875 -0.01172,-0.1992188 -0.210938,-0.1992188 -0.445312,0.4335938 -1.078125,0.4453125 -1.359375,0.4453125 v 0.2460938 c 0.164063,0 0.621094,0 1.007813,-0.1875 v 3.5507812 c 0,0.234375 0,0.328125 -0.691406,0.328125 h -0.269532 v 0.2460938 c 0.128907,-0.011719 0.984375,-0.023437 1.242188,-0.023437 0.210937,0 1.089844,0.011719 1.242187,0.023437 v -0.2460938 h -0.257812 c -0.703125,0 -0.703125,-0.09375 -0.703125,-0.328125 z m 5.232422,2.203125 c 0,-0.7617188 -0.09375,-1.3125 -0.410156,-1.8046875 -0.222657,-0.3164063 -0.644532,-0.5976563 -1.207032,-0.5976563 -1.617187,0 -1.617187,1.8984375 -1.617187,2.4023438 0,0.5039062 0,2.3671875 1.617187,2.3671875 1.617188,0 1.617188,-1.8632813 1.617188,-2.3671875 z m -1.617188,2.1679687 c -0.316406,0 -0.75,-0.1875 -0.890625,-0.7617187 -0.09375,-0.4101563 -0.09375,-0.984375 -0.09375,-1.5 0,-0.5039063 0,-1.03125 0.105469,-1.4179688 0.152344,-0.5507812 0.597656,-0.6914062 0.878906,-0.6914062 0.375,0 0.738282,0.2226562 0.867188,0.6328125 0.105469,0.375 0.117187,0.8789062 0.117187,1.4765625 0,0.515625 0,1.0429687 -0.09375,1.4765625 -0.140625,0.6328125 -0.609375,0.7851562 -0.890625,0.7851562 z m 0,0"
         style="fill:#000000;fill-opacity:1;fill-rule:nonzero;stroke:none" />
    </g>
    <path
       id="path137"
       d="m 46.544686,56.158332 0.680387,0.970796 0.680387,0.464617 0.680387,-0.01813 1.020581,-0.525934 1.360775,-0.692284 0.680387,-0.390994 0.680387,-0.679554 1.020581,-1.57391 1.020581,-1.614187 0.680387,-0.768451 0.680388,-0.40777 0.680387,-0.05428 0.680387,0.262759 1.020581,0.814691 2.041162,2.149697 2.041162,2.2045 0.680387,0.37991 0.340193,0.03669 0.680388,-0.256772 0.680387,-0.60766 1.360775,-1.388081 1.02058,-0.641566 0.680388,-0.418668 0.680387,-0.667783 0.680387,-1.006242 2.721549,-4.575394 0.680387,-0.629448 0.680388,-0.329636 0.680387,-0.06652 1.020581,0.223232 1.020581,0.458332 1.020581,0.702102 2.041161,1.535302 1.700969,0.769071 1.360774,0.778614 1.700968,1.289055 1.700968,1.390315 0.680388,0.28405 0.680387,0.01659 2.041162,-0.323539 1.360774,0.21407 0.680388,-0.185947 0.680387,-0.560199 0.680387,-0.910224 1.020581,-1.784882 2.041162,-4.145432 2.041161,-4.17049 0.680388,-1.005406 0.680387,-0.668755 0.680387,-0.369478 0.680388,-0.16152 1.020584,0.03859 0.68038,0.245979 0.68039,0.452086 1.02058,0.96715 1.36078,1.586406 1.02058,1.500693 1.70097,2.725724 0.68038,0.632571 0.68039,0.180937 0.68039,-0.183358 2.72155,-1.310233 0.68038,0.02356 0.68039,0.310572 1.02058,0.916427 1.36078,1.334145 1.70096,1.220155 1.36078,1.102647 1.36077,1.415319 1.02058,1.433303 1.02059,1.991599 1.36077,2.771136 0.68039,0.880787 0.68038,0.50435 1.36078,0.565866 0.68039,0.139497 0.68038,-0.113107 0.68039,-0.459291 0.68039,-0.764987 2.04116,-2.619068 3.74213,-3.601201 0.34019,-0.128393 0.3402,-0.0025 0.34019,0.136155 0.34019,0.281003 0.68039,0.996772 0.68039,1.542472 1.02058,3.158032 1.36077,5.292176 1.36078,6.431615 3.06174,16.354114 0.34019,2.718902 0.3402,4.539499 1.02058,22.38587 0.34019,1.75186 0.68039,-2.9103 0.68039,-0.14916 0.34019,-1.87044 0.68039,-7.0728 0.68038,-6.81808 0.3402,-1.56001 0.34019,1.183708 0.68039,9.834932 0.34019,-4.56781 0.68039,-13.370738 0.68039,-8.58529 1.02058,-8.963174 1.36077,-9.910117 0.68039,-3.841862 0.68039,-2.463577 0.68038,-1.224652 0.68039,-0.59433 1.36078,-0.971199 2.04116,-1.729103 0.68039,-0.291603 0.68038,0.0068 0.68039,0.354175 0.68039,0.698549 1.36077,2.000878 0.68039,0.864433 0.68039,0.449834 0.34019,0.03125 0.68039,-0.292159 1.02058,-0.946755 1.02058,-0.887506 0.68039,-0.371293 1.02058,-0.251836 0.68038,0.0073 0.68039,0.177114 0.68039,0.388708 1.02058,0.954521 1.70097,1.824281 1.02058,0.661975 2.04116,1.152063 1.36078,0.791194 1.02058,0.300645 0.68038,-0.02423 0.68039,-0.226663 0.68039,-0.423343 1.02058,-0.930152 1.36077,-1.597252 1.36078,-1.922154 1.70097,-2.474405 0.68038,-0.680215 0.68039,-0.333262 0.68039,0.04141 0.68039,0.371745 1.02058,0.97491 1.36077,1.402959 0.68039,0.465034 0.68039,0.222775 0.68038,-0.04103 0.68039,-0.320001 0.68039,-0.595646 1.02058,-1.289763 1.70097,-2.287419 0.68038,-0.621419 0.68039,-0.299612 0.68039,0.08484 0.68038,0.446191 2.72155,2.447113 3.74213,1.592564 0.68039,-0.06756 0.68039,-0.352029 0.68039,-0.680304 0.68038,-1.024684 1.36078,-2.729655 1.02058,-1.91567 0.68039,-0.898061 0.68038,-0.496349 0.3402,-0.08928 v 0"
       style="fill:none;stroke:#ff0000;stroke-width:1.5;stroke-linecap:square;stroke-linejoin:round;stroke-miterlimit:10;stroke-dasharray:none;stroke-opacity:1"
       transform="matrix(1.3333333,0,0,-1.3333333,0,186.69412)"
       clip-path="url(#clipPath138)" />
    <path
       id="path139"
       d="m 46.544686,60.674468 0.340193,0.376153 0.340194,0.195552 0.340194,0.01192 0.340193,-0.164296 0.680387,-0.790909 0.680388,-1.246461 1.020581,-2.446714 1.700968,-4.334535 0.340193,-0.487202 0.340194,-0.237361 0.340194,-0.01188 1.02058,0.351524 0.680388,-0.158405 2.381355,-1.263918 0.680387,-0.106619 0.680388,0.197118 0.680387,0.520492 1.700968,1.773868 0.340194,0.152914 0.340193,-0.01267 0.680388,-0.206179 0.340193,0.214711 0.340194,0.588349 1.360774,3.221158 1.020581,1.614439 1.700968,2.048163 3.061743,3.461593 0.340194,0.14975 0.340193,-0.01377 0.340194,-0.22359 0.340194,-0.47903 0.340193,-0.772481 0.680387,-2.479038 1.020581,-5.470319 1.020581,-5.582563 0.680388,-2.737282 0.680387,-1.536804 0.340193,-0.295864 0.340194,-0.0077 0.340194,0.232666 0.680387,0.974562 1.020581,2.167205 0.680387,1.912623 0.680387,2.585534 1.020581,4.11673 0.340194,0.820889 0.340193,0.457126 0.340194,0.17393 0.680387,-0.123343 1.360775,-0.760118 1.020581,-0.755744 1.360774,-1.341657 1.700968,-1.665041 2.041162,-1.954386 1.360775,-1.247781 0.680387,-0.388449 1.020581,-0.254342 1.020581,-0.182223 0.680387,-0.301802 0.680387,-0.519482 1.020581,-1.108551 1.700968,-1.972998 0.680388,-0.516794 0.680387,-0.168523 0.340194,0.08665 0.680384,0.548403 0.68039,0.982859 3.74213,6.477891 0.68039,0.595298 0.34019,0.118734 0.34019,-0.02167 0.3402,-0.169792 0.68039,-0.774345 0.68038,-1.257317 1.70097,-3.637078 0.68039,-0.809191 0.34019,-0.146477 0.34019,0.01571 0.68039,0.368208 1.02058,0.681521 0.68039,0.174246 1.36078,0.02925 0.68038,0.335487 0.68039,0.645227 1.36077,1.427671 1.02058,0.727252 2.38136,1.495255 0.34019,0.01517 0.3402,-0.106111 0.68039,-0.587089 0.68038,-0.991399 2.72155,-4.617449 0.68039,-0.711855 0.68039,-0.327372 0.68038,0.07409 0.68039,0.391689 1.70097,1.20385 1.36077,0.798798 0.68039,0.688959 1.02058,1.446298 1.36078,1.887345 1.70096,2.098535 0.68039,1.45903 0.34019,1.083958 0.3402,1.475377 0.34019,2.0691 0.3402,2.952706 1.02058,13.367295 0.34019,1.391151 0.34019,-1.362304 0.68039,-4.387623 0.34019,-1.452219 0.3402,-0.731513 0.34019,0.02207 0.3402,0.750116 0.34019,1.381541 0.68039,4.142754 0.68038,5.523058 0.68039,8.10313 0.68039,13.907349 0.34019,6.5175 0.3402,-1.75686 0.68038,-12.416317 0.3402,-2.374636 0.34019,0.197502 0.34019,-0.03695 0.68039,-3.874352 0.34019,-0.398576 0.3402,0.955448 0.34019,1.87578 0.34019,0.912327 0.3402,-2.149387 0.68039,-7.891937 0.34019,-2.60072 0.68039,-2.909133 2.04116,-6.099089 1.36077,-3.488823 1.02058,-2.109977 0.68039,-1.119708 0.68039,-0.781592 0.68039,-0.373965 0.68038,0.0086 1.02058,0.452511 1.02058,0.467921 0.68039,0.0953 1.02058,-0.186707 1.36078,-0.281269 1.02058,-0.199644 0.68039,-0.431567 0.68038,-0.920735 0.68039,-1.563518 0.68039,-2.254184 1.02058,-4.424074 1.02058,-4.470445 0.68039,-2.16516 0.68038,-1.224698 0.3402,-0.257815 0.34019,-0.04135 0.34019,0.148837 0.68039,0.732338 1.02058,1.701368 1.36078,2.768419 2.72155,6.11814 0.34019,0.478085 0.34019,0.276637 0.3402,0.02722 0.34019,-0.241146 0.68039,-1.135195 1.02058,-2.033355 0.68039,-0.826464 0.68038,-0.337898 0.68039,-0.0039 1.36078,0.196764 0.68038,-0.206131 0.68039,-0.517082 1.02058,-1.235092 1.70097,-2.276925 0.68039,-0.493301 0.68038,-0.0755 0.68039,0.323189 0.68039,0.624401 1.36077,1.698543 3.74213,4.918999 0.68039,0.6511 0.68039,0.384515 0.68038,0.0263 0.68039,-0.360418 0.68039,-0.681175 3.06174,-3.620781 0.68039,-0.393648 1.02058,-0.297005 1.36077,-0.397191 1.36078,-0.456945 1.02058,-0.111494 3.06174,-0.07154 2.72155,-0.536495 1.36078,0.202466 1.02058,0.18551 v 0"
       style="fill:none;stroke:#000000;stroke-width:1.5;stroke-linecap:square;stroke-linejoin:round;stroke-miterlimit:10;stroke-dasharray:none;stroke-opacity:1"
       transform="matrix(1.3333333,0,0,-1.3333333,0,186.69412)"
       clip-path="url(#clipPath140)" />
    <path
       id="path141"
       d="m 46.544686,47.602566 0.340193,0.08792 0.680388,0.63905 1.360774,1.603024 0.680387,0.704926 0.680388,1.124886 0.680387,1.907865 1.020581,3.394627 0.340193,0.736183 0.340194,0.415476 0.340194,0.140018 0.680387,-0.196729 0.680387,-0.294949 0.680387,0.0197 0.680388,0.457343 1.020581,1.260356 1.02058,1.197438 1.020581,0.754888 1.360775,0.876825 1.360774,1.012875 0.340194,0.103032 0.340194,-0.03708 0.340193,-0.216376 0.340194,-0.415895 0.680387,-1.36472 1.020581,-2.289053 0.680387,-1.061448 5.102905,-6.202632 1.020581,-0.561597 1.02058,-0.265149 1.360775,-0.09568 1.020581,0.178908 1.020581,0.41222 2.381355,1.243129 0.680387,-0.152852 0.680388,-0.550546 1.700968,-1.747128 0.680387,-0.31927 0.680387,-0.04935 1.360775,0.288351 0.680387,0.06203 0.680387,-0.146283 0.680388,-0.401946 0.680387,-0.654899 1.020581,-1.372814 2.721549,-4.174779 0.680387,-0.524058 0.680387,-0.165753 0.680388,0.179894 0.680387,0.516327 0.680387,0.839155 1.020581,1.708637 5.102905,9.260424 0.680384,0.964953 0.68039,0.577182 0.68039,0.14987 0.68038,-0.218617 0.68039,-0.480175 1.02058,-1.025304 1.36078,-1.794866 2.04116,-3.213228 1.36077,-2.473073 1.70097,-3.230396 0.68039,-0.730846 0.34019,-0.149455 0.3402,-0.01102 0.68038,0.288426 2.38136,1.483225 1.70097,0.922224 1.02058,0.808992 1.36077,1.440492 2.04116,2.25032 1.36078,1.230223 1.36077,0.913737 1.36078,0.578562 1.36077,0.318381 1.36078,0.02843 2.38135,-0.123225 0.68039,0.210552 2.04116,1.009202 0.68039,-0.203659 0.68039,-0.601602 2.04116,-2.303775 0.68038,-0.294372 0.68039,0.06972 0.68039,0.45303 0.68039,0.879925 0.68038,1.324558 1.02058,2.615635 1.02059,3.009633 0.34019,1.326145 0.34019,1.910461 1.02058,7.113558 2.04117,11.716808 1.02058,6.434064 0.68038,4.707097 0.3402,1.028781 0.34019,1.418285 0.34019,3.953035 0.3402,6.22233 0.34019,2.1513 0.68039,-5.51729 0.68039,-8.694951 0.68038,-5.453393 0.68039,-4.21012 0.68039,-2.550921 0.34019,-0.971759 0.34019,-1.388921 1.70097,-10.324218 0.68039,-2.495075 0.68039,-1.628852 0.68038,-0.936691 0.68039,-0.501776 1.36078,-0.854345 1.02058,-1.090514 2.72155,-3.440478 1.02058,-0.828858 1.70097,-1.241265 1.02058,-1.047 2.72155,-3.091444 1.36077,-1.092863 0.68039,-0.284769 0.68038,0.062 0.68039,0.459906 0.68039,0.775513 2.72155,3.593467 0.68039,0.279074 0.68038,-0.104789 1.36078,-0.46238 0.68038,0.07121 0.68039,0.348489 1.02058,0.909409 1.36078,1.379673 0.68038,0.452831 0.68039,0.155646 0.68039,-0.189677 0.68039,-0.55687 0.68038,-0.884166 2.38136,-3.465136 1.02058,-0.94577 1.02058,-0.668987 1.02058,-0.439296 0.68039,-0.107495 0.68039,0.08351 1.02058,0.427636 1.70097,0.858007 0.68038,0.173226 0.68039,-0.0051 0.68039,-0.209829 1.02058,-0.647782 2.38135,-1.817647 1.02058,-0.49048 0.68039,-0.152042 0.68039,0.02363 0.68039,0.20395 1.02058,0.56388 1.70096,1.030496 1.02059,0.306914 0.68038,0.01229 1.02058,-0.242374 2.38136,-0.867284 0.68039,0.143126 0.68038,0.501256 0.68039,0.841419 1.36078,1.899407 1.02058,1.026444 v 0"
       style="fill:none;stroke:#000080;stroke-width:1.5;stroke-linecap:square;stroke-linejoin:round;stroke-miterlimit:10;stroke-dasharray:none;stroke-opacity:1"
       transform="matrix(1.3333333,0,0,-1.3333333,0,186.69412)"
       clip-path="url(#clipPath142)" />
    <path
       id="path143"
       d="m 46.544686,56.226386 2.041161,-3.554467 0.680388,-0.7469 0.680387,-0.416073 0.680387,-0.124232 1.020581,0.149643 1.020581,0.08595 0.680387,-0.176811 1.020581,-0.570396 0.680387,-0.370648 0.680388,-0.139719 0.680387,0.208687 1.700968,1.058705 0.340194,-0.01359 0.680387,-0.364737 0.680387,-0.453862 0.340194,-0.07208 0.340193,0.08736 0.680388,0.527853 0.680387,0.554923 0.680387,0.200727 0.680387,-0.204205 1.360775,-0.684799 1.700968,-0.260167 0.680387,-0.693047 1.700969,-2.377401 0.340193,-0.209813 0.340194,-0.07764 0.680387,0.211877 0.680387,0.562881 2.721549,2.807008 0.680388,0.34256 0.340193,0.03469 0.340194,-0.07995 0.680387,-0.541415 1.700968,-2.211291 0.340194,-0.134465 0.340194,0.02494 1.700968,0.697358 0.680387,-0.186509 0.680387,-0.224307 0.680387,0.103754 1.020581,0.636715 1.360775,0.882035 3.74213,1.734724 0.680387,0.08525 0.680387,-0.269558 0.680388,-0.648662 1.360774,-1.904822 1.020581,-1.194014 0.680387,-0.431725 0.680388,-0.139207 0.680387,0.0825 1.020581,0.380423 1.360774,0.584944 1.020581,0.154683 5.4431,-0.198585 0.68039,0.261604 0.68038,0.514994 0.68039,0.787831 1.36077,2.074865 1.02059,1.421348 0.68038,0.652858 0.68039,0.35499 0.68039,0.03302 0.68038,-0.314157 0.68039,-0.663959 1.02058,-1.492089 1.70097,-2.590122 0.68039,-0.682464 0.68039,-0.345096 0.68038,0.03709 0.68039,0.410028 0.68039,0.712469 1.36077,1.905606 1.70097,2.408413 1.02058,1.084469 0.68039,0.369389 0.68039,-0.0077 0.68038,-0.374442 0.68039,-0.656659 3.40194,-3.83108 0.68038,-0.467831 0.68039,-0.210782 0.68039,0.156337 0.68039,0.522671 1.70096,1.606078 0.68039,0.162341 0.68039,-0.275466 0.68038,-0.658749 1.02059,-1.139376 0.68038,-0.400678 1.02058,-0.174507 1.02058,-0.0236 1.36078,0.298847 1.02058,0.110712 1.02058,0.04155 0.34019,0.196244 0.3402,0.424776 0.34019,0.766694 0.3402,1.261755 0.34019,2.015968 0.34019,3.366698 0.3402,6.250388 0.68038,22.448981 0.68039,-6.660707 0.34019,0.644555 0.3402,3.81479 0.68039,11.951821 0.34019,15.897605 0.34019,2.94951 0.3402,-13.25418 0.68038,-12.688874 0.3402,-3.481438 0.34019,-1.596613 0.34019,0.07903 0.3402,1.845084 0.34019,4.135364 0.34019,7.445466 0.3402,2.010551 0.68039,-16.995444 0.34019,-3.964382 0.34019,-1.615022 0.3402,-0.486102 0.34019,-0.0027 1.02058,0.229405 1.02058,0.1562 0.3402,-0.197546 0.34019,-0.404396 0.68039,-1.320667 1.02058,-2.72552 3.40193,-9.775473 0.68039,-1.119593 1.02058,-1.068527 0.68039,-0.74445 0.68039,-1.054317 1.70096,-2.891304 1.02059,-1.066554 1.36077,-1.289005 4.08232,-4.446747 1.02058,-0.621421 0.68039,-0.165895 0.68039,0.08102 0.68039,0.363102 0.68038,0.626367 2.04117,2.176899 3.74213,2.945307 1.02058,0.589398 0.68038,0.182462 0.68039,-0.126496 0.68039,-0.493497 0.68039,-0.798949 3.40193,-4.609531 0.68039,-0.49336 0.68039,-0.24848 0.68038,-0.04062 1.36078,0.226142 2.04116,0.320763 1.02058,-0.08036 1.70097,-0.343362 0.68039,0.08188 0.68038,0.310992 1.02058,0.835093 4.08233,3.947934 0.68038,0.181336 0.68039,-0.09346 1.70097,-0.49279 0.68039,0.02726 1.02058,0.314056 1.70097,0.620142 1.36077,0.179158 1.36078,-0.05973 1.36077,-0.312227 1.70097,-0.516864 1.02058,-0.03557 0.68039,0.102512 v 0"
       style="fill:none;stroke:#9acd32;stroke-width:1.5;stroke-linecap:square;stroke-linejoin:round;stroke-miterlimit:10;stroke-dasharray:none;stroke-opacity:1"
       transform="matrix(1.3333333,0,0,-1.3333333,0,186.69412)"
       clip-path="url(#clipPath144)" />
    <path
       id="path145"
       d="M 38.056855,35.510845 V 122.81793"
       style="fill:none;stroke:#000000;stroke-width:0.8;stroke-linecap:square;stroke-linejoin:miter;stroke-miterlimit:10;stroke-dasharray:none;stroke-opacity:1"
       transform="matrix(1.3333333,0,0,-1.3333333,0,186.69412)" />
    <path
       id="path146"
       d="M 224.78914,35.510845 V 122.81793"
       style="fill:none;stroke:#000000;stroke-width:0.8;stroke-linecap:square;stroke-linejoin:miter;stroke-miterlimit:10;stroke-dasharray:none;stroke-opacity:1"
       transform="matrix(1.3333333,0,0,-1.3333333,0,186.69412)" />
    <path
       id="path147"
       d="M 38.056855,35.510845 H 224.78914"
       style="fill:none;stroke:#000000;stroke-width:0.8;stroke-linecap:square;stroke-linejoin:miter;stroke-miterlimit:10;stroke-dasharray:none;stroke-opacity:1"
       transform="matrix(1.3333333,0,0,-1.3333333,0,186.69412)" />
    <path
       id="path148"
       d="M 38.056855,122.81793 H 224.78914"
       style="fill:none;stroke:#000000;stroke-width:0.8;stroke-linecap:square;stroke-linejoin:miter;stroke-miterlimit:10;stroke-dasharray:none;stroke-opacity:1"
       transform="matrix(1.3333333,0,0,-1.3333333,0,186.69412)" />
    <path
       id="path149"
       d="m 170.84515,59.069218 h 46.94399 c 1.33333,0 2,0.666667 2,2 v 54.748712 c 0,1.33334 -0.66667,2 -2,2 h -46.94399 c -1.33334,0 -2,-0.66666 -2,-2 V 61.069218 c 0,-1.333333 0.66666,-2 2,-2 z"
       style="fill:#ffffff;fill-opacity:0.8;fill-rule:nonzero;stroke:#cccccc;stroke-width:1;stroke-linecap:butt;stroke-linejoin:miter;stroke-miterlimit:10;stroke-dasharray:none;stroke-opacity:0.8"
       transform="matrix(1.3333333,0,0,-1.3333333,0,186.69412)" />
    <path
       id="path150"
       d="m 172.84515,110.31793 h 10 10"
       style="fill:none;stroke:#ff0000;stroke-width:1.5;stroke-linecap:square;stroke-linejoin:round;stroke-miterlimit:10;stroke-dasharray:none;stroke-opacity:1"
       transform="matrix(1.3333333,0,0,-1.3333333,0,186.69412)" />
    <path
       id="path151"
       d="M 3.4800479,-3.8676945 2.2027041,-4.172382 C 1.5816104,-4.3247258 1.1948916,-4.8637883 1.1948916,-5.438007 c 0,-0.703125 0.5390625,-1.3007813 1.3125,-1.3007813 1.6640625,0 1.8867188,1.6289063 1.9453125,2.0742188 0.011719,0.058594 0.011719,0.1171875 0.1171875,0.1171875 0.1289063,0 0.1289063,-0.046875 0.1289063,-0.234375 v -2.0039063 c 0,-0.1640625 0,-0.234375 -0.1054688,-0.234375 -0.070312,0 -0.082031,0.011719 -0.1523437,0.1289063 l -0.3515625,0.5625 c -0.2929688,-0.28125 -0.703125,-0.6914063 -1.59375,-0.6914063 -1.1015625,0 -1.93359379,0.8789063 -1.93359379,1.9335938 0,0.8203125 0.52734379,1.546875 1.30078129,1.8164062 0.1054687,0.046875 0.6210937,0.1640625 1.3125,0.328125 0.2695312,0.070312 0.5742187,0.140625 0.84375,0.515625 0.2109375,0.2578125 0.3164062,0.5859375 0.3164062,0.9140625 0,0.70312504 -0.5039062,1.41796879 -1.3359375,1.41796879 -0.2929687,0 -1.0429687,-0.046875 -1.5703125,-0.5390625 C 0.84332911,-1.1606633 0.81989161,-1.8051945 0.80817286,-2.156757 c -0.0117188,-0.1054688 -0.09375,-0.1054688 -0.1171875,-0.1054688 -0.12890625,0 -0.12890625,0.070312 -0.12890625,0.2460938 v 1.99218749 c 0,0.17578125 0,0.24609375 0.10546875,0.24609375 0.0703125,0 0.0820313,-0.0234375 0.15234375,-0.12890625 0,-0.01171875 0.0234375,-0.046875 0.35156249,-0.57421875 0.3164063,0.33984375 0.9492188,0.703125 1.8398438,0.703125 1.1601562,0 1.9570312,-0.984375 1.9570312,-2.07421874 0,-0.9960938 -0.65625,-1.8164063 -1.4882812,-2.015625 z m 3.2080078,1.6992187 c 0,-1.6289062 0.8203125,-2.0507812 1.3476562,-2.0507812 0.09375,0 0.7148438,0.011719 1.0664063,0.375 -0.4101563,0.023437 -0.46875,0.328125 -0.46875,0.4570312 0,0.2578125 0.1875,0.4570313 0.4570312,0.4570313 0.2578125,0 0.4570313,-0.1640625 0.4570313,-0.46875 0,-0.6796875 -0.75,-1.0664063 -1.5234375,-1.0664063 -1.2421875,0 -2.15625,1.078125 -2.15625,2.3085938 0,1.27734374 0.984375,2.26171874 2.1445312,2.26171874 1.3359375,0 1.6523438,-1.19531254 1.6523438,-1.28906254 0,-0.1054687 -0.1054688,-0.1054687 -0.1289063,-0.1054687 -0.09375,0 -0.1171875,0.046875 -0.1289062,0.1054687 -0.2929688,0.92578129 -0.9375,1.04296879 -1.3125,1.04296879 -0.5273438,0 -1.40625,-0.421875 -1.40625,-2.02734379 z M 12.881415,-6.375507 c 0,-0.234375 0,-0.2578125 -0.234375,-0.2578125 -0.609375,0.6328125 -1.488281,0.6328125 -1.804687,0.6328125 v 0.3164062 c 0.199218,0 0.785156,0 1.300781,-0.2578125 v 5.15625004 c 0,0.3515625 -0.03516,0.48046875 -0.925781,0.48046875 H 10.900946 V -5.070099e-4 C 11.252509,-0.03566326 12.107978,-0.03566326 12.506415,-0.03566326 c 0.398438,0 1.265625,0 1.617188,0.0351562501 V -0.30519451 h -0.316407 c -0.902343,0 -0.925781,-0.1171875 -0.925781,-0.48046875 z m 0,0"
       style="fill:#000000;fill-opacity:1;fill-rule:nonzero;stroke:none"
       aria-label="Sc1"
       transform="matrix(1.3333333,0,0,1.3333333,267.79353,44.270207)" />
    <path
       id="path152"
       d="m 172.84515,96.380753 h 10 10"
       style="fill:none;stroke:#000000;stroke-width:1.5;stroke-linecap:square;stroke-linejoin:round;stroke-miterlimit:10;stroke-dasharray:none;stroke-opacity:1"
       transform="matrix(1.3333333,0,0,-1.3333333,0,186.69412)" />
    <path
       id="path153"
       d="M 3.4800479,-3.8683494 2.2027041,-4.1730369 c -0.6210937,-0.1523438 -1.0078125,-0.6914063 -1.0078125,-1.265625 0,-0.703125 0.5390625,-1.3007813 1.3125,-1.3007813 1.6640625,0 1.8867188,1.6289063 1.9453125,2.0742188 0.011719,0.058594 0.011719,0.1171875 0.1171875,0.1171875 0.1289063,0 0.1289063,-0.046875 0.1289063,-0.234375 v -2.0039063 c 0,-0.1640625 0,-0.234375 -0.1054688,-0.234375 -0.070312,0 -0.082031,0.011719 -0.1523437,0.1289063 l -0.3515625,0.5625 c -0.2929688,-0.28125 -0.703125,-0.6914063 -1.59375,-0.6914063 -1.1015625,0 -1.93359379,0.8789063 -1.93359379,1.9335938 0,0.8203125 0.52734379,1.546875 1.30078129,1.8164062 0.1054687,0.046875 0.6210937,0.1640625 1.3125,0.328125 0.2695312,0.070312 0.5742187,0.140625 0.84375,0.515625 0.2109375,0.2578125 0.3164062,0.5859375 0.3164062,0.9140625 0,0.70312505 -0.5039062,1.4179688 -1.3359375,1.4179688 -0.2929687,0 -1.0429687,-0.046875 -1.5703125,-0.5390625 -0.58593749,-0.5273438 -0.60937499,-1.171875 -0.62109374,-1.5234375 -0.0117188,-0.1054688 -0.09375,-0.1054688 -0.1171875,-0.1054688 -0.12890625,0 -0.12890625,0.070312 -0.12890625,0.2460938 v 1.9921875 c 0,0.17578125 0,0.24609375 0.10546875,0.24609375 0.0703125,0 0.0820313,-0.0234375 0.15234375,-0.12890625 0,-0.01171875 0.0234375,-0.046875 0.35156249,-0.57421875 0.3164063,0.33984375 0.9492188,0.703125 1.8398438,0.703125 1.1601562,0 1.9570312,-0.984375 1.9570312,-2.07421875 0,-0.9960938 -0.65625,-1.8164063 -1.4882812,-2.015625 z m 3.2080078,1.6992187 c 0,-1.6289062 0.8203125,-2.0507812 1.3476562,-2.0507812 0.09375,0 0.7148438,0.011719 1.0664063,0.375 -0.4101563,0.023437 -0.46875,0.328125 -0.46875,0.4570312 0,0.2578125 0.1875,0.4570313 0.4570312,0.4570313 0.2578125,0 0.4570313,-0.1640625 0.4570313,-0.46875 0,-0.6796875 -0.75,-1.0664063 -1.5234375,-1.0664063 -1.2421875,0 -2.15625,1.078125 -2.15625,2.3085938 0,1.27734375 0.984375,2.26171875 2.1445312,2.26171875 1.3359375,0 1.6523438,-1.19531255 1.6523438,-1.28906255 0,-0.1054687 -0.1054688,-0.1054687 -0.1289063,-0.1054687 -0.09375,0 -0.1171875,0.046875 -0.1289062,0.1054687 -0.2929688,0.9257813 -0.9375,1.0429688 -1.3125,1.0429688 -0.5273438,0 -1.40625,-0.421875 -1.40625,-2.0273438 z m 4.5292973,1.40625005 1.054687,-1.03125005 c 1.558594,-1.3710937 2.15625,-1.9101562 2.15625,-2.90625 0,-1.1367187 -0.902344,-1.9335937 -2.121094,-1.9335937 -1.125,0 -1.851562,0.9140625 -1.851562,1.8046875 0,0.5507812 0.492187,0.5507812 0.527344,0.5507812 0.164062,0 0.515625,-0.1171875 0.515625,-0.5273437 0,-0.2578125 -0.1875,-0.515625 -0.527344,-0.515625 -0.08203,0 -0.105469,0 -0.128906,0.011719 0.222656,-0.6445312 0.761718,-1.0195312 1.335937,-1.0195312 0.914063,0 1.335938,0.8085937 1.335938,1.6289062 0,0.796875 -0.492188,1.5820313 -1.042969,2.203125 l -1.910156,2.13281255 c -0.105469,0.10546875 -0.105469,0.12890625 -0.105469,0.36328125 h 3.691406 l 0.28125,-1.734375 h -0.257812 c -0.04687,0.3046875 -0.117188,0.73828125 -0.210938,0.890625 -0.07031,0.0820313 -0.726562,0.0820313 -0.949219,0.0820313 z m 0,0"
       style="fill:#000000;fill-opacity:1;fill-rule:nonzero;stroke:none"
       aria-label="Sc2"
       transform="matrix(1.3333333,0,0,1.3333333,267.79353,62.853112)" />
    <path
       id="path154"
       d="m 172.84515,82.443575 h 10 10"
       style="fill:none;stroke:#000080;stroke-width:1.5;stroke-linecap:square;stroke-linejoin:round;stroke-miterlimit:10;stroke-dasharray:none;stroke-opacity:1"
       transform="matrix(1.3333333,0,0,-1.3333333,0,186.69412)" />
    <path
       id="path155"
       d="M 3.4800479,-3.8660746 2.2027041,-4.1707621 c -0.6210937,-0.1523438 -1.0078125,-0.6914063 -1.0078125,-1.265625 0,-0.703125 0.5390625,-1.3007813 1.3125,-1.3007813 1.6640625,0 1.8867188,1.6289063 1.9453125,2.0742188 0.011719,0.058594 0.011719,0.1171875 0.1171875,0.1171875 0.1289063,0 0.1289063,-0.046875 0.1289063,-0.234375 v -2.0039063 c 0,-0.1640625 0,-0.234375 -0.1054688,-0.234375 -0.070312,0 -0.082031,0.011719 -0.1523437,0.1289063 l -0.3515625,0.5625 c -0.2929688,-0.28125 -0.703125,-0.6914063 -1.59375,-0.6914063 -1.1015625,0 -1.93359379,0.8789063 -1.93359379,1.9335938 0,0.8203125 0.52734379,1.546875 1.30078129,1.8164062 0.1054687,0.046875 0.6210937,0.1640625 1.3125,0.328125 0.2695312,0.070312 0.5742187,0.140625 0.84375,0.515625 0.2109375,0.2578125 0.3164062,0.5859375 0.3164062,0.9140625 0,0.70312504 -0.5039062,1.41796879 -1.3359375,1.41796879 -0.2929687,0 -1.0429687,-0.046875 -1.5703125,-0.5390625 C 0.84332911,-1.1590434 0.81989161,-1.8035746 0.80817286,-2.1551371 c -0.0117188,-0.1054688 -0.09375,-0.1054688 -0.1171875,-0.1054688 -0.12890625,0 -0.12890625,0.070312 -0.12890625,0.2460938 v 1.99218749 c 0,0.17578125 0,0.24609375 0.10546875,0.24609375 0.0703125,0 0.0820313,-0.0234375 0.15234375,-0.12890625 0,-0.01171875 0.0234375,-0.046875 0.35156249,-0.57421875 0.3164063,0.33984375 0.9492188,0.703125 1.8398438,0.703125 1.1601562,0 1.9570312,-0.984375 1.9570312,-2.07421874 0,-0.9960938 -0.65625,-1.8164063 -1.4882812,-2.015625 z m 3.2080078,1.6992187 c 0,-1.6289062 0.8203125,-2.0507812 1.3476562,-2.0507812 0.09375,0 0.7148438,0.011719 1.0664063,0.375 -0.4101563,0.023437 -0.46875,0.328125 -0.46875,0.4570312 0,0.2578125 0.1875,0.4570313 0.4570312,0.4570313 0.2578125,0 0.4570313,-0.1640625 0.4570313,-0.46875 0,-0.6796875 -0.75,-1.0664063 -1.5234375,-1.0664063 -1.2421875,0 -2.15625,1.078125 -2.15625,2.3085938 0,1.27734374 0.984375,2.26171874 2.1445312,2.26171874 1.3359375,0 1.6523438,-1.19531254 1.6523438,-1.28906254 0,-0.1054687 -0.1054688,-0.1054687 -0.1289063,-0.1054687 -0.09375,0 -0.1171875,0.046875 -0.1289062,0.1054687 -0.2929688,0.92578129 -0.9375,1.04296879 -1.3125,1.04296879 -0.5273438,0 -1.40625,-0.421875 -1.40625,-2.02734379 z m 6.1582033,-1.3359375 c 0.808594,-0.2695312 1.394531,-0.9726562 1.394531,-1.7578125 0,-0.8203125 -0.878906,-1.3710937 -1.839844,-1.3710937 -1.007812,0 -1.757812,0.5976562 -1.757812,1.3476562 0,0.3398438 0.210937,0.5273438 0.503906,0.5273438 0.304688,0 0.503906,-0.2226563 0.503906,-0.515625 0,-0.4921875 -0.46875,-0.4921875 -0.609375,-0.4921875 0.304688,-0.4921875 0.960938,-0.6210938 1.324219,-0.6210938 0.410156,0 0.949219,0.2226563 0.949219,1.1132813 0,0.1289062 -0.01172,0.703125 -0.269531,1.1367187 -0.304688,0.4804688 -0.644532,0.515625 -0.890625,0.515625 -0.08203,0.011719 -0.316407,0.035156 -0.386719,0.035156 -0.08203,0.011719 -0.152344,0.023437 -0.152344,0.1171875 0,0.1171875 0.07031,0.1171875 0.234375,0.1171875 h 0.445313 c 0.808593,0 1.183593,0.6679687 1.183593,1.6523437 0,1.34765629 -0.691406,1.64062504 -1.125,1.64062504 -0.433593,0 -1.171875,-0.17578125 -1.523437,-0.76171875 0.351562,0.0585938 0.65625,-0.1640625 0.65625,-0.53906249 0,-0.3632813 -0.269531,-0.5625 -0.5625,-0.5625 -0.234375,0 -0.550781,0.140625 -0.550781,0.5742187 0,0.91406254 0.925781,1.57031254 2.003906,1.57031254 1.21875,0 2.121094,-0.9140625 2.121094,-1.92187504 0,-0.8203125 -0.621094,-1.59375 -1.652344,-1.8046872 z m 0,0"
       style="fill:#000000;fill-opacity:1;fill-rule:nonzero;stroke:none"
       aria-label="Sc3"
       transform="matrix(1.3333333,0,0,1.3333333,267.79353,81.436016)" />
    <path
       id="path156"
       d="m 172.84515,68.506396 h 10 10"
       style="fill:none;stroke:#9acd32;stroke-width:1.5;stroke-linecap:square;stroke-linejoin:round;stroke-miterlimit:10;stroke-dasharray:none;stroke-opacity:1"
       transform="matrix(1.3333333,0,0,-1.3333333,0,186.69412)" />
    <path
       id="path157"
       d="M 3.4800479,-3.8667295 2.2027041,-4.171417 C 1.5816104,-4.3237608 1.1948916,-4.8628233 1.1948916,-5.437042 c 0,-0.703125 0.5390625,-1.3007813 1.3125,-1.3007813 1.6640625,0 1.8867188,1.6289063 1.9453125,2.0742188 0.011719,0.058594 0.011719,0.1171875 0.1171875,0.1171875 0.1289063,0 0.1289063,-0.046875 0.1289063,-0.234375 v -2.0039063 c 0,-0.1640625 0,-0.234375 -0.1054688,-0.234375 -0.070312,0 -0.082031,0.011719 -0.1523437,0.1289063 l -0.3515625,0.5625 c -0.2929688,-0.28125 -0.703125,-0.6914063 -1.59375,-0.6914063 -1.1015625,0 -1.93359379,0.8789063 -1.93359379,1.9335938 0,0.8203125 0.52734379,1.546875 1.30078129,1.8164062 0.1054687,0.046875 0.6210937,0.1640625 1.3125,0.328125 0.2695312,0.070312 0.5742187,0.140625 0.84375,0.515625 0.2109375,0.2578125 0.3164062,0.5859375 0.3164062,0.9140625 0,0.70312505 -0.5039062,1.4179688 -1.3359375,1.4179688 -0.2929687,0 -1.0429687,-0.046875 -1.5703125,-0.5390625 -0.58593749,-0.5273438 -0.60937499,-1.171875 -0.62109374,-1.5234375 -0.0117188,-0.1054688 -0.09375,-0.1054688 -0.1171875,-0.1054688 -0.12890625,0 -0.12890625,0.070312 -0.12890625,0.2460938 v 1.9921875 c 0,0.17578125 0,0.24609375 0.10546875,0.24609375 0.0703125,0 0.0820313,-0.0234375 0.15234375,-0.12890625 0,-0.01171875 0.0234375,-0.046875 0.35156249,-0.57421875 0.3164063,0.33984375 0.9492188,0.703125 1.8398438,0.703125 1.1601562,0 1.9570312,-0.984375 1.9570312,-2.07421875 0,-0.9960938 -0.65625,-1.8164063 -1.4882812,-2.015625 z m 3.2080078,1.6992187 c 0,-1.6289062 0.8203125,-2.0507812 1.3476562,-2.0507812 0.09375,0 0.7148438,0.011719 1.0664063,0.375 -0.4101563,0.023437 -0.46875,0.328125 -0.46875,0.4570312 0,0.2578125 0.1875,0.4570313 0.4570312,0.4570313 0.2578125,0 0.4570313,-0.1640625 0.4570313,-0.46875 0,-0.6796875 -0.75,-1.0664063 -1.5234375,-1.0664063 -1.2421875,0 -2.15625,1.078125 -2.15625,2.3085938 0,1.27734375 0.984375,2.26171875 2.1445312,2.26171875 1.3359375,0 1.6523438,-1.19531255 1.6523438,-1.28906255 0,-0.1054687 -0.1054688,-0.1054687 -0.1289063,-0.1054687 -0.09375,0 -0.1171875,0.046875 -0.1289062,0.1054687 -0.2929688,0.9257813 -0.9375,1.0429688 -1.3125,1.0429688 -0.5273438,0 -1.40625,-0.421875 -1.40625,-2.0273438 z m 6.1933593,0.5273438 v 0.8671875 c 0,0.3515625 -0.02344,0.46875 -0.761719,0.46875 H 11.908759 V 4.579993e-4 c 0.410156,-0.0351562493 0.9375,-0.0351562493 1.347656,-0.0351562493 0.421875,0 0.949219,0 1.359375,0.0351562493 V -0.3042295 h -0.210937 c -0.738282,0 -0.761719,-0.1171875 -0.761719,-0.46875 V -1.640167 h 0.996094 v -0.3164063 h -0.996094 v -4.5234375 c 0,-0.1992187 0,-0.2578125 -0.152344,-0.2578125 -0.09375,0 -0.117187,0 -0.199219,0.1171875 l -3.058593,4.6640625 v 0.3164063 z m 0.05859,-0.3164063 h -2.425781 l 2.425781,-3.7148437 z m 0,0"
       style="fill:#000000;fill-opacity:1;fill-rule:nonzero;stroke:none"
       aria-label="Sc4"
       transform="matrix(1.3333333,0,0,1.3333333,267.79353,100.01892)" />
  </g>
</svg>
