<?xml version="1.0" encoding="UTF-8" standalone="no"?>
<!-- Created with Inkscape (http://www.inkscape.org/) -->

<svg
   width="160.33247mm"
   height="46.25584mm"
   viewBox="0 0 160.33247 46.25584"
   version="1.1"
   id="svg1"
   inkscape:version="1.3.2 (1:1.3.2+202311252150+091e20ef0f)"
   sodipodi:docname="shapes.svg"
   xmlns:inkscape="http://www.inkscape.org/namespaces/inkscape"
   xmlns:sodipodi="http://sodipodi.sourceforge.net/DTD/sodipodi-0.dtd"
   xmlns="http://www.w3.org/2000/svg"
   xmlns:svg="http://www.w3.org/2000/svg">
  <sodipodi:namedview
     id="namedview1"
     pagecolor="#ffffff"
     bordercolor="#666666"
     borderopacity="1.0"
     inkscape:showpageshadow="2"
     inkscape:pageopacity="0.0"
     inkscape:pagecheckerboard="0"
     inkscape:deskcolor="#d1d1d1"
     inkscape:document-units="mm"
     inkscape:zoom="0.79642256"
     inkscape:cx="298.83634"
     inkscape:cy="-59.013898"
     inkscape:window-width="1850"
     inkscape:window-height="1136"
     inkscape:window-x="70"
     inkscape:window-y="1107"
     inkscape:window-maximized="1"
     inkscape:current-layer="layer1" />
  <defs
     id="defs1" />
  <g
     inkscape:label="Layer 1"
     inkscape:groupmode="layer"
     id="layer1"
     transform="translate(-9.0885869,-24.761418)">
    <g
       id="g4"
       transform="translate(0,2.6016887)">
      <path
         id="path1"
         d="m 9.6359047,59.726643 v 6.03885 h 4.9224203"
         style="fill:none;stroke:#000000;stroke-width:0.214464;stroke-linecap:butt;stroke-linejoin:miter;stroke-miterlimit:4;stroke-dasharray:none;stroke-opacity:1" />
      <path
         id="path2"
         d="m 9.1287947,60.877405 0.50442,-1.44145 0.5044203,1.44145 c -0.2976803,-0.231423 -0.7044403,-0.230012 -1.0088403,0 z"
         style="fill:#000000;fill-opacity:1;fill-rule:evenodd;stroke:#000000;stroke-width:0.080424;stroke-linecap:butt;stroke-linejoin:round;stroke-miterlimit:4;stroke-dasharray:none;stroke-opacity:1" />
      <path
         id="path3"
         d="m 13.462545,65.233504 1.37266,0.529167 -1.37266,0.530578 c 0.21916,-0.312914 0.21781,-0.741539 0,-1.059745 z"
         style="fill:#000000;fill-opacity:1;fill-rule:evenodd;stroke:#000000;stroke-width:0.080424;stroke-linecap:butt;stroke-linejoin:round;stroke-miterlimit:4;stroke-dasharray:none;stroke-opacity:1" />
      <path
         id="path4"
         d="m 46.665165,38.028015 c -0.073,5.20932 -6.43126,11.96024 -14.75888,15.655973 -8.32188,3.689241 -15.93128,3.146281 -17.64708,-1.271787 -1.72248,-4.409892 3.00698,-11.280532 10.96223,-15.924679 7.94731,-4.643917 16.57519,-5.571218 20.00105,-2.156611"
         style="fill:none;stroke:#000000;stroke-width:0.202672;stroke-linecap:butt;stroke-linejoin:miter;stroke-miterlimit:4;stroke-dasharray:none;stroke-opacity:1" />
      <path
         id="path5"
         d="m 46.538395,38.091527 2.37435,-0.458789"
         style="fill:none;stroke:#000000;stroke-width:0.185938;stroke-linecap:butt;stroke-linejoin:miter;stroke-miterlimit:4;stroke-dasharray:none;stroke-opacity:1" />
      <path
         id="path6"
         d="m 45.288515,34.691777 0.89853,-3.1596"
         style="fill:none;stroke:#000000;stroke-width:0.185938;stroke-linecap:butt;stroke-linejoin:miter;stroke-miterlimit:4;stroke-dasharray:none;stroke-opacity:1" />
      <path
         id="path7"
         d="m 48.806715,37.774595 c 0.0138,6.727683 -6.81728,14.750503 -16.00316,18.799416 -9.17929,4.049753 -17.89253,2.878627 -20.42116,-2.741038 -2.5261203,-5.618444 1.91682,-13.966425 10.40415,-19.558682 8.48723,-5.590576 18.42436,-6.706682 23.27362,-2.614082"
         style="fill:none;stroke:#000000;stroke-width:0.202672;stroke-linecap:butt;stroke-linejoin:miter;stroke-miterlimit:4;stroke-dasharray:none;stroke-opacity:1" />
      <path
         id="path8"
         d="m 30.114945,44.050258 c 0.0483,0.248003 -0.0772,0.497417 -0.27856,0.556683 -0.20103,0.05786 -0.40206,-0.09631 -0.44905,-0.345722 -0.047,-0.249414 0.0785,-0.498828 0.27822,-0.557036 0.20137,-0.05927 0.4024,0.09666 0.44939,0.346075"
         style="fill:none;stroke:#14000e;stroke-width:0.45679;stroke-linecap:butt;stroke-linejoin:miter;stroke-miterlimit:4;stroke-dasharray:none;stroke-opacity:1" />
      <path
         id="path9"
         d="m 14.496235,52.600885 c 0.6531,-0.401108 30.7924,-17.908762 30.7924,-17.908762"
         style="fill:none;stroke:#000000;stroke-width:0.227626;stroke-linecap:butt;stroke-linejoin:miter;stroke-miterlimit:4;stroke-dasharray:none;stroke-opacity:1" />
      <path
         id="path10"
         d="m 15.770795,52.474207 -1.52656,0.285221 0.98639,-1.258182 c -0.0411,0.410626 0.17806,0.802091 0.54017,0.972961 z"
         style="fill:#000000;fill-opacity:1;fill-rule:evenodd;stroke:#000000;stroke-width:0.0853599;stroke-linecap:butt;stroke-linejoin:round;stroke-miterlimit:4;stroke-dasharray:none;stroke-opacity:1" />
      <path
         id="path11"
         d="m 44.012635,34.788451 1.5322,-0.248107 -1.01555,1.233295 c 0.0509,-0.409031 -0.15863,-0.805868 -0.51665,-0.985188 z"
         style="fill:#000000;fill-opacity:1;fill-rule:evenodd;stroke:#000000;stroke-width:0.0853599;stroke-linecap:butt;stroke-linejoin:round;stroke-miterlimit:4;stroke-dasharray:none;stroke-opacity:1" />
      <path
         id="path12"
         d="m 25.760375,36.678967 8.5712,15.42168"
         style="fill:none;stroke:#000000;stroke-width:0.227626;stroke-linecap:butt;stroke-linejoin:miter;stroke-miterlimit:4;stroke-dasharray:none;stroke-opacity:1" />
      <path
         id="path13"
         d="m 25.883005,38.01726 -0.2729,-1.603955 1.19611,1.036114 c -0.39004,-0.04251 -0.76198,0.187303 -0.92321,0.567841 z"
         style="fill:#000000;fill-opacity:1;fill-rule:evenodd;stroke:#000000;stroke-width:0.0853599;stroke-linecap:butt;stroke-linejoin:round;stroke-miterlimit:4;stroke-dasharray:none;stroke-opacity:1" />
      <path
         id="path14"
         d="m 34.209155,50.761338 0.27281,1.605426 -1.19742,-1.037673 c 0.3911,0.0428 0.76318,-0.187568 0.92461,-0.567753 z"
         style="fill:#000000;fill-opacity:1;fill-rule:evenodd;stroke:#000000;stroke-width:0.0853599;stroke-linecap:butt;stroke-linejoin:round;stroke-miterlimit:4;stroke-dasharray:none;stroke-opacity:1" />
      <path
         id="path15"
         d="m 10.851485,45.391166 45.27406,-1.802694"
         style="fill:none;stroke:#000000;stroke-width:0.215297;stroke-linecap:butt;stroke-linejoin:miter;stroke-miterlimit:4;stroke-dasharray:0.430595, 0.215297;stroke-dashoffset:0;stroke-opacity:1" />
      <path
         id="path16"
         d="m 46.819355,32.321809 c 1.90594,0.869597 2.09758,2.513541 1.95964,4.306358"
         style="fill:none;stroke:#000000;stroke-width:0.227626;stroke-linecap:butt;stroke-linejoin:miter;stroke-miterlimit:4;stroke-dasharray:none;stroke-opacity:1" />
      <path
         id="path17"
         d="m 47.671135,33.32647 -1.12183,-1.124435 1.54762,0.09221 c -0.33889,0.206812 -0.50988,0.624254 -0.42579,1.032228 z"
         style="fill:#000000;fill-opacity:1;fill-rule:evenodd;stroke:#000000;stroke-width:0.0853598;stroke-linecap:butt;stroke-linejoin:round;stroke-miterlimit:4;stroke-dasharray:none;stroke-opacity:1" />
      <path
         id="path18"
         d="m 49.408935,35.456856 -0.65209,1.480083 -0.41585,-1.571093 c 0.29621,0.271436 0.72733,0.305833 1.06794,0.09101 z"
         style="fill:#000000;fill-opacity:1;fill-rule:evenodd;stroke:#000000;stroke-width:0.0853598;stroke-linecap:butt;stroke-linejoin:round;stroke-miterlimit:4;stroke-dasharray:none;stroke-opacity:1" />
      <path
         id="path19"
         d="m 51.716945,33.273956 c 3.21785,3.731683 2.76041,6.898569 2.61139,10.113433"
         style="fill:none;stroke:#000000;stroke-width:0.227626;stroke-linecap:butt;stroke-linejoin:miter;stroke-miterlimit:4;stroke-dasharray:none;stroke-opacity:1" />
      <path
         id="path20"
         d="m 52.098835,34.557088 -0.58018,-1.510757 1.37387,0.755136 c -0.39133,0.04319 -0.70962,0.349042 -0.79369,0.755621 z"
         style="fill:#000000;fill-opacity:1;fill-rule:evenodd;stroke:#000000;stroke-width:0.0853599;stroke-linecap:butt;stroke-linejoin:round;stroke-miterlimit:4;stroke-dasharray:none;stroke-opacity:1" />
      <path
         id="path21"
         d="m 54.922275,42.195457 -0.60496,1.502014 -0.46434,-1.555898 c 0.30452,0.260598 0.73584,0.281205 1.0693,0.05388 z"
         style="fill:#000000;fill-opacity:1;fill-rule:evenodd;stroke:#000000;stroke-width:0.08536;stroke-linecap:butt;stroke-linejoin:round;stroke-miterlimit:4;stroke-dasharray:none;stroke-opacity:1" />
      <path
         id="path22"
         d="m 39.657735,32.087564 0.63397,-2.903713"
         style="fill:none;stroke:#000000;stroke-width:0.227626;stroke-linecap:butt;stroke-linejoin:miter;stroke-miterlimit:4;stroke-dasharray:none;stroke-opacity:1" />
      <path
         id="path23"
         d="m 40.441885,31.023629 -0.84883,1.364145 -0.19567,-1.61615 c 0.25635,0.312649 0.67811,0.413442 1.0445,0.252005 z"
         style="fill:#000000;fill-opacity:1;fill-rule:evenodd;stroke:#000000;stroke-width:0.0853597;stroke-linecap:butt;stroke-linejoin:round;stroke-miterlimit:4;stroke-dasharray:none;stroke-opacity:1" />
      <path
         id="path24"
         d="m 39.509075,30.246314 0.84741,-1.364117 0.1956,1.616503 c -0.25628,-0.313001 -0.67778,-0.41336 -1.04301,-0.252386 z"
         style="fill:#000000;fill-opacity:1;fill-rule:evenodd;stroke:#000000;stroke-width:0.0853597;stroke-linecap:butt;stroke-linejoin:round;stroke-miterlimit:4;stroke-dasharray:none;stroke-opacity:1" />
      <path
         id="path25"
         d="m 29.544841,44.702155 -19.36548,20.844227 h 19.11075 V 45.50543"
         style="fill:none;stroke:#000000;stroke-width:0.214464;stroke-linecap:butt;stroke-linejoin:miter;stroke-miterlimit:4;stroke-dasharray:0.857856, 0.214464;stroke-dashoffset:0;stroke-opacity:1" />
      <path
         id="path36"
         d="m 17.457318,49.689567 c 0.0399,0.218017 -0.0663,0.43568 -0.23848,0.48648 -0.17216,0.05115 -0.3429,-0.08396 -0.38312,-0.301625 -0.0413,-0.217663 0.0663,-0.43568 0.23707,-0.48648 0.17215,-0.05115 0.34466,0.08396 0.38453,0.301625"
         style="fill:#000000;fill-opacity:1;fill-rule:evenodd;stroke:#14000e;stroke-width:0.226133;stroke-linecap:butt;stroke-linejoin:miter;stroke-miterlimit:4;stroke-dasharray:none;stroke-opacity:1;paint-order:stroke fill markers" />
    </g>
    <g
       id="g134"
       transform="translate(-8.0120047,0.46916414)">
      <g
         id="g6"
         transform="translate(-17.200228,-1.2635054)">
        <g
           id="g2"
           transform="translate(162.72545,-0.69121487)">
          <path
             id="path34"
             d="m -8.3561418,67.425116 0.47414,-1.289755 0.47413,1.289755 c -0.27975,-0.206728 -0.66287,-0.205317 -0.94827,0 z"
             style="fill:#000000;fill-opacity:1;fill-rule:evenodd;stroke:#000000;stroke-width:0.0737246;stroke-linecap:butt;stroke-linejoin:round;stroke-miterlimit:4;stroke-dasharray:none;stroke-opacity:1" />
          <path
             id="path35"
             d="m -4.4466618,71.517691 1.28835,0.474133 -1.28835,0.474133 c 0.20532,-0.279752 0.20391,-0.662869 0,-0.948266 z"
             style="fill:#000000;fill-opacity:1;fill-rule:evenodd;stroke:#000000;stroke-width:0.0737246;stroke-linecap:butt;stroke-linejoin:round;stroke-miterlimit:4;stroke-dasharray:none;stroke-opacity:1" />
          <g
             id="g1">
            <path
               id="path33"
               d="m -7.8805918,66.395711 v 5.598935 h 4.46193"
               style="fill:none;stroke:#000000;stroke-width:0.196599;stroke-linecap:butt;stroke-linejoin:miter;stroke-miterlimit:4;stroke-dasharray:none;stroke-opacity:1" />
            <path
               id="path37"
               d="M 17.457318,49.689567 -7.8805918,71.994646 H 17.123938 V 50.55105"
               style="fill:none;stroke:#000000;stroke-width:0.253755;stroke-linecap:butt;stroke-linejoin:miter;stroke-miterlimit:4;stroke-dasharray:1.01503, 0.253755;stroke-dashoffset:0;stroke-opacity:1" />
          </g>
        </g>
        <path
           id="path38"
           d="m 194.1029,45.348989 c 1.86338,8.565797 -3.08539,17.134416 -11.05323,19.139605 -7.9689,2.003425 -15.93956,-3.317169 -17.80399,-11.882966 -1.86443,-8.567208 3.08399,-17.135827 11.05324,-19.141016 7.96783,-2.003777 15.93955,3.317169 17.80398,11.882966"
           style="fill:none;stroke:#14000e;stroke-width:0.275696;stroke-linecap:butt;stroke-linejoin:miter;stroke-miterlimit:4;stroke-dasharray:none;stroke-opacity:1" />
        <path
           id="path39"
           d="M 179.24249,49.675809 189.88897,38.939723"
           style="fill:none;stroke:#000000;stroke-width:0.294468;stroke-linecap:butt;stroke-linejoin:miter;stroke-miterlimit:4;stroke-dasharray:none;stroke-opacity:1" />
        <path
           id="path40"
           d="m 188.29744,39.532352 1.86311,-0.871373 -0.85452,1.870061 c -0.0812,-0.513605 -0.48937,-0.916222 -1.00859,-0.998688 z"
           style="fill:#000000;fill-opacity:1;fill-rule:evenodd;stroke:#000000;stroke-width:0.110425;stroke-linecap:butt;stroke-linejoin:round;stroke-miterlimit:4;stroke-dasharray:none;stroke-opacity:1" />
      </g>
      <g
         inkscape:label=""
         transform="translate(163.36146,55.837269)"
         id="g52">
        <g
           id="surface1"
           transform="matrix(0.352778,0,0,0.352778,-0.868451,-0.656475)">
          <g
             style="fill:#000000;fill-opacity:1"
             id="g50">
            <g
               id="use4"
               transform="translate(1.993,6.6890001)">
              <path
                 style="stroke:none"
                 d="m 1.453125,-0.90625 c 0.59375,-0.625 0.90625,-0.90625 1.296875,-1.25 0,0 0.671875,-0.578125 1.0625,-0.96875 1.046875,-1.015625 1.28125,-1.546875 1.28125,-1.59375 0,-0.109375 -0.09375,-0.109375 -0.125,-0.109375 -0.078125,0 -0.109375,0.03125 -0.15625,0.125 C 4.484375,-4.171875 4.25,-4 3.984375,-4 3.734375,-4 3.59375,-4.171875 3.4375,-4.359375 c -0.203125,-0.25 -0.390625,-0.46875 -0.75,-0.46875 -0.828125,0 -1.328125,1.015625 -1.328125,1.25 0,0.0625 0.03125,0.125 0.140625,0.125 0.09375,0 0.109375,-0.0625 0.140625,-0.125 0.203125,-0.5 0.828125,-0.515625 0.921875,-0.515625 0.234375,0 0.4375,0.078125 0.6875,0.171875 0.4375,0.15625 0.5625,0.15625 0.84375,0.15625 -0.390625,0.46875 -1.3125,1.25 -1.515625,1.4375 l -0.984375,0.90625 c -0.75,0.734375 -1.125,1.359375 -1.125,1.4375 0,0.109375 0.109375,0.109375 0.125,0.109375 0.09375,0 0.109375,-0.03125 0.1875,-0.140625 0.25,-0.390625 0.578125,-0.6875 0.921875,-0.6875 0.25,0 0.359375,0.109375 0.625,0.421875 C 2.515625,-0.046875 2.71875,0.125 3.03125,0.125 4.109375,0.125 4.75,-1.265625 4.75,-1.5625 c 0,-0.046875 -0.046875,-0.109375 -0.140625,-0.109375 -0.09375,0 -0.109375,0.0625 -0.15625,0.140625 -0.25,0.71875 -0.9375,0.921875 -1.296875,0.921875 -0.21875,0 -0.421875,-0.0625 -0.640625,-0.140625 C 2.140625,-0.890625 1.96875,-0.9375 1.75,-0.9375 c -0.03125,0 -0.203125,0 -0.296875,0.03125 z m 0,0"
                 id="path50" />
            </g>
          </g>
          <g
             style="fill:#000000;fill-opacity:1"
             id="g51">
            <g
               id="use5"
               transform="translate(7.066,8.3249998)">
              <path
                 style="stroke:none"
                 d="m 3.890625,-2.546875 c 0,-0.84375 -0.078125,-1.359375 -0.34375,-1.875 -0.34375,-0.703125 -1,-0.875 -1.4375,-0.875 -1,0 -1.375,0.75 -1.484375,0.96875 -0.28125,0.578125 -0.296875,1.375 -0.296875,1.78125 0,0.53125 0.015625,1.328125 0.40625,1.96875 0.359375,0.59375 0.953125,0.75 1.375,0.75 0.390625,0 1.0625,-0.125 1.46875,-0.90625 0.296875,-0.578125 0.3125,-1.296875 0.3125,-1.8125 z M 2.109375,-0.0625 C 1.84375,-0.0625 1.296875,-0.1875 1.125,-1.015625 1.03125,-1.46875 1.03125,-2.21875 1.03125,-2.640625 1.03125,-3.1875 1.03125,-3.75 1.125,-4.1875 1.296875,-5 1.90625,-5.078125 2.109375,-5.078125 c 0.265625,0 0.828125,0.140625 0.984375,0.859375 0.09375,0.4375 0.09375,1.046875 0.09375,1.578125 0,0.46875 0,1.1875 -0.09375,1.640625 -0.171875,0.828125 -0.71875,0.9375 -0.984375,0.9375 z m 0,0"
                 id="path51" />
            </g>
          </g>
        </g>
      </g>
      <g
         inkscape:label=""
         transform="translate(150.38876,66.521591)"
         id="g58">
        <g
           id="g57"
           transform="matrix(0.352778,0,0,0.352778,-0.813329,-0.656475)">
          <g
             style="fill:#000000;fill-opacity:1"
             id="g54">
            <g
               id="g53"
               transform="translate(1.993,6.6890001)">
              <path
                 style="stroke:none"
                 d="m 3.640625,-3.296875 c 0.0625,-0.28125 0.3125,-1.28125 1.078125,-1.28125 0.0625,0 0.3125,0 0.546875,0.140625 C 4.96875,-4.390625 4.75,-4.109375 4.75,-3.84375 c 0,0.171875 0.109375,0.375 0.40625,0.375 0.25,0 0.59375,-0.203125 0.59375,-0.625 0,-0.578125 -0.640625,-0.734375 -1.015625,-0.734375 -0.640625,0 -1.015625,0.578125 -1.140625,0.84375 -0.28125,-0.734375 -0.875,-0.84375 -1.1875,-0.84375 -1.125,0 -1.75,1.421875 -1.75,1.6875 0,0.109375 0.109375,0.109375 0.125,0.109375 0.09375,0 0.125,-0.015625 0.140625,-0.125 0.375,-1.15625 1.09375,-1.421875 1.46875,-1.421875 0.203125,0 0.59375,0.09375 0.59375,0.734375 0,0.328125 -0.1875,1.0625 -0.59375,2.59375 -0.171875,0.671875 -0.5625,1.125 -1.03125,1.125 -0.078125,0 -0.328125,0 -0.546875,-0.140625 0.265625,-0.046875 0.5,-0.28125 0.5,-0.578125 0,-0.296875 -0.234375,-0.390625 -0.390625,-0.390625 -0.328125,0 -0.609375,0.28125 -0.609375,0.640625 0,0.5 0.546875,0.71875 1.03125,0.71875 0.71875,0 1.109375,-0.765625 1.140625,-0.828125 C 2.625,-0.3125 3.015625,0.125 3.671875,0.125 c 1.109375,0 1.734375,-1.40625 1.734375,-1.6875 0,-0.109375 -0.09375,-0.109375 -0.125,-0.109375 -0.09375,0 -0.125,0.046875 -0.140625,0.125 C 4.78125,-0.375 4.03125,-0.125 3.6875,-0.125 c -0.421875,0 -0.59375,-0.34375 -0.59375,-0.71875 0,-0.234375 0.0625,-0.46875 0.171875,-0.953125 z m 0,0"
                 id="path52" />
            </g>
          </g>
          <g
             style="fill:#000000;fill-opacity:1"
             id="g56">
            <g
               id="g55"
               transform="translate(8.2270002,8.3249998)">
              <path
                 style="stroke:none"
                 d="m 3.890625,-2.546875 c 0,-0.84375 -0.078125,-1.359375 -0.34375,-1.875 -0.34375,-0.703125 -1,-0.875 -1.4375,-0.875 -1,0 -1.375,0.75 -1.484375,0.96875 -0.28125,0.578125 -0.296875,1.375 -0.296875,1.78125 0,0.53125 0.015625,1.328125 0.40625,1.96875 0.359375,0.59375 0.953125,0.75 1.375,0.75 0.390625,0 1.0625,-0.125 1.46875,-0.90625 0.296875,-0.578125 0.3125,-1.296875 0.3125,-1.8125 z M 2.109375,-0.0625 C 1.84375,-0.0625 1.296875,-0.1875 1.125,-1.015625 1.03125,-1.46875 1.03125,-2.21875 1.03125,-2.640625 1.03125,-3.1875 1.03125,-3.75 1.125,-4.1875 1.296875,-5 1.90625,-5.078125 2.109375,-5.078125 c 0.265625,0 0.828125,0.140625 0.984375,0.859375 0.09375,0.4375 0.09375,1.046875 0.09375,1.578125 0,0.46875 0,1.1875 -0.09375,1.640625 -0.171875,0.828125 -0.71875,0.9375 -0.984375,0.9375 z m 0,0"
                 id="path54" />
            </g>
          </g>
        </g>
      </g>
      <g
         inkscape:label=""
         transform="translate(162.63729,41.467459)"
         id="g61">
        <g
           id="g60"
           transform="matrix(0.352778,0,0,0.352778,-0.862939,-0.703395)">
          <g
             style="fill:#000000;fill-opacity:1"
             id="g59">
            <g
               id="use2"
               transform="translate(1.993,9.4469995)">
              <path
                 style="stroke:none"
                 d="M 4.09375,-6.703125 C 4.15625,-6.953125 4.1875,-7.0625 4.390625,-7.09375 4.5,-7.109375 4.84375,-7.109375 5.0625,-7.109375 c 0.765625,0 1.984375,0 1.984375,1.078125 0,0.375 -0.171875,1.125 -0.59375,1.546875 -0.296875,0.28125 -0.875,0.640625 -1.84375,0.640625 H 3.375 Z m 1.5625,3 C 6.765625,-3.953125 8.0625,-4.71875 8.0625,-5.8125 8.0625,-6.75 7.078125,-7.453125 5.65625,-7.453125 H 2.546875 c -0.21875,0 -0.328125,0 -0.328125,0.21875 0,0.125 0.109375,0.125 0.3125,0.125 0.015625,0 0.234375,0 0.40625,0.015625 0.203125,0.03125 0.296875,0.03125 0.296875,0.171875 0,0.046875 0,0.078125 -0.03125,0.21875 l -1.46875,5.859375 c -0.109375,0.421875 -0.125,0.5 -1,0.5 -0.1875,0 -0.28125,0 -0.28125,0.21875 0,0.125 0.125,0.125 0.140625,0.125 0.3125,0 1.078125,-0.03125 1.375,-0.03125 0.3125,0 1.078125,0.03125 1.390625,0.03125 0.09375,0 0.21875,0 0.21875,-0.21875 0,-0.125 -0.09375,-0.125 -0.3125,-0.125 -0.390625,0 -0.703125,0 -0.703125,-0.1875 0,-0.0625 0.015625,-0.125 0.03125,-0.1875 L 3.3125,-3.609375 h 1.296875 c 1,0 1.1875,0.609375 1.1875,0.984375 0,0.171875 -0.078125,0.515625 -0.140625,0.765625 -0.078125,0.296875 -0.1875,0.703125 -0.1875,0.921875 0,1.171875 1.3125,1.171875 1.453125,1.171875 0.9375,0 1.3125,-1.09375 1.3125,-1.25 0,-0.125 -0.125,-0.125 -0.125,-0.125 C 8,-1.140625 7.984375,-1.0625 7.96875,-1 c -0.28125,0.8125 -0.75,1 -1,1 C 6.609375,0 6.53125,-0.234375 6.53125,-0.671875 6.53125,-1 6.59375,-1.5625 6.640625,-1.90625 6.65625,-2.0625 6.6875,-2.265625 6.6875,-2.421875 c 0,-0.84375 -0.734375,-1.171875 -1.03125,-1.28125 z m 0,0"
                 id="path58" />
            </g>
          </g>
        </g>
      </g>
    </g>
    <g
       inkscape:label=""
       transform="translate(46.745631,30.872695)"
       id="g79">
      <g
         id="g78"
         transform="matrix(0.352778,0,0,0.352778,-0.862939,-0.663399)">
        <g
           style="fill:#000000;fill-opacity:1"
           id="g75">
          <g
             id="g74"
             transform="translate(1.993,9.5679998)">
            <path
               style="stroke:none"
               d="m 4.96875,-5.453125 c 0,-0.71875 -0.203125,-2.234375 -1.3125,-2.234375 -1.515625,0 -3.203125,3.078125 -3.203125,5.578125 0,1.015625 0.328125,2.234375 1.3125,2.234375 1.53125,0 3.203125,-3.140625 3.203125,-5.578125 z m -3.359375,1.5 c 0.1875,-0.703125 0.40625,-1.578125 0.84375,-2.34375 C 2.75,-6.84375 3.15625,-7.453125 3.640625,-7.453125 4.171875,-7.453125 4.25,-6.75 4.25,-6.125 c 0,0.53125 -0.09375,1.09375 -0.359375,2.171875 z m 2.1875,0.34375 c -0.125,0.5 -0.34375,1.421875 -0.765625,2.21875 C 2.65625,-0.65625 2.234375,-0.125 1.765625,-0.125 c -0.359375,0 -0.59375,-0.3125 -0.59375,-1.328125 0,-0.453125 0.078125,-1.09375 0.359375,-2.15625 z m 0,0"
               id="path73" />
          </g>
        </g>
        <g
           style="fill:#000000;fill-opacity:1"
           id="g77">
          <g
             id="g76"
             transform="translate(7.1139998,11.204)">
            <path
               style="stroke:none"
               d="m 3.984375,-1.703125 c 0,-0.984375 -0.828125,-1.84375 -1.875,-1.84375 -1.046875,0 -1.875,0.859375 -1.875,1.84375 0,1 0.859375,1.78125 1.875,1.78125 1.03125,0 1.875,-0.78125 1.875,-1.78125 z m -1.875,1.53125 C 1.6875,-0.171875 1.34375,-0.375 1.171875,-0.65625 0.96875,-0.984375 0.953125,-1.375 0.953125,-1.765625 c 0,-0.3125 0,-0.78125 0.234375,-1.125 0.21875,-0.28125 0.546875,-0.4375 0.921875,-0.4375 0.421875,0 0.765625,0.203125 0.9375,0.46875 0.21875,0.34375 0.234375,0.765625 0.234375,1.09375 0,0.359375 -0.015625,0.796875 -0.25,1.140625 -0.203125,0.3125 -0.5625,0.453125 -0.921875,0.453125 z m 0,0"
               id="path75" />
          </g>
        </g>
      </g>
    </g>
    <g
       inkscape:label=""
       transform="translate(55.293036,39.160244)"
       id="g85">
      <g
         id="g84"
         transform="matrix(0.352778,0,0,0.352778,-0.862939,-0.663399)">
        <g
           style="fill:#000000;fill-opacity:1"
           id="g81">
          <g
             id="g80"
             transform="translate(1.993,9.5679998)">
            <path
               style="stroke:none"
               d="m 4.96875,-5.453125 c 0,-0.71875 -0.203125,-2.234375 -1.3125,-2.234375 -1.515625,0 -3.203125,3.078125 -3.203125,5.578125 0,1.015625 0.328125,2.234375 1.3125,2.234375 1.53125,0 3.203125,-3.140625 3.203125,-5.578125 z m -3.359375,1.5 c 0.1875,-0.703125 0.40625,-1.578125 0.84375,-2.34375 C 2.75,-6.84375 3.15625,-7.453125 3.640625,-7.453125 4.171875,-7.453125 4.25,-6.75 4.25,-6.125 c 0,0.53125 -0.09375,1.09375 -0.359375,2.171875 z m 2.1875,0.34375 c -0.125,0.5 -0.34375,1.421875 -0.765625,2.21875 C 2.65625,-0.65625 2.234375,-0.125 1.765625,-0.125 c -0.359375,0 -0.59375,-0.3125 -0.59375,-1.328125 0,-0.453125 0.078125,-1.09375 0.359375,-2.15625 z m 0,0"
               id="path79" />
          </g>
        </g>
        <g
           style="fill:#000000;fill-opacity:1"
           id="g83">
          <g
             id="g82"
             transform="translate(7.1139998,11.345)">
            <path
               style="stroke:none"
               d="m 1.46875,-5.53125 -1.1875,0.09375 v 0.265625 c 0.546875,0 0.609375,0.046875 0.609375,0.4375 V 0 H 1.125 l 0.296875,-0.5 c 0.1875,0.28125 0.5625,0.578125 1.109375,0.578125 1,0 1.890625,-0.78125 1.890625,-1.796875 0,-1 -0.828125,-1.796875 -1.796875,-1.796875 -0.640625,0 -1.015625,0.34375 -1.15625,0.484375 z m 0.015625,3.015625 c 0,-0.15625 0,-0.171875 0.125,-0.3125 0.234375,-0.296875 0.609375,-0.46875 0.96875,-0.46875 0.40625,0 0.71875,0.25 0.875,0.484375 0.140625,0.21875 0.25,0.5 0.25,1.078125 0,0.1875 0,0.75 -0.28125,1.125 C 3.125,-0.25 2.75,-0.140625 2.5,-0.140625 c -0.390625,0 -0.703125,-0.203125 -0.921875,-0.515625 -0.09375,-0.15625 -0.09375,-0.15625 -0.09375,-0.3125 z m 0,0"
               id="path81" />
          </g>
        </g>
      </g>
    </g>
    <g
       inkscape:label=""
       transform="translate(37.217095,39.358909)"
       id="g89">
      <g
         id="g88"
         transform="matrix(0.352778,0,0,0.352778,-0.857426,-0.656475)">
        <g
           style="fill:#000000;fill-opacity:1"
           id="g87">
          <g
             id="g86"
             transform="translate(1.993,6.6890001)">
            <path
               style="stroke:none"
               d="m 4.0625,-4.125 c -0.1875,-0.40625 -0.5,-0.703125 -1,-0.703125 -1.28125,0 -2.625,1.609375 -2.625,3.203125 0,1.03125 0.59375,1.75 1.453125,1.75 0.21875,0 0.765625,-0.046875 1.40625,-0.828125 0.09375,0.46875 0.484375,0.828125 1,0.828125 0.375,0 0.625,-0.25 0.8125,-0.609375 C 5.296875,-0.875 5.4375,-1.53125 5.4375,-1.5625 5.4375,-1.671875 5.328125,-1.671875 5.296875,-1.671875 5.1875,-1.671875 5.1875,-1.625 5.140625,-1.46875 4.96875,-0.765625 4.765625,-0.125 4.3125,-0.125 c -0.28125,0 -0.328125,-0.28125 -0.328125,-0.5 0,-0.234375 0.03125,-0.328125 0.15625,-0.796875 C 4.25,-1.890625 4.28125,-2 4.375,-2.40625 L 4.765625,-3.9375 C 4.84375,-4.25 4.84375,-4.265625 4.84375,-4.3125 c 0,-0.1875 -0.125,-0.296875 -0.3125,-0.296875 -0.265625,0 -0.4375,0.25 -0.46875,0.484375 z m -0.703125,2.828125 c -0.0625,0.203125 -0.0625,0.21875 -0.21875,0.40625 C 2.65625,-0.296875 2.21875,-0.125 1.90625,-0.125 c -0.546875,0 -0.703125,-0.59375 -0.703125,-1.015625 0,-0.546875 0.359375,-1.890625 0.609375,-2.390625 0.34375,-0.640625 0.828125,-1.046875 1.265625,-1.046875 0.703125,0 0.859375,0.890625 0.859375,0.953125 0,0.0625 -0.015625,0.140625 -0.03125,0.1875 z m 0,0"
               id="path85" />
          </g>
        </g>
      </g>
    </g>
    <g
       inkscape:label=""
       transform="translate(28.137269,39.987953)"
       id="g93">
      <g
         id="g92"
         transform="matrix(0.352778,0,0,0.352778,-0.884987,-0.707496)">
        <g
           style="fill:#000000;fill-opacity:1"
           id="g91">
          <g
             id="g90"
             transform="translate(1.993,9.5679998)">
            <path
               style="stroke:none"
               d="m 2.609375,-7.453125 c 0,0 0,-0.109375 -0.140625,-0.109375 -0.25,0 -1.046875,0.078125 -1.328125,0.109375 -0.09375,0 -0.21875,0.015625 -0.21875,0.21875 0,0.125 0.109375,0.125 0.265625,0.125 0.53125,0 0.546875,0.078125 0.546875,0.1875 0,0.078125 -0.09375,0.4375 -0.15625,0.671875 L 0.6875,-2.6875 c -0.125,0.53125 -0.171875,0.71875 -0.171875,1.09375 0,1.03125 0.578125,1.71875 1.375,1.71875 1.296875,0 2.640625,-1.625 2.640625,-3.203125 0,-0.984375 -0.578125,-1.75 -1.453125,-1.75 -0.5,0 -0.953125,0.328125 -1.28125,0.65625 z m -1.03125,4.125 c 0.0625,-0.234375 0.0625,-0.265625 0.171875,-0.375 0.53125,-0.71875 1.015625,-0.875 1.296875,-0.875 0.40625,0 0.6875,0.328125 0.6875,1.015625 0,0.65625 -0.359375,1.90625 -0.546875,2.3125 -0.359375,0.734375 -0.859375,1.125 -1.296875,1.125 -0.359375,0 -0.71875,-0.296875 -0.71875,-1.09375 0,-0.203125 0,-0.421875 0.171875,-1.109375 z m 0,0"
               id="path89" />
          </g>
        </g>
      </g>
    </g>
    <g
       inkscape:label=""
       transform="translate(38.151937,29.382534)"
       id="g97">
      <g
         id="g96"
         transform="matrix(0.352778,0,0,0.352778,-0.879475,-0.656475)">
        <g
           style="fill:#000000;fill-opacity:1"
           id="g95">
          <g
             id="g94"
             transform="translate(1.993,6.6890001)">
            <path
               style="stroke:none"
               d="m 2.046875,-2.515625 c 0.3125,0 1.109375,-0.03125 1.65625,-0.25 0.765625,-0.328125 0.828125,-0.96875 0.828125,-1.125 0,-0.484375 -0.421875,-0.9375 -1.171875,-0.9375 -1.203125,0 -2.859375,1.0625 -2.859375,2.96875 0,1.125 0.640625,1.984375 1.71875,1.984375 1.5625,0 2.46875,-1.15625 2.46875,-1.296875 0,-0.0625 -0.0625,-0.140625 -0.125,-0.140625 -0.0625,0 -0.078125,0.03125 -0.140625,0.109375 C 3.5625,-0.125 2.359375,-0.125 2.234375,-0.125 c -0.84375,0 -0.953125,-0.90625 -0.953125,-1.265625 0,-0.125 0.015625,-0.46875 0.1875,-1.125 z m -0.515625,-0.25 c 0.421875,-1.65625 1.546875,-1.8125 1.828125,-1.8125 0.515625,0 0.8125,0.3125 0.8125,0.6875 0,1.125 -1.75,1.125 -2.203125,1.125 z m 0,0"
               id="path93" />
          </g>
        </g>
      </g>
    </g>
    <g
       inkscape:label=""
       transform="translate(31.251029,63.175598)"
       id="g109">
      <g
         id="g108"
         transform="matrix(0.352778,0,0,0.352778,-0.868451,-0.656475)">
        <g
           style="fill:#000000;fill-opacity:1"
           id="g105">
          <g
             id="g104"
             transform="translate(1.993,6.6890001)">
            <path
               style="stroke:none"
               d="m 1.453125,-0.90625 c 0.59375,-0.625 0.90625,-0.90625 1.296875,-1.25 0,0 0.671875,-0.578125 1.0625,-0.96875 1.046875,-1.015625 1.28125,-1.546875 1.28125,-1.59375 0,-0.109375 -0.09375,-0.109375 -0.125,-0.109375 -0.078125,0 -0.109375,0.03125 -0.15625,0.125 C 4.484375,-4.171875 4.25,-4 3.984375,-4 3.734375,-4 3.59375,-4.171875 3.4375,-4.359375 c -0.203125,-0.25 -0.390625,-0.46875 -0.75,-0.46875 -0.828125,0 -1.328125,1.015625 -1.328125,1.25 0,0.0625 0.03125,0.125 0.140625,0.125 0.09375,0 0.109375,-0.0625 0.140625,-0.125 0.203125,-0.5 0.828125,-0.515625 0.921875,-0.515625 0.234375,0 0.4375,0.078125 0.6875,0.171875 0.4375,0.15625 0.5625,0.15625 0.84375,0.15625 -0.390625,0.46875 -1.3125,1.25 -1.515625,1.4375 l -0.984375,0.90625 c -0.75,0.734375 -1.125,1.359375 -1.125,1.4375 0,0.109375 0.109375,0.109375 0.125,0.109375 0.09375,0 0.109375,-0.03125 0.1875,-0.140625 0.25,-0.390625 0.578125,-0.6875 0.921875,-0.6875 0.25,0 0.359375,0.109375 0.625,0.421875 C 2.515625,-0.046875 2.71875,0.125 3.03125,0.125 4.109375,0.125 4.75,-1.265625 4.75,-1.5625 c 0,-0.046875 -0.046875,-0.109375 -0.140625,-0.109375 -0.09375,0 -0.109375,0.0625 -0.15625,0.140625 -0.25,0.71875 -0.9375,0.921875 -1.296875,0.921875 -0.21875,0 -0.421875,-0.0625 -0.640625,-0.140625 C 2.140625,-0.890625 1.96875,-0.9375 1.75,-0.9375 c -0.03125,0 -0.203125,0 -0.296875,0.03125 z m 0,0"
               id="path103" />
          </g>
        </g>
        <g
           style="fill:#000000;fill-opacity:1"
           id="g107">
          <g
             id="g106"
             transform="translate(7.066,8.3249998)">
            <path
               style="stroke:none"
               d="m 3.890625,-2.546875 c 0,-0.84375 -0.078125,-1.359375 -0.34375,-1.875 -0.34375,-0.703125 -1,-0.875 -1.4375,-0.875 -1,0 -1.375,0.75 -1.484375,0.96875 -0.28125,0.578125 -0.296875,1.375 -0.296875,1.78125 0,0.53125 0.015625,1.328125 0.40625,1.96875 0.359375,0.59375 0.953125,0.75 1.375,0.75 0.390625,0 1.0625,-0.125 1.46875,-0.90625 0.296875,-0.578125 0.3125,-1.296875 0.3125,-1.8125 z M 2.109375,-0.0625 C 1.84375,-0.0625 1.296875,-0.1875 1.125,-1.015625 1.03125,-1.46875 1.03125,-2.21875 1.03125,-2.640625 1.03125,-3.1875 1.03125,-3.75 1.125,-4.1875 1.296875,-5 1.90625,-5.078125 2.109375,-5.078125 c 0.265625,0 0.828125,0.140625 0.984375,0.859375 0.09375,0.4375 0.09375,1.046875 0.09375,1.578125 0,0.46875 0,1.1875 -0.09375,1.640625 -0.171875,0.828125 -0.71875,0.9375 -0.984375,0.9375 z m 0,0"
               id="path105" />
          </g>
        </g>
      </g>
    </g>
    <g
       inkscape:label=""
       transform="translate(18.244396,65.879487)"
       id="g121">
      <g
         id="g120"
         transform="matrix(0.352778,0,0,0.352778,-0.813329,-0.656475)">
        <g
           style="fill:#000000;fill-opacity:1"
           id="g117">
          <g
             id="g116"
             transform="translate(1.993,6.6890001)">
            <path
               style="stroke:none"
               d="m 3.640625,-3.296875 c 0.0625,-0.28125 0.3125,-1.28125 1.078125,-1.28125 0.0625,0 0.3125,0 0.546875,0.140625 C 4.96875,-4.390625 4.75,-4.109375 4.75,-3.84375 c 0,0.171875 0.109375,0.375 0.40625,0.375 0.25,0 0.59375,-0.203125 0.59375,-0.625 0,-0.578125 -0.640625,-0.734375 -1.015625,-0.734375 -0.640625,0 -1.015625,0.578125 -1.140625,0.84375 -0.28125,-0.734375 -0.875,-0.84375 -1.1875,-0.84375 -1.125,0 -1.75,1.421875 -1.75,1.6875 0,0.109375 0.109375,0.109375 0.125,0.109375 0.09375,0 0.125,-0.015625 0.140625,-0.125 0.375,-1.15625 1.09375,-1.421875 1.46875,-1.421875 0.203125,0 0.59375,0.09375 0.59375,0.734375 0,0.328125 -0.1875,1.0625 -0.59375,2.59375 -0.171875,0.671875 -0.5625,1.125 -1.03125,1.125 -0.078125,0 -0.328125,0 -0.546875,-0.140625 0.265625,-0.046875 0.5,-0.28125 0.5,-0.578125 0,-0.296875 -0.234375,-0.390625 -0.390625,-0.390625 -0.328125,0 -0.609375,0.28125 -0.609375,0.640625 0,0.5 0.546875,0.71875 1.03125,0.71875 0.71875,0 1.109375,-0.765625 1.140625,-0.828125 C 2.625,-0.3125 3.015625,0.125 3.671875,0.125 c 1.109375,0 1.734375,-1.40625 1.734375,-1.6875 0,-0.109375 -0.09375,-0.109375 -0.125,-0.109375 -0.09375,0 -0.125,0.046875 -0.140625,0.125 C 4.78125,-0.375 4.03125,-0.125 3.6875,-0.125 c -0.421875,0 -0.59375,-0.34375 -0.59375,-0.71875 0,-0.234375 0.0625,-0.46875 0.171875,-0.953125 z m 0,0"
               id="path115" />
          </g>
        </g>
        <g
           style="fill:#000000;fill-opacity:1"
           id="g119">
          <g
             id="g118"
             transform="translate(8.2270002,8.3249998)">
            <path
               style="stroke:none"
               d="m 3.890625,-2.546875 c 0,-0.84375 -0.078125,-1.359375 -0.34375,-1.875 -0.34375,-0.703125 -1,-0.875 -1.4375,-0.875 -1,0 -1.375,0.75 -1.484375,0.96875 -0.28125,0.578125 -0.296875,1.375 -0.296875,1.78125 0,0.53125 0.015625,1.328125 0.40625,1.96875 0.359375,0.59375 0.953125,0.75 1.375,0.75 0.390625,0 1.0625,-0.125 1.46875,-0.90625 0.296875,-0.578125 0.3125,-1.296875 0.3125,-1.8125 z M 2.109375,-0.0625 C 1.84375,-0.0625 1.296875,-0.1875 1.125,-1.015625 1.03125,-1.46875 1.03125,-2.21875 1.03125,-2.640625 1.03125,-3.1875 1.03125,-3.75 1.125,-4.1875 1.296875,-5 1.90625,-5.078125 2.109375,-5.078125 c 0.265625,0 0.828125,0.140625 0.984375,0.859375 0.09375,0.4375 0.09375,1.046875 0.09375,1.578125 0,0.46875 0,1.1875 -0.09375,1.640625 -0.171875,0.828125 -0.71875,0.9375 -0.984375,0.9375 z m 0,0"
               id="path117" />
          </g>
        </g>
      </g>
    </g>
    <g
       id="g135"
       transform="translate(-5.9879157,-0.48145187)">
      <g
         id="g5"
         transform="translate(0,0.75477157)">
        <path
           id="path26"
           d="m 84.754304,49.344127 c -0.38441,-1.624895 -0.3762,-3.203928 0.84202,-4.651022"
           style="fill:none;stroke:#000000;stroke-width:0.260111;stroke-linecap:butt;stroke-linejoin:miter;stroke-miterlimit:4;stroke-dasharray:1.04045, 0.260111;stroke-dashoffset:0;stroke-opacity:1" />
        <path
           id="path27"
           d="m 84.934904,50.097901 -0.87659,-0.963031 1.21559,-0.335243 z"
           style="fill:#000000;fill-opacity:1;fill-rule:evenodd;stroke:#000000;stroke-width:0.173407;stroke-linecap:butt;stroke-linejoin:miter;stroke-miterlimit:4;stroke-dasharray:none;stroke-opacity:1" />
        <path
           id="path28"
           d="m 86.084014,44.117183 -0.26443,1.317405 -0.93036,-0.905325 z"
           style="fill:#000000;fill-opacity:1;fill-rule:evenodd;stroke:#000000;stroke-width:0.173407;stroke-linecap:butt;stroke-linejoin:miter;stroke-miterlimit:4;stroke-dasharray:none;stroke-opacity:1" />
        <path
           id="path29"
           d="m 74.587134,47.77603 42.684806,0.02752"
           style="fill:none;stroke:#000000;stroke-width:0.202848;stroke-linecap:butt;stroke-linejoin:miter;stroke-miterlimit:4;stroke-dasharray:0.405697, 0.202848;stroke-dashoffset:0;stroke-opacity:1" />
        <path
           id="path30"
           d="m 117.27194,47.803546 c 0,0 -0.22754,-2.125133 -0.46717,-3.161241 -0.3873,-1.663347 -0.8491,-3.330928 -1.55992,-4.867275 -0.76755,-1.661936 -1.72538,-3.248025 -2.88425,-4.623505 -0.94542,-1.121481 -2.21873,-2.105378 -3.25913,-2.886781 -1.0404,-0.781402 -1.92507,-1.353255 -2.92687,-1.839736 -1.0018,-0.489302 -2.00663,-0.811741 -3.04434,-1.090083 -0.98804,-0.265994 -1.99655,-0.451908 -3.01077,-0.548217 -1.025296,-0.09666 -2.061666,-0.118533 -3.086956,-0.02928 -1.08873,0.09666 -2.17309,0.303389 -3.22993,0.603603 -1.02395,0.291041 -2.02576,0.686505 -2.9903,1.156405 -0.98972,0.483658 -1.94857,1.048456 -2.85002,1.7018 -0.88467,0.639233 -1.72102,1.364192 -2.48991,2.160764 -0.76922,0.799394 -1.4787,1.671461 -2.10428,2.603147 -0.6078,0.903816 -1.13437,1.872544 -1.58476,2.877255 -0.46181,1.029406 -0.83501,2.107142 -1.13437,3.202517 -0.29735,1.090083 -0.54,2.207683 -0.65176,3.33763 -0.0426,0.439561 -0.005,1.331383 -0.005,1.331383"
           style="fill:none;stroke:#000000;stroke-width:0.274446;stroke-linecap:butt;stroke-linejoin:miter;stroke-miterlimit:4;stroke-dasharray:0.548896, 0.274446;stroke-dashoffset:0;stroke-opacity:1" />
        <path
           id="path31"
           d="m 117.75962,46.264072 -0.44502,1.90995 -0.83802,-1.758194 c 0.41092,0.24791 0.92903,0.185915 1.28304,-0.151756 z"
           style="fill:#000000;fill-opacity:1;fill-rule:evenodd;stroke:#000000;stroke-width:0.102917;stroke-linecap:butt;stroke-linejoin:round;stroke-miterlimit:4;stroke-dasharray:none;stroke-opacity:1" />
        <path
           id="path32"
           d="m 80.577594,46.231071 -0.56633,1.87277 -0.7221,-1.813358 c 0.39262,0.276931 0.9134,0.250653 1.28843,-0.05941 z"
           style="fill:#000000;fill-opacity:1;fill-rule:evenodd;stroke:#000000;stroke-width:0.102917;stroke-linecap:butt;stroke-linejoin:round;stroke-miterlimit:4;stroke-dasharray:none;stroke-opacity:1" />
        <path
           id="path46"
           d="m 71.836139,64.194952 v 5.597525 h 4.4619"
           style="fill:none;stroke:#000000;stroke-width:0.196599;stroke-linecap:butt;stroke-linejoin:miter;stroke-miterlimit:4;stroke-dasharray:none;stroke-opacity:1" />
        <path
           id="path47"
           d="m 71.360539,65.222947 0.4742,-1.288345 0.4738,1.288345 c -0.2794,-0.205317 -0.6626,-0.205317 -0.948,0 z"
           style="fill:#000000;fill-opacity:1;fill-rule:evenodd;stroke:#000000;stroke-width:0.0737246;stroke-linecap:butt;stroke-linejoin:round;stroke-miterlimit:4;stroke-dasharray:none;stroke-opacity:1" />
        <path
           id="path48"
           d="m 75.268639,69.316933 1.2898,0.474133 -1.2898,0.474133 c 0.2067,-0.279752 0.2053,-0.662869 0,-0.948266 z"
           style="fill:#000000;fill-opacity:1;fill-rule:evenodd;stroke:#000000;stroke-width:0.0737246;stroke-linecap:butt;stroke-linejoin:round;stroke-miterlimit:4;stroke-dasharray:none;stroke-opacity:1" />
        <path
           id="path49"
           d="m 96.104348,64.074314 c -4.9029,-0.967317 -8.9394,-4.176889 -11.14,-8.859308 -0.623,-1.322917 -1.2348,-3.351389 -1.4429,-4.77908 l -0.062,-0.427214 h 1.972 c 1.6207,0 1.9735,0.02469 1.9735,0.139347 0,0.396875 0.5348,2.053167 0.981,3.038475 1.578,3.482269 4.5064,5.891036 8.1856,6.734527 1.101,0.251884 3.471302,0.248003 4.583202,-0.0085 4.7036,-1.083028 8.2106,-4.873978 9.138,-9.876367 0.2191,-1.183569 0.2135,-3.578577 -0.011,-4.698999 -0.8696,-4.333875 -3.5665,-7.735005 -7.3423,-9.261828 -2.6501,-1.07068 -5.964102,-1.006122 -8.612702,0.169334 -2.6251,1.164519 -4.9925,3.607858 -6.0869,6.279797 l -0.3072,0.753886 h -3.9839 l 0.2811,-0.829734 c 2.3026,-6.774391 8.406,-11.188346 15.0605,-10.892013 2.906502,0.128411 5.600302,1.0668 7.959702,2.771422 3.4297,2.477558 5.6624,6.052255 6.5511,10.490905 0.2783,1.386417 0.3044,4.568119 0.048,5.9436 -1.2595,6.774391 -5.8156,11.772547 -12.0456,13.215408 -1.4055,0.325261 -4.294002,0.37465 -5.699502,0.09631 z"
           style="fill:none;stroke:#000100;stroke-width:0.315;stroke-linecap:butt;stroke-linejoin:miter;stroke-miterlimit:4;stroke-dasharray:none;stroke-opacity:1" />
        <path
           id="path41"
           d="m 97.432835,47.484071 -25.33685,22.30508 h 25.00453 v -21.4436"
           style="fill:none;stroke:#000000;stroke-width:0.253755;stroke-linecap:butt;stroke-linejoin:miter;stroke-miterlimit:4;stroke-dasharray:1.01503, 0.253755;stroke-dashoffset:0;stroke-opacity:1" />
        <g
           id="g3"
           transform="matrix(1.1632702,0,0,1.1127001,-14.589768,-6.0083658)">
          <path
             id="path42"
             d="M 96.011342,48.489584 104.2988,36.664824"
             style="fill:none;stroke:#000000;stroke-width:0.264583;stroke-linecap:butt;stroke-linejoin:miter;stroke-miterlimit:4;stroke-dasharray:0.529167, 0.264583;stroke-dashoffset:0;stroke-opacity:1" />
          <path
             id="path43"
             d="m 102.98007,37.430804 1.51854,-1.0552 -0.47397,1.78724 c -0.14886,-0.44362 -0.57202,-0.73754 -1.04457,-0.73204 z"
             style="fill:#000000;fill-opacity:1;fill-rule:evenodd;stroke:#000000;stroke-width:0.0992187;stroke-linecap:butt;stroke-linejoin:round;stroke-miterlimit:4;stroke-dasharray:none;stroke-opacity:1" />
        </g>
        <path
           id="path44"
           d="M 96.021713,48.445508 109.30816,45.319142"
           style="fill:none;stroke:#000000;stroke-width:0.355559;stroke-linecap:butt;stroke-linejoin:miter;stroke-miterlimit:4;stroke-dasharray:0.711116, 0.355559;stroke-dashoffset:0;stroke-opacity:1" />
        <path
           id="path45"
           d="m 107.30044,44.90703 2.46429,0.301125 -2.07282,1.368175 c 0.248,-0.57842 0.0871,-1.251418 -0.39147,-1.6693 z"
           style="fill:#000000;fill-opacity:1;fill-rule:evenodd;stroke:#000000;stroke-width:0.133334;stroke-linecap:butt;stroke-linejoin:round;stroke-miterlimit:4;stroke-dasharray:none;stroke-opacity:1" />
      </g>
      <g
         inkscape:label=""
         transform="translate(98.176488,37.348986)"
         id="g67">
        <g
           id="g66"
           transform="matrix(0.352778,0,0,0.352778,-0.862939,-0.703395)">
          <g
             style="fill:#000000;fill-opacity:1"
             id="g63">
            <g
               id="g62"
               transform="translate(1.993,9.4469995)">
              <path
                 style="stroke:none"
                 d="M 4.09375,-6.703125 C 4.15625,-6.953125 4.1875,-7.0625 4.390625,-7.09375 4.5,-7.109375 4.84375,-7.109375 5.0625,-7.109375 c 0.765625,0 1.984375,0 1.984375,1.078125 0,0.375 -0.171875,1.125 -0.59375,1.546875 -0.296875,0.28125 -0.875,0.640625 -1.84375,0.640625 H 3.375 Z m 1.5625,3 C 6.765625,-3.953125 8.0625,-4.71875 8.0625,-5.8125 8.0625,-6.75 7.078125,-7.453125 5.65625,-7.453125 H 2.546875 c -0.21875,0 -0.328125,0 -0.328125,0.21875 0,0.125 0.109375,0.125 0.3125,0.125 0.015625,0 0.234375,0 0.40625,0.015625 0.203125,0.03125 0.296875,0.03125 0.296875,0.171875 0,0.046875 0,0.078125 -0.03125,0.21875 l -1.46875,5.859375 c -0.109375,0.421875 -0.125,0.5 -1,0.5 -0.1875,0 -0.28125,0 -0.28125,0.21875 0,0.125 0.125,0.125 0.140625,0.125 0.3125,0 1.078125,-0.03125 1.375,-0.03125 0.3125,0 1.078125,0.03125 1.390625,0.03125 0.09375,0 0.21875,0 0.21875,-0.21875 0,-0.125 -0.09375,-0.125 -0.3125,-0.125 -0.390625,0 -0.703125,0 -0.703125,-0.1875 0,-0.0625 0.015625,-0.125 0.03125,-0.1875 L 3.3125,-3.609375 h 1.296875 c 1,0 1.1875,0.609375 1.1875,0.984375 0,0.171875 -0.078125,0.515625 -0.140625,0.765625 -0.078125,0.296875 -0.1875,0.703125 -0.1875,0.921875 0,1.171875 1.3125,1.171875 1.453125,1.171875 0.9375,0 1.3125,-1.09375 1.3125,-1.25 0,-0.125 -0.125,-0.125 -0.125,-0.125 C 8,-1.140625 7.984375,-1.0625 7.96875,-1 c -0.28125,0.8125 -0.75,1 -1,1 C 6.609375,0 6.53125,-0.234375 6.53125,-0.671875 6.53125,-1 6.59375,-1.5625 6.640625,-1.90625 6.65625,-2.0625 6.6875,-2.265625 6.6875,-2.421875 c 0,-0.84375 -0.734375,-1.171875 -1.03125,-1.28125 z m 0,0"
                 id="path61" />
            </g>
          </g>
          <g
             style="fill:#000000;fill-opacity:1"
             id="g65">
            <g
               id="g64"
               transform="translate(10.276,11.083)">
              <path
                 style="stroke:none"
                 d="m 3.296875,-1.8125 c 0.171875,0 0.21875,0 0.21875,-0.1875 C 3.515625,-2.703125 3.125,-3.546875 2,-3.546875 c -0.984375,0 -1.765625,0.8125 -1.765625,1.796875 0,1.03125 0.859375,1.828125 1.875,1.828125 1,0 1.40625,-0.84375 1.40625,-1.03125 0,-0.03125 -0.03125,-0.109375 -0.125,-0.109375 -0.09375,0 -0.109375,0.046875 -0.125,0.09375 -0.28125,0.78125 -0.96875,0.796875 -1.109375,0.796875 -0.359375,0 -0.734375,-0.15625 -0.96875,-0.53125 C 0.953125,-1.0625 0.953125,-1.578125 0.953125,-1.8125 Z M 0.953125,-2.03125 C 1.03125,-3.140625 1.703125,-3.328125 2,-3.328125 c 0.9375,0 0.96875,1.125 0.96875,1.296875 z m 0,0"
                 id="path63" />
            </g>
          </g>
        </g>
      </g>
      <g
         inkscape:label=""
         transform="translate(104.71584,41.790508)"
         id="g73">
        <g
           id="g72"
           transform="matrix(0.352778,0,0,0.352778,-0.862939,-0.703395)">
          <g
             style="fill:#000000;fill-opacity:1"
             id="g69">
            <g
               id="g68"
               transform="translate(1.993,9.4469995)">
              <path
                 style="stroke:none"
                 d="M 4.09375,-6.703125 C 4.15625,-6.953125 4.1875,-7.0625 4.390625,-7.09375 4.5,-7.109375 4.84375,-7.109375 5.0625,-7.109375 c 0.765625,0 1.984375,0 1.984375,1.078125 0,0.375 -0.171875,1.125 -0.59375,1.546875 -0.296875,0.28125 -0.875,0.640625 -1.84375,0.640625 H 3.375 Z m 1.5625,3 C 6.765625,-3.953125 8.0625,-4.71875 8.0625,-5.8125 8.0625,-6.75 7.078125,-7.453125 5.65625,-7.453125 H 2.546875 c -0.21875,0 -0.328125,0 -0.328125,0.21875 0,0.125 0.109375,0.125 0.3125,0.125 0.015625,0 0.234375,0 0.40625,0.015625 0.203125,0.03125 0.296875,0.03125 0.296875,0.171875 0,0.046875 0,0.078125 -0.03125,0.21875 l -1.46875,5.859375 c -0.109375,0.421875 -0.125,0.5 -1,0.5 -0.1875,0 -0.28125,0 -0.28125,0.21875 0,0.125 0.125,0.125 0.140625,0.125 0.3125,0 1.078125,-0.03125 1.375,-0.03125 0.3125,0 1.078125,0.03125 1.390625,0.03125 0.09375,0 0.21875,0 0.21875,-0.21875 0,-0.125 -0.09375,-0.125 -0.3125,-0.125 -0.390625,0 -0.703125,0 -0.703125,-0.1875 0,-0.0625 0.015625,-0.125 0.03125,-0.1875 L 3.3125,-3.609375 h 1.296875 c 1,0 1.1875,0.609375 1.1875,0.984375 0,0.171875 -0.078125,0.515625 -0.140625,0.765625 -0.078125,0.296875 -0.1875,0.703125 -0.1875,0.921875 0,1.171875 1.3125,1.171875 1.453125,1.171875 0.9375,0 1.3125,-1.09375 1.3125,-1.25 0,-0.125 -0.125,-0.125 -0.125,-0.125 C 8,-1.140625 7.984375,-1.0625 7.96875,-1 c -0.28125,0.8125 -0.75,1 -1,1 C 6.609375,0 6.53125,-0.234375 6.53125,-0.671875 6.53125,-1 6.59375,-1.5625 6.640625,-1.90625 6.65625,-2.0625 6.6875,-2.265625 6.6875,-2.421875 c 0,-0.84375 -0.734375,-1.171875 -1.03125,-1.28125 z m 0,0"
                 id="path67" />
            </g>
          </g>
          <g
             style="fill:#000000;fill-opacity:1"
             id="g71">
            <g
               id="g70"
               transform="translate(10.276,11.083)">
              <path
                 style="stroke:none"
                 d="m 1.546875,-4.90625 c 0,-0.234375 -0.171875,-0.453125 -0.4375,-0.453125 -0.234375,0 -0.4375,0.1875 -0.4375,0.4375 0,0.28125 0.234375,0.453125 0.4375,0.453125 0.28125,0 0.4375,-0.234375 0.4375,-0.4375 z m -1.1875,1.484375 v 0.265625 c 0.515625,0 0.578125,0.046875 0.578125,0.4375 V -0.625 c 0,0.359375 -0.09375,0.359375 -0.609375,0.359375 V 0 c 0.3125,-0.03125 0.765625,-0.03125 0.890625,-0.03125 0.09375,0 0.578125,0 0.859375,0.03125 v -0.265625 c -0.53125,0 -0.5625,-0.03125 -0.5625,-0.34375 v -2.90625 z m 0,0"
                 id="path69" />
            </g>
          </g>
        </g>
      </g>
      <g
         inkscape:label=""
         transform="translate(98.562305,55.671871)"
         id="g103">
        <g
           id="g102"
           transform="matrix(0.352778,0,0,0.352778,-0.868451,-0.656475)">
          <g
             style="fill:#000000;fill-opacity:1"
             id="g99">
            <g
               id="g98"
               transform="translate(1.993,6.6890001)">
              <path
                 style="stroke:none"
                 d="m 1.453125,-0.90625 c 0.59375,-0.625 0.90625,-0.90625 1.296875,-1.25 0,0 0.671875,-0.578125 1.0625,-0.96875 1.046875,-1.015625 1.28125,-1.546875 1.28125,-1.59375 0,-0.109375 -0.09375,-0.109375 -0.125,-0.109375 -0.078125,0 -0.109375,0.03125 -0.15625,0.125 C 4.484375,-4.171875 4.25,-4 3.984375,-4 3.734375,-4 3.59375,-4.171875 3.4375,-4.359375 c -0.203125,-0.25 -0.390625,-0.46875 -0.75,-0.46875 -0.828125,0 -1.328125,1.015625 -1.328125,1.25 0,0.0625 0.03125,0.125 0.140625,0.125 0.09375,0 0.109375,-0.0625 0.140625,-0.125 0.203125,-0.5 0.828125,-0.515625 0.921875,-0.515625 0.234375,0 0.4375,0.078125 0.6875,0.171875 0.4375,0.15625 0.5625,0.15625 0.84375,0.15625 -0.390625,0.46875 -1.3125,1.25 -1.515625,1.4375 l -0.984375,0.90625 c -0.75,0.734375 -1.125,1.359375 -1.125,1.4375 0,0.109375 0.109375,0.109375 0.125,0.109375 0.09375,0 0.109375,-0.03125 0.1875,-0.140625 0.25,-0.390625 0.578125,-0.6875 0.921875,-0.6875 0.25,0 0.359375,0.109375 0.625,0.421875 C 2.515625,-0.046875 2.71875,0.125 3.03125,0.125 4.109375,0.125 4.75,-1.265625 4.75,-1.5625 c 0,-0.046875 -0.046875,-0.109375 -0.140625,-0.109375 -0.09375,0 -0.109375,0.0625 -0.15625,0.140625 -0.25,0.71875 -0.9375,0.921875 -1.296875,0.921875 -0.21875,0 -0.421875,-0.0625 -0.640625,-0.140625 C 2.140625,-0.890625 1.96875,-0.9375 1.75,-0.9375 c -0.03125,0 -0.203125,0 -0.296875,0.03125 z m 0,0"
                 id="path97" />
            </g>
          </g>
          <g
             style="fill:#000000;fill-opacity:1"
             id="g101">
            <g
               id="g100"
               transform="translate(7.066,8.3249998)">
              <path
                 style="stroke:none"
                 d="m 3.890625,-2.546875 c 0,-0.84375 -0.078125,-1.359375 -0.34375,-1.875 -0.34375,-0.703125 -1,-0.875 -1.4375,-0.875 -1,0 -1.375,0.75 -1.484375,0.96875 -0.28125,0.578125 -0.296875,1.375 -0.296875,1.78125 0,0.53125 0.015625,1.328125 0.40625,1.96875 0.359375,0.59375 0.953125,0.75 1.375,0.75 0.390625,0 1.0625,-0.125 1.46875,-0.90625 0.296875,-0.578125 0.3125,-1.296875 0.3125,-1.8125 z M 2.109375,-0.0625 C 1.84375,-0.0625 1.296875,-0.1875 1.125,-1.015625 1.03125,-1.46875 1.03125,-2.21875 1.03125,-2.640625 1.03125,-3.1875 1.03125,-3.75 1.125,-4.1875 1.296875,-5 1.90625,-5.078125 2.109375,-5.078125 c 0.265625,0 0.828125,0.140625 0.984375,0.859375 0.09375,0.4375 0.09375,1.046875 0.09375,1.578125 0,0.46875 0,1.1875 -0.09375,1.640625 -0.171875,0.828125 -0.71875,0.9375 -0.984375,0.9375 z m 0,0"
                 id="path99" />
            </g>
          </g>
        </g>
      </g>
      <g
         inkscape:label=""
         transform="translate(84.213004,67.430863)"
         id="g115">
        <g
           id="g114"
           transform="matrix(0.352778,0,0,0.352778,-0.813329,-0.656475)">
          <g
             style="fill:#000000;fill-opacity:1"
             id="g111">
            <g
               id="g110"
               transform="translate(1.993,6.6890001)">
              <path
                 style="stroke:none"
                 d="m 3.640625,-3.296875 c 0.0625,-0.28125 0.3125,-1.28125 1.078125,-1.28125 0.0625,0 0.3125,0 0.546875,0.140625 C 4.96875,-4.390625 4.75,-4.109375 4.75,-3.84375 c 0,0.171875 0.109375,0.375 0.40625,0.375 0.25,0 0.59375,-0.203125 0.59375,-0.625 0,-0.578125 -0.640625,-0.734375 -1.015625,-0.734375 -0.640625,0 -1.015625,0.578125 -1.140625,0.84375 -0.28125,-0.734375 -0.875,-0.84375 -1.1875,-0.84375 -1.125,0 -1.75,1.421875 -1.75,1.6875 0,0.109375 0.109375,0.109375 0.125,0.109375 0.09375,0 0.125,-0.015625 0.140625,-0.125 0.375,-1.15625 1.09375,-1.421875 1.46875,-1.421875 0.203125,0 0.59375,0.09375 0.59375,0.734375 0,0.328125 -0.1875,1.0625 -0.59375,2.59375 -0.171875,0.671875 -0.5625,1.125 -1.03125,1.125 -0.078125,0 -0.328125,0 -0.546875,-0.140625 0.265625,-0.046875 0.5,-0.28125 0.5,-0.578125 0,-0.296875 -0.234375,-0.390625 -0.390625,-0.390625 -0.328125,0 -0.609375,0.28125 -0.609375,0.640625 0,0.5 0.546875,0.71875 1.03125,0.71875 0.71875,0 1.109375,-0.765625 1.140625,-0.828125 C 2.625,-0.3125 3.015625,0.125 3.671875,0.125 c 1.109375,0 1.734375,-1.40625 1.734375,-1.6875 0,-0.109375 -0.09375,-0.109375 -0.125,-0.109375 -0.09375,0 -0.125,0.046875 -0.140625,0.125 C 4.78125,-0.375 4.03125,-0.125 3.6875,-0.125 c -0.421875,0 -0.59375,-0.34375 -0.59375,-0.71875 0,-0.234375 0.0625,-0.46875 0.171875,-0.953125 z m 0,0"
                 id="path109" />
            </g>
          </g>
          <g
             style="fill:#000000;fill-opacity:1"
             id="g113">
            <g
               id="g112"
               transform="translate(8.2270002,8.3249998)">
              <path
                 style="stroke:none"
                 d="m 3.890625,-2.546875 c 0,-0.84375 -0.078125,-1.359375 -0.34375,-1.875 -0.34375,-0.703125 -1,-0.875 -1.4375,-0.875 -1,0 -1.375,0.75 -1.484375,0.96875 -0.28125,0.578125 -0.296875,1.375 -0.296875,1.78125 0,0.53125 0.015625,1.328125 0.40625,1.96875 0.359375,0.59375 0.953125,0.75 1.375,0.75 0.390625,0 1.0625,-0.125 1.46875,-0.90625 0.296875,-0.578125 0.3125,-1.296875 0.3125,-1.8125 z M 2.109375,-0.0625 C 1.84375,-0.0625 1.296875,-0.1875 1.125,-1.015625 1.03125,-1.46875 1.03125,-2.21875 1.03125,-2.640625 1.03125,-3.1875 1.03125,-3.75 1.125,-4.1875 1.296875,-5 1.90625,-5.078125 2.109375,-5.078125 c 0.265625,0 0.828125,0.140625 0.984375,0.859375 0.09375,0.4375 0.09375,1.046875 0.09375,1.578125 0,0.46875 0,1.1875 -0.09375,1.640625 -0.171875,0.828125 -0.71875,0.9375 -0.984375,0.9375 z m 0,0"
                 id="path111" />
            </g>
          </g>
        </g>
      </g>
      <g
         inkscape:label=""
         transform="translate(97.725919,25.24287)"
         id="g127">
        <g
           id="g126"
           transform="matrix(0.352778,0,0,0.352778,-0.862939,-0.663399)">
          <g
             style="fill:#000000;fill-opacity:1"
             id="g123">
            <g
               id="g122"
               transform="translate(1.993,9.5679998)">
              <path
                 style="stroke:none"
                 d="m 4.96875,-5.453125 c 0,-0.71875 -0.203125,-2.234375 -1.3125,-2.234375 -1.515625,0 -3.203125,3.078125 -3.203125,5.578125 0,1.015625 0.328125,2.234375 1.3125,2.234375 1.53125,0 3.203125,-3.140625 3.203125,-5.578125 z m -3.359375,1.5 c 0.1875,-0.703125 0.40625,-1.578125 0.84375,-2.34375 C 2.75,-6.84375 3.15625,-7.453125 3.640625,-7.453125 4.171875,-7.453125 4.25,-6.75 4.25,-6.125 c 0,0.53125 -0.09375,1.09375 -0.359375,2.171875 z m 2.1875,0.34375 c -0.125,0.5 -0.34375,1.421875 -0.765625,2.21875 C 2.65625,-0.65625 2.234375,-0.125 1.765625,-0.125 c -0.359375,0 -0.59375,-0.3125 -0.59375,-1.328125 0,-0.453125 0.078125,-1.09375 0.359375,-2.15625 z m 0,0"
                 id="path121" />
            </g>
          </g>
          <g
             style="fill:#000000;fill-opacity:1"
             id="g125">
            <g
               id="g124"
               transform="translate(7.1139998,11.345)">
              <path
                 style="stroke:none"
                 d="m 1.46875,-5.53125 -1.1875,0.09375 v 0.265625 c 0.546875,0 0.609375,0.046875 0.609375,0.4375 V 0 H 1.125 l 0.296875,-0.5 c 0.1875,0.28125 0.5625,0.578125 1.109375,0.578125 1,0 1.890625,-0.78125 1.890625,-1.796875 0,-1 -0.828125,-1.796875 -1.796875,-1.796875 -0.640625,0 -1.015625,0.34375 -1.15625,0.484375 z m 0.015625,3.015625 c 0,-0.15625 0,-0.171875 0.125,-0.3125 0.234375,-0.296875 0.609375,-0.46875 0.96875,-0.46875 0.40625,0 0.71875,0.25 0.875,0.484375 0.140625,0.21875 0.25,0.5 0.25,1.078125 0,0.1875 0,0.75 -0.28125,1.125 C 3.125,-0.25 2.75,-0.140625 2.5,-0.140625 c -0.390625,0 -0.703125,-0.203125 -0.921875,-0.515625 -0.09375,-0.15625 -0.09375,-0.15625 -0.09375,-0.3125 z m 0,0"
                 id="path123" />
            </g>
          </g>
        </g>
      </g>
      <g
         inkscape:label=""
         transform="translate(86.582544,44.684629)"
         id="g133">
        <g
           id="g132"
           transform="matrix(0.352778,0,0,0.352778,-0.862939,-0.663399)">
          <g
             style="fill:#000000;fill-opacity:1"
             id="g129">
            <g
               id="g128"
               transform="translate(1.993,9.5679998)">
              <path
                 style="stroke:none"
                 d="m 4.96875,-5.453125 c 0,-0.71875 -0.203125,-2.234375 -1.3125,-2.234375 -1.515625,0 -3.203125,3.078125 -3.203125,5.578125 0,1.015625 0.328125,2.234375 1.3125,2.234375 1.53125,0 3.203125,-3.140625 3.203125,-5.578125 z m -3.359375,1.5 c 0.1875,-0.703125 0.40625,-1.578125 0.84375,-2.34375 C 2.75,-6.84375 3.15625,-7.453125 3.640625,-7.453125 4.171875,-7.453125 4.25,-6.75 4.25,-6.125 c 0,0.53125 -0.09375,1.09375 -0.359375,2.171875 z m 2.1875,0.34375 c -0.125,0.5 -0.34375,1.421875 -0.765625,2.21875 C 2.65625,-0.65625 2.234375,-0.125 1.765625,-0.125 c -0.359375,0 -0.59375,-0.3125 -0.59375,-1.328125 0,-0.453125 0.078125,-1.09375 0.359375,-2.15625 z m 0,0"
                 id="path127" />
            </g>
          </g>
          <g
             style="fill:#000000;fill-opacity:1"
             id="g131">
            <g
               id="g130"
               transform="translate(7.1139998,11.204)">
              <path
                 style="stroke:none"
                 d="m 3.984375,-1.703125 c 0,-0.984375 -0.828125,-1.84375 -1.875,-1.84375 -1.046875,0 -1.875,0.859375 -1.875,1.84375 0,1 0.859375,1.78125 1.875,1.78125 1.03125,0 1.875,-0.78125 1.875,-1.78125 z m -1.875,1.53125 C 1.6875,-0.171875 1.34375,-0.375 1.171875,-0.65625 0.96875,-0.984375 0.953125,-1.375 0.953125,-1.765625 c 0,-0.3125 0,-0.78125 0.234375,-1.125 0.21875,-0.28125 0.546875,-0.4375 0.921875,-0.4375 0.421875,0 0.765625,0.203125 0.9375,0.46875 0.21875,0.34375 0.234375,0.765625 0.234375,1.09375 0,0.359375 -0.015625,0.796875 -0.25,1.140625 -0.203125,0.3125 -0.5625,0.453125 -0.921875,0.453125 z m 0,0"
                 id="path129" />
            </g>
          </g>
        </g>
      </g>
    </g>
  </g>
</svg>
