<?xml version="1.0" encoding="UTF-8" standalone="no"?>
<!-- Created with Inkscape (http://www.inkscape.org/) -->

<svg
   width="7cm"
   height="8.5cm"
   viewBox="0 0 70 85"
   version="1.1"
   id="svg1"
   inkscape:version="1.1.2 (0a00cf5339, 2022-02-04)"
   sodipodi:docname="problemA.svg"
   xmlns:inkscape="http://www.inkscape.org/namespaces/inkscape"
   xmlns:sodipodi="http://sodipodi.sourceforge.net/DTD/sodipodi-0.dtd"
   xmlns="http://www.w3.org/2000/svg"
   xmlns:svg="http://www.w3.org/2000/svg">
  <sodipodi:namedview
     id="namedview1"
     pagecolor="#ffffff"
     bordercolor="#666666"
     borderopacity="1.0"
     inkscape:showpageshadow="2"
     inkscape:pageopacity="0.0"
     inkscape:pagecheckerboard="0"
     inkscape:deskcolor="#d1d1d1"
     inkscape:document-units="mm"
     inkscape:zoom="5.12"
     inkscape:cx="80.273438"
     inkscape:cy="206.15234"
     inkscape:window-width="1850"
     inkscape:window-height="1136"
     inkscape:window-x="70"
     inkscape:window-y="1107"
     inkscape:window-maximized="1"
     inkscape:current-layer="layer1"
     inkscape:pageshadow="2"
     showgrid="false" />
  <defs
     id="defs1">
    <marker
       style="overflow:visible"
       id="marker31"
       refX="0"
       refY="0"
       orient="auto-start-reverse"
       inkscape:stockid="Triangle arrow"
       markerWidth="1"
       markerHeight="1"
       viewBox="0 0 1 1"
       inkscape:isstock="true"
       inkscape:collect="always"
       preserveAspectRatio="xMidYMid">
      <path
         transform="scale(0.5)"
         style="fill:context-stroke;fill-rule:evenodd;stroke:context-stroke;stroke-width:1pt"
         d="M 5.77,0 -2.88,5 V -5 Z"
         id="path31" />
    </marker>
    <marker
       style="overflow:visible"
       id="Triangle"
       refX="0"
       refY="0"
       orient="auto-start-reverse"
       inkscape:stockid="Triangle arrow"
       markerWidth="1"
       markerHeight="1"
       viewBox="0 0 1 1"
       inkscape:isstock="true"
       inkscape:collect="always"
       preserveAspectRatio="xMidYMid">
      <path
         transform="scale(0.5)"
         style="fill:context-stroke;fill-rule:evenodd;stroke:context-stroke;stroke-width:1pt"
         d="M 5.77,0 -2.88,5 V -5 Z"
         id="path135" />
    </marker>
    <marker
       style="overflow:visible"
       id="ConcaveTriangle"
       refX="0"
       refY="0"
       orient="auto-start-reverse"
       inkscape:stockid="Concave triangle arrow"
       markerWidth="1"
       markerHeight="1"
       viewBox="0 0 1 1"
       inkscape:isstock="true"
       inkscape:collect="always"
       preserveAspectRatio="xMidYMid">
      <path
         transform="scale(0.7)"
         d="M -2,-4 9,0 -2,4 c 2,-2.33 2,-5.66 0,-8 z"
         style="fill:context-stroke;fill-rule:evenodd;stroke:none"
         id="path18" />
    </marker>
  </defs>
  <g
     inkscape:label="Capa 1"
     inkscape:groupmode="layer"
     id="layer1"
     transform="translate(-76.9134, -15.0249)">
    <path
       d="m 81.807151,67.548228 h 55.174619 v 24.77648 H 81.807151 Z"
       style="fill:#bf8c53;fill-opacity:0.2543;fill-rule:evenodd;stroke:none;stroke-width:0.431684"
       id="path1124" />
    <g
       id="g1782"
       transform="matrix(0.31910256,0,0,0.31293133,82.006491,21.321905)">
      <path
         d="M -0.5268839,-5.4861429 H 172.72224 V 148.109 H -0.5268839 Z"
         style="fill:#0c4ec4;fill-opacity:0.2543;fill-rule:evenodd;stroke:none;stroke-width:1.90452"
         id="path1784" />
      <g
         id="g1786">
        <path
           d="M 15.375,218.625 H 131.25"
           style="fill:none;stroke:#000000;stroke-width:0.749999;stroke-linecap:butt;stroke-linejoin:miter;stroke-miterlimit:4;stroke-dasharray:1.5, 0.749999;stroke-dashoffset:0;stroke-opacity:1"
           id="path1788" />
      </g>
      <g
         id="g1790">
        <path
           d="m 19.297,220.441 -4.914,-1.808 4.914,-1.809 c -0.785,1.067 -0.781,2.528 0,3.617 z"
           style="fill:#000000;fill-opacity:1;fill-rule:evenodd;stroke:#000000;stroke-width:0.28125;stroke-linecap:butt;stroke-linejoin:round;stroke-miterlimit:4;stroke-dasharray:none;stroke-opacity:1"
           id="path1792" />
      </g>
      <g
         id="g1794"
         transform="scale(-1)">
        <path
           d="m -127.328,-216.809 -4.914,-1.808 4.914,-1.809 c -0.785,1.067 -0.781,2.528 0,3.617 z"
           style="fill:#000000;fill-opacity:1;fill-rule:evenodd;stroke:#000000;stroke-width:0.28125;stroke-linecap:butt;stroke-linejoin:round;stroke-miterlimit:4;stroke-dasharray:none;stroke-opacity:1"
           id="path1796" />
      </g>
    </g>
    <path
       style="fill:none;stroke:#000000;stroke-width:0.25;stroke-linecap:butt;stroke-linejoin:miter;stroke-dasharray:none;stroke-opacity:1"
       d="M 81.632897,67.550818 H 137.05642"
       id="path1" />
    <path
       style="fill:none;stroke:#000000;stroke-width:0.249948;stroke-linecap:butt;stroke-linejoin:miter;stroke-dasharray:none;stroke-opacity:1"
       d="M 81.75607,67.543993 V 19.46941"
       id="path7" />
    <path
       style="fill:none;stroke:#000000;stroke-width:0.25;stroke-linecap:butt;stroke-linejoin:miter;stroke-dasharray:none;stroke-opacity:1"
       d="M 81.762382,67.653869 V 92.170038 H 137.0182 v -24.76274"
       id="path8" />
    <path
       style="fill:none;stroke:#000000;stroke-width:0.25;stroke-linecap:butt;stroke-linejoin:miter;stroke-dasharray:none;stroke-opacity:1"
       d="M 137.00223,67.61504 V 19.52055"
       id="path9" />
    <text
       xml:space="preserve"
       style="font-size:6.35px;line-height:1.25;font-family:sans-serif;-inkscape-font-specification:'sans-serif, ';font-variant-ligatures:none;stroke-width:0.264583"
       x="102.61162"
       y="58.844952"
       id="text9"><tspan
         sodipodi:role="line"
         id="tspan9"
         style="stroke-width:0.264583"
         x="102.61162"
         y="58.844952" /></text>
    <text
       xml:space="preserve"
       style="font-size:3.88056px;line-height:1.25;font-family:sans-serif;-inkscape-font-specification:'sans-serif, ';font-variant-ligatures:none;stroke-width:0.264583"
       x="101.54058"
       y="32.953548"
       id="text10"><tspan
         sodipodi:role="line"
         id="tspan10"
         style="stroke-width:0.264583"
         x="101.54058"
         y="32.953548" /></text>
    <path
       style="fill:none;stroke:#f01717;stroke-width:0.261;stroke-linecap:butt;stroke-linejoin:miter;stroke-opacity:1;stroke-dasharray:none"
       d="M 81.718162,19.600316 H 115.06215"
       id="path10" />
    <path
       style="fill:none;stroke:#f01717;stroke-width:0.260914px;stroke-linecap:butt;stroke-linejoin:miter;stroke-opacity:1"
       d="M 114.80354,19.605119 H 137.1226"
       id="path11" />
    <g
       inkscape:label=""
       transform="translate(107.03816,43.179284)"
       id="g13">
      <g
         id="surface2"
         transform="matrix(0.352778,0,0,0.352778,-0.873963,-0.620712)">
        <g
           style="fill:#000000;fill-opacity:1"
           id="g5">
          <g
             id="use4"
             transform="translate(1.993,9.4469995)">
            <path
               style="stroke:none"
               d="m 7.390625,-1.765625 h -0.28125 c -0.046875,0.28125 -0.09375,0.53125 -0.1875,0.796875 -0.0625,0.171875 -0.09375,0.265625 -0.734375,0.265625 H 5.328125 C 5.46875,-1.3125 5.796875,-1.84375 6.296875,-2.5625 6.8125,-3.34375 7.25,-4.09375 7.25,-4.953125 7.25,-6.46875 5.78125,-7.6875 3.9375,-7.6875 c -1.875,0 -3.328125,1.234375 -3.328125,2.734375 0,0.859375 0.453125,1.609375 0.96875,2.390625 0.46875,0.71875 0.828125,1.25 0.96875,1.859375 h -0.875 c -0.640625,0 -0.671875,-0.09375 -0.71875,-0.25 C 0.859375,-1.203125 0.8125,-1.5 0.75,-1.765625 H 0.484375 L 0.84375,0 h 1.734375 c 0.25,0 0.28125,0 0.28125,-0.234375 0,-0.765625 -0.34375,-1.71875 -0.59375,-2.421875 -0.21875,-0.625 -0.53125,-1.484375 -0.53125,-2.3125 0,-1.734375 1.203125,-2.484375 2.1875,-2.484375 1.046875,0 2.203125,0.796875 2.203125,2.484375 0,0.828125 -0.296875,1.65625 -0.609375,2.546875 C 5.359375,-1.96875 5,-0.984375 5,-0.234375 5,0 5.03125,0 5.296875,0 H 7.03125 Z m 0,0"
               id="path12" />
          </g>
        </g>
        <g
           style="fill:#000000;fill-opacity:1"
           id="g6">
          <g
             id="use5"
             transform="translate(9.8710003,11.135)">
            <path
               style="stroke:none"
               d="M 2.515625,-2.578125 H 3.34375 c 0.65625,0 0.6875,0.125 0.6875,0.359375 0,0.046875 0,0.125 -0.0625,0.34375 0,0.03125 -0.015625,0.09375 -0.015625,0.109375 0,0.015625 0,0.109375 0.125,0.109375 0.09375,0 0.125,-0.078125 0.140625,-0.171875 L 4.640625,-3.53125 c 0.015625,-0.015625 0.03125,-0.125 0.03125,-0.140625 0,-0.03125 -0.015625,-0.109375 -0.125,-0.109375 -0.09375,0 -0.109375,0.078125 -0.125,0.171875 -0.171875,0.625 -0.34375,0.765625 -1.0625,0.765625 H 2.59375 l 0.5,-2.015625 C 3.15625,-5.140625 3.171875,-5.15625 3.5,-5.15625 h 1.171875 c 0.953125,0 1.21875,0.203125 1.21875,0.890625 0,0.15625 -0.046875,0.375 -0.046875,0.515625 0,0.09375 0.0625,0.140625 0.125,0.140625 0.109375,0 0.125,-0.078125 0.140625,-0.203125 L 6.25,-5.171875 c 0,-0.046875 0,-0.09375 0,-0.140625 0,-0.109375 -0.09375,-0.109375 -0.234375,-0.109375 h -4.09375 c -0.140625,0 -0.234375,0 -0.234375,0.140625 0,0.125 0.09375,0.125 0.21875,0.125 0.0625,0 0.171875,0 0.3125,0.015625 0.15625,0.015625 0.1875,0.03125 0.1875,0.109375 0,0.046875 0,0.078125 -0.03125,0.15625 l -1.0625,4.25 c -0.0625,0.296875 -0.078125,0.359375 -0.671875,0.359375 -0.15625,0 -0.25,0 -0.25,0.15625 C 0.390625,-0.078125 0.421875,0 0.515625,0 0.6875,0 0.875,-0.03125 1.046875,-0.03125 H 2.15625 C 2.296875,-0.015625 2.59375,0 2.734375,0 c 0.0625,0 0.171875,0 0.171875,-0.15625 0,-0.109375 -0.09375,-0.109375 -0.265625,-0.109375 -0.15625,0 -0.21875,0 -0.40625,-0.015625 -0.21875,-0.015625 -0.25,-0.046875 -0.25,-0.140625 0,-0.015625 0,-0.0625 0.046875,-0.171875 z m 0,0"
               id="path13" />
          </g>
        </g>
      </g>
    </g>
    <g
       inkscape:label=""
       transform="translate(107.02989,78.401395)"
       id="g19">
      <g
         id="g18"
         transform="matrix(0.352778,0,0,0.352778,-0.873963,-0.620712)">
        <g
           style="fill:#000000;fill-opacity:1"
           id="g15">
          <g
             id="g14"
             transform="translate(1.993,9.4469995)">
            <path
               style="stroke:none"
               d="m 7.390625,-1.765625 h -0.28125 c -0.046875,0.28125 -0.09375,0.53125 -0.1875,0.796875 -0.0625,0.171875 -0.09375,0.265625 -0.734375,0.265625 H 5.328125 C 5.46875,-1.3125 5.796875,-1.84375 6.296875,-2.5625 6.8125,-3.34375 7.25,-4.09375 7.25,-4.953125 7.25,-6.46875 5.78125,-7.6875 3.9375,-7.6875 c -1.875,0 -3.328125,1.234375 -3.328125,2.734375 0,0.859375 0.453125,1.609375 0.96875,2.390625 0.46875,0.71875 0.828125,1.25 0.96875,1.859375 h -0.875 c -0.640625,0 -0.671875,-0.09375 -0.71875,-0.25 C 0.859375,-1.203125 0.8125,-1.5 0.75,-1.765625 H 0.484375 L 0.84375,0 h 1.734375 c 0.25,0 0.28125,0 0.28125,-0.234375 0,-0.765625 -0.34375,-1.71875 -0.59375,-2.421875 -0.21875,-0.625 -0.53125,-1.484375 -0.53125,-2.3125 0,-1.734375 1.203125,-2.484375 2.1875,-2.484375 1.046875,0 2.203125,0.796875 2.203125,2.484375 0,0.828125 -0.296875,1.65625 -0.609375,2.546875 C 5.359375,-1.96875 5,-0.984375 5,-0.234375 5,0 5.03125,0 5.296875,0 H 7.03125 Z m 0,0"
               id="path14" />
          </g>
        </g>
        <g
           style="fill:#000000;fill-opacity:1"
           id="g17">
          <g
             id="g16"
             transform="translate(9.8710003,11.135)">
            <path
               style="stroke:none"
               d="m 2.515625,-2.484375 h 1.4375 c 1.15625,0 2.34375,-0.796875 2.34375,-1.734375 0,-0.6875 -0.625,-1.21875 -1.65625,-1.21875 h -2.6875 c -0.140625,0 -0.25,0 -0.25,0.140625 0,0.125 0.109375,0.125 0.234375,0.125 0.265625,0 0.5,0 0.5,0.125 0,0.03125 -0.015625,0.03125 -0.03125,0.140625 L 1.328125,-0.625 c -0.0625,0.296875 -0.078125,0.359375 -0.65625,0.359375 -0.171875,0 -0.265625,0 -0.265625,0.15625 C 0.40625,-0.078125 0.4375,0 0.53125,0 0.6875,0 0.875,-0.015625 1.03125,-0.03125 h 0.5 C 2.296875,-0.03125 2.515625,0 2.5625,0 c 0.046875,0 0.15625,0 0.15625,-0.15625 0,-0.109375 -0.09375,-0.109375 -0.234375,-0.109375 -0.015625,0 -0.171875,0 -0.296875,-0.015625 C 2.015625,-0.296875 2,-0.3125 2,-0.390625 2,-0.4375 2.015625,-0.484375 2.03125,-0.515625 Z M 3.09375,-4.890625 C 3.15625,-5.15625 3.171875,-5.171875 3.5,-5.171875 h 0.875 c 0.65625,0 1.15625,0.1875 1.15625,0.765625 0,0.109375 -0.046875,0.828125 -0.484375,1.265625 -0.125,0.109375 -0.5,0.421875 -1.28125,0.421875 h -1.21875 z m 0,0"
               id="path15" />
          </g>
        </g>
      </g>
    </g>
    <g
       inkscape:label=""
       transform="translate(87.029944,62.739845)"
       id="g28">
      <g
         id="g27"
         transform="matrix(0.352778,0,0,0.352778,-0.829866,-0.703968)">
        <g
           style="fill:#000000;fill-opacity:1"
           id="g7">
          <g
             id="use6"
             transform="translate(1.993,11.395)">
            <path
               style="stroke:none"
               d="m 6.046875,-7.421875 h -5.6875 v 0.34375 H 0.625 c 0.84375,0 0.859375,0.125 0.859375,0.515625 v 5.71875 c 0,0.390625 -0.015625,0.5 -0.859375,0.5 H 0.359375 V 0 c 0.375,-0.03125 1.234375,-0.03125 1.65625,-0.03125 0.453125,0 1.4375,0 1.828125,0.03125 V -0.34375 H 3.484375 c -1.03125,0 -1.03125,-0.140625 -1.03125,-0.515625 v -5.78125 c 0,-0.359375 0.015625,-0.4375 0.53125,-0.4375 h 1.125 c 1.5625,0 1.796875,0.640625 1.96875,2.109375 H 6.34375 Z m 0,0"
               id="path25" />
          </g>
        </g>
        <g
           style="fill:#000000;fill-opacity:1"
           id="g8">
          <g
             id="use7"
             transform="translate(8.8109999,6.8080001)">
            <path
               style="stroke:none"
               d="M 3.46875,-1.8125 H 5.8125 c 0.109375,0 0.296875,0 0.296875,-0.171875 0,-0.1875 -0.1875,-0.1875 -0.296875,-0.1875 H 3.46875 V -4.53125 c 0,-0.109375 0,-0.28125 -0.171875,-0.28125 -0.1875,0 -0.1875,0.171875 -0.1875,0.28125 v 2.359375 H 0.75 c -0.109375,0 -0.28125,0 -0.28125,0.1875 0,0.171875 0.171875,0.171875 0.28125,0.171875 h 2.359375 v 2.359375 c 0,0.109375 0,0.28125 0.1875,0.28125 0.171875,0 0.171875,-0.171875 0.171875,-0.28125 z m 0,0"
               id="path26" />
          </g>
        </g>
        <g
           style="fill:#000000;fill-opacity:1"
           id="g9">
          <g
             id="use8"
             transform="translate(8.8109999,14.829)">
            <path
               style="stroke:none"
               d="m 3.09375,-4.828125 c 0.0625,-0.265625 0.078125,-0.34375 0.6875,-0.34375 0.171875,0 0.28125,0 0.28125,-0.15625 0,-0.015625 -0.015625,-0.109375 -0.140625,-0.109375 -0.125,0 -0.375,0.015625 -0.5,0.015625 h -1.09375 c -0.109375,0 -0.40625,-0.015625 -0.515625,-0.015625 -0.03125,0 -0.15625,0 -0.15625,0.140625 0,0.125 0.09375,0.125 0.25,0.125 0.515625,0 0.515625,0.046875 0.515625,0.140625 0,0.015625 0,0.046875 -0.046875,0.171875 L 1.328125,-0.625 c -0.078125,0.28125 -0.09375,0.359375 -0.6875,0.359375 -0.1875,0 -0.28125,0 -0.28125,0.15625 0,0.03125 0.03125,0.109375 0.125,0.109375 0.109375,0 0.375,-0.015625 0.5,-0.03125 H 2.09375 C 2.203125,-0.015625 2.484375,0 2.59375,0 2.640625,0 2.75,0 2.75,-0.15625 c 0,-0.109375 -0.09375,-0.109375 -0.25,-0.109375 -0.125,0 -0.171875,0 -0.3125,-0.015625 C 2.0625,-0.296875 1.984375,-0.296875 1.984375,-0.390625 1.984375,-0.4375 2,-0.4375 2.03125,-0.546875 Z m 0,0"
               id="path27" />
          </g>
        </g>
      </g>
    </g>
    <g
       inkscape:label=""
       transform="translate(87.071285,68.243512)"
       id="g36">
      <g
         id="g35"
         transform="matrix(0.352778,0,0,0.352778,-0.829866,-1.40163)">
        <g
           style="fill:#000000;fill-opacity:1"
           id="g30">
          <g
             id="g29"
             transform="translate(1.993,11.395)">
            <path
               style="stroke:none"
               d="m 6.046875,-7.421875 h -5.6875 v 0.34375 H 0.625 c 0.84375,0 0.859375,0.125 0.859375,0.515625 v 5.71875 c 0,0.390625 -0.015625,0.5 -0.859375,0.5 H 0.359375 V 0 c 0.375,-0.03125 1.234375,-0.03125 1.65625,-0.03125 0.453125,0 1.4375,0 1.828125,0.03125 V -0.34375 H 3.484375 c -1.03125,0 -1.03125,-0.140625 -1.03125,-0.515625 v -5.78125 c 0,-0.359375 0.015625,-0.4375 0.53125,-0.4375 h 1.125 c 1.5625,0 1.796875,0.640625 1.96875,2.109375 H 6.34375 Z m 0,0"
               id="path28" />
          </g>
        </g>
        <g
           style="fill:#000000;fill-opacity:1"
           id="g32">
          <g
             id="g31"
             transform="translate(8.8109999,6.8080001)">
            <path
               style="stroke:none"
               d="m 5.5625,-1.8125 c 0.140625,0 0.3125,0 0.3125,-0.171875 0,-0.1875 -0.171875,-0.1875 -0.3125,-0.1875 H 1 c -0.125,0 -0.296875,0 -0.296875,0.1875 C 0.703125,-1.8125 0.875,-1.8125 1,-1.8125 Z m 0,0"
               id="path30" />
          </g>
        </g>
        <g
           style="fill:#000000;fill-opacity:1"
           id="g34">
          <g
             id="g33"
             transform="translate(8.8109999,14.829)">
            <path
               style="stroke:none"
               d="m 3.09375,-4.828125 c 0.0625,-0.265625 0.078125,-0.34375 0.6875,-0.34375 0.171875,0 0.28125,0 0.28125,-0.15625 0,-0.015625 -0.015625,-0.109375 -0.140625,-0.109375 -0.125,0 -0.375,0.015625 -0.5,0.015625 h -1.09375 c -0.109375,0 -0.40625,-0.015625 -0.515625,-0.015625 -0.03125,0 -0.15625,0 -0.15625,0.140625 0,0.125 0.09375,0.125 0.25,0.125 0.515625,0 0.515625,0.046875 0.515625,0.140625 0,0.015625 0,0.046875 -0.046875,0.171875 L 1.328125,-0.625 c -0.078125,0.28125 -0.09375,0.359375 -0.6875,0.359375 -0.1875,0 -0.28125,0 -0.28125,0.15625 0,0.03125 0.03125,0.109375 0.125,0.109375 0.109375,0 0.375,-0.015625 0.5,-0.03125 H 2.09375 C 2.203125,-0.015625 2.484375,0 2.59375,0 2.640625,0 2.75,0 2.75,-0.15625 c 0,-0.109375 -0.09375,-0.109375 -0.25,-0.109375 -0.125,0 -0.171875,0 -0.3125,-0.015625 C 2.0625,-0.296875 1.984375,-0.296875 1.984375,-0.390625 1.984375,-0.4375 2,-0.4375 2.03125,-0.546875 Z m 0,0"
               id="path32" />
          </g>
        </g>
      </g>
    </g>
    <g
       inkscape:label=""
       transform="translate(107.29909,15.786587)"
       id="g42">
      <g
         id="g41"
         transform="matrix(0.352778,0,0,0.352778,-0.829866,-0.714419)">
        <g
           style="fill:#000000;fill-opacity:1"
           id="g38">
          <g
             id="g37"
             transform="translate(1.993,9.4469995)">
            <path
               style="stroke:none"
               d="m 6.046875,-7.421875 h -5.6875 v 0.34375 H 0.625 c 0.84375,0 0.859375,0.125 0.859375,0.515625 v 5.71875 c 0,0.390625 -0.015625,0.5 -0.859375,0.5 H 0.359375 V 0 c 0.375,-0.03125 1.234375,-0.03125 1.65625,-0.03125 0.453125,0 1.4375,0 1.828125,0.03125 V -0.34375 H 3.484375 c -1.03125,0 -1.03125,-0.140625 -1.03125,-0.515625 v -5.78125 c 0,-0.359375 0.015625,-0.4375 0.53125,-0.4375 h 1.125 c 1.5625,0 1.796875,0.640625 1.96875,2.109375 H 6.34375 Z m 0,0"
               id="path36" />
          </g>
        </g>
        <g
           style="fill:#000000;fill-opacity:1"
           id="g40">
          <g
             id="g39"
             transform="translate(8.8109999,11.135)">
            <path
               style="stroke:none"
               d="M 3.609375,-4.828125 C 3.671875,-5.109375 3.6875,-5.125 4.015625,-5.125 h 0.59375 c 0.828125,0 0.921875,0.265625 0.921875,0.65625 0,0.203125 -0.046875,0.546875 -0.046875,0.59375 -0.015625,0.078125 -0.03125,0.15625 -0.03125,0.171875 0,0.09375 0.078125,0.125 0.125,0.125 0.09375,0 0.125,-0.046875 0.140625,-0.203125 l 0.21875,-1.5 c 0,-0.109375 -0.09375,-0.109375 -0.234375,-0.109375 H 1 c -0.1875,0 -0.21875,0 -0.265625,0.171875 L 0.25,-3.84375 c -0.015625,0.046875 -0.046875,0.109375 -0.046875,0.15625 0,0.0625 0.0625,0.109375 0.125,0.109375 0.09375,0 0.109375,-0.046875 0.15625,-0.171875 C 0.9375,-5.03125 1.15625,-5.125 2.375,-5.125 h 0.3125 c 0.234375,0 0.25,0.015625 0.25,0.078125 0,0.015625 -0.03125,0.171875 -0.046875,0.203125 l -1.046875,4.1875 c -0.078125,0.3125 -0.09375,0.390625 -0.921875,0.390625 -0.265625,0 -0.34375,0 -0.34375,0.15625 0,0 0,0.109375 0.140625,0.109375 0.21875,0 0.765625,-0.03125 0.984375,-0.03125 H 2.375 c 0.21875,0 0.78125,0.03125 1,0.03125 0.0625,0 0.1875,0 0.1875,-0.15625 0,-0.109375 -0.09375,-0.109375 -0.296875,-0.109375 -0.203125,0 -0.265625,0 -0.46875,-0.015625 -0.25,-0.015625 -0.28125,-0.046875 -0.28125,-0.15625 0,-0.03125 0,-0.0625 0.03125,-0.140625 z m 0,0"
               id="path38" />
          </g>
        </g>
      </g>
    </g>
    <path
       style="fill:none;fill-opacity:1;stroke:#6d121b;stroke-width:0.265;stroke-linecap:butt;stroke-linejoin:miter;stroke-dasharray:none;stroke-opacity:1;marker-end:url(#ConcaveTriangle)"
       d="M 81.748578,92.302396 V 90.005599"
       id="path4" />
    <path
       style="fill:none;fill-opacity:1;stroke:#6d121b;stroke-width:0.265;stroke-linecap:butt;stroke-linejoin:miter;stroke-dasharray:none;stroke-opacity:1;marker-end:url(#ConcaveTriangle)"
       d="m 81.618529,92.18484 2.296693,-0.02187"
       id="path20" />
    <path
       style="fill:none;fill-opacity:1;stroke:#6d121b;stroke-width:0.236825;stroke-linecap:butt;stroke-linejoin:miter;stroke-dasharray:none;stroke-opacity:1;marker-end:url(#ConcaveTriangle)"
       d="m 81.885214,92.010982 -1.453211,1.439021"
       id="path22" />
    <path
       style="fill:none;stroke:#000000;stroke-width:0.261581px;stroke-linecap:butt;stroke-linejoin:miter;stroke-dasharray:0.523162, 0.261581;stroke-dashoffset:0;stroke-opacity:1;marker-start:url(#Triangle);marker-end:url(#Triangle)"
       d="M 140.4542,92.186354 V 68.721511"
       id="path23" />
    <path
       style="fill:none;stroke:#000000;stroke-width:0.271605;stroke-linecap:butt;stroke-linejoin:miter;stroke-dasharray:0.54321, 0.271605;stroke-dashoffset:0;stroke-opacity:1;marker-start:url(#Triangle);marker-end:url(#Triangle)"
       d="M 140.4542,66.382784 V 20.601068"
       id="path24" />
    <path
       style="fill:none;stroke:#000000;stroke-width:0.264583px;stroke-linecap:butt;stroke-linejoin:miter;stroke-opacity:1;stroke-dasharray:0.52916598, 0.26458299;stroke-dashoffset:0;marker-start:url(#marker31);marker-end:url(#Triangle)"
       d="M 81.761654,97.119488 H 136.13948"
       id="path35" />
    <g
       id="g55"
       transform="matrix(0.352778,0,0,0.352778,107.35778,93.434853)">
      <g
         style="fill:#000000;fill-opacity:1"
         id="g3">
        <g
           id="use2"
           transform="translate(1.993,9.4469995)">
          <path
             style="stroke:none"
             d="m 4.078125,-6.59375 c 0.09375,-0.390625 0.125,-0.515625 1.15625,-0.515625 0.328125,0 0.421875,0 0.421875,-0.203125 0,-0.140625 -0.125,-0.140625 -0.1875,-0.140625 -0.359375,0 -1.25,0.03125 -1.609375,0.03125 -0.328125,0 -1.125,-0.03125 -1.453125,-0.03125 -0.078125,0 -0.203125,0 -0.203125,0.21875 0,0.125 0.09375,0.125 0.3125,0.125 0.015625,0 0.21875,0 0.40625,0.015625 0.203125,0.03125 0.296875,0.03125 0.296875,0.171875 0,0.046875 -0.015625,0.078125 -0.046875,0.21875 L 1.71875,-0.84375 c -0.109375,0.421875 -0.140625,0.5 -1,0.5 -0.1875,0 -0.296875,0 -0.296875,0.21875 C 0.421875,0 0.53125,0 0.71875,0 h 5.046875 c 0.265625,0 0.28125,0 0.34375,-0.1875 L 6.96875,-2.546875 C 7.015625,-2.65625 7.015625,-2.6875 7.015625,-2.6875 c 0,-0.046875 -0.03125,-0.125 -0.140625,-0.125 -0.09375,0 -0.109375,0.046875 -0.171875,0.234375 -0.375,1 -0.859375,2.234375 -2.75,2.234375 H 2.9375 c -0.15625,0 -0.171875,0 -0.25,0 C 2.578125,-0.359375 2.546875,-0.375 2.546875,-0.453125 c 0,-0.03125 0,-0.0625 0.0625,-0.25 z m 0,0"
             id="path37" />
        </g>
      </g>
    </g>
    <g
       inkscape:label=""
       transform="translate(141.37852,42.907446)"
       id="g12">
      <g
         id="g11"
         transform="matrix(0.352778,0,0,0.352778,-0.791281,-0.661414)">
        <g
           style="fill:#000000;fill-opacity:1"
           id="g2">
          <g
             id="g1"
             transform="translate(1.993,8.7030001)">
            <path
               style="stroke:none"
               d="m 2.25,-4.359375 h 1.015625 c 0.21875,0 0.328125,0 0.328125,-0.21875 0,-0.125 -0.109375,-0.125 -0.296875,-0.125 H 2.328125 C 2.71875,-6.25 2.78125,-6.46875 2.78125,-6.53125 c 0,-0.1875 -0.125,-0.296875 -0.3125,-0.296875 -0.03125,0 -0.34375,0.015625 -0.4375,0.390625 l -0.421875,1.734375 h -1.03125 c -0.21875,0 -0.328125,0 -0.328125,0.203125 0,0.140625 0.09375,0.140625 0.3125,0.140625 h 0.953125 c -0.78125,3.09375 -0.828125,3.28125 -0.828125,3.46875 0,0.59375 0.40625,1.015625 1,1.015625 1.109375,0 1.734375,-1.59375 1.734375,-1.6875 0,-0.109375 -0.078125,-0.109375 -0.125,-0.109375 -0.09375,0 -0.109375,0.03125 -0.171875,0.15625 C 2.65625,-0.375 2.078125,-0.125 1.71875,-0.125 c -0.234375,0 -0.34375,-0.140625 -0.34375,-0.5 0,-0.265625 0.015625,-0.328125 0.0625,-0.515625 z m 0,0"
               id="path6" />
          </g>
        </g>
        <g
           style="fill:#000000;fill-opacity:1"
           id="g10">
          <g
             id="g4"
             transform="translate(5.9320002,10.391)">
            <path
               style="stroke:none"
               d="M 2.515625,-2.578125 H 3.34375 c 0.65625,0 0.6875,0.125 0.6875,0.359375 0,0.046875 0,0.125 -0.0625,0.34375 0,0.03125 -0.015625,0.09375 -0.015625,0.109375 0,0.015625 0,0.109375 0.125,0.109375 0.09375,0 0.125,-0.078125 0.140625,-0.171875 L 4.640625,-3.53125 c 0.015625,-0.015625 0.03125,-0.125 0.03125,-0.140625 0,-0.03125 -0.015625,-0.109375 -0.125,-0.109375 -0.09375,0 -0.109375,0.078125 -0.125,0.171875 -0.171875,0.625 -0.34375,0.765625 -1.0625,0.765625 H 2.59375 l 0.5,-2.015625 C 3.15625,-5.140625 3.171875,-5.15625 3.5,-5.15625 h 1.171875 c 0.953125,0 1.21875,0.203125 1.21875,0.890625 0,0.15625 -0.046875,0.375 -0.046875,0.515625 0,0.09375 0.0625,0.140625 0.125,0.140625 0.109375,0 0.125,-0.078125 0.140625,-0.203125 L 6.25,-5.171875 c 0,-0.046875 0,-0.09375 0,-0.140625 0,-0.109375 -0.09375,-0.109375 -0.234375,-0.109375 h -4.09375 c -0.140625,0 -0.234375,0 -0.234375,0.140625 0,0.125 0.09375,0.125 0.21875,0.125 0.0625,0 0.171875,0 0.3125,0.015625 0.15625,0.015625 0.1875,0.03125 0.1875,0.109375 0,0.046875 0,0.078125 -0.03125,0.15625 l -1.0625,4.25 c -0.0625,0.296875 -0.078125,0.359375 -0.671875,0.359375 -0.15625,0 -0.25,0 -0.25,0.15625 C 0.390625,-0.078125 0.421875,0 0.515625,0 0.6875,0 0.875,-0.03125 1.046875,-0.03125 H 2.15625 C 2.296875,-0.015625 2.59375,0 2.734375,0 c 0.0625,0 0.171875,0 0.171875,-0.15625 0,-0.109375 -0.09375,-0.109375 -0.265625,-0.109375 -0.15625,0 -0.21875,0 -0.40625,-0.015625 -0.21875,-0.015625 -0.25,-0.046875 -0.25,-0.140625 0,-0.015625 0,-0.0625 0.046875,-0.171875 z m 0,0"
               id="path2" />
          </g>
        </g>
      </g>
    </g>
    <g
       inkscape:label=""
       transform="translate(77.1169, 59.252)"
       id="g25">
      <g
         id="g24"
         transform="matrix(0.352778,0,0,0.352778,63.75704,19.60632)">
        <g
           style="fill:#000000;fill-opacity:1"
           id="g21">
          <g
             id="g20"
             transform="translate(1.993,8.7030001)">
            <path
               style="stroke:none"
               d="m 2.25,-4.359375 h 1.015625 c 0.21875,0 0.328125,0 0.328125,-0.21875 0,-0.125 -0.109375,-0.125 -0.296875,-0.125 H 2.328125 C 2.71875,-6.25 2.78125,-6.46875 2.78125,-6.53125 c 0,-0.1875 -0.125,-0.296875 -0.3125,-0.296875 -0.03125,0 -0.34375,0.015625 -0.4375,0.390625 l -0.421875,1.734375 h -1.03125 c -0.21875,0 -0.328125,0 -0.328125,0.203125 0,0.140625 0.09375,0.140625 0.3125,0.140625 h 0.953125 c -0.78125,3.09375 -0.828125,3.28125 -0.828125,3.46875 0,0.59375 0.40625,1.015625 1,1.015625 1.109375,0 1.734375,-1.59375 1.734375,-1.6875 0,-0.109375 -0.078125,-0.109375 -0.125,-0.109375 -0.09375,0 -0.109375,0.03125 -0.171875,0.15625 C 2.65625,-0.375 2.078125,-0.125 1.71875,-0.125 c -0.234375,0 -0.34375,-0.140625 -0.34375,-0.5 0,-0.265625 0.015625,-0.328125 0.0625,-0.515625 z m 0,0"
               id="path16" />
          </g>
        </g>
        <g
           style="fill:#000000;fill-opacity:1"
           id="g23">
          <g
             id="g22"
             transform="translate(5.9320002,10.391)">
            <path
               style="stroke:none"
               d="m 2.515625,-2.484375 h 1.4375 c 1.15625,0 2.34375,-0.796875 2.34375,-1.734375 0,-0.6875 -0.625,-1.21875 -1.65625,-1.21875 h -2.6875 c -0.140625,0 -0.25,0 -0.25,0.140625 0,0.125 0.109375,0.125 0.234375,0.125 0.265625,0 0.5,0 0.5,0.125 0,0.03125 -0.015625,0.03125 -0.03125,0.140625 L 1.328125,-0.625 c -0.0625,0.296875 -0.078125,0.359375 -0.65625,0.359375 -0.171875,0 -0.265625,0 -0.265625,0.15625 C 0.40625,-0.078125 0.4375,0 0.53125,0 0.6875,0 0.875,-0.015625 1.03125,-0.03125 h 0.5 C 2.296875,-0.03125 2.515625,0 2.5625,0 c 0.046875,0 0.15625,0 0.15625,-0.15625 0,-0.109375 -0.09375,-0.109375 -0.234375,-0.109375 -0.015625,0 -0.171875,0 -0.296875,-0.015625 C 2.015625,-0.296875 2,-0.3125 2,-0.390625 2,-0.4375 2.015625,-0.484375 2.03125,-0.515625 Z M 3.09375,-4.890625 C 3.15625,-5.15625 3.171875,-5.171875 3.5,-5.171875 h 0.875 c 0.65625,0 1.15625,0.1875 1.15625,0.765625 0,0.109375 -0.046875,0.828125 -0.484375,1.265625 -0.125,0.109375 -0.5,0.421875 -1.28125,0.421875 h -1.21875 z m 0,0"
               id="path21" />
          </g>
        </g>
      </g>
    </g>
    <g
       inkscape:label=""
       transform="translate(77.26347,89.985649)"
       id="g47">
      <g
         id="g46"
         transform="matrix(0.352778,0,0,0.352778,-0.890499,-0.677025)">
        <g
           style="fill:#000000;fill-opacity:1"
           id="g43">
          <g
             id="g26"
             transform="translate(1.993,6.8410001)">
            <path
               style="stroke:none"
               d="m 2.421875,-2.375 c 0.734375,0 1.4375,-0.0625 1.890625,-0.21875 0.9375,-0.3125 1.09375,-0.9375 1.09375,-1.28125 0,-0.640625 -0.609375,-1.046875 -1.5,-1.046875 -1.96875,0 -3.375,1.359375 -3.375,3.046875 0,1.25 0.84375,1.96875 2.28125,1.96875 0.28125,0 1.03125,-0.015625 1.6875,-0.265625 C 5.140625,-0.421875 5.578125,-0.875 5.578125,-1 c 0,-0.09375 -0.171875,-0.28125 -0.28125,-0.28125 -0.0625,0 -0.078125,0.03125 -0.15625,0.109375 -0.59375,0.625 -1.4375,0.859375 -2.296875,0.859375 -0.78125,0 -1.0625,-0.421875 -1.0625,-1.046875 0,-0.21875 0.046875,-0.578125 0.15625,-1.015625 z m -0.375,-0.390625 C 2.234375,-3.5625 2.5,-3.859375 2.6875,-4.03125 c 0.375,-0.390625 0.875,-0.5 1.21875,-0.5 0.390625,0 0.84375,0.171875 0.84375,0.65625 0,1.109375 -1.65625,1.109375 -2.703125,1.109375 z m 0,0"
               id="path3" />
          </g>
        </g>
        <g
           style="fill:#000000;fill-opacity:1"
           id="g45">
          <g
             id="g44"
             transform="translate(8.0319996,8.4770002)">
            <path
               style="stroke:none"
               d="M 4.390625,-1.8125 H 3.9375 C 3.875,-1.296875 3.78125,-1.125 3.734375,-1.109375 3.640625,-1.0625 3.03125,-1.0625 2.890625,-1.0625 h -1.09375 c 1.0625,-0.828125 1.5,-1.078125 1.84375,-1.34375 0.546875,-0.4375 0.75,-0.828125 0.75,-1.28125 0,-0.9375 -0.875,-1.5625 -2.078125,-1.5625 -1.015625,0 -1.828125,0.453125 -1.828125,1.203125 0,0.484375 0.390625,0.625 0.609375,0.625 0.28125,0 0.609375,-0.203125 0.609375,-0.609375 0,-0.375 -0.265625,-0.53125 -0.375,-0.5625 C 1.546875,-4.765625 1.875,-4.828125 2.125,-4.828125 c 0.71875,0 1.109375,0.53125 1.109375,1.140625 0,0.65625 -0.421875,1.1875 -0.890625,1.625 l -1.765625,1.640625 c -0.078125,0.09375 -0.09375,0.09375 -0.09375,0.25 V 0 H 4.125 Z m 0,0"
               id="path43" />
          </g>
        </g>
      </g>
    </g>
    <g
       inkscape:label=""
       transform="translate(81.9322,93.463683)"
       id="g53">
      <g
         id="g52"
         transform="matrix(0.352778,0,0,0.352778,-0.890499,-0.677025)">
        <g
           style="fill:#000000;fill-opacity:1"
           id="g49">
          <g
             id="g48"
             transform="translate(1.993,6.8410001)">
            <path
               style="stroke:none"
               d="m 2.421875,-2.375 c 0.734375,0 1.4375,-0.0625 1.890625,-0.21875 0.9375,-0.3125 1.09375,-0.9375 1.09375,-1.28125 0,-0.640625 -0.609375,-1.046875 -1.5,-1.046875 -1.96875,0 -3.375,1.359375 -3.375,3.046875 0,1.25 0.84375,1.96875 2.28125,1.96875 0.28125,0 1.03125,-0.015625 1.6875,-0.265625 C 5.140625,-0.421875 5.578125,-0.875 5.578125,-1 c 0,-0.09375 -0.171875,-0.28125 -0.28125,-0.28125 -0.0625,0 -0.078125,0.03125 -0.15625,0.109375 -0.59375,0.625 -1.4375,0.859375 -2.296875,0.859375 -0.78125,0 -1.0625,-0.421875 -1.0625,-1.046875 0,-0.21875 0.046875,-0.578125 0.15625,-1.015625 z m -0.375,-0.390625 C 2.234375,-3.5625 2.5,-3.859375 2.6875,-4.03125 c 0.375,-0.390625 0.875,-0.5 1.21875,-0.5 0.390625,0 0.84375,0.171875 0.84375,0.65625 0,1.109375 -1.65625,1.109375 -2.703125,1.109375 z m 0,0"
               id="path47" />
          </g>
        </g>
        <g
           style="fill:#000000;fill-opacity:1"
           id="g51">
          <g
             id="g50"
             transform="translate(8.0319996,8.4770002)">
            <path
               style="stroke:none"
               d="M 3.015625,-4.96875 C 3.015625,-5.25 2.96875,-5.25 2.65625,-5.25 c -0.484375,0.390625 -1.125,0.515625 -1.75,0.515625 H 0.734375 V -4.3125 H 0.90625 c 0.203125,0 0.640625,-0.03125 1.109375,-0.171875 v 4.0625 H 0.8125 V 0 c 0.28125,-0.03125 1.34375,-0.03125 1.703125,-0.03125 0.359375,0 1.390625,0 1.6875,0.03125 v -0.421875 h -1.1875 z m 0,0"
               id="path49" />
          </g>
        </g>
      </g>
    </g>
    <g
       inkscape:label=""
       transform="translate(82.715568,88.167471)"
       id="g60">
      <g
         id="g59"
         transform="matrix(0.352778,0,0,0.352778,-0.890499,-0.677025)">
        <g
           style="fill:#000000;fill-opacity:1"
           id="g56">
          <g
             id="g54"
             transform="translate(1.993,6.8410001)">
            <path
               style="stroke:none"
               d="m 2.421875,-2.375 c 0.734375,0 1.4375,-0.0625 1.890625,-0.21875 0.9375,-0.3125 1.09375,-0.9375 1.09375,-1.28125 0,-0.640625 -0.609375,-1.046875 -1.5,-1.046875 -1.96875,0 -3.375,1.359375 -3.375,3.046875 0,1.25 0.84375,1.96875 2.28125,1.96875 0.28125,0 1.03125,-0.015625 1.6875,-0.265625 C 5.140625,-0.421875 5.578125,-0.875 5.578125,-1 c 0,-0.09375 -0.171875,-0.28125 -0.28125,-0.28125 -0.0625,0 -0.078125,0.03125 -0.15625,0.109375 -0.59375,0.625 -1.4375,0.859375 -2.296875,0.859375 -0.78125,0 -1.0625,-0.421875 -1.0625,-1.046875 0,-0.21875 0.046875,-0.578125 0.15625,-1.015625 z m -0.375,-0.390625 C 2.234375,-3.5625 2.5,-3.859375 2.6875,-4.03125 c 0.375,-0.390625 0.875,-0.5 1.21875,-0.5 0.390625,0 0.84375,0.171875 0.84375,0.65625 0,1.109375 -1.65625,1.109375 -2.703125,1.109375 z m 0,0"
               id="path53" />
          </g>
        </g>
        <g
           style="fill:#000000;fill-opacity:1"
           id="g58">
          <g
             id="g57"
             transform="translate(8.0319996,8.4770002)">
            <path
               style="stroke:none"
               d="m 2.265625,-2.609375 c 0.921875,0 0.9375,0.78125 0.9375,1.171875 0,0.359375 0,1.171875 -0.90625,1.171875 -0.171875,0 -0.625,-0.015625 -1.015625,-0.28125 0.125,-0.046875 0.421875,-0.21875 0.421875,-0.609375 0,-0.375 -0.28125,-0.640625 -0.65625,-0.640625 -0.34375,0 -0.640625,0.234375 -0.640625,0.65625 0,0.765625 0.828125,1.25 1.921875,1.25 1.5625,0 2.140625,-0.84375 2.140625,-1.53125 0,-0.65625 -0.5,-1.203125 -1.359375,-1.390625 0.21875,-0.09375 1.09375,-0.4375 1.09375,-1.296875 C 4.203125,-4.75 3.546875,-5.25 2.359375,-5.25 c -1.03125,0 -1.6875,0.5625 -1.6875,1.203125 0,0.453125 0.359375,0.609375 0.59375,0.609375 0.3125,0 0.59375,-0.21875 0.59375,-0.59375 0,-0.171875 -0.0625,-0.46875 -0.453125,-0.5625 0.359375,-0.3125 0.828125,-0.3125 0.90625,-0.3125 0.734375,0 0.734375,0.53125 0.734375,0.765625 0,0.578125 -0.265625,0.875 -0.296875,0.90625 -0.21875,0.25 -0.375,0.25 -0.796875,0.28125 -0.25,0.015625 -0.328125,0.015625 -0.328125,0.1875 0,0.15625 0.109375,0.15625 0.25,0.15625 z m 0,0"
               id="path56" />
          </g>
        </g>
      </g>
    </g>
  </g>
</svg>
